<?xml version="1.0" encoding="iso-8859-1"?>
<!-- Generator: Adobe Illustrator 19.0.0, SVG Export Plug-In . SVG Version: 6.00 Build 0)  -->
<svg version="1.1" id="Layer_1" xmlns="http://www.w3.org/2000/svg" xmlns:xlink="http://www.w3.org/1999/xlink" x="0px" y="0px"
	 viewBox="0 0 512 512" style="enable-background:new 0 0 512 512;" xml:space="preserve">
<rect x="450.207" y="158.897" style="fill:#707487;" width="17.655" height="229.517"/>
<path style="fill:#5B5D6E;" d="M450.207,397.241h26.483c4.875,0,8.828-3.953,8.828-8.828l0,0c0-4.875-3.953-8.828-8.828-8.828
	h-26.483c-4.875,0-8.828,3.953-8.828,8.828l0,0C441.379,393.289,445.332,397.241,450.207,397.241z"/>
<rect x="44.138" y="158.897" style="fill:#707487;" width="17.655" height="229.517"/>
<path style="fill:#D2B98F;" d="M503.172,300.138H8.828c-4.875,0-8.828-3.953-8.828-8.828v-8.828c0-4.875,3.953-8.828,8.828-8.828
	h494.345c4.875,0,8.828,3.953,8.828,8.828v8.828C512,296.185,508.047,300.138,503.172,300.138z"/>
<g>
	<path style="fill:#FFDCA0;" d="M485.517,238.345H26.483c-4.875,0-8.828-3.953-8.828-8.828v-35.31c0-4.875,3.953-8.828,8.828-8.828
		h459.034c4.875,0,8.828,3.953,8.828,8.828v35.31C494.345,234.392,490.392,238.345,485.517,238.345z"/>
	<path style="fill:#FFDCA0;" d="M485.517,167.724H26.483c-4.875,0-8.828-3.953-8.828-8.828v-35.31c0-4.875,3.953-8.828,8.828-8.828
		h459.034c4.875,0,8.828,3.953,8.828,8.828v35.31C494.345,163.772,490.392,167.724,485.517,167.724z"/>
</g>
<g>
	<circle style="fill:#A5967D;" cx="52.966" cy="141.241" r="8.828"/>
	<circle style="fill:#A5967D;" cx="459.034" cy="141.241" r="8.828"/>
	<circle style="fill:#A5967D;" cx="52.966" cy="211.862" r="8.828"/>
	<circle style="fill:#A5967D;" cx="459.034" cy="211.862" r="8.828"/>
</g>
<path style="fill:#5B5D6E;" d="M61.793,397.241H35.31c-4.875,0-8.828-3.953-8.828-8.828l0,0c0-4.875,3.953-8.828,8.828-8.828h26.483
	c4.875,0,8.828,3.953,8.828,8.828l0,0C70.621,393.289,66.668,397.241,61.793,397.241z"/>
<g>
</g>
<g>
</g>
<g>
</g>
<g>
</g>
<g>
</g>
<g>
</g>
<g>
</g>
<g>
</g>
<g>
</g>
<g>
</g>
<g>
</g>
<g>
</g>
<g>
</g>
<g>
</g>
<g>
</g>
</svg>
