<?xml version="1.0" encoding="UTF-8" standalone="no"?>
<svg
   xmlns:dc="http://purl.org/dc/elements/1.1/"
   xmlns:cc="http://creativecommons.org/ns#"
   xmlns:rdf="http://www.w3.org/1999/02/22-rdf-syntax-ns#"
   xmlns:svg="http://www.w3.org/2000/svg"
   xmlns="http://www.w3.org/2000/svg"
   xmlns:sodipodi="http://sodipodi.sourceforge.net/DTD/sodipodi-0.dtd"
   xmlns:inkscape="http://www.inkscape.org/namespaces/inkscape"
   version="1.1"
   id="Capa_1"
   x="0px"
   y="0px"
   viewBox="0 0 476.8 476.8"
   style="enable-background:new 0 0 476.8 476.8;"
   xml:space="preserve"
   sodipodi:docname="big-beach-umbrella-svgrepo-com.svg"
   inkscape:version="1.0.1 (3bc2e813f5, 2020-09-07)"><metadata
   id="metadata39"><rdf:RDF><cc:Work
       rdf:about=""><dc:format>image/svg+xml</dc:format><dc:type
         rdf:resource="http://purl.org/dc/dcmitype/StillImage" /></cc:Work></rdf:RDF></metadata><defs
   id="defs37" /><sodipodi:namedview
   pagecolor="#ffffff"
   bordercolor="#666666"
   borderopacity="1"
   objecttolerance="10"
   gridtolerance="10"
   guidetolerance="10"
   inkscape:pageopacity="0"
   inkscape:pageshadow="2"
   inkscape:window-width="1366"
   inkscape:window-height="745"
   id="namedview35"
   showgrid="false"
   inkscape:zoom="1.2122484"
   inkscape:cx="79.60415"
   inkscape:cy="238.39999"
   inkscape:window-x="-8"
   inkscape:window-y="-8"
   inkscape:window-maximized="1"
   inkscape:current-layer="Capa_1" />
<path
   d="M457.061,253.876c-0.144-60.651-22.833-117.666-63.924-160.602c-36.288-37.917-83.103-60.865-133.582-65.889v-6.22  C259.555,9.495,250.061,0,238.39,0s-21.166,9.495-21.166,21.166v6.22c-50.479,5.024-97.294,27.972-133.582,65.889  C42.42,136.347,19.718,193.589,19.718,254.456c0,4.418,3.582,8,8,8s8-3.582,8-8c0-23.215,26.772-42.102,59.68-42.102  s59.68,18.887,59.68,42.102c0,4.418,3.582,8,8,8s8-3.582,8-8c0-14.143,14.776-24.237,23.584-28.995  c7.321-3.955,15.177-6.854,22.563-8.815V468.8c0,4.418,3.582,8,8,8h13.312h13.02h177.494c4.418,0,8-3.582,8-8s-3.582-8-8-8H259.555  V216.647c7.385,1.961,15.242,4.86,22.563,8.815c8.808,4.758,23.584,14.852,23.584,28.995c0,4.418,3.582,8,8,8  c0.126,0,0.248-0.013,0.372-0.019c0.124,0.006,0.246,0.019,0.372,0.019c4.418,0,8-3.582,8-8c0-2.156-0.023-4.302-0.044-6.449  c4.413-20.165,29.18-35.653,58.98-35.653c32.908,0,59.68,18.887,59.68,42.102c0,4.418,3.582,8,8,8c0.007,0,0.013,0,0.02,0  c4.418,0,8-3.582,8-8C457.082,254.261,457.075,254.068,457.061,253.876z M233.224,26.331v-5.166c0-2.848,2.317-5.166,5.166-5.166  s5.166,2.317,5.166,5.166v5.166H233.224z M148.015,212.6c-14.151-10.476-32.838-16.246-52.617-16.246s-38.465,5.77-52.617,16.246  c-1.26,0.933-2.471,1.892-3.634,2.878c15.46-86.751,81.54-155.094,164.82-170.073c-9.955,11.813-18.909,28.914-26.401,50.811  c-11.634,34.005-19.07,76.902-21.558,123.337C153.606,217.102,150.949,214.772,148.015,212.6z M243.555,460.8h-5.02h-5.312V213.739  c1.847-0.163,3.589-0.253,5.166-0.253s3.318,0.09,5.166,0.253V460.8z M433.999,212.6c-14.151-10.476-32.837-16.246-52.617-16.246  s-38.466,5.77-52.617,16.246c-2.644,1.957-5.07,4.039-7.282,6.225c-1.926-35.226-6.716-68.462-14.131-97.598  c-1.089-4.282-5.445-6.868-9.726-5.78c-4.282,1.09-6.87,5.444-5.78,9.726c7.304,28.7,11.976,61.599,13.77,96.529  c-4.287-3.726-9.351-7.186-15.148-10.317c-15.629-8.443-35.778-13.898-51.333-13.898c-0.075,0-0.147,0.009-0.221,0.011  c-0.172-0.001-0.352-0.011-0.523-0.011c-4.572,0-9.546,0.483-14.681,1.363c-0.036,0.007-0.074,0.011-0.11,0.018  c-12.302,2.122-25.54,6.574-36.542,12.517c-1.113,0.601-2.19,1.218-3.249,1.843c-0.182,0.107-0.366,0.213-0.546,0.322  c-1.004,0.602-1.981,1.214-2.934,1.837c-0.189,0.123-0.374,0.247-0.561,0.371c-0.962,0.639-1.904,1.286-2.813,1.945  c-0.084,0.061-0.165,0.124-0.248,0.185c-0.872,0.638-1.716,1.286-2.538,1.942c-0.127,0.102-0.258,0.202-0.384,0.304  c-0.639,0.517-1.267,1.039-1.875,1.567c2.333-45.463,9.514-87.331,20.795-120.305c12.653-36.984,29.732-59.064,45.685-59.064  c0.398,0,0.794,0.011,1.192,0.014c11.589,0.296,23.843,12.078,34.559,33.266c1.409,2.785,4.224,4.391,7.146,4.391  c1.214,0,2.447-0.277,3.604-0.863c3.943-1.994,5.522-6.807,3.529-10.749c-4.821-9.533-9.744-16.99-14.613-22.808  c82.812,15.341,148.428,83.489,163.827,169.896C436.469,214.492,435.259,213.532,433.999,212.6z"
   id="path2" />
<g
   id="g4">
</g>
<g
   id="g6">
</g>
<g
   id="g8">
</g>
<g
   id="g10">
</g>
<g
   id="g12">
</g>
<g
   id="g14">
</g>
<g
   id="g16">
</g>
<g
   id="g18">
</g>
<g
   id="g20">
</g>
<g
   id="g22">
</g>
<g
   id="g24">
</g>
<g
   id="g26">
</g>
<g
   id="g28">
</g>
<g
   id="g30">
</g>
<g
   id="g32">
</g>
<path
   style="fill:#ffff00;stroke-width:0.824914"
   d="m 153.84636,216.94198 c -4.69546,-5.2232 -18.57447,-13.1742 -28.45951,-16.30388 -11.15693,-3.53237 -14.04998,-3.89733 -30.521801,-3.85041 -14.664055,0.0417 -16.787131,0.23565 -24.02056,2.19356 -9.311585,2.52041 -18.754509,6.71874 -25.559427,11.36373 -5.951086,4.06217 -5.924518,4.20356 -2.045653,-10.88666 9.529206,-37.07215 28.5893,-70.64802 55.397179,-97.58652 21.232042,-21.335493 45.517462,-36.911599 74.182782,-47.579115 7.37708,-2.745307 28.47334,-8.358679 29.09129,-7.740722 0.21914,0.219134 -0.59115,1.574479 -1.80064,3.011879 -3.17258,3.770391 -10.66579,16.742494 -14.54743,25.184213 -14.06334,30.584735 -24.59567,77.194865 -28.65812,126.824645 l -1.40828,17.20453 z"
   id="path41" /><path
   style="fill:#e6ac00;stroke-width:0.824914;fill-opacity:1"
   d="m 172.81937,215.93876 c 0,-2.44846 0.57129,-10.5535 1.26954,-18.01118 8.93978,-95.48221 39.48259,-162.593574 70.21672,-154.286388 4.68032,1.265051 12.62343,7.283714 17.21814,13.046539 2.09099,2.622577 6.0508,8.585764 8.79958,13.251526 2.74879,4.665761 5.668,8.841885 6.48714,9.280276 2.26579,1.212613 7.60881,0.952012 9.63922,-0.470142 0.99506,-0.696968 2.2493,-2.73613 2.7872,-4.531469 0.92202,-3.077401 0.79933,-3.606914 -2.14308,-9.250431 -1.71659,-3.292398 -5.09674,-8.865428 -7.51144,-12.38451 -5.03046,-7.331167 -5.84436,-6.96962 7.6679,-3.406213 34.48203,9.093486 64.46101,26.517424 90.60185,52.658272 28.08743,28.08742 46.57131,61.02641 56.49643,100.67881 1.43491,5.73264 2.47051,10.5614 2.30135,10.73056 -0.16916,0.16916 -2.15532,-0.92909 -4.4137,-2.44055 -14.93622,-9.99637 -30.8107,-14.47445 -51.3109,-14.47445 -22.0004,0 -40.63857,6.241 -56.2988,18.85168 -1.12157,0.90316 -2.32801,1.46363 -2.68097,1.24549 -0.35297,-0.21814 -0.64175,-2.36436 -0.64175,-4.76939 0,-10.77772 -4.1758,-44.94642 -7.91606,-64.77363 -5.38481,-28.54496 -6.82458,-31.80813 -14.03432,-31.80813 -3.10219,0 -4.11517,0.40735 -5.75564,2.31451 -2.62184,3.04806 -2.55942,5.90619 0.41805,19.14572 4.78929,21.29597 9.14558,52.16609 10.45704,74.10228 l 0.58189,9.73293 -5.28032,-3.67412 c -15.59751,-10.85296 -37.3341,-18.22453 -56.8995,-19.29645 -21.48888,-1.17729 -50.52041,7.7434 -66.96214,20.57587 l -3.09343,2.41436 z"
   id="path866" /><path
   style="fill:#ffffff;fill-opacity:1;stroke-width:0.824914"
   d="m 233.86297,22.400515 c 0,-2.025157 0.54536,-3.665347 1.50855,-4.537024 3.41704,-3.09238 7.5655,-0.52596 7.5655,4.680355 v 3.028472 h -4.53703 -4.53702 z"
   id="path868" /><path
   style="fill:#ffffff;fill-opacity:1;stroke-width:0.824914"
   d="m 234.0665,337.18338 0.20893,-123.11833 h 4.12456 4.12457 l 0.20893,123.11833 0.20892,123.11834 h -4.54242 -4.54241 z"
   id="path870" /><path
   style="fill:#ffffff;fill-opacity:1;stroke-width:0.824914"
   d="m 233.86297,22.400515 c 0,-2.025157 0.54536,-3.665347 1.50855,-4.537024 3.41704,-3.09238 7.5655,-0.52596 7.5655,4.680355 v 3.028472 h -4.53703 -4.53702 z"
   id="path872" /></svg>
