<?xml version="1.0" encoding="UTF-8" standalone="no"?>
<svg
   xmlns:dc="http://purl.org/dc/elements/1.1/"
   xmlns:cc="http://creativecommons.org/ns#"
   xmlns:rdf="http://www.w3.org/1999/02/22-rdf-syntax-ns#"
   xmlns:svg="http://www.w3.org/2000/svg"
   xmlns="http://www.w3.org/2000/svg"
   xmlns:sodipodi="http://sodipodi.sourceforge.net/DTD/sodipodi-0.dtd"
   xmlns:inkscape="http://www.inkscape.org/namespaces/inkscape"
   version="1.1"
   id="Capa_1"
   x="0px"
   y="0px"
   viewBox="0 0 476.8 476.8"
   style="enable-background:new 0 0 476.8 476.8;"
   xml:space="preserve"
   sodipodi:docname="big-beach-umbrella-svgrepo-com-nudism.svg"
   inkscape:version="1.0.1 (3bc2e813f5, 2020-09-07)"><metadata
   id="metadata86"><rdf:RDF><cc:Work
       rdf:about=""><dc:format>image/svg+xml</dc:format><dc:type
         rdf:resource="http://purl.org/dc/dcmitype/StillImage" /><dc:title /></cc:Work></rdf:RDF></metadata><defs
   id="defs84" /><sodipodi:namedview
   pagecolor="#ffffff"
   bordercolor="#666666"
   borderopacity="1"
   objecttolerance="10"
   gridtolerance="10"
   guidetolerance="10"
   inkscape:pageopacity="0"
   inkscape:pageshadow="2"
   inkscape:window-width="1366"
   inkscape:window-height="745"
   id="namedview82"
   showgrid="false"
   inkscape:zoom="2.8937883"
   inkscape:cx="238.4"
   inkscape:cy="30.051529"
   inkscape:window-x="-8"
   inkscape:window-y="-8"
   inkscape:window-maximized="1"
   inkscape:current-layer="Capa_1"
   inkscape:document-rotation="0" />
<path
   d="M 259.555,21.165 C 259.555,9.495 250.061,0 238.39,0 c -11.671,0 -21.166,9.495 -21.166,21.166 -2.42132,211.45992 0.26561,133.78159 0.001,195.48 V 468.8 c 0,4.418 3.582,8 8,8 h 13.312 13.02 177.494 c 4.418,0 8,-3.582 8,-8 0,-4.418 -3.582,-8 -8,-8 H 259.555 L 258.25912,216.647 C 259.76875,54.635575 259.555,38.548291 259.555,21.165 Z M 238.39,15.999 c -158.926667,-10.666 -79.46333,-5.333 0,0 z m 0.145,444.801 v 0 h -9.19964 c -2.87782,-200.12058 -1.48619,-353.93377 2.34604,-418.739239 1.42191,-24.045501 2.44244,-22.460648 3.25292,-25.370625 2.01754,2.520849 1.83699,6.686362 1.08216,22.881558 C 233.48903,93.799366 235.57404,244.6158 238.535,460.8 Z"
   id="path49"
   sodipodi:nodetypes="csccssccsssccccccccscsc" />
<g
   id="g51">
</g>
<g
   id="g53">
</g>
<g
   id="g55">
</g>
<g
   id="g57">
</g>
<g
   id="g59">
</g>
<g
   id="g61">
</g>
<g
   id="g63">
</g>
<g
   id="g65">
</g>
<g
   id="g67">
</g>
<g
   id="g69">
</g>
<g
   id="g71">
</g>
<g
   id="g73">
</g>
<g
   id="g75">
</g>
<g
   id="g77">
</g>
<g
   id="g79">
</g>
<path
   style="fill:#ffffff;stroke:none;stroke-width:0.345568"
   d="m 228.50168,165.77327 c 0.81471,-80.416711 3.26197,-140.370916 6.01013,-147.23925 l 0.56578,-1.414019 0.53811,1.195855 c 0.66661,1.481418 0.6947,12.305501 0.0681,26.24952 -0.74493,16.578338 -1.12749,61.689564 -0.87988,103.756724 l 0.2395,40.69061 h -3.38861 -3.38861 z"
   id="path22" /></svg>
