<?xml version="1.0" encoding="UTF-8" standalone="no"?>
<svg
   xmlns:dc="http://purl.org/dc/elements/1.1/"
   xmlns:cc="http://creativecommons.org/ns#"
   xmlns:rdf="http://www.w3.org/1999/02/22-rdf-syntax-ns#"
   xmlns:svg="http://www.w3.org/2000/svg"
   xmlns="http://www.w3.org/2000/svg"
   xmlns:sodipodi="http://sodipodi.sourceforge.net/DTD/sodipodi-0.dtd"
   xmlns:inkscape="http://www.inkscape.org/namespaces/inkscape"
   version="1.1"
   id="Capa_1"
   x="0px"
   y="0px"
   viewBox="0 0 476.8 476.8"
   style="enable-background:new 0 0 476.8 476.8;"
   xml:space="preserve"
   sodipodi:docname="big-beach-umbrella-svgrepo-com-nudism.svg"
   inkscape:version="1.0.1 (3bc2e813f5, 2020-09-07)"><metadata
   id="metadata86"><rdf:RDF><cc:Work
       rdf:about=""><dc:format>image/svg+xml</dc:format><dc:type
         rdf:resource="http://purl.org/dc/dcmitype/StillImage" /><dc:title /></cc:Work></rdf:RDF></metadata><defs
   id="defs84" /><sodipodi:namedview
   pagecolor="#ffffff"
   bordercolor="#666666"
   borderopacity="1"
   objecttolerance="10"
   gridtolerance="10"
   guidetolerance="10"
   inkscape:pageopacity="0"
   inkscape:pageshadow="2"
   inkscape:window-width="1366"
   inkscape:window-height="745"
   id="namedview82"
   showgrid="false"
   inkscape:zoom="0.95459415"
   inkscape:cx="238.4"
   inkscape:cy="236.14687"
   inkscape:window-x="-8"
   inkscape:window-y="-8"
   inkscape:window-maximized="1"
   inkscape:current-layer="Capa_1"
   inkscape:document-rotation="0" />
<path
   d="M 259.555,21.165 C 259.555,9.495 250.061,0 238.39,0 c -11.671,0 -21.166,9.495 -21.166,21.166 -2.42132,211.45992 0.26561,133.78159 0.001,195.48 V 468.8 c 0,4.418 3.582,8 8,8 h 13.312 13.02 177.494 c 4.418,0 8,-3.582 8,-8 0,-4.418 -3.582,-8 -8,-8 H 259.555 L 258.25912,216.647 C 259.76875,54.635575 259.555,38.548291 259.555,21.165 Z M 238.39,15.999 c -158.926667,-10.666 -79.46333,-5.333 0,0 z m 0.145,444.801 v 0 h -9.19964 c -2.87782,-200.12058 -1.48619,-353.93377 2.34604,-418.739239 1.42191,-24.045501 2.44244,-22.460648 3.25292,-25.370625 2.01754,2.520849 1.83699,6.686362 1.08216,22.881558 C 233.48903,93.799366 235.57404,244.6158 238.535,460.8 Z"
   id="path49"
   sodipodi:nodetypes="csccssccsssccccccccscsc" />
<g
   id="g51">
</g>
<g
   id="g53">
</g>
<g
   id="g55">
</g>
<g
   id="g57">
</g>
<g
   id="g59">
</g>
<g
   id="g61">
</g>
<g
   id="g63">
</g>
<g
   id="g65">
</g>
<g
   id="g67">
</g>
<g
   id="g69">
</g>
<g
   id="g71">
</g>
<g
   id="g73">
</g>
<g
   id="g75">
</g>
<g
   id="g77">
</g>
<g
   id="g79">
</g>
<path
   style="fill:#ffffff;stroke:none;stroke-width:0.345568"
   d="m 228.50168,165.77327 c 0.81471,-80.416711 3.26197,-140.370916 6.01013,-147.23925 l 0.56578,-1.414019 0.53811,1.195855 c 0.66661,1.481418 0.6947,12.305501 0.0681,26.24952 -0.74493,16.578338 -1.12749,61.689564 -0.87988,103.756724 l 0.2395,40.69061 h -3.38861 -3.38861 z"
   id="path22" /><path
   style="fill:#ffaaaa;stroke-width:0.345568"
   d="m 228.38201,178.3865 c 0.002,-5.84442 0.15429,-20.1898 0.33862,-31.87863 1.25459,-79.554879 3.49985,-126.311164 6.19495,-129.006268 0.57133,-0.571331 1.15461,2.086453 1.31329,5.984139 0.089,2.185716 -0.0902,9.883239 -0.39808,17.105605 -0.88437,20.742997 -1.28536,62.955244 -1.02337,107.730754 l 0.23808,40.69061 h -3.33348 -3.33349 z"
   id="path24" /><path
   style="fill:#ffaaaa;stroke-width:0.345568"
   d="m 228.6028,388.26421 c -0.35195,-24.02203 -0.69398,-185.49472 -0.40808,-192.65403 l 0.25875,-6.4794 h 3.20696 3.20696 l 0.20399,7.68888 c 0.1122,4.22889 0.29105,18.57427 0.39746,31.87863 0.1064,13.30436 0.41635,42.46164 0.68877,64.79396 0.27242,22.33232 0.65336,53.58892 0.84653,69.45912 0.19318,15.8702 0.41874,31.45963 0.50126,34.64317 l 0.15003,5.78826 h -4.41556 -4.41557 z"
   id="path26" /><path
   style="fill:#ffd5d5;stroke-width:0.345568"
   d="m 229.2837,441.38834 c -0.12025,-10.50094 -0.31445,-23.33015 -0.43155,-28.50934 l -0.21291,-9.41672 h 4.48463 4.48463 l 0.22583,19.95653 c 0.1242,10.9761 0.32441,23.80531 0.44491,28.50935 l 0.21908,8.5528 h -4.49798 -4.49799 z"
   id="path28" /><path
   style="fill:#ffd5d5;stroke-width:0.345568"
   d="m 228.94893,398.8835 c -0.12444,-2.32826 -0.32916,-32.57408 -0.45492,-67.21293 l -0.22865,-62.97973 h 3.6462 3.6462 l 0.20812,8.38002 c 0.11446,4.60901 0.44393,29.52877 0.73216,55.37724 0.28823,25.84847 0.62515,52.32328 0.74871,58.83291 l 0.22465,11.8357 h -4.14811 -4.14811 z"
   id="path30" /><path
   style="fill:#ffd5d5;stroke-width:0.345568"
   d="m 228.37853,229.90205 c 0,-21.16818 0.0972,-38.97356 0.21598,-39.56751 l 0.21598,-1.0799 h 2.86465 2.86465 l 0.2097,2.50537 c 0.19079,2.27954 0.8801,57.63886 0.88423,71.01418 l 0.002,5.61547 h -3.62846 -3.62847 z"
   id="path32" /><path
   style="fill:#ffd5d5;stroke-width:0.345568"
   d="m 228.38594,187.95876 c 0.3137,-40.25109 1.56088,-99.650747 2.63745,-125.613886 l 0.22568,-5.442693 h 2.03482 2.03482 l -0.27359,2.678151 c -0.15047,1.472982 -0.27358,31.174532 -0.27358,66.003438 v 63.3253 h -3.1965 -3.19651 z"
   id="path34" /><path
   style="fill:#ffaaaa;stroke-width:0.345568"
   d="m 231.33835,55.057404 c 0.0799,-0.997827 0.30624,-5.002094 0.5029,-8.898371 0.68294,-13.530457 1.84176,-25.064084 2.76126,-27.482499 0.36777,-0.967295 0.41253,-0.987323 0.7718,-0.345355 0.65697,1.173921 0.7259,7.437762 0.25584,23.249081 l -0.4546,15.291374 h -1.99127 -1.99127 z"
   id="path36" /><path
   style="fill:#ffaaaa;stroke-width:1.04757"
   d="m 229.60777,401.05277 c -0.34972,-0.91136 -0.63586,-30.84554 -0.63586,-66.52041 v -64.86339 h 3.01958 3.01957 l 0.64826,43.73587 c 0.35654,24.05472 0.79847,53.98891 0.98207,66.52041 l 0.33382,22.78455 h -3.36579 c -2.10279,0 -3.60439,-0.62179 -4.00165,-1.65703 z"
   id="path38" /><path
   style="fill:#ffaaaa;stroke-width:1.04757"
   d="m 230.01948,447.92168 c 0,-6.82233 -0.30931,-19.55025 -0.68735,-28.28427 l -0.68734,-15.88004 h 4.35382 4.35382 v 23.42402 c 0,12.8832 0.29978,25.61113 0.66618,28.28427 l 0.66617,4.86025 h -4.33265 -4.33265 z"
   id="path40" /><path
   style="fill:#ffaaaa;stroke-width:1.04757"
   d="m 228.39391,234.05174 c 0,-19.30139 0.14145,-27.19742 0.31433,-17.54672 0.17288,9.6507 0.17288,25.44275 0,35.09345 -0.17288,9.65069 -0.31433,1.75467 -0.31433,-17.54673 z"
   id="path42" /><path
   style="fill:#ffaaaa;stroke-width:1.04757"
   d="m 228.97191,228.81391 v -38.75992 h 2.45264 2.45264 l 0.68731,21.2132 c 0.37801,11.66726 0.68854,29.10923 0.69005,38.75993 l 0.003,17.54672 h -3.14269 -3.1427 z"
   id="path44" /><path
   style="fill:#ffaaaa;stroke-width:1.04757"
   d="m 228.9642,174.07861 c -0.0117,-21.11862 2.11952,-112.029571 2.68914,-114.708433 0.27565,-1.296362 1.08146,-2.357097 1.79068,-2.357188 1.01016,-1.31e-4 1.2294,14.182935 1.01204,65.472851 l -0.27745,65.47301 h -2.60335 -2.60335 z"
   id="path46" /><path
   style="fill:#ffaaaa;stroke-width:1.04757"
   d=""
   id="path48" /></svg>
