<?xml version="1.0" encoding="iso-8859-1"?>
<!-- Generator: Adobe Illustrator 17.1.0, SVG Export Plug-In . SVG Version: 6.00 Build 0)  -->
<!DOCTYPE svg PUBLIC "-//W3C//DTD SVG 1.1//EN" "http://www.w3.org/Graphics/SVG/1.1/DTD/svg11.dtd">
<svg version="1.1" id="Capa_1" xmlns="http://www.w3.org/2000/svg" xmlns:xlink="http://www.w3.org/1999/xlink" x="0px" y="0px"
	 viewBox="0 0 476.8 476.8" style="enable-background:new 0 0 476.8 476.8;" xml:space="preserve">
<path d="M457.061,253.876c-0.144-60.651-22.833-117.666-63.924-160.602c-36.288-37.917-83.103-60.865-133.582-65.889v-6.22
	C259.555,9.495,250.061,0,238.39,0s-21.166,9.495-21.166,21.166v6.22c-50.479,5.024-97.294,27.972-133.582,65.889
	C42.42,136.347,19.718,193.589,19.718,254.456c0,4.418,3.582,8,8,8s8-3.582,8-8c0-23.215,26.772-42.102,59.68-42.102
	s59.68,18.887,59.68,42.102c0,4.418,3.582,8,8,8s8-3.582,8-8c0-14.143,14.776-24.237,23.584-28.995
	c7.321-3.955,15.177-6.854,22.563-8.815V468.8c0,4.418,3.582,8,8,8h13.312h13.02h177.494c4.418,0,8-3.582,8-8s-3.582-8-8-8H259.555
	V216.647c7.385,1.961,15.242,4.86,22.563,8.815c8.808,4.758,23.584,14.852,23.584,28.995c0,4.418,3.582,8,8,8
	c0.126,0,0.248-0.013,0.372-0.019c0.124,0.006,0.246,0.019,0.372,0.019c4.418,0,8-3.582,8-8c0-2.156-0.023-4.302-0.044-6.449
	c4.413-20.165,29.18-35.653,58.98-35.653c32.908,0,59.68,18.887,59.68,42.102c0,4.418,3.582,8,8,8c0.007,0,0.013,0,0.02,0
	c4.418,0,8-3.582,8-8C457.082,254.261,457.075,254.068,457.061,253.876z M233.224,26.331v-5.166c0-2.848,2.317-5.166,5.166-5.166
	s5.166,2.317,5.166,5.166v5.166H233.224z M148.015,212.6c-14.151-10.476-32.838-16.246-52.617-16.246s-38.465,5.77-52.617,16.246
	c-1.26,0.933-2.471,1.892-3.634,2.878c15.46-86.751,81.54-155.094,164.82-170.073c-9.955,11.813-18.909,28.914-26.401,50.811
	c-11.634,34.005-19.07,76.902-21.558,123.337C153.606,217.102,150.949,214.772,148.015,212.6z M243.555,460.8h-5.02h-5.312V213.739
	c1.847-0.163,3.589-0.253,5.166-0.253s3.318,0.09,5.166,0.253V460.8z M433.999,212.6c-14.151-10.476-32.837-16.246-52.617-16.246
	s-38.466,5.77-52.617,16.246c-2.644,1.957-5.07,4.039-7.282,6.225c-1.926-35.226-6.716-68.462-14.131-97.598
	c-1.089-4.282-5.445-6.868-9.726-5.78c-4.282,1.09-6.87,5.444-5.78,9.726c7.304,28.7,11.976,61.599,13.77,96.529
	c-4.287-3.726-9.351-7.186-15.148-10.317c-15.629-8.443-35.778-13.898-51.333-13.898c-0.075,0-0.147,0.009-0.221,0.011
	c-0.172-0.001-0.352-0.011-0.523-0.011c-4.572,0-9.546,0.483-14.681,1.363c-0.036,0.007-0.074,0.011-0.11,0.018
	c-12.302,2.122-25.54,6.574-36.542,12.517c-1.113,0.601-2.19,1.218-3.249,1.843c-0.182,0.107-0.366,0.213-0.546,0.322
	c-1.004,0.602-1.981,1.214-2.934,1.837c-0.189,0.123-0.374,0.247-0.561,0.371c-0.962,0.639-1.904,1.286-2.813,1.945
	c-0.084,0.061-0.165,0.124-0.248,0.185c-0.872,0.638-1.716,1.286-2.538,1.942c-0.127,0.102-0.258,0.202-0.384,0.304
	c-0.639,0.517-1.267,1.039-1.875,1.567c2.333-45.463,9.514-87.331,20.795-120.305c12.653-36.984,29.732-59.064,45.685-59.064
	c0.398,0,0.794,0.011,1.192,0.014c11.589,0.296,23.843,12.078,34.559,33.266c1.409,2.785,4.224,4.391,7.146,4.391
	c1.214,0,2.447-0.277,3.604-0.863c3.943-1.994,5.522-6.807,3.529-10.749c-4.821-9.533-9.744-16.99-14.613-22.808
	c82.812,15.341,148.428,83.489,163.827,169.896C436.469,214.492,435.259,213.532,433.999,212.6z"/>
<g>
</g>
<g>
</g>
<g>
</g>
<g>
</g>
<g>
</g>
<g>
</g>
<g>
</g>
<g>
</g>
<g>
</g>
<g>
</g>
<g>
</g>
<g>
</g>
<g>
</g>
<g>
</g>
<g>
</g>
</svg>
