<?xml version="1.0" encoding="iso-8859-1"?>
<!-- Generator: Adobe Illustrator 19.0.0, SVG Export Plug-In . SVG Version: 6.00 Build 0)  -->
<svg version="1.1" id="Capa_1" xmlns="http://www.w3.org/2000/svg" xmlns:xlink="http://www.w3.org/1999/xlink" x="0px" y="0px"
	 viewBox="0 0 58 58" style="enable-background:new 0 0 58 58;" xml:space="preserve">
<rect x="21.812" y="10" style="fill:#A4E869;" width="15" height="4"/>
<path style="fill:#88C057;" d="M38.812,10h-19v0c0-2.209,1.791-4,4-4h11C37.022,6,38.812,7.791,38.812,10L38.812,10z"/>
<path style="fill:#BDC3C7;" d="M32.812,3V0h-7v3h0.653c0.744,0,1.347,0.603,1.347,1.347V6h3V4.347C30.812,3.603,31.415,3,32.159,3
	H32.812z"/>
<path style="fill:#88C057;" d="M18.48,36h21.361c-0.003-0.667,0.006-1.333,0.026-2H18.454C18.474,34.667,18.484,35.333,18.48,36z"/>
<path style="fill:#88C057;" d="M18.359,32.012C18.38,32.011,18.398,32,18.42,32h21.482c0.022,0,0.04,0.011,0.061,0.012
	c0.044-0.673,0.1-1.344,0.168-2.012H18.191C18.259,30.669,18.315,31.339,18.359,32.012z"/>
<path style="fill:#88C057;" d="M18.238,42c-0.035,0-0.064-0.016-0.098-0.02c-0.063,0.562-0.128,1.123-0.207,1.679L17.876,44H40.43
	l-0.041-0.341c-0.08-0.556-0.145-1.117-0.207-1.679C40.148,41.984,40.119,42,40.084,42H18.238z"/>
<path style="fill:#88C057;" d="M18.47,38c-0.011,0-0.021-0.006-0.032-0.006c-0.026,0.671-0.064,1.339-0.114,2.006h21.675
	c-0.05-0.667-0.088-1.336-0.114-2.006c-0.011,0-0.02,0.006-0.031,0.006H18.47z"/>
<path style="fill:#88C057;" d="M39.572,14H18.428c-1.505,0-2.653,1.344-2.419,2.831l1.277,7.204c0.058-0.01,0.11-0.035,0.171-0.035
	h23.343c0.05,0,0.094,0.021,0.142,0.029l1.048-7.198C42.225,15.344,41.076,14,39.572,14z"/>
<path style="fill:#88C057;" d="M17.708,46c-0.058,0-0.108-0.023-0.163-0.033l-0.75,4.461c-0.597,4.182,2.82,7.878,7.032,7.552
	c4.013-0.312,7.502-0.272,10.341-0.089c4.215,0.271,7.621-3.371,7.024-7.552l-0.525-4.362C40.627,45.981,40.592,46,40.55,46H17.708z
	"/>
<path style="fill:#88C057;" d="M17.812,27c0.054,0.34,0.095,0.685,0.142,1.027C18,28.021,18.041,28,18.089,28h22.145
	c0.048,0,0.089,0.021,0.135,0.027c0.047-0.342,0.088-0.687,0.142-1.027l0.146-1h-23.02L17.812,27z"/>
<path style="fill:#A4E869;" d="M17.458,24c-0.061,0-0.114,0.024-0.171,0.035L17.635,26h23.02l0.287-1.971
	C40.894,24.021,40.851,24,40.801,24H17.458z"/>
<path style="fill:#A4E869;" d="M18.089,28c-0.048,0-0.089,0.021-0.134,0.027c0.09,0.654,0.169,1.312,0.236,1.973h21.941
	c0.067-0.661,0.146-1.318,0.236-1.973C40.322,28.021,40.281,28,40.233,28H18.089z"/>
<path style="fill:#A4E869;" d="M18.42,32c-0.022,0-0.04,0.011-0.061,0.012c0.043,0.661,0.075,1.324,0.095,1.988h21.414
	c0.02-0.664,0.052-1.326,0.095-1.988C39.942,32.011,39.924,32,39.902,32H18.42z"/>
<path style="fill:#A4E869;" d="M18.437,37.994c0.011,0,0.021,0.006,0.032,0.006h21.384c0.011,0,0.02-0.006,0.031-0.006
	c-0.026-0.664-0.04-1.328-0.043-1.994H18.48C18.478,36.665,18.464,37.33,18.437,37.994z"/>
<path style="fill:#A4E869;" d="M18.141,41.98c0.034,0.003,0.063,0.02,0.098,0.02h21.846c0.035,0,0.064-0.016,0.098-0.02
	c-0.073-0.657-0.133-1.317-0.183-1.98H18.324C18.274,40.663,18.214,41.323,18.141,41.98z"/>
<path style="fill:#A4E869;" d="M17.545,45.967C17.6,45.977,17.65,46,17.708,46H40.55c0.042,0,0.077-0.019,0.118-0.024L40.43,44
	H17.876L17.545,45.967z"/>
<g>
</g>
<g>
</g>
<g>
</g>
<g>
</g>
<g>
</g>
<g>
</g>
<g>
</g>
<g>
</g>
<g>
</g>
<g>
</g>
<g>
</g>
<g>
</g>
<g>
</g>
<g>
</g>
<g>
</g>
</svg>
