<?xml version="1.0" encoding="iso-8859-1"?>
<!-- Generator: Adobe Illustrator 19.0.0, SVG Export Plug-In . SVG Version: 6.00 Build 0)  -->
<svg version="1.1" id="Layer_1" xmlns="http://www.w3.org/2000/svg" xmlns:xlink="http://www.w3.org/1999/xlink" x="0px" y="0px"
	 viewBox="0 0 512 512" style="enable-background:new 0 0 512 512;" xml:space="preserve">
<rect x="154.527" y="104.36" style="fill:#00BCB4;" width="14.442" height="77.006"/>
<path style="fill:#D85C72;" d="M217.305,83.811c0,30.684-24.875,55.559-55.559,55.559s-55.559-24.876-55.559-55.559V8.048
	c30.684,0,55.559,24.875,55.559,55.558c0-30.683,24.875-55.558,55.559-55.558V83.811z"/>
<rect x="343.03" y="104.36" style="fill:#00BCB4;" width="14.442" height="77.006"/>
<path style="fill:#D85C72;" d="M405.814,83.811c0,30.684-24.875,55.559-55.56,55.559c-30.684,0-55.559-24.876-55.559-55.559V8.048
	c30.684,0,55.559,24.875,55.559,55.558c0-30.683,24.876-55.558,55.56-55.558V83.811z"/>
<rect x="248.779" y="104.36" style="fill:#00BCB4;" width="14.442" height="77.006"/>
<path style="fill:#FFB819;" d="M311.56,83.811c0,30.684-24.875,55.559-55.559,55.559s-55.559-24.876-55.559-55.559V8.048
	c30.684,0,55.559,24.875,55.559,55.558c0-30.683,24.875-55.558,55.559-55.558V83.811z"/>
<polygon style="fill:#EED898;" points="405.814,181.365 106.186,181.365 256.001,503.952 "/>
<polygon style="fill:#D9C489;" points="405.814,181.365 289.61,181.365 347.712,306.473 "/>
<path style="fill:#022A3A;" d="M413.862,83.811V8.048c0-4.445-3.604-8.048-8.048-8.048c-23.82,0-44.622,13.16-55.52,32.591
	c-6.865-12.341-17.796-22.237-31.381-27.806C317.66,1.968,314.842,0,311.56,0c-23.848,0-44.672,13.191-55.559,32.661
	C245.113,13.191,224.288,0,200.44,0c-3.283,0-6.101,1.968-7.353,4.785c-13.583,5.569-24.515,15.466-31.381,27.806
	C150.809,13.16,130.006,0,106.186,0c-4.445,0-8.048,3.603-8.048,8.048v75.762c0,32.346,24.275,59.111,55.559,63.08v26.425h-47.511
	c-2.748,0-5.307,1.403-6.784,3.718c-1.478,2.317-1.673,5.227-0.515,7.72L248.7,507.342c1.319,2.842,4.167,4.658,7.299,4.658
	c3.132,0,5.98-1.817,7.299-4.658l149.813-322.587c1.158-2.493,0.963-5.403-0.515-7.72c-1.479-2.317-4.036-3.718-6.784-3.718h-47.511
	v-26.425C389.587,142.922,413.862,116.156,413.862,83.811z M342.207,146.916v26.401h-78.158v-26.425
	c15.401-1.954,29.107-9.419,39.049-20.373C313.265,137.798,327.053,145.02,342.207,146.916z M208.489,16.778
	c22.379,3.834,39.462,23.373,39.462,46.828c0,4.445,3.604,8.048,8.048,8.048c4.445,0,8.048-3.604,8.048-8.048
	c0-23.455,17.084-42.994,39.462-46.828v67.033c0,26.198-21.313,47.511-47.511,47.511s-47.511-21.313-47.511-47.511V16.778z
	 M208.903,126.518c9.942,10.954,23.648,18.419,39.049,20.373v26.425h-78.158v-26.401
	C184.948,145.02,198.735,137.798,208.903,126.518z M114.234,83.811V16.778c22.379,3.834,39.462,23.373,39.462,46.828
	c0,4.445,3.604,8.048,8.048,8.048s8.048-3.604,8.048-8.048c0-16.855,8.742-32.005,22.599-40.493V83.81
	c0,10.426,2.538,20.265,7.002,28.957c-8.967,11.689-22.703,18.554-37.649,18.554C135.547,131.323,114.234,110.009,114.234,83.811z
	 M256.001,484.844L118.798,189.413h165.676l54.364,117.06L256.001,484.844z M393.203,189.413l-45.49,97.952l-45.49-97.952H393.203z
	 M350.255,131.323c-14.946,0-28.682-6.865-37.649-18.554c4.465-8.692,7.002-18.531,7.002-28.957V23.115
	c13.856,8.487,22.599,23.637,22.599,40.493c0,4.445,3.603,8.048,8.048,8.048c4.445,0,8.048-3.603,8.048-8.048
	c0-23.455,17.084-42.994,39.462-46.828v67.033C397.766,110.009,376.453,131.323,350.255,131.323z"/>
<g>
</g>
<g>
</g>
<g>
</g>
<g>
</g>
<g>
</g>
<g>
</g>
<g>
</g>
<g>
</g>
<g>
</g>
<g>
</g>
<g>
</g>
<g>
</g>
<g>
</g>
<g>
</g>
<g>
</g>
</svg>
