<?xml version="1.0" encoding="iso-8859-1"?>
<!-- Generator: Adobe Illustrator 19.0.0, SVG Export Plug-In . SVG Version: 6.00 Build 0)  -->
<svg xmlns="http://www.w3.org/2000/svg" xmlns:xlink="http://www.w3.org/1999/xlink" version="1.1" id="Layer_1" x="0px" y="0px" viewBox="0 0 377.032 377.032" style="enable-background:new 0 0 377.032 377.032;" xml:space="preserve" width="512" height="512">
<g>
	<rect x="147.064" y="300.859" style="fill:#F79F4B;" width="82.904" height="61.173"/>
	<rect x="147.064" y="300.859" style="fill:#CA8540;" width="41.452" height="61.173"/>
	<path style="fill:#387F9E;" d="M188.516,246.124c-8.284,0-15-6.716-15-15v-38.402c0-8.284,6.716-15,15-15s15,6.716,15,15v38.402   C203.516,239.408,196.8,246.124,188.516,246.124z"/>
	<path style="fill:#29556E;" d="M188.516,246.124c-8.284,0-15-6.716-15-15v-38.402c0-8.284,6.716-15,15-15V246.124z"/>
	<path style="fill:#387F9E;" d="M267.116,377.032H109.917c-8.284,0-15-6.716-15-15s6.716-15,15-15h157.199c8.284,0,15,6.716,15,15   S275.4,377.032,267.116,377.032z"/>
	<path style="fill:#29556E;" d="M188.516,377.032h-78.6c-8.284,0-15-6.716-15-15s6.716-15,15-15h78.6V377.032z"/>
	<path style="fill:#858EA4;" d="M259.334,304.859H117.698c-42.932,0-77.735-34.803-77.735-77.735v0h297.106v0   C337.069,270.056,302.266,304.859,259.334,304.859z"/>
	<path style="fill:#858EA4;" d="M129.839,136.045c0,32.407,26.271,58.677,58.677,58.677h0c32.407,0,58.677-26.271,58.677-58.677   H129.839z"/>
	<path style="fill:#707789;" d="M188.516,304.859h-70.818c-42.932,0-77.735-34.803-77.735-77.735v0h148.553V304.859z"/>
	<path style="fill:#707789;" d="M129.839,136.045c0,32.407,26.271,58.677,58.677,58.677h0l0-58.677H129.839z"/>
	<g>
		<g>
			<path style="fill:#83CFE0;" d="M141.698,102.136c-3.579,0-7.17-1.273-10.038-3.858c-6.432-5.798-14.75-8.991-23.42-8.991     c-8.284,0-15-6.716-15-15s6.716-15,15-15c16.103,0,31.554,5.934,43.506,16.708c6.153,5.547,6.646,15.031,1.099,21.185     C149.883,100.464,145.799,102.136,141.698,102.136z"/>
		</g>
		<g>
			<path style="fill:#83CFE0;" d="M235.334,102.136c-4.101,0-8.185-1.671-11.146-4.957c-5.547-6.153-5.055-15.638,1.099-21.185     c11.952-10.774,27.403-16.708,43.506-16.708c8.284,0,15,6.716,15,15s-6.716,15-15,15c-8.67,0-16.988,3.193-23.42,8.991     C242.505,100.862,238.913,102.136,235.334,102.136z"/>
		</g>
	</g>
	<path style="fill:#83CFE0;" d="M188.516,87.138c-8.284,0-15-6.716-15-15V15c0-8.284,6.716-15,15-15s15,6.716,15,15v57.138   C203.516,80.422,196.8,87.138,188.516,87.138z"/>
</g>















</svg>
