<?xml version="1.0" encoding="UTF-8" standalone="no"?>
<!-- Generator: Adobe Illustrator 19.0.0, SVG Export Plug-In . SVG Version: 6.00 Build 0)  -->

<svg
   xmlns:dc="http://purl.org/dc/elements/1.1/"
   xmlns:cc="http://creativecommons.org/ns#"
   xmlns:rdf="http://www.w3.org/1999/02/22-rdf-syntax-ns#"
   xmlns:svg="http://www.w3.org/2000/svg"
   xmlns="http://www.w3.org/2000/svg"
   xmlns:sodipodi="http://sodipodi.sourceforge.net/DTD/sodipodi-0.dtd"
   xmlns:inkscape="http://www.inkscape.org/namespaces/inkscape"
   version="1.1"
   id="Layer_1"
   x="0px"
   y="0px"
   viewBox="0 0 512 512"
   style="enable-background:new 0 0 512 512;"
   xml:space="preserve"
   inkscape:version="0.91 r13725"
   sodipodi:docname="fountain_backed2.svg"><metadata
     id="metadata53"><rdf:RDF><cc:Work
         rdf:about=""><dc:format>image/svg+xml</dc:format><dc:type
           rdf:resource="http://purl.org/dc/dcmitype/StillImage" /><dc:title></dc:title></cc:Work></rdf:RDF></metadata><defs
     id="defs51" /><sodipodi:namedview
     pagecolor="#ffffff"
     bordercolor="#666666"
     borderopacity="1"
     objecttolerance="10"
     gridtolerance="10"
     guidetolerance="10"
     inkscape:pageopacity="0"
     inkscape:pageshadow="2"
     inkscape:window-width="1475"
     inkscape:window-height="767"
     id="namedview49"
     showgrid="false"
     inkscape:zoom="0.921875"
     inkscape:cx="106.02988"
     inkscape:cy="285.26144"
     inkscape:window-x="-8"
     inkscape:window-y="-8"
     inkscape:window-maximized="1"
     inkscape:current-layer="Layer_1" /><path
     style="fill:#cd9a00;fill-opacity:0.45493561"
     d="m 482.564,332.945 -136.003,0 0,-137.536 32.247,0 c 10.418,0 18.864,-8.446 18.864,-18.864 l 0,0 c 0,-10.418 -8.446,-18.864 -18.864,-18.864 l -99.203,0 c -10.418,0 -6.22481,-7.66165 -6.22481,2.75635 l 2.30109,15.34062 c 0,10.418 -6.49428,19.63103 3.92372,19.63103 l 2.33279,-6.90328 5.91421,144.44028 -9.1309,-3.06812 c -10.07162,-3.38423 -5.43044,28.5548 -5.43044,39.1798 0,10.625 15.95519,37.56779 5.43044,36.11169 l -0.0262,16.10765 0.76703,23.11595 151.75808,0.76703 0,-73.74 5.343,0 c 10.625,0 19.237,-8.612 19.237,-19.237 0,-10.625 -29.861,-19.238 -19.236,-19.238 z"
     id="path3"
     inkscape:connector-curvature="0"
     sodipodi:nodetypes="cccsccssccsccsssccccsssc" /><path
     d="m 462,352.183 c 0,-16.231 -13.205,-29.436 -29.436,-29.436 l -75.803,0 0,-117.139 12.048,0 c 16.026,0 29.064,-13.038 29.064,-29.064 0,-16.026 -13.039,-29.065 -29.065,-29.065 l -80.39897,0 c -25.74931,-0.54694 -17.63789,12.54207 -17.64171,37.41916 l 0.88568,20.70984 0,117.139 -1.653,29.436 c 0,14.577 0.45856,21.33578 0.58,29.028 l 0,63.949 c 0,5.632 4.567,10.199 10.199,10.199 l 146.441,0 c 5.632,0 10.199,-4.567 10.199,-10.199 l 0,-63.949 C 451.348,378.888 462,366.759 462,352.183 Z M 293.77825,182.14188 c -4.77401,-0.19522 -4.06282,-3.888 -4.06282,-8.665 0,-4.779 0.0531,-6.41425 4.82985,-6.36491 L 368.808,167.879 c 4.77774,0.0494 8.665,3.888 8.665,8.666 0,4.778 -3.89199,8.86018 -8.665,8.665 z m 42.58375,23.46612 0,117.139 -44.31,0 0,-117.139 c 44.31,0 29.31384,-1.65523 44.31,0 z m 130.66,229.352 -176.044,0 0,-53.342 126.043,0 0,53.342 z M 292.52766,358.91891 c -4.98232,-0.0819 -4.43075,-2.32818 -4.43075,-7.31018 0,-4.982 -0.17143,-9.22976 -0.17143,-9.22976 L 432.563,343.146 c 4.98293,0.0264 9.038,4.055 9.038,9.038 0,4.983 -4.05568,9.11787 -9.038,9.036 z"
     id="path5"
     inkscape:connector-curvature="0"
     sodipodi:nodetypes="scccsssccccccsssscsssssssscccccccccccsscssss" /><path
     d="m 356.83574,251.85965 11.56348,1.10119 c 4.56725,0.4349 8.33755,3.06909 8.43389,7.9634 0.0964,4.89429 -3.51764,10.19769 -8.0849,9.76276 l -11.56347,-1.1012 c -0.349,-17.72617 0,0 -0.349,-17.72617 z"
     id="path17"
     inkscape:connector-curvature="0"
     sodipodi:nodetypes="cssscc"
     inkscape:transform-center-x="-0.40499863"
     inkscape:transform-center-y="6.4121589"
     style="fill:#0000ff;fill-opacity:1" /><g
     id="g19" /><g
     id="g21" /><g
     id="g23" /><g
     id="g25" /><g
     id="g27" /><g
     id="g29" /><g
     id="g31" /><g
     id="g33" /><g
     id="g35" /><g
     id="g37" /><g
     id="g39" /><g
     id="g41" /><g
     id="g43" /><g
     id="g45" /><g
     id="g47" /><path
     d="m 383.56725,270.74531 c -4.68726,1.41176 -8.33946,6.36852 -6.80716,10.69298 l 3.65974,10.32853 c 1.53231,4.32447 5.48188,6.99164 10.16916,5.57984 4.68723,-1.41175 8.33942,-6.36849 6.80711,-10.69297 l -3.65971,-10.32855 c -1.53202,-4.32367 -5.48108,-6.99188 -10.16914,-5.57983 z"
     id="path17-7"
     inkscape:connector-curvature="0"
     sodipodi:nodetypes="sssssss"
     style="fill:#0000ff"
     inkscape:transform-center-x="-8.2306501"
     inkscape:transform-center-y="-0.42859702" /><path
     d="m 398.74699,303.6105 c -4.89491,-0.0575 -10.26979,3.61006 -9.69821,8.16222 l 1.27381,10.14485 c 17.72837,0.20811 0,0 17.72837,0.20811 l -1.2738,-10.14484 c -0.57147,-4.55136 -3.1344,-8.31289 -8.03017,-8.37034 z"
     id="path17-8"
     inkscape:connector-curvature="0"
     sodipodi:nodetypes="ssccss"
     style="fill:#0000ff" /></svg>