<?xml version="1.0" encoding="iso-8859-1"?>
<!-- Generator: Adobe Illustrator 19.0.0, SVG Export Plug-In . SVG Version: 6.00 Build 0)  -->
<svg version="1.1" id="Layer_1" xmlns="http://www.w3.org/2000/svg" xmlns:xlink="http://www.w3.org/1999/xlink" x="0px" y="0px"
	 viewBox="0 0 512 512" style="enable-background:new 0 0 512 512;" xml:space="preserve">
<path style="fill:#9BC5FF;" d="M151.948,247.742c-4.562,0-8.258-3.696-8.258-8.258v-60.559c0-13.66,11.114-24.774,24.774-24.774
	c4.562,0,8.258,3.696,8.258,8.258c0,4.562-3.696,8.258-8.258,8.258c-4.554,0-8.258,3.704-8.258,8.258v60.559
	C160.206,244.046,156.51,247.742,151.948,247.742z"/>
<path style="fill:#F67547;" d="M223.518,184.43c-0.738,0,0,55.052,0,55.052l33.032,66.067h33.032V184.43H223.518z"/>
<path style="fill:#F9A167;" d="M225.72,239.484c-0.738,0-1.475-0.022-2.202-0.055v66.12h33.032v-66.065H225.72z"/>
<path style="fill:#9BC5FF;" d="M313.806,137.634c-4.562,0-8.258-3.696-8.258-8.258V35.785c0-10.624-8.645-19.269-19.269-19.269
	s-19.269,8.645-19.269,19.269v71.57c0,4.562-3.696,8.258-8.258,8.258c-4.562,0-8.258-3.696-8.258-8.258v-71.57
	C250.495,16.053,266.547,0,286.28,0c19.732,0,35.785,16.053,35.785,35.785v93.591C322.065,133.938,318.368,137.634,313.806,137.634z
	"/>
<path style="fill:#FEE3AC;" d="M258.753,107.355c-9.121,0-16.516,7.395-16.516,16.516v60.559h33.032v-60.559
	C275.269,114.75,267.874,107.355,258.753,107.355z"/>
<path style="fill:#9BC5FF;" d="M203.699,93.591c-4.562,0-8.258-3.696-8.258-8.258V35.785C195.441,16.053,211.493,0,231.226,0
	s35.785,16.053,35.785,35.785c0,4.562-3.696,8.258-8.258,8.258c-4.562,0-8.258-3.696-8.258-8.258
	c0-10.624-8.645-19.269-19.269-19.269c-10.624,0-19.269,8.645-19.269,19.269v49.548C211.957,89.895,208.261,93.591,203.699,93.591z"
	/>
<polygon style="fill:#F67547;" points="492.731,426.667 492.731,503.742 459.699,503.742 426.667,426.667 "/>
<rect x="19.269" y="426.667" style="fill:#F9A167;" width="440.43" height="77.075"/>
<polygon style="fill:#F67547;" points="335.828,316.559 335.828,426.667 302.796,426.667 181.677,371.613 181.677,316.559 "/>
<g>
	<rect x="181.677" y="371.613" style="fill:#F9A167;" width="121.118" height="55.054"/>
	<path style="fill:#F9A167;" d="M488.327,404.645h-33.032l16.516,33.032h33.032v-16.516
		C504.843,412.077,497.411,404.645,488.327,404.645z"/>
	<path style="fill:#F9A167;" d="M369.961,272.516l-66.065,66.065h33.032c36.335,0,66.065-29.729,66.065-66.065H369.961z"/>
	<path style="fill:#F9A167;" d="M300.594,162.409l-44.043,44.043h33.032c24.224,0,44.043-19.819,44.043-44.043H300.594z"/>
</g>
<g>
	<path style="fill:#FCCC86;" d="M179.475,162.409c0,24.224,19.819,44.043,44.043,44.043h33.032
		c24.224,0,44.043-19.819,44.043-44.043H179.475z"/>
	<path style="fill:#FCCC86;" d="M115.613,272.516c0,36.335,29.729,66.065,66.065,66.065h121.118
		c36.335,0,66.065-29.729,66.065-66.065H115.613z"/>
	<path style="fill:#FCCC86;" d="M455.295,404.645H24.774c-9.084,0-16.516,7.432-16.516,16.516v16.516h463.553v-16.516
		C471.811,412.077,464.379,404.645,455.295,404.645z"/>
</g>
<g>
	<path style="fill:#9BC5FF;" d="M203.699,137.634c-4.562,0-8.258-3.696-8.258-8.258v-11.011c0-4.562,3.696-8.258,8.258-8.258
		s8.258,3.696,8.258,8.258v11.011C211.957,133.938,208.261,137.634,203.699,137.634z"/>
	<path style="fill:#9BC5FF;" d="M361.153,247.742c-4.562,0-8.258-3.696-8.258-8.258v-60.559c0-4.554-3.704-8.258-8.258-8.258
		c-4.562,0-8.258-3.696-8.258-8.258c0-4.562,3.696-8.258,8.258-8.258c13.66,0,24.774,11.114,24.774,24.774v60.559
		C369.411,244.046,365.714,247.742,361.153,247.742z"/>
	<path style="fill:#9BC5FF;" d="M429.419,379.871c-4.562,0-8.258-3.696-8.258-8.258v-11.011c0-4.562,3.696-8.258,8.258-8.258
		c4.562,0,8.258,3.696,8.258,8.258v11.011C437.677,376.175,433.981,379.871,429.419,379.871z"/>
	<path style="fill:#9BC5FF;" d="M429.419,335.828c-4.562,0-8.258-3.696-8.258-8.258v-38.538c0-4.554-3.704-8.258-8.258-8.258
		c-4.562,0-8.258-3.696-8.258-8.258c0-4.562,3.696-8.258,8.258-8.258c13.66,0,24.774,11.114,24.774,24.774v38.538
		C437.677,332.132,433.981,335.828,429.419,335.828z"/>
	<path style="fill:#9BC5FF;" d="M88.086,379.871c-4.562,0-8.258-3.696-8.258-8.258v-82.581c0-13.66,11.114-24.774,24.774-24.774
		c4.562,0,8.258,3.696,8.258,8.258c0,4.562-3.696,8.258-8.258,8.258c-4.554,0-8.258,3.704-8.258,8.258v82.581
		C96.344,376.175,92.648,379.871,88.086,379.871z"/>
</g>
<path d="M503.742,445.935c4.562,0,8.258-3.696,8.258-8.258v-16.516c0-13.66-11.114-24.774-24.774-24.774h-143.14v-16.516h2.753
	c4.562,0,8.258-3.696,8.258-8.258s-3.696-8.258-8.258-8.258h-2.753v-16.986c34.395-3.822,61.774-31.2,65.594-65.594h3.223
	c4.562,0,8.258-3.696,8.258-8.258c0-4.562-3.696-8.258-8.258-8.258H297.841v-50.207c22.237-3.543,39.841-21.148,43.385-43.385h3.411
	c4.562,0,8.258-3.696,8.258-8.258c0-4.562-3.696-8.258-8.258-8.258h-61.11v-30.28c0-13.66-11.114-24.774-24.774-24.774
	s-24.774,11.114-24.774,24.774v30.28h-65.514c-4.562,0-8.258,3.696-8.258,8.258c0,4.562,3.696,8.258,8.258,8.258h3.411
	c3.543,22.236,21.148,39.842,43.385,43.385v50.207H104.602c-4.562,0-8.258,3.696-8.258,8.258c0,4.562,3.696,8.258,8.258,8.258h3.223
	c3.821,34.394,31.2,61.774,65.594,65.594v16.986h-2.753c-4.562,0-8.258,3.696-8.258,8.258s3.696,8.258,8.258,8.258h2.753v16.516
	H24.774C11.114,396.387,0,407.501,0,421.161v16.516c0,4.562,3.696,8.258,8.258,8.258h2.753v49.548H8.258
	c-4.562,0-8.258,3.696-8.258,8.258S3.696,512,8.258,512h495.484c4.562,0,8.258-3.696,8.258-8.258s-3.696-8.258-8.258-8.258h-2.753
	v-49.548H503.742z M250.495,123.871c0-4.554,3.704-8.258,8.258-8.258s8.258,3.704,8.258,8.258v30.28h-16.516V123.871z
	 M188.706,170.667h135.69c-3.739,15.762-17.923,27.527-34.813,27.527h-66.065C206.629,198.194,192.445,186.429,188.706,170.667z
	 M231.776,214.71h49.548v49.548h-49.548V214.71z M124.47,280.774h268.565c-4.021,27.975-28.137,49.548-57.207,49.548H181.677
	C152.608,330.323,128.491,308.749,124.47,280.774z M189.935,379.871h13.763c4.562,0,8.258-3.696,8.258-8.258
	s-3.696-8.258-8.258-8.258h-13.763v-16.516H327.57v16.516h-90.839c-4.562,0-8.258,3.696-8.258,8.258s3.696,8.258,8.258,8.258h90.839
	v16.516H189.935V379.871z M16.516,421.161c0-4.554,3.704-8.258,8.258-8.258h462.452c4.554,0,8.258,3.704,8.258,8.258v8.258H16.516
	V421.161z M484.473,495.484H27.527v-49.548h456.946V495.484z"/>
<g>
</g>
<g>
</g>
<g>
</g>
<g>
</g>
<g>
</g>
<g>
</g>
<g>
</g>
<g>
</g>
<g>
</g>
<g>
</g>
<g>
</g>
<g>
</g>
<g>
</g>
<g>
</g>
<g>
</g>
</svg>
