<?xml version="1.0" encoding="iso-8859-1"?>
<!-- Generator: Adobe Illustrator 18.0.0, SVG Export Plug-In . SVG Version: 6.00 Build 0)  -->
<!DOCTYPE svg PUBLIC "-//W3C//DTD SVG 1.1//EN" "http://www.w3.org/Graphics/SVG/1.1/DTD/svg11.dtd">
<svg version="1.1" id="Capa_1" xmlns="http://www.w3.org/2000/svg" xmlns:xlink="http://www.w3.org/1999/xlink" x="0px" y="0px"
	 viewBox="0 0 395 395" style="enable-background:new 0 0 395 395;" xml:space="preserve">
<g>
	<g>
		<circle cx="213.931" cy="94.179" r="38.178"/>
		<path d="M238.92,162.595l-27.853-4.123c0,0-32.868-39.109-34.173-40.625c-2.127-2.296-4.592-4.349-7.391-6.065
			c-16.479-10.103-38.029-4.934-48.132,11.544l-37.832,61.706c-9.746,15.895-5.278,36.503,9.838,47.012v86.955
			c0,11.046,8.954,20,20,20s20-8.954,20-20V232.04c3.85-2.679,7.23-6.166,9.838-10.42l34.498-56.268l14.004,16.744
			c2.359,2.82,5.672,4.676,9.31,5.215l33.5,4.96c0.745,0.11,1.484,0.164,2.215,0.164c7.313,0,13.717-5.355,14.82-12.805
			C252.775,171.435,247.116,163.808,238.92,162.595z"/>
		<path d="M311.627,146.1h-36.158c-0.372-0.621-1.075-1.012-1.838-0.945c-0.643,0.059-1.18,0.429-1.487,0.945h-31.852
			c-2.165,0-4.083,1.393-4.754,3.451c-0.671,2.058,0.06,4.314,1.809,5.589l54.894,40.016c0.855,0.624,1.887,0.959,2.945,0.959
			h16.441c2.761,0,5-2.239,5-5V151.1C316.627,148.339,314.388,146.1,311.627,146.1z"/>
		<path d="M248.809,122.366c-1.071,0-1.938,0.868-1.938,1.938s0.868,1.938,1.938,1.938c0.713,0,1.437,0.033,2.149,0.098
			c0.06,0.005,0.12,0.008,0.179,0.008c0.991,0,1.837-0.756,1.928-1.763c0.097-1.066-0.688-2.01-1.754-2.107
			C250.48,122.404,249.639,122.366,248.809,122.366z"/>
		<path d="M266.446,134.387c0.383,0.45,0.928,0.681,1.476,0.681c0.445,0,0.892-0.152,1.257-0.464
			c0.815-0.695,0.912-1.919,0.217-2.733c-0.933-1.094-1.959-2.12-3.052-3.051c-0.815-0.695-2.039-0.597-2.733,0.218
			c-0.694,0.814-0.597,2.038,0.218,2.733C264.767,132.57,265.647,133.45,266.446,134.387z"/>
		<path d="M269.372,138.727c0.568,1.091,1.052,2.236,1.438,3.404c0.27,0.814,1.027,1.331,1.84,1.331
			c0.202,0,0.407-0.032,0.609-0.099c1.016-0.336,1.568-1.433,1.232-2.45c-0.451-1.364-1.017-2.702-1.681-3.977
			c-0.495-0.95-1.666-1.32-2.615-0.824C269.246,136.607,268.877,137.778,269.372,138.727z"/>
		<path d="M256.083,127.407c1.167,0.386,2.314,0.87,3.406,1.438c0.286,0.149,0.592,0.219,0.894,0.219c0.7,0,1.375-0.38,1.721-1.044
			c0.494-0.95,0.125-2.121-0.825-2.615c-1.277-0.665-2.616-1.23-3.979-1.681c-1.019-0.337-2.114,0.216-2.449,1.232
			C254.515,125.975,255.066,127.071,256.083,127.407z"/>
	</g>
	<path d="M313.001,0H81.999C36.785,0,0,36.784,0,81.998v230.993C0,358.211,36.785,395,81.999,395h231.002
		C358.216,395,395,358.211,395,312.991V81.998C395,36.784,358.216,0,313.001,0z M380,312.991C380,349.94,349.945,380,313.001,380
		H81.999C45.056,380,15,349.94,15,312.991V81.998C15,45.055,45.056,15,81.999,15h231.002C349.945,15,380,45.055,380,81.998V312.991z
		"/>
</g>
<g>
</g>
<g>
</g>
<g>
</g>
<g>
</g>
<g>
</g>
<g>
</g>
<g>
</g>
<g>
</g>
<g>
</g>
<g>
</g>
<g>
</g>
<g>
</g>
<g>
</g>
<g>
</g>
<g>
</g>
</svg>
