<?xml version="1.0" encoding="iso-8859-1"?>
<!-- Generator: Adobe Illustrator 19.0.0, SVG Export Plug-In . SVG Version: 6.00 Build 0)  -->
<svg version="1.1" id="Layer_1" xmlns="http://www.w3.org/2000/svg" xmlns:xlink="http://www.w3.org/1999/xlink" x="0px" y="0px"
	 viewBox="0 0 512 512" style="enable-background:new 0 0 512 512;" xml:space="preserve">
<path style="fill:#D4F5FF;" d="M494.345,467.862c0,24.376-19.762,44.138-44.138,44.138c-24.376,0-44.138-19.762-44.138-44.138
	c0-28.307,28.365-67.96,39.618-82.577c2.296-2.983,6.744-2.983,9.041,0C465.98,399.902,494.345,439.555,494.345,467.862z"/>
<path style="fill:#D5DCED;" d="M379.586,158.897H8.828c-4.875,0-8.828,3.953-8.828,8.828V256c0,4.875,3.953,8.828,8.828,8.828
	h370.759c9.751,0,17.655,7.904,17.655,17.655v26.483h105.931v-26.483C503.172,214.228,447.841,158.897,379.586,158.897z"/>
<path style="fill:#7F8499;" d="M132.414,0L132.414,0c-9.751,0-17.655,7.904-17.655,17.655v97.103h35.31V17.655
	C150.069,7.904,142.165,0,132.414,0z"/>
<path style="fill:#AFB9D2;" d="M158.897,105.931h-52.966c-9.75,0-17.655,7.904-17.655,17.655v26.483h88.276v-26.483
	C176.552,113.835,168.647,105.931,158.897,105.931z"/>
<path style="fill:#959CB5;" d="M141.241,105.931h-35.31c-9.75,0-17.655,7.904-17.655,17.655v26.483h35.31v-26.483
	C123.586,113.835,131.491,105.931,141.241,105.931z"/>
<path style="fill:#5B5D6E;" d="M247.172,70.621H17.655C7.904,70.621,0,62.717,0,52.966l0,0C0,43.214,7.904,35.31,17.655,35.31
	h229.517c9.751,0,17.655,7.904,17.655,17.655l0,0C264.828,62.717,256.924,70.621,247.172,70.621z"/>
<path style="fill:#C7CFE2;" d="M379.586,229.517H211.862v-70.621c0-9.75-7.905-17.655-17.655-17.655H70.621
	c-9.75,0-17.655,7.905-17.655,17.655v70.621H0V256c0,4.875,3.953,8.828,8.828,8.828h44.138c0,9.75,7.905,17.655,17.655,17.655
	h123.586c9.75,0,17.655-7.905,17.655-17.655h167.724c9.751,0,17.655,7.905,17.655,17.655v17.655h35.31v-17.655
	C432.552,253.23,408.839,229.517,379.586,229.517z"/>
<path style="fill:#464655;" d="M97.103,52.966c0-9.751,7.905-17.655,17.655-17.655H17.655C7.905,35.31,0,43.214,0,52.966
	c0,9.75,7.905,17.655,17.655,17.655h97.103C105.009,70.621,97.103,62.716,97.103,52.966z"/>
<path style="fill:#BAEFFF;" d="M476.69,494.345c-24.376,0-44.138-19.762-44.138-44.138c0-19.082,12.887-43.295,24.735-61.544
	c-0.919-1.228-1.786-2.372-2.559-3.377c-2.296-2.983-6.744-2.983-9.041,0c-11.253,14.615-39.618,54.269-39.618,82.575
	c0,24.376,19.762,44.138,44.138,44.138c14.903,0,28.021-7.437,36.013-18.749C483.144,493.93,479.97,494.345,476.69,494.345z"/>
<path style="fill:#C7CFE2;" d="M503.172,344.276H397.241c-4.875,0-8.828-3.953-8.828-8.828v-26.483c0-4.875,3.953-8.828,8.828-8.828
	h105.931c4.875,0,8.828,3.953,8.828,8.828v26.483C512,340.323,508.047,344.276,503.172,344.276z"/>
<path style="fill:#AFB9D2;" d="M432.552,335.448v-26.483c0-4.875,3.953-8.828,8.828-8.828h-44.138c-4.875,0-8.828,3.953-8.828,8.828
	v26.483c0,4.875,3.953,8.828,8.828,8.828h44.138C436.504,344.276,432.552,340.323,432.552,335.448z"/>
<g>
</g>
<g>
</g>
<g>
</g>
<g>
</g>
<g>
</g>
<g>
</g>
<g>
</g>
<g>
</g>
<g>
</g>
<g>
</g>
<g>
</g>
<g>
</g>
<g>
</g>
<g>
</g>
<g>
</g>
</svg>
