<?xml version="1.0" encoding="iso-8859-1"?>
<!-- Generator: Adobe Illustrator 19.0.0, SVG Export Plug-In . SVG Version: 6.00 Build 0)  -->
<svg version="1.1" id="Layer_1" xmlns="http://www.w3.org/2000/svg" xmlns:xlink="http://www.w3.org/1999/xlink" x="0px" y="0px"
	 viewBox="0 0 512 512" style="enable-background:new 0 0 512 512;" xml:space="preserve">
<path style="fill:#FF383E;" d="M294.72,53.697c1.801-27.343,5.663-43.498,5.663-43.498S275.096,22.648,256,41.518
	C236.905,22.648,211.617,10.2,211.617,10.2s3.86,16.155,5.663,43.498c-20.654-14.103-37.529-22.412-37.529-22.412
	s11.288,47.161,11.288,122.67c0,27.848,22.575,50.423,50.423,50.423c5.056,0,9.934-0.753,14.538-2.138
	c4.605,1.384,9.482,2.138,14.538,2.138c27.848,0,50.423-22.575,50.423-50.423c0-75.509,11.288-122.67,11.288-122.67
	S315.375,39.594,294.72,53.697z"/>
<g>
	<path style="fill:#51B58B;" d="M308.81,366.374c-12.03,12.03-31.534,12.03-43.564,0c-12.03-12.03-12.03-31.534,0-43.564
		c12.03-12.03,73.609-30.044,73.609-30.044S320.84,354.344,308.81,366.374z"/>
	<path style="fill:#51B58B;" d="M203.191,298.169c12.03,12.03,31.534,12.03,43.564,0s12.03-31.534,0-43.564
		s-73.609-30.044-73.609-30.044S191.161,286.139,203.191,298.169z"/>
</g>
<path d="M270.203,113.456c-4.488-3.401-10.886-2.524-14.289,1.965c-1.436,1.893-2.789,3.819-4.026,5.723
	c-7.462,11.499-11.105,23.004-10.828,34.197c0.138,5.546,4.675,9.947,10.191,9.947c0.085,0,0.171-0.001,0.257-0.003
	c5.631-0.14,10.083-4.817,9.944-10.448c-0.173-7.004,2.366-14.604,7.546-22.587c0.966-1.488,2.033-3.004,3.17-4.504
	C275.571,123.257,274.691,116.86,270.203,113.456z"/>
<path d="M284.855,87.298c-2.658,2.035-5.246,4.116-7.693,6.188c-4.299,3.639-4.834,10.075-1.195,14.375
	c2.017,2.384,4.894,3.61,7.79,3.61c2.327,0,4.668-0.792,6.585-2.414c2.193-1.856,4.519-3.727,6.913-5.56
	c4.473-3.424,5.324-9.826,1.9-14.298C295.728,84.725,289.326,83.876,284.855,87.298z"/>
<path d="M346.066,285.554c-2.635-2.634-6.502-3.623-10.076-2.576c-9.134,2.672-49.851,14.93-69.791,26.674v-48.336h8.921
	c5.633,0,10.199-4.566,10.199-10.199c0-5.633-4.566-10.199-10.199-10.199h-8.921V214.42c1.442,0.103,2.888,0.157,4.339,0.157
	c33.427,0,60.622-27.195,60.622-60.622c0-73.221,10.9-119.84,11.008-120.296c0.92-3.845-0.464-7.875-3.552-10.343
	c-3.088-2.467-7.325-2.928-10.871-1.182c-0.496,0.244-8.845,4.377-20.918,11.668c1.661-13.461,3.451-21.132,3.475-21.233
	c0.919-3.844-0.466-7.873-3.554-10.34c-3.087-2.466-7.324-2.927-10.869-1.181C294.912,1.524,274.556,11.64,256,27.661
	C237.445,11.64,217.088,1.524,216.122,1.049c-3.543-1.744-7.773-1.281-10.86,1.18c-3.088,2.462-4.476,6.489-3.567,10.332
	c0.025,0.108,1.816,7.781,3.478,21.243c-12.073-7.29-20.422-11.424-20.918-11.668c-3.546-1.745-7.783-1.285-10.871,1.182
	s-4.472,6.498-3.552,10.343c0.11,0.46,11.008,46.84,11.008,120.296c0,33.427,27.195,60.622,60.622,60.622
	c1.449,0,2.897-0.053,4.339-0.157v27.025c-19.94-11.744-60.656-24.002-69.791-26.674c-3.576-1.047-7.44-0.058-10.076,2.576
	c-2.634,2.635-3.623,6.499-2.576,10.076c3.13,10.701,19.416,64.752,32.621,77.958c7.745,7.744,18.041,12.01,28.994,12.01
	c7.445,0,14.585-1.976,20.828-5.67v22.672h-8.921c-5.633,0-10.199,4.566-10.199,10.199s4.566,10.199,10.199,10.199h8.921v147.009
	c0,5.633,4.566,10.199,10.199,10.199c5.633,0,10.199-4.566,10.199-10.199v-49.286h8.921c5.633,0,10.199-4.566,10.199-10.199
	s-4.566-10.199-10.199-10.199h-8.921v-52.192c6.244,3.694,13.383,5.67,20.828,5.67c10.952,0,21.249-4.265,28.994-12.01
	c13.205-13.206,29.491-67.256,32.621-77.958C349.689,292.052,348.701,288.189,346.066,285.554z M239.543,290.957
	c-3.891,3.892-9.066,6.035-14.571,6.035c-5.503,0-10.679-2.144-14.57-6.035c-5.051-5.05-14.016-27.373-21.75-50.88
	c23.294,7.691,45.918,16.768,50.89,21.74c3.892,3.891,6.035,9.066,6.035,14.57C245.579,281.89,243.435,287.065,239.543,290.957z
	 M310.762,153.955c0,22.179-18.044,40.224-40.224,40.224c-3.934,0-7.837-0.574-11.602-1.705
	c-16.852-5.067-28.622-20.906-28.622-38.518c0-12.561,4.757-25.878,14.139-39.581c1.702-2.487,3.57-5.006,5.551-7.488
	c3.833-4.804,8.262-9.695,13.164-14.54c5.315-5.252,11.303-10.565,17.798-15.792c6.061-4.878,12.624-9.734,19.505-14.433
	c6.427-4.389,12.498-8.209,17.768-11.37C314.908,71.927,310.762,107.597,310.762,153.955z M284.9,48.109
	c-5.843,4.111-11.46,8.317-16.722,12.552c-4.266,3.434-8.337,6.911-12.178,10.396c-1.976-1.793-4.015-3.583-6.109-5.367
	c2.997-5.479,7.436-11.145,13.278-16.918c7.494-7.407,16.113-13.812,23.564-18.738C286.074,35.242,285.43,41.301,284.9,48.109z
	 M241.54,42.147c-2.999,3.57-5.594,7.156-7.79,10.746c-2.172-1.608-4.399-3.201-6.649-4.783c-0.531-6.814-1.175-12.878-1.836-18.086
	C230.383,33.406,236.051,37.506,241.54,42.147z M201.239,153.955c0-46.358-4.146-82.028-7.478-103.205
	c5.271,3.161,11.343,6.981,17.768,11.37c6.88,4.699,13.443,9.555,19.504,14.432c3.666,2.951,7.163,5.928,10.475,8.906
	c-2.648,2.905-5.14,5.814-7.447,8.704c-2.291,2.87-4.456,5.793-6.439,8.688c-11.749,17.16-17.706,34.355-17.706,51.105
	c0,12.584,3.994,24.564,10.896,34.502C209.097,181.419,201.239,168.589,201.239,153.955z M301.598,359.162
	c-3.891,3.892-9.066,6.035-14.57,6.035s-10.679-2.144-14.571-6.035c-3.892-3.891-6.035-9.066-6.035-14.571
	c0-5.503,2.144-10.679,6.035-14.57c5.05-5.051,27.373-14.016,50.88-21.75C315.646,331.566,306.57,354.19,301.598,359.162z"/>
<g>
</g>
<g>
</g>
<g>
</g>
<g>
</g>
<g>
</g>
<g>
</g>
<g>
</g>
<g>
</g>
<g>
</g>
<g>
</g>
<g>
</g>
<g>
</g>
<g>
</g>
<g>
</g>
<g>
</g>
</svg>
