<?xml version="1.0" encoding="iso-8859-1"?>
<!-- Generator: Adobe Illustrator 19.0.0, SVG Export Plug-In . SVG Version: 6.00 Build 0)  -->
<svg version="1.1" id="Layer_1" xmlns="http://www.w3.org/2000/svg" xmlns:xlink="http://www.w3.org/1999/xlink" x="0px" y="0px"
	 viewBox="0 0 512 512" style="enable-background:new 0 0 512 512;" xml:space="preserve">
<g transform="translate(0 -1)">
	<path style="fill:#2F3744;" d="M256,513H132.414c0-19.5,15.81-35.31,35.31-35.31h52.966C240.19,477.69,256,493.5,256,513"/>
	<path style="fill:#464F5D;" d="M176.552,62.793V477.69h35.31V62.793c0-12.526,18.132-26.483,44.138-26.483
		c26.006,0,44.138,13.956,44.138,26.483h35.31C335.448,28.145,291.725,1,247.172,1c-8.854,0-18.406,1.554-27.71,4.175
		C193.88,12.379,176.552,36.222,176.552,62.793"/>
	<polygon style="fill:#2F3744;" points="379.586,133.414 256,133.414 300.138,62.793 335.448,62.793 	"/>
	<path style="fill:#F3D55B;" d="M282.483,133.414c0,19.5,15.81,35.31,35.31,35.31c19.5,0,35.31-15.81,35.31-35.31H282.483z"/>
</g>
<g>
</g>
<g>
</g>
<g>
</g>
<g>
</g>
<g>
</g>
<g>
</g>
<g>
</g>
<g>
</g>
<g>
</g>
<g>
</g>
<g>
</g>
<g>
</g>
<g>
</g>
<g>
</g>
<g>
</g>
</svg>
