<?xml version="1.0" encoding="iso-8859-1"?>
<!-- Generator: Adobe Illustrator 19.0.0, SVG Export Plug-In . SVG Version: 6.00 Build 0)  -->
<svg version="1.1" id="Layer_1" xmlns="http://www.w3.org/2000/svg" xmlns:xlink="http://www.w3.org/1999/xlink" x="0px" y="0px"
	 viewBox="0 0 512 512" style="enable-background:new 0 0 512 512;" xml:space="preserve">
<g transform="translate(0 -1)">
	<path style="fill:#46656D;" d="M317.793,513H194.207c0-19.5,15.81-35.31,35.31-35.31h52.966
		C301.983,477.69,317.793,493.5,317.793,513"/>
	<polygon style="fill:#547580;" points="238.345,477.687 273.655,477.687 273.655,133.411 238.345,133.411 	"/>
	<path style="fill:#F3D55B;" d="M300.138,45.138c0,24.373-19.765,44.138-44.138,44.138s-44.138-19.765-44.138-44.138
		S231.627,1,256,1S300.138,20.765,300.138,45.138"/>
	<path style="fill:#46656D;" d="M256,89.276c-9.331,0-17.955-2.931-25.088-7.874l7.433,52.012h35.31l7.433-52.012
		C273.955,86.345,265.331,89.276,256,89.276"/>
</g>
<g>
</g>
<g>
</g>
<g>
</g>
<g>
</g>
<g>
</g>
<g>
</g>
<g>
</g>
<g>
</g>
<g>
</g>
<g>
</g>
<g>
</g>
<g>
</g>
<g>
</g>
<g>
</g>
<g>
</g>
</svg>
