<?xml version="1.0" encoding="iso-8859-1"?>
<!-- Generator: Adobe Illustrator 19.0.0, SVG Export Plug-In . SVG Version: 6.00 Build 0)  -->
<svg version="1.1" id="Layer_1" xmlns="http://www.w3.org/2000/svg" xmlns:xlink="http://www.w3.org/1999/xlink" x="0px" y="0px"
	 viewBox="0 0 512 512" style="enable-background:new 0 0 512 512;" xml:space="preserve">
<rect x="9.253" y="83.277" style="fill:#F7E3C6;" width="246.747" height="345.446"/>
<g>
	<rect x="256" y="83.277" style="fill:#EFC27B;" width="246.747" height="345.446"/>
	<rect x="256" y="342.361" style="fill:#EFC27B;" width="197.398" height="86.361"/>
</g>
<g>
	<rect x="157.301" y="256" style="fill:#F7E3C6;" width="197.398" height="86.361"/>
	<rect x="157.301" y="83.277" style="fill:#F7E3C6;" width="197.398" height="86.361"/>
</g>
<g>
	<rect x="256" y="83.277" style="fill:#F4D8AA;" width="98.699" height="86.361"/>
	<rect x="256" y="256" style="fill:#F4D8AA;" width="98.699" height="86.361"/>
</g>
<rect x="9.253" y="83.277" style="fill:#EFC27B;" width="148.048" height="86.361"/>
<rect x="354.699" y="83.277" style="fill:#ECB45C;" width="148.048" height="86.361"/>
<rect x="9.253" y="256" style="fill:#EFC27B;" width="148.048" height="86.361"/>
<rect x="354.699" y="256" style="fill:#ECB45C;" width="148.048" height="86.361"/>
<g>
	<rect x="453.398" y="342.361" style="fill:#E9A440;" width="49.349" height="86.361"/>
	<rect x="453.398" y="169.639" style="fill:#E9A440;" width="49.349" height="86.361"/>
</g>
<rect x="58.602" y="342.361" style="fill:#F4D8AA;" width="197.398" height="86.361"/>
<rect x="256" y="169.639" style="fill:#EFC27B;" width="197.398" height="86.361"/>
<rect x="58.602" y="169.639" style="fill:#F4D8AA;" width="197.398" height="86.361"/>
<path style="fill:#2E2D31;" d="M502.747,74.024H9.253C4.142,74.024,0,78.166,0,83.277v345.446c0,5.111,4.142,9.253,9.253,9.253
	h493.494c5.111,0,9.253-4.142,9.253-9.253V83.277C512,78.166,507.858,74.024,502.747,74.024z M363.952,333.108v-67.855h129.542
	v67.855H363.952z M166.554,333.108v-67.855h178.892v67.855H166.554z M18.506,333.108v-67.855h129.542v67.855H18.506z
	 M246.747,178.892v67.855H67.855v-67.855H246.747z M444.145,178.892v67.855H265.253v-67.855H444.145z M493.494,178.892v67.855
	h-30.843v-67.855H493.494z M49.349,246.747H18.506v-67.855h30.843V246.747z M493.494,160.386H363.952V92.53h129.542V160.386z
	 M345.446,92.53v67.855H166.554V92.53H345.446z M148.048,92.53v67.855H18.506V92.53H148.048z M18.506,351.614h30.843v67.855H18.506
	V351.614z M67.855,351.614h178.892v67.855H67.855V351.614z M265.253,419.47v-67.855h178.892v67.855H265.253z M462.651,419.47
	v-67.855h30.843v67.855H462.651z"/>
<g>
</g>
<g>
</g>
<g>
</g>
<g>
</g>
<g>
</g>
<g>
</g>
<g>
</g>
<g>
</g>
<g>
</g>
<g>
</g>
<g>
</g>
<g>
</g>
<g>
</g>
<g>
</g>
<g>
</g>
</svg>
