<?xml version="1.0" encoding="iso-8859-1"?>
<!-- Generator: Adobe Illustrator 19.0.0, SVG Export Plug-In . SVG Version: 6.00 Build 0)  -->
<svg version="1.1" id="Layer_1" xmlns="http://www.w3.org/2000/svg" xmlns:xlink="http://www.w3.org/1999/xlink" x="0px" y="0px"
	 viewBox="0 0 511.999 511.999" style="enable-background:new 0 0 511.999 511.999;" xml:space="preserve">
<path style="fill:#708F44;" d="M7.443,19.397c18.014-0.016,39.578,2.768,58.821,8.524c31.877,9.563,59.404,28.179,69.039,60.166
	c5.641,18.425,3.976,42.206,0.349,57.169c-12.925,52.47-59.711,58.002-80.99,33.653c-16.325-18.456-12.501-47.308,3.172-69.062
	c25.678-35.651,77.469-48.932,116.881-8.582c22.25,22.696,43.914,67.997,45.422,112.357c0.433,13.091-0.664,24.499-2.13,33.732
	c-1.482,9.243-3.286,16.352-4.597,21.157c-0.669,2.398-1.203,4.232-1.587,5.457c-0.376,1.229-0.57,1.864-0.57,1.864
	c-2.971,9.703-13.244,15.159-22.947,12.189c-9.703-2.971-15.16-13.244-12.189-22.947c0.105-0.34,0.217-0.675,0.339-1.004l0.09-0.241
	c0,0,0.192-0.513,0.564-1.507c0.38-0.992,0.91-2.473,1.582-4.41c1.319-3.877,3.149-9.603,4.811-17.016
	c1.65-7.409,3.09-16.521,3.394-27.044c0.475-17.555-2.348-32.947-7.544-48.595c0.009,0.019-0.1-0.285,0.006,0
	c-6.16-16.22-13.439-31.727-25.116-44.308c-27.419-29.714-60.212-16.642-75.893,4.027c-6.47,8.424-10.262,18.167-9.456,28.856
	c-0.071-0.654-0.008-0.1-0.019-0.209c0.173,1.33,0.524,5.55,3.874,9.678c9.147,11.4,33.159,9.793,42.313-23.371
	c3.505-12.716,5.176-32.476,1.391-46.44c-6.928-25.99-29.891-41.059-55.275-49.583c-17.204-5.773-36.983-9.054-53.975-9.616
	c-4.111-0.136-7.334-3.578-7.199-7.69C0.136,22.577,3.45,19.405,7.443,19.397z"/>
<path style="fill:#533F29;" d="M196.559,302.017c-3.834,0-7.7-1.195-11.003-3.674c-31.223-23.417-69.452-27.428-113.632-11.915
	c-9.562,3.36-20.047-1.673-23.407-11.243c-3.359-9.568,1.673-20.047,11.243-23.407c55.66-19.541,106.779-13.599,147.83,17.188
	c8.113,6.084,9.757,17.593,3.673,25.707C207.656,299.48,202.141,302.017,196.559,302.017z"/>
<path style="fill:#A8DA64;" d="M145.36,279.321c30.156-17.981,69.231-8.11,87.243,22.016c17.999,30.169,8.147,69.246-22.024,87.228
	c-30.167,18.017-69.254,8.166-87.258-22.003C105.341,336.393,115.177,297.324,145.36,279.321z"/>
<g>
	<path style="fill:#7FA24D;" d="M201.796,373.853c30.151-18.002,69.223-8.128,87.225,22.038c18,30.15,8.126,69.21-22.022,87.229
		c-30.171,17.982-69.223,8.14-87.227-22.028C161.759,430.944,171.629,391.853,201.796,373.853z"/>
	<path style="fill:#7FA24D;" d="M195.919,185.026c30.164-18.002,69.241-8.13,87.227,22.058c18.012,30.13,8.154,69.185-22.01,87.218
		c-30.18,18.004-69.238,8.149-87.241-22.037C155.917,242.133,165.751,203.028,195.919,185.026z"/>
</g>
<path style="fill:#A8DA64;" d="M415.771,374.331c30.134-17.982,69.248-8.097,87.227,22.04c18.002,30.167,8.163,69.238-22.023,87.223
	c-30.167,18.018-69.221,8.159-87.254-22.005C375.734,431.421,385.571,392.354,415.771,374.331z"/>
<path style="fill:#7FA24D;" d="M359.335,279.799c30.169-17.999,69.233-8.095,87.233,22.055c18.012,30.15,8.138,69.207-22.008,87.225
	c-30.182,18.017-69.24,8.127-87.241-22.037C319.321,336.906,329.175,297.817,359.335,279.799z"/>
<path style="fill:#A8DA64;" d="M302.922,185.26c30.133-17.99,69.227-8.109,87.242,22.042c17.981,30.154,8.146,69.24-22.04,87.227
	c-30.149,18.012-69.238,8.162-87.237-22.007C262.888,242.374,272.739,203.285,302.922,185.26z"/>
<path style="fill:#9BC95C;" d="M308.783,374.09c30.152-17.981,69.231-8.11,87.241,22.024c18.002,30.168,8.13,69.241-22.037,87.243
	c-30.167,18.014-69.239,8.143-87.237-22.007C268.769,431.2,278.601,392.114,308.783,374.09z"/>
<path style="fill:#B5DB81;" d="M252.365,279.539c30.136-17.977,69.231-8.074,87.229,22.057c17.982,30.158,8.142,69.206-22.04,87.23
	c-30.15,18.012-69.226,8.14-87.24-22.026C212.314,336.651,222.152,297.584,252.365,279.539z"/>
<g>
</g>
<g>
</g>
<g>
</g>
<g>
</g>
<g>
</g>
<g>
</g>
<g>
</g>
<g>
</g>
<g>
</g>
<g>
</g>
<g>
</g>
<g>
</g>
<g>
</g>
<g>
</g>
<g>
</g>
</svg>
