<?xml version="1.0" encoding="iso-8859-1"?>
<!-- Generator: Adobe Illustrator 19.0.0, SVG Export Plug-In . SVG Version: 6.00 Build 0)  -->
<svg xmlns="http://www.w3.org/2000/svg" xmlns:xlink="http://www.w3.org/1999/xlink" version="1.1" id="Layer_1" x="0px" y="0px" viewBox="0 0 388.225 388.225" style="enable-background:new 0 0 388.225 388.225;" xml:space="preserve" width="512" height="512">
<g>
	<rect x="174.017" y="189.566" style="fill:#F79F4B;" width="40.191" height="183.659"/>
	<rect x="174.017" y="189.566" style="fill:#CA8540;" width="20.095" height="183.659"/>
	<g>
		<g>
			<g>
				<circle style="fill:#8DB44E;" cx="194.112" cy="103.771" r="103.771"/>
			</g>
		</g>
	</g>
	<g>
		<g>
			<g>
				<g>
					<path style="fill:#7DA045;" d="M194.112,207.542c-57.311,0-103.771-46.46-103.771-103.771S136.801,0,194.112,0V207.542z"/>
				</g>
			</g>
		</g>
	</g>
	<path style="fill:#387F9E;" d="M235.896,388.225h-83.566c-8.284,0-15-6.716-15-15s6.716-15,15-15h83.566c8.284,0,15,6.716,15,15   S244.18,388.225,235.896,388.225z"/>
	<path style="fill:#29556E;" d="M193.612,388.225h-41.283c-8.284,0-15-6.716-15-15s6.716-15,15-15h41.283V388.225z"/>
</g>















</svg>
