<?xml version="1.0" encoding="iso-8859-1"?>
<!-- Generator: Adobe Illustrator 19.0.0, SVG Export Plug-In . SVG Version: 6.00 Build 0)  -->
<svg version="1.1" id="Layer_1" xmlns="http://www.w3.org/2000/svg" xmlns:xlink="http://www.w3.org/1999/xlink" x="0px" y="0px"
	 viewBox="0 0 507.986 507.986" style="enable-background:new 0 0 507.986 507.986;" xml:space="preserve">
<path style="fill:#C6FC68;" d="M254.501,19.696c-55.572,34.257-97.666,188.408-97.666,261.986c0,73.61,42.102,68.435,97.666,81.471"
	/>
<path style="fill:#07A595;" d="M254.517,382.846c-1.481,0-3.001-0.173-4.513-0.528c-8.192-1.922-16.1-3.434-23.591-4.868
	c-43.89-8.42-89.277-17.117-89.277-95.768c0-73.058,41.677-238.466,107.032-278.749c9.232-5.687,21.386-2.828,27.097,6.428
	c5.703,9.255,2.828,21.386-6.435,27.089c-33.264,20.512-88.308,143.604-88.308,245.224c0,46.112,14.446,48.868,57.305,57.092
	c8.019,1.536,16.305,3.119,25.175,5.207c10.587,2.481,17.148,13.076,14.667,23.67C271.547,376.725,263.457,382.846,254.517,382.846z
	"/>
<path style="fill:#A7D613;" d="M253.532,19.696c55.587,34.257,97.634,188.408,97.634,261.986c0,73.61-42.11,68.435-97.634,81.471"/>
<path style="fill:#07A595;" d="M253.524,382.846c-8.948,0-17.022-6.12-19.165-15.202c-2.473-10.587,4.08-21.181,14.675-23.67
	c8.862-2.087,17.156-3.679,25.167-5.215c42.835-8.216,57.265-10.988,57.265-57.084c0-101.628-55.005-224.721-88.261-245.224
	c-9.263-5.711-12.138-17.841-6.428-27.089c5.703-9.271,17.833-12.13,27.089-6.428c65.323,40.259,106.984,205.674,106.984,278.749
	c0,78.643-45.355,87.355-89.23,95.768c-7.491,1.441-15.384,2.946-23.584,4.868C256.526,382.672,255.021,382.846,253.524,382.846z"/>
<path style="fill:#07A595;" d="M253.997,507.986c-10.878,0-19.692-8.814-19.692-19.692V309.007c0-10.878,8.814-19.692,19.692-19.692
	c10.878,0,19.692,8.814,19.692,19.692v179.287C273.689,499.172,264.875,507.986,253.997,507.986z"/>
<g>
</g>
<g>
</g>
<g>
</g>
<g>
</g>
<g>
</g>
<g>
</g>
<g>
</g>
<g>
</g>
<g>
</g>
<g>
</g>
<g>
</g>
<g>
</g>
<g>
</g>
<g>
</g>
<g>
</g>
</svg>
