<?xml version="1.0" encoding="iso-8859-1"?>
<!-- Generator: Adobe Illustrator 19.0.0, SVG Export Plug-In . SVG Version: 6.00 Build 0)  -->
<svg version="1.1" id="Layer_1" xmlns="http://www.w3.org/2000/svg" xmlns:xlink="http://www.w3.org/1999/xlink" x="0px" y="0px"
	 viewBox="0 0 504.123 504.123" style="enable-background:new 0 0 504.123 504.123;" xml:space="preserve">
<g>
	<path style="fill:#0AA06E;" d="M51.373,484.1c-2.332-12.067-12.934-21.197-25.687-21.197S2.332,472.032,0,484.1H51.373z"/>
	<path style="fill:#0AA06E;" d="M92.538,484.1c-2.332-12.067-12.942-21.197-25.695-21.197s-23.355,9.129-25.687,21.197H92.538z"/>
	<path style="fill:#0AA06E;" d="M133.703,484.1c-2.339-12.067-12.942-21.197-25.695-21.197s-23.355,9.129-25.702,21.197H133.703z"/>
	<path style="fill:#0AA06E;" d="M174.852,484.1c-2.332-12.067-12.934-21.197-25.687-21.197s-23.371,9.129-25.695,21.197H174.852z"/>
	<path style="fill:#0AA06E;" d="M216.017,484.1c-2.339-12.067-12.942-21.197-25.695-21.197s-23.355,9.129-25.695,21.197H216.017z"/>
	<path style="fill:#0AA06E;" d="M257.166,484.1c-2.339-12.067-12.934-21.197-25.695-21.197c-12.753,0-23.355,9.129-25.687,21.197
		H257.166z"/>
	<path style="fill:#0AA06E;" d="M298.331,484.1c-2.332-12.067-12.942-21.197-25.695-21.197c-12.753,0-23.355,9.129-25.687,21.197
		H298.331z"/>
	<path style="fill:#0AA06E;" d="M339.495,484.1c-2.339-12.067-12.942-21.197-25.695-21.197s-23.355,9.129-25.695,21.197H339.495z"/>
	<path style="fill:#0AA06E;" d="M380.644,484.1c-2.332-12.067-12.934-21.197-25.695-21.197c-12.753,0-23.355,9.129-25.687,21.197
		H380.644z"/>
	<path style="fill:#0AA06E;" d="M421.809,484.1c-2.339-12.067-12.942-21.197-25.702-21.197c-12.745,0-23.347,9.129-25.679,21.197
		H421.809z"/>
	<path style="fill:#0AA06E;" d="M462.958,484.1c-2.332-12.067-12.934-21.197-25.687-21.197s-23.363,9.129-25.695,21.197H462.958z"/>
	<path style="fill:#0AA06E;" d="M504.123,484.1c-2.339-12.067-12.942-21.197-25.695-21.197c-12.753,0-23.355,9.129-25.687,21.197
		H504.123z"/>
</g>
<path style="fill:#007EAA;" d="M278.977,473.175c0,13.722-11.13,10.618-24.844,10.618h-4.143c-13.714,0-24.844,3.111-24.844-10.618
	l7.877-121.88c0-13.722,3.253-24.844,16.967-24.844h4.143c13.714,0,16.967,11.122,16.967,24.844L278.977,473.175z"/>
<path style="fill:#0064A8;" d="M230.487,390.64c6.333,16.573,13.698,26.104,21.575,26.12c7.861,0,15.234-9.555,21.567-26.12
	c0,0,0.008,0,0.016,0.016l-2.544-39.353c0-13.722-3.253-24.844-16.967-24.844h-4.143c-13.714,0-16.967,11.122-16.967,24.844
	l-2.536,39.353C230.479,390.64,230.487,390.64,230.487,390.64z"/>
<g>
	<path style="fill:#078457;" d="M347.711,319.59c5.797,10.051,2.371,22.89-7.696,28.696l0,0c-10.043,5.805-22.89,2.371-28.696-7.688
		L156.412,72.287c-5.813-10.043-2.371-22.89,7.68-28.696l0,0c10.059-5.805,22.906-2.363,28.696,7.688L347.711,319.59z"/>
	<path style="fill:#078457;" d="M232.259,351.011c-3.017,11.209-14.525,17.857-25.726,14.856l0,0
		c-11.232-3.017-17.881-14.525-14.864-25.75l80.187-299.26c2.985-11.201,14.525-17.857,25.726-14.856l0,0
		c11.232,3.009,17.849,14.525,14.864,25.742L232.259,351.011z"/>
	<path style="fill:#078457;" d="M128.402,291.596c-10.043,5.79-22.89,2.347-28.696-7.696l0,0
		c-5.813-10.059-2.371-22.906,7.696-28.719l268.304-154.908c10.043-5.797,22.89-2.347,28.711,7.688l0,0
		c5.797,10.075,2.339,22.906-7.696,28.719L128.402,291.596z"/>
	<path style="fill:#078457;" d="M96.981,176.144c-11.201-3.025-17.849-14.533-14.848-25.75l0,0
		c3.017-11.209,14.509-17.873,25.726-14.856l299.276,80.179c11.201,3.009,17.865,14.533,14.848,25.734l0,0
		c-3.001,11.225-14.525,17.857-25.742,14.88L96.981,176.144z"/>
	<path style="fill:#078457;" d="M396.721,255.204c10.043,5.797,13.509,18.637,7.696,28.696l0,0
		c-5.797,10.051-18.645,13.501-28.696,7.696L107.402,136.68c-10.059-5.79-13.493-18.637-7.696-28.688l0,0
		c5.813-10.059,18.66-13.501,28.696-7.696L396.721,255.204z"/>
	<path style="fill:#078457;" d="M312.462,340.141c3.001,11.217-3.647,22.725-14.848,25.734l0,0
		c-11.232,3.001-22.756-3.647-25.758-14.872L191.677,51.736c-3.017-11.193,3.647-22.725,14.848-25.726l0,0
		c11.232-3.017,22.725,3.655,25.742,14.864L312.462,340.141z"/>
	<path style="fill:#078457;" d="M192.803,340.606c-5.797,10.035-18.645,13.477-28.696,7.688l0,0
		c-10.059-5.805-13.509-18.653-7.696-28.719L311.32,51.271c5.797-10.043,18.645-13.477,28.696-7.704l0,0
		c10.059,5.829,13.477,18.668,7.712,28.719L192.803,340.606z"/>
	<path style="fill:#078457;" d="M107.859,256.339c-11.201,2.985-22.709-3.663-25.726-14.88l0,0
		c-2.985-11.209,3.631-22.725,14.848-25.734l299.276-80.187c11.201-3.009,22.741,3.647,25.726,14.848l0,0
		c3.017,11.225-3.647,22.725-14.864,25.758L107.859,256.339z"/>
</g>
<g>
	<path style="fill:#0AA06E;" d="M273.061,350.854c0,11.603-9.397,21-21,21l0,0c-11.618,0-21.016-9.397-21.016-21V41.023
		c0-11.603,9.397-21,21.016-21l0,0c11.603,0,21,9.397,21,21V350.854z"/>
	<path style="fill:#0AA06E;" d="M157.373,320.331c-8.2,8.2-21.496,8.2-29.704,0l0,0c-8.2-8.216-8.216-21.504,0-29.72L346.742,71.53
		c8.2-8.2,21.504-8.2,29.704,0l0,0c8.216,8.216,8.2,21.504,0,29.72L157.373,320.331z"/>
	<path style="fill:#0AA06E;" d="M97.138,216.946c-11.603-0.016-21-9.413-21-21.016l0,0c0-11.618,9.397-21.016,21.016-21.016h309.815
		c11.603,0,21.016,9.413,21.016,21l0,0c0,11.634-9.413,21.016-21.016,21.031L97.138,216.946L97.138,216.946z"/>
	<path style="fill:#0AA06E;" d="M127.661,101.25c-8.2-8.216-8.2-21.504,0-29.72l0,0c8.216-8.2,21.504-8.216,29.72,0l219.073,219.073
		c8.2,8.2,8.2,21.504,0.016,29.704l0,0c-8.231,8.216-21.52,8.2-29.735,0.016L127.661,101.25z"/>
</g>
<g>
	<circle style="fill:#21D695;" cx="130.914" cy="137.177" r="6.892"/>
	<circle style="fill:#21D695;" cx="194.481" cy="81.55" r="4.427"/>
	<circle style="fill:#21D695;" cx="306.176" cy="91.884" r="10.831"/>
	<circle style="fill:#21D695;" cx="157.034" cy="228.257" r="8.365"/>
	<circle style="fill:#21D695;" cx="189.527" cy="186.919" r="15.265"/>
	<circle style="fill:#21D695;" cx="263.373" cy="185.895" r="8.365"/>
	<circle style="fill:#21D695;" cx="327.365" cy="151.457" r="16.242"/>
	<circle style="fill:#21D695;" cx="378.092" cy="152.93" r="6.892"/>
	<circle style="fill:#21D695;" cx="362.819" cy="235.15" r="12.304"/>
	<circle style="fill:#21D695;" cx="232.842" cy="129.796" r="3.45"/>
	<circle style="fill:#21D695;" cx="224.965" cy="291.273" r="14.273"/>
	<circle style="fill:#21D695;" cx="310.138" cy="274.038" r="13.785"/>
	<circle style="fill:#21D695;" cx="251.557" cy="104.196" r="6.396"/>
	<circle style="fill:#21D695;" cx="177.703" cy="297.196" r="5.419"/>
	<circle style="fill:#21D695;" cx="262.877" cy="234.654" r="6.892"/>
</g>
<g>
</g>
<g>
</g>
<g>
</g>
<g>
</g>
<g>
</g>
<g>
</g>
<g>
</g>
<g>
</g>
<g>
</g>
<g>
</g>
<g>
</g>
<g>
</g>
<g>
</g>
<g>
</g>
<g>
</g>
</svg>
