<?xml version="1.0" encoding="iso-8859-1"?>
<!-- Generator: Adobe Illustrator 19.0.0, SVG Export Plug-In . SVG Version: 6.00 Build 0)  -->
<svg version="1.1" id="Capa_1" xmlns="http://www.w3.org/2000/svg" xmlns:xlink="http://www.w3.org/1999/xlink" x="0px" y="0px"
	 viewBox="0 0 460 460" style="enable-background:new 0 0 460 460;" xml:space="preserve">
<g id="XMLID_1078_">
	<path id="XMLID_1079_" style="fill:#FF9478;" d="M210,190c0-11.046,8.954-20,20-20V60h-40v40h-20c-16.542,0-30-13.458-30-30V40h-40
		v30c0,38.598,31.402,70,70,70h20v130h-50c-16.542,0-30-13.458-30-30v-80H70v40c-16.542,0-30-13.458-30-30v-30H0v30
		c0,38.598,31.402,70,70,70c0,38.598,31.402,70,70,70h50v60c11.046,0,20,8.954,20,20s-8.954,20-20,20v50h40V210
		C218.954,210,210,201.046,210,190z"/>
	<path id="XMLID_1080_" style="fill:#FF7956;" d="M420,120v10c0,16.542-13.458,30-30,30v-40h-40v80c0,16.542-13.458,30-30,30h-50
		V100h20c38.598,0,70-31.402,70-70V0h-40v30c0,16.542-13.458,30-30,30h-60v110c11.046,0,20,8.954,20,20s-8.954,20-20,20v250h40V350
		c-11.046,0-20-8.954-20-20s8.954-20,20-20v-40h50c38.598,0,70-31.402,70-70c38.598,0,70-31.402,70-70v-10H420z"/>
	<path id="XMLID_1081_" style="fill:#FF9478;" d="M250,330c0,11.046,8.954,20,20,20v-40C258.954,310,250,318.954,250,330z"/>
	<path id="XMLID_1082_" style="fill:#FF7956;" d="M210,390c0-11.046-8.954-20-20-20v40C201.046,410,210,401.046,210,390z"/>
	<path id="XMLID_1083_" style="fill:#FF9478;" d="M250,190c0-11.046-8.954-20-20-20v40C241.046,210,250,201.046,250,190z"/>
	<path id="XMLID_1084_" style="fill:#FF7956;" d="M210,190c0,11.046,8.954,20,20,20v-40C218.954,170,210,178.954,210,190z"/>
</g>
<g>
</g>
<g>
</g>
<g>
</g>
<g>
</g>
<g>
</g>
<g>
</g>
<g>
</g>
<g>
</g>
<g>
</g>
<g>
</g>
<g>
</g>
<g>
</g>
<g>
</g>
<g>
</g>
<g>
</g>
</svg>
