<?xml version="1.0" encoding="iso-8859-1"?>
<!-- Generator: Adobe Illustrator 19.0.0, SVG Export Plug-In . SVG Version: 6.00 Build 0)  -->
<svg version="1.1" id="Layer_1" xmlns="http://www.w3.org/2000/svg" xmlns:xlink="http://www.w3.org/1999/xlink" x="0px" y="0px"
	 viewBox="0 0 512 512" style="enable-background:new 0 0 512 512;" xml:space="preserve">
<path style="fill:#BDCCD4;" d="M178.615,189.833v-57.867c0-42.67,34.715-77.385,77.385-77.385s77.385,34.715,77.385,77.385v57.867
	c16.691,8.842,31.688,20.45,44.381,34.22v-92.088c0-67.142-54.624-121.766-121.766-121.766S134.234,64.823,134.234,131.965v92.088
	C146.926,210.283,161.923,198.674,178.615,189.833z"/>
<path style="fill:#29ABE2;" d="M377.766,224.053c-12.692-13.77-27.689-25.379-44.381-34.22
	c-23.096-12.234-49.428-19.173-77.385-19.173s-54.289,6.94-77.385,19.173c-16.691,8.842-31.688,20.45-44.381,34.22
	c-27.19,29.499-43.805,68.896-43.805,112.177c0,91.442,74.129,165.571,165.571,165.571s165.571-74.129,165.571-165.571
	C421.571,292.949,404.956,253.552,377.766,224.053z"/>
<circle style="fill:#FF1D25;" cx="256" cy="336.615" r="90.814"/>
<path d="M387.965,220.139v-88.173C387.965,59.199,328.766,0,256,0S124.035,59.199,124.035,131.965v88.173
	C95.757,252.253,80.23,293.317,80.23,336.23C80.23,433.15,159.08,512,256,512s175.77-78.85,175.77-175.77
	C431.77,293.317,416.243,252.254,387.965,220.139z M323.186,173.793c-21.198-8.752-44.128-13.333-67.186-13.333
	c-23.058,0-45.988,4.581-67.186,13.333v-41.828c0-37.047,30.14-67.187,67.186-67.187s67.186,30.14,67.186,67.187V173.793z
	 M256,20.398c61.518,0,111.567,50.049,111.567,111.567v68.453c-7.513-6.18-15.523-11.724-23.982-16.592v-51.861
	c0-48.295-39.289-87.586-87.585-87.586s-87.585,39.29-87.585,87.586v51.861c-8.458,4.868-16.469,10.411-23.982,16.592v-68.453
	C144.433,70.447,194.482,20.398,256,20.398z M256,491.602c-85.672,0-155.372-69.699-155.372-155.372
	c0-39.122,14.598-76.506,41.105-105.264c12.017-13.037,26.031-23.844,41.656-32.119c22.215-11.768,47.323-17.987,72.611-17.987
	c25.288,0,50.396,6.221,72.611,17.987c15.623,8.276,29.639,19.083,41.656,32.119h-0.001c26.508,28.759,41.106,66.142,41.106,105.264
	C411.372,421.902,341.672,491.602,256,491.602z"/>
<path d="M256,235.602c-55.7,0-101.016,45.316-101.016,101.016S200.3,437.634,256,437.634s101.016-45.316,101.016-101.016
	S311.7,235.602,256,235.602z M256,417.235c-44.452,0-80.618-36.164-80.618-80.618S211.548,256,256,256s80.618,36.164,80.618,80.618
	S300.452,417.235,256,417.235z"/>
<path d="M292.726,301.912c-3.984-3.983-10.44-3.983-14.425,0l-22.111,22.111l-22.111-22.111c-3.984-3.983-10.44-3.983-14.425,0
	c-3.983,3.983-3.983,10.441,0,14.425l22.111,22.111l-22.111,22.111c-3.983,3.983-3.983,10.441,0,14.425
	c1.992,1.992,4.602,2.987,7.212,2.987s5.22-0.995,7.212-2.987l22.111-22.111l22.111,22.111c1.992,1.992,4.602,2.987,7.212,2.987
	c2.61,0,5.22-0.995,7.212-2.987c3.983-3.983,3.983-10.441,0-14.425l-22.111-22.111l22.111-22.111
	C296.709,312.353,296.709,305.895,292.726,301.912z"/>
<g>
</g>
<g>
</g>
<g>
</g>
<g>
</g>
<g>
</g>
<g>
</g>
<g>
</g>
<g>
</g>
<g>
</g>
<g>
</g>
<g>
</g>
<g>
</g>
<g>
</g>
<g>
</g>
<g>
</g>
</svg>
