<?xml version="1.0" encoding="iso-8859-1"?>
<!-- Generator: Adobe Illustrator 19.0.0, SVG Export Plug-In . SVG Version: 6.00 Build 0)  -->
<svg version="1.1" id="Layer_1" xmlns="http://www.w3.org/2000/svg" xmlns:xlink="http://www.w3.org/1999/xlink" x="0px" y="0px"
	 viewBox="0 0 512 512" style="enable-background:new 0 0 512 512;" xml:space="preserve">
<polygon style="fill:#51AA5B;" points="455.285,449.239 359.244,298.763 419.418,298.763 327.144,166.887 376.755,166.887 
	255.999,12.343 135.244,166.887 184.855,166.887 92.581,298.763 152.755,298.763 56.714,449.239 "/>
<rect x="168.218" y="189.459" transform="matrix(-0.8194 -0.5733 0.5733 -0.8194 186.3983 524.4035)" style="fill:#95E49C;" width="15.2" height="86.753"/>
<rect x="235.684" y="449.239" style="fill:#B84B41;" width="40.644" height="55.164"/>
<rect x="133.197" y="320.798" transform="matrix(-0.8429 -0.538 0.538 -0.8429 58.2639 764.9875)" style="fill:#95E49C;" width="15.199" height="106.383"/>
<path style="fill:#7A1B2E;" d="M344.717,476.82h-15.2v19.98h-15.2v-30.113h-15.2V496.8h-15.2v-39.962h185.232l-96.04-150.476h60.901
	l-92.275-131.876h50.6L255.999,0L119.663,174.487h50.6L77.989,306.363h60.901l-96.04,150.476h185.232V496.8H144.2V512h83.881h55.838
	h83.881v-15.2h-23.083v-19.98H344.717z M70.581,441.639l86.34-135.276h62.263v-15.2h-52.561h-13.867h-45.581l81.639-116.676h30.37
	v-15.2h-19.735h-14.593h-34.028L255.999,24.686l105.172,134.6h-34.028h-14.593h-73.102v15.2h83.737l10.636,15.2h-63.973v15.2h74.608
	l60.369,86.277h-45.581h-13.867H239.449v15.2h115.629l9.701,15.2h-94.93v15.2h104.632l66.937,104.877H283.919H228.08H70.581V441.639
	z M243.28,496.8v-39.962h25.439V496.8H243.28z"/>
<g>
</g>
<g>
</g>
<g>
</g>
<g>
</g>
<g>
</g>
<g>
</g>
<g>
</g>
<g>
</g>
<g>
</g>
<g>
</g>
<g>
</g>
<g>
</g>
<g>
</g>
<g>
</g>
<g>
</g>
</svg>
