<?xml version="1.0" encoding="iso-8859-1"?>
<!-- Generator: Adobe Illustrator 19.0.0, SVG Export Plug-In . SVG Version: 6.00 Build 0)  -->
<svg version="1.1" id="Layer_1" xmlns="http://www.w3.org/2000/svg" xmlns:xlink="http://www.w3.org/1999/xlink" x="0px" y="0px"
	 viewBox="0 0 512.001 512.001" style="enable-background:new 0 0 512.001 512.001;" xml:space="preserve">
<path style="fill:#F2C500;" d="M285.338,340.311h-58.672c-12.091,0-21.512-10.547-20.126-22.574l21.732-189.039
	c1.175-10.227,9.833-17.946,20.126-17.946h15.209c10.293,0,18.951,7.719,20.126,17.946l21.732,189.039
	C306.847,329.751,297.443,340.311,285.338,340.311z"/>
<path style="fill:#F59D00;" d="M305.464,317.738l-21.732-189.039c-1.175-10.227-9.833-17.946-20.126-17.946h-7.604v229.559h29.336
	C297.429,340.311,306.849,329.764,305.464,317.738z"/>
<path style="fill:#65C6BB;" d="M511.518,126.805C482.041-12.229,311.221-26.786,256.002,90.191
	C200.779-26.792,29.982-12.327,0.485,126.805c-4.263,20.106,20.594,32.766,34.491,18.175
	c28.721-30.156,71.583-43.506,112.854-39.812C62.435,134.782,23.756,244.577,97.784,327.97
	c13.467,15.171,38.648,3.204,35.105-16.955c-10.091-57.44,21.285-138.1,119.973-160.254c1.118-0.253,2.246-0.619,3.138-0.981
	c1.484,0.601,3.377,1.12,5.072,1.329c73.922,9.297,130.903,86.679,118.039,159.905c-3.55,20.201,21.696,32.061,35.105,16.955
	c74.21-83.597,35-193.31-50.045-222.803c41.328-3.698,84.171,9.695,112.854,39.812C491.012,159.666,515.763,146.834,511.518,126.805
	z"/>
<path style="fill:#57BDB7;" d="M511.518,126.805C482.05-12.184,311.246-26.842,256.002,90.191v59.589
	c1.432,0.582,3.329,1.112,5.072,1.329c73.922,9.295,130.903,86.679,118.039,159.905c-3.55,20.201,21.696,32.061,35.105,16.956
	c74.212-83.6,34.997-193.312-50.045-222.803c41.329-3.698,84.171,9.695,112.854,39.814
	C491.013,159.666,515.763,146.832,511.518,126.805z"/>
<path style="fill:#F59D00;" d="M314.554,396.749l-11.155-96.958h-47.398h-47.398l-11.155,96.958
	c-0.758,6.578,1.748,13.11,6.707,17.495c12.014,10.622,23.78,0.452,51.847,0.297c28.067,0.154,39.833,10.324,51.847-0.297
	C312.806,409.859,315.312,403.327,314.554,396.749z"/>
<g>
	<path style="fill:#E87E04;" d="M314.554,396.749l-11.155-96.958h-47.398v114.75c28.067,0.154,39.832,10.324,51.847-0.297
		C312.806,409.859,315.312,403.327,314.554,396.749z"/>
	<path style="fill:#E87E04;" d="M400.509,500.5H111.494c-15.361,0-25.16-16.497-17.769-29.993
		c25.094-45.816,68.517-79.038,119.138-91.147c27.321-6.595,57.678-6.924,86.332,0.012c50.569,12.097,93.992,45.318,119.086,91.134
		C425.657,483.982,415.896,500.5,400.509,500.5z M285.223,417.744c0.035,0.009,0.072,0.019,0.107,0.028
		C285.293,417.763,285.258,417.753,285.223,417.744z M283.284,417.366c0.177,0.024,0.353,0.046,0.527,0.066
		C283.635,417.411,283.459,417.39,283.284,417.366z"/>
</g>
<path style="fill:#D55400;" d="M418.279,470.508c-25.094-45.816-68.517-79.038-119.086-91.135
	c-14.701-3.555-29.748-5.092-43.193-5.092v126.218h144.508C415.87,500.5,425.67,484.003,418.279,470.508z M283.284,417.366
	c0.177,0.024,0.353,0.046,0.527,0.065C283.636,417.411,283.461,417.39,283.284,417.366z M285.223,417.744
	c0.035,0.009,0.072,0.019,0.107,0.03C285.293,417.763,285.258,417.753,285.223,417.744z"/>
<g>
</g>
<g>
</g>
<g>
</g>
<g>
</g>
<g>
</g>
<g>
</g>
<g>
</g>
<g>
</g>
<g>
</g>
<g>
</g>
<g>
</g>
<g>
</g>
<g>
</g>
<g>
</g>
<g>
</g>
</svg>
