<?xml version="1.0" encoding="iso-8859-1"?>
<!-- Generator: Adobe Illustrator 19.0.0, SVG Export Plug-In . SVG Version: 6.00 Build 0)  -->
<svg version="1.1" id="Layer_1" xmlns="http://www.w3.org/2000/svg" xmlns:xlink="http://www.w3.org/1999/xlink" x="0px" y="0px"
	 viewBox="0 0 512 512" style="enable-background:new 0 0 512 512;" xml:space="preserve">
<path style="fill:#51AA5B;" d="M397.874,285.305V84.166c0-15.671-12.704-28.375-28.375-28.375
	c-15.671,0-28.375,12.704-28.375,28.375V35.979c0-15.671-12.704-28.375-28.375-28.375c-15.671,0-28.375,12.704-28.375,28.375
	c0-15.671-12.704-28.375-28.375-28.375s-28.375,12.704-28.375,28.375v27.91c0-15.671-12.704-28.375-28.375-28.375
	s-28.375,12.704-28.375,28.375v153.504c0-15.671-12.704-28.375-28.375-28.375s-28.375,12.704-28.375,28.375v67.913
	c0,39.64,16.263,75.476,42.474,101.218c-9.551,3.142-16.452,12.12-16.452,22.722v71.221c0,13.217,10.714,23.93,23.93,23.93h183.844
	c13.217,0,23.93-10.713,23.93-23.93v-71.221c0-10.602-6.901-19.58-16.452-22.722C381.61,360.781,397.874,324.945,397.874,285.305z"
	/>
<path style="fill:#95E49C;" d="M354.671,351.993l-12.58-8.546c11.621-17.109,17.764-37.214,17.764-58.143v-38.429h15.208v38.429
	C375.063,309.294,368.01,332.354,354.671,351.993z"/>
<path style="fill:#249189;" d="M347.923,385.315c13.217,0,23.93,10.713,23.93,23.93v71.221c0,13.217-10.713,23.93-23.93,23.93
	H164.077c-13.217,0-23.93-10.713-23.93-23.93v-71.221c0-13.217,10.713-23.93,23.93-23.93H347.923z"/>
<g>
	<path style="fill:#7A1B2E;" d="M405.479,84.166c0-19.838-16.14-35.979-35.979-35.979c-7.731,0-14.9,2.452-20.771,6.616V35.979
		C348.729,16.14,332.589,0,312.75,0c-11.515,0-21.785,5.438-28.375,13.881C277.785,5.438,267.515,0,256,0
		c-19.36,0-35.196,15.368-35.951,34.546c-5.876-4.178-13.055-6.636-20.799-6.636c-19.838,0-35.979,16.14-35.979,35.979v124.14
		c-5.871-4.165-13.041-6.616-20.771-6.616c-19.838,0-35.979,16.14-35.979,35.979v67.913c0,37.055,13.353,71.965,37.801,99.356
		c-4.48,3.593-7.889,8.351-9.86,13.748c-0.001,0.002-0.002,0.004-0.002,0.006c-0.136,0.372-0.26,0.748-0.381,1.125
		c-0.053,0.162-0.107,0.324-0.157,0.488c-0.095,0.313-0.184,0.63-0.27,0.947c-0.064,0.236-0.127,0.471-0.186,0.71
		c-0.069,0.279-0.134,0.56-0.195,0.841c-0.062,0.283-0.119,0.568-0.172,0.854c-0.048,0.256-0.095,0.51-0.138,0.767
		c-0.053,0.322-0.097,0.648-0.14,0.973c-0.03,0.231-0.063,0.461-0.088,0.693c-0.041,0.375-0.07,0.754-0.097,1.133
		c-0.013,0.19-0.033,0.377-0.044,0.568c-0.031,0.573-0.05,1.149-0.05,1.729v71.221c0,17.388,14.146,31.534,31.534,31.534h183.844
		c17.388,0,31.534-14.146,31.534-31.534v-71.221c0-0.58-0.018-1.156-0.05-1.729c-0.01-0.191-0.029-0.378-0.044-0.568
		c-0.027-0.379-0.057-0.758-0.097-1.133c-0.025-0.232-0.058-0.462-0.088-0.693c-0.043-0.325-0.087-0.651-0.14-0.973
		c-0.042-0.258-0.089-0.512-0.138-0.767c-0.054-0.286-0.111-0.571-0.172-0.854c-0.061-0.282-0.126-0.562-0.195-0.841
		c-0.059-0.238-0.122-0.474-0.186-0.71c-0.086-0.317-0.174-0.633-0.27-0.947c-0.05-0.163-0.104-0.325-0.157-0.488
		c-0.122-0.377-0.246-0.754-0.381-1.125c-0.001-0.002-0.002-0.004-0.002-0.006c-1.971-5.396-5.38-10.155-9.86-13.748
		c24.448-27.39,37.801-62.301,37.801-99.356V84.166H405.479z M390.271,285.305c0,34.92-13.208,67.716-37.272,92.82
		c-1.654-0.269-3.348-0.415-5.076-0.415h-40.289v15.208h40.289c1.64,0,3.222,0.248,4.716,0.701l0.384,0.127
		c0.002,0.001,0.003,0.001,0.005,0.002c0.653,0.215,1.278,0.479,1.888,0.767c0.204,0.097,0.411,0.189,0.61,0.294
		c0.179,0.094,0.351,0.198,0.526,0.298c0.27,0.156,0.538,0.314,0.798,0.486c0.127,0.083,0.251,0.168,0.375,0.253
		c0.324,0.226,0.643,0.462,0.95,0.711c0.059,0.048,0.12,0.093,0.178,0.142c1.17,0.974,2.201,2.109,3.061,3.369
		c0.028,0.042,0.057,0.084,0.084,0.127c0.254,0.38,0.492,0.773,0.714,1.174c0.029,0.053,0.06,0.104,0.088,0.158
		c0.477,0.885,0.874,1.819,1.182,2.792c0.031,0.098,0.056,0.2,0.085,0.299c0.109,0.369,0.206,0.744,0.29,1.123
		c0.033,0.155,0.065,0.31,0.094,0.466c0.066,0.349,0.119,0.703,0.162,1.059c0.018,0.152,0.041,0.303,0.055,0.456
		c0.047,0.501,0.077,1.007,0.077,1.52v71.221c0,9.002-7.324,16.326-16.326,16.326H164.077c-9.002,0-16.326-7.324-16.326-16.326
		v-71.218c0-0.513,0.03-1.019,0.077-1.52c0.014-0.153,0.036-0.304,0.055-0.456c0.044-0.357,0.096-0.71,0.162-1.058
		c0.029-0.156,0.06-0.312,0.094-0.466c0.083-0.379,0.18-0.754,0.29-1.123c0.029-0.099,0.054-0.201,0.085-0.299
		c0.308-0.973,0.706-1.907,1.182-2.792c0.028-0.054,0.06-0.105,0.088-0.158c0.222-0.401,0.46-0.794,0.714-1.174
		c0.028-0.043,0.056-0.084,0.084-0.127c0.86-1.261,1.892-2.395,3.061-3.369c0.059-0.049,0.12-0.094,0.178-0.142
		c0.307-0.248,0.625-0.485,0.95-0.711c0.124-0.086,0.248-0.171,0.375-0.253c0.261-0.17,0.528-0.329,0.798-0.486
		c0.174-0.1,0.347-0.205,0.526-0.298c0.2-0.105,0.407-0.197,0.61-0.294c0.609-0.288,1.235-0.553,1.888-0.767
		c0.002-0.001,0.003-0.001,0.005-0.002l0.384-0.127c1.494-0.452,3.076-0.701,4.716-0.701h123.278v-15.208H164.077
		c-1.729,0-3.423,0.145-5.076,0.415c-24.064-25.105-37.272-57.9-37.272-92.82v-67.913c0-11.453,9.317-20.771,20.771-20.771
		s20.771,9.317,20.771,20.771v60.006h15.208v-60.006V63.888c0-11.453,9.317-20.771,20.771-20.771
		c11.454,0,20.771,9.317,20.771,20.771v126.058h15.208V63.888v-27.91c0-11.454,9.318-20.771,20.771-20.771
		c11.453,0,20.771,9.317,20.771,20.771v153.968h15.208V35.979c0-11.453,9.317-20.771,20.771-20.771s20.771,9.317,20.771,20.771
		v27.91v20.277v50.171h15.208V84.166c0-11.453,9.317-20.771,20.771-20.771s20.771,9.317,20.771,20.771V285.305z"/>
	<rect x="333.52" y="154.614" style="fill:#7A1B2E;" width="15.208" height="35.333"/>
</g>
<rect x="162.451" y="408.13" style="fill:#7EC3C1;" width="104.63" height="15.208"/>
<g>
</g>
<g>
</g>
<g>
</g>
<g>
</g>
<g>
</g>
<g>
</g>
<g>
</g>
<g>
</g>
<g>
</g>
<g>
</g>
<g>
</g>
<g>
</g>
<g>
</g>
<g>
</g>
<g>
</g>
</svg>
