<?xml version="1.0" encoding="iso-8859-1"?>
<!-- Generator: Adobe Illustrator 16.0.0, SVG Export Plug-In . SVG Version: 6.00 Build 0)  -->
<!DOCTYPE svg PUBLIC "-//W3C//DTD SVG 1.1//EN" "http://www.w3.org/Graphics/SVG/1.1/DTD/svg11.dtd">
<svg version="1.1" id="Capa_1" xmlns="http://www.w3.org/2000/svg" xmlns:xlink="http://www.w3.org/1999/xlink" x="0px" y="0px"
	 width="194.613px" height="194.613px" viewBox="0 0 194.613 194.613" style="enable-background:new 0 0 194.613 194.613;"
	 xml:space="preserve">
<g>
	<path d="M154.408,105.376c-0.673-7.11-1.438-14.202-2.158-21.248c-0.181-1.773-1.591-3.061-3.435-2.617
		c-0.436,0.104-0.875,0.18-1.312,0.276c-1.721-7.338-12.904-13.203-18.682-17.134c-5.956-4.051-13.503-8.802-20.897-10.672
		c-0.717-2.896-2.878-5.72-7.193-8.381C84.645,35.683,73.404,56.606,66.004,67.98c-5.015,7.707-14.088,13.96-15.841,23.293
		c-0.38,2.025-0.004,3.782,0.854,5.322c-1.714,0.037-3.428,0.062-5.144,0.156c-3.196,0.172-4.285,5.312-0.795,5.876
		c4.974,0.804,9.949,1.264,14.925,1.596c1.372,0.802,2.783,1.137,4.218,1.087c0.134,0.053,0.254,0.103,0.383,0.154
		c-1.271,1.575-2.53,3.17-3.752,4.819c-4.411-3.313-9.294-5.92-14.469-7.457c-1.412-0.419-2.635,0.104-3.446,1.016
		c-15.075-5.07-30.691,8.523-37.839,22.201c-10.254,19.622-4.838,43.744,14.417,55.095c19.997,11.788,49.573,2.377,58.461-18.625
		c3.429-8.104,3.628-16.657,1.562-24.734c4.589-2.102,9.143-4.166,13.668-6.016c1.313,7.6,0.099,16.9-0.916,23.846
		c-0.289,1.979,0.461,3.795,2.508,4.418c21.174,6.439,18.525-21.165,17.446-36.255c5.981-2.622,11.932-5.357,17.784-8.238
		c-4.612,5.886-7.663,13.606-8.915,20.244c-3.164,16.772,2.498,36.873,18.877,44.479c22.805,10.59,48.062-8.354,53.535-30.224
		C199.853,124.752,177.481,106.455,154.408,105.376z M61.481,122.137c3.635,3.736,6.579,7.909,8.53,12.601
		c-7.257,3.286-14.636,6.295-21.917,8.159C52.69,135.925,57.204,129.13,61.481,122.137z M72.031,155.98
		c-3.798,21.457-31.698,26.043-48.521,18.319c-17.294-7.94-17.819-29.066-11.189-44.034c6.736-15.211,19.149-19.704,34.168-19.392
		c3.384,1.918,6.569,4.024,9.49,6.323c-6.463,9.55-12.383,19.707-18.321,28.933c-1.83,2.843,1.167,5.549,3.936,5.12
		c10.401-1.612,20.493-5.642,30.395-10.059C72.903,145.698,72.981,150.612,72.031,155.98z M77.382,131.339
		c-2.622-6.228-6.569-11.97-11.446-16.736c1.376-2.427,2.671-4.956,3.965-7.486c3.185,3.073,7.479,5.968,8.527,6.865
		c3.766,3.229,9.685,6.639,12.554,11.146C86.582,127.016,82.031,129.153,77.382,131.339z M90.568,97.603
		c-2.982-1.962-6.059-3.845-9.07-5.421c3.917-4.793,7.438-9.712,10.119-12.485c4.428-4.58,10.256-9.824,13.711-15.185
		c5.314,2.688,10.004,6.675,14.538,10.486c3.924,3.298,8.142,7.565,12.841,10.206c-0.694,1.364-0.011,3.273,2.081,3.551
		c4.351,0.577,8.136-0.059,12.158-1.104c0.103,3.173,0.26,6.343,0.393,9.514c-13.62-2.669-27.369-1.074-41.133,0.007
		C100.985,97.583,95.774,97.667,90.568,97.603z M110.975,116.351c-2.015-5.074-6.532-9.062-10.878-12.177
		c12.292-0.463,24.575-0.919,36.838-0.26C128.398,108.255,119.717,112.383,110.975,116.351z M184.912,151.503
		c-4.697,19.146-32.121,31.338-47.838,17.816c-9.225-7.936-9.859-22.8-7.737-33.789c2.226-11.53,8.847-18.497,18.748-22.559
		c0.056,0.895,0.084,1.791,0.145,2.686c0.154,2.24,2.498,25.499,3.357,24.835c-1.402,1.083-1.943,3.521,0,4.489
		c0.132,0.066,0.264,0.131,0.395,0.197c1.942,0.967,4.321-0.201,4.349-2.495c0.117-9.771-0.412-19.599-1.219-29.412
		C174.579,116.978,190.679,128.002,184.912,151.503z"/>
	<path d="M117.873,162.761c-7.354-0.502-15.364-0.858-22.713-0.246c-3.464,0.289-4.577,5.408-0.856,6.327
		c7.257,1.792,16.141,1.937,23.57,1.474C122.748,170.012,122.732,163.093,117.873,162.761z"/>
	<path d="M123.674,14.175c-2.787-3.576-7.315-5.409-11.811-5.463c-4.402-1.748-11.01,2.842-13.702,6.738
		c-4.406,6.378-2.386,15.55,3.807,19.885c5.867,4.106,14.356,4.043,19.859-0.69C128.114,29.24,128.634,20.541,123.674,14.175z"/>
</g>
<g>
</g>
<g>
</g>
<g>
</g>
<g>
</g>
<g>
</g>
<g>
</g>
<g>
</g>
<g>
</g>
<g>
</g>
<g>
</g>
<g>
</g>
<g>
</g>
<g>
</g>
<g>
</g>
<g>
</g>
</svg>
