<?xml version="1.0" encoding="UTF-8" standalone="no"?>
<svg
   xmlns:dc="http://purl.org/dc/elements/1.1/"
   xmlns:cc="http://creativecommons.org/ns#"
   xmlns:rdf="http://www.w3.org/1999/02/22-rdf-syntax-ns#"
   xmlns:svg="http://www.w3.org/2000/svg"
   xmlns="http://www.w3.org/2000/svg"
   xmlns:sodipodi="http://sodipodi.sourceforge.net/DTD/sodipodi-0.dtd"
   xmlns:inkscape="http://www.inkscape.org/namespaces/inkscape"
   version="1.1"
   id="Layer_1"
   x="0px"
   y="0px"
   viewBox="0 0 460 460"
   style="enable-background:new 0 0 460 460;"
   xml:space="preserve"
   sodipodi:docname="horse.svg"
   inkscape:version="1.0.1 (3bc2e813f5, 2020-09-07)"><metadata
   id="metadata56"><rdf:RDF><cc:Work
       rdf:about=""><dc:format>image/svg+xml</dc:format><dc:type
         rdf:resource="http://purl.org/dc/dcmitype/StillImage" /></cc:Work></rdf:RDF></metadata><defs
   id="defs54" /><sodipodi:namedview
   pagecolor="#ffffff"
   bordercolor="#666666"
   borderopacity="1"
   objecttolerance="10"
   gridtolerance="10"
   guidetolerance="10"
   inkscape:pageopacity="0"
   inkscape:pageshadow="2"
   inkscape:window-width="1366"
   inkscape:window-height="745"
   id="namedview52"
   showgrid="false"
   inkscape:zoom="1.2565217"
   inkscape:cx="230"
   inkscape:cy="230"
   inkscape:window-x="-8"
   inkscape:window-y="-8"
   inkscape:window-maximized="1"
   inkscape:current-layer="Layer_1" />
<g
   id="XMLID_2704_"
   transform="matrix(-1,0,0,1,459.99983,0)">
	<path
   id="XMLID_1320_"
   style="fill:#7f5639"
   d="m 160,280 -18.905,151.24 c -0.626,5.004 -4.88,8.76 -9.923,8.76 H 130 v 20 h -30 l 4.472,-8.944 c 3.032,-6.064 8.898,-10.129 15.528,-10.916 v 0 V 440 L 110,280 Z" />
	<path
   id="XMLID_1555_"
   style="fill:#443126"
   d="M 104.472,451.056 C 107.86,444.28 114.785,440 122.361,440 H 130 v 20 h -30 z" />
	<path
   id="XMLID_1676_"
   style="fill:#7f5639"
   d="m 420,280 -18.905,151.24 c -0.626,5.004 -4.88,8.76 -9.923,8.76 H 390 v 20 h -30 l 4.472,-8.944 c 3.041,-6.083 8.936,-10.143 15.59,-10.912 V 440 H 380 L 370,280 Z" />
	<path
   id="XMLID_1589_"
   style="fill:#443126"
   d="M 364.472,451.056 C 367.86,444.28 374.785,440 382.361,440 H 390 v 20 h -30 z" />
	<path
   id="XMLID_1766_"
   style="fill:#443126"
   d="m 460,390 v 0 c -33.137,0 -60,-26.863 -60,-60 v -120 0 c 33.137,0 60,26.863 60,60 z" />
	<path
   id="XMLID_1556_"
   style="fill:#563d2d"
   d="M 460,381.953 C 442.071,371.577 430,352.205 430,330 V 218.047 c 17.929,10.376 30,29.748 30,51.953 z" />
	<path
   id="XMLID_1588_"
   style="fill:#aa734d"
   d="m 417.623,245.512 c -0.684,31.952 -7.623,53.219 -7.623,53.219 -10.036,18.099 -26.885,31.89 -47.082,37.924 l -11.823,94.585 c -0.626,5.004 -4.88,8.76 -9.923,8.76 H 340 v 20 h -30 l 4.472,-8.944 c 3.026,-6.051 8.875,-10.102 15.486,-10.901 v -0.822 l -9.164,-146.63 -122.847,3.723 -16.852,134.814 c -0.626,5.004 -4.88,8.76 -9.923,8.76 H 170 v 20 h -30 l 4.472,-8.944 c 3.032,-6.064 8.899,-10.118 15.528,-10.906 V 440 L 142.231,297.849 c -33.387,-1.987 -59.192,-31.284 -56.099,-65.305 2.571,-28.286 2.195,-56.762 -1.124,-84.97 L 81.627,118.832 C 81.035,113.796 76.766,110 71.695,110 H 14.142 C 6.308,110 -0.038,103.63 0,95.788 0.019,91.94 1.713,88.288 4.434,85.566 l 53.85,-53.85 C 65.786,24.214 75.96,20 86.569,20 H 90 V 10 h 10 V 0 c 5.587,0 10.117,4.529 10.117,10.117 V 20 c 6.229,0 12.103,2.903 15.887,7.851 l 101.794,133.115 c 11.73,15.339 30.124,24.095 49.425,23.527 l 78.729,-2.316 c 33.711,-0.991 60.641,25.69 61.729,57.822 V 240 c 0.061,1.823 0.05,3.66 -0.058,5.512 z" />
	<path
   id="XMLID_1697_"
   style="fill:#7f5639"
   d="M 100,30 H 89.883 V 0 C 95.471,0 100,4.529 100,10.117 Z" />
	<path
   id="XMLID_1838_"
   style="fill:#443126"
   d="m 310,460 h 30 v -20 h -7.639 c -7.575,0 -14.501,4.28 -17.889,11.056 z" />
	<path
   id="XMLID_1868_"
   style="fill:#443126"
   d="m 140,460 h 30 v -20 h -7.639 c -7.575,0 -14.501,4.28 -17.889,11.056 z" />
	<path
   id="XMLID_1677_"
   style="fill:#c48866"
   d="m 350,210 v 0 c -11.046,0 -20,8.954 -20,20 v 10 c 0,16.569 13.431,30 30,30 h 10 c 11.046,0 20,-8.954 20,-20 v 0 c 0,-22.091 -17.909,-40 -40,-40 z" />
	<path
   id="XMLID_2235_"
   style="fill:#936444"
   d="m 320.415,292.715 -120.726,3.658 c -1.54,0.047 -2.275,-1.901 -1.068,-2.858 C 205.552,288.021 210,279.532 210,270 v -0.105 c -0.009,-5.442 4.436,-9.895 9.878,-9.895 h 80.471 c 5.337,0 9.661,4.332 9.652,9.669 L 310,270 c 0,9.081 4.041,17.213 10.415,22.715 z" />
	<path
   id="XMLID_2008_"
   style="fill:#936444"
   d="M 114.58,142.965 C 111.437,129.273 99.107,119.846 85.06,119.999 84.967,120 84.875,120 84.782,120 c -1.106,0 -2.193,-0.08 -3.261,-0.219 l 3.27,27.792 c 3.319,28.208 3.695,56.684 1.124,84.97 v 0 c -1.013,11.139 1.079,21.769 5.518,31.102 2.228,4.684 9.002,4.333 10.745,-0.552 4.004,-11.22 10.439,-21.284 18.675,-29.554 7.265,-7.295 10.456,-17.702 8.152,-27.737 z" />
	<path
   id="XMLID_1329_"
   style="fill:#c48866"
   d="m 94.562,54.821 c 1.725,7.514 -3.711,14.695 -11.4,15.245 -0.112,0.008 -0.225,0.017 -0.337,0.026 -12.211,1.033 -22.002,11.056 -22.774,23.286 -0.073,1.152 -0.067,2.288 0.011,3.404 C 60.567,103.948 54.792,110 47.608,110 H 14.142 C 6.308,110 -0.038,103.63 0,95.787 0.019,91.939 1.713,88.287 4.434,85.566 l 53.85,-53.85 C 65.786,24.214 75.96,20 86.568,20 Z" />
	<path
   id="XMLID_1585_"
   style="fill:#443126"
   d="M 20,80.62 C 20,91.323 11.323,100 0.62,100 v 0 C 0.045,98.122 -0.155,96.08 0.127,93.956 0.547,90.784 2.123,87.877 4.385,85.615 L 20,70 v 0 z" />
	<path
   id="XMLID_1464_"
   style="fill:#443126"
   d="m 75,50 c -2.761,0 -5,2.239 -5,5 0,2.761 2.239,5 5,5 2.761,0 5,-2.239 5,-5 0,-2.761 -2.239,-5 -5,-5 z" />
	<path
   id="XMLID_1783_"
   style="fill:#563d2d"
   d="m 265.552,183.662 -28.257,0.831 c -19.301,0.568 -37.696,-8.188 -49.425,-23.527 l -18.467,-24.149 c -3.044,-3.98 -9.402,-1.828 -9.402,3.183 v 0 c -11.046,0 -20,-8.954 -20,-20 v 0 c 0,-14.031 -4.618,-27.671 -13.141,-38.816 L 101.37,47.851 C 97.586,42.903 91.712,40 85.483,40 H 50 l 8.284,-8.284 c 6.339,-6.339 14.588,-10.318 23.392,-11.403 0.049,-0.006 0.098,-0.012 0.146,-0.018 0.725,-0.087 1.452,-0.155 2.183,-0.202 0.084,-0.006 0.168,-0.014 0.252,-0.019 C 85.026,20.029 85.796,20 86.569,20 h 0.072 23.476 0.072 c 6.229,0 12.103,2.903 15.887,7.851 L 227.87,160.966 c 9.316,12.183 22.842,20.192 37.682,22.696 z" />
	<path
   id="XMLID_2004_"
   style="fill:#6d4e3c"
   d="m 238.009,171.473 c -14.993,-2.428 -28.674,-10.477 -38.072,-22.767 l -27.87,-36.445 v 0 c -10.96,0 -20.583,-7.416 -23.238,-18.05 -2.311,-9.256 -5.643,-19.718 -9.903,-25.288 L 113.436,35.59 c -3.784,-4.948 -9.658,-7.851 -15.887,-7.851 H 62.742 c 5.505,-4.03 11.957,-6.592 18.743,-7.428 0.049,-0.006 0.098,-0.012 0.146,-0.018 0.725,-0.087 1.452,-0.155 2.183,-0.202 0.084,-0.006 0.168,-0.014 0.252,-0.019 C 84.835,20.029 85.604,20 86.377,20 h 0.072 23.476 0.072 c 6.229,0 12.103,2.903 15.887,7.851 l 101.794,133.115 c 3.03,3.962 6.511,7.474 10.331,10.507 z" />
</g>
<g
   id="g21"
   transform="matrix(-1,0,0,1,459.99983,0)">
</g>
<g
   id="g23"
   transform="matrix(-1,0,0,1,459.99983,0)">
</g>
<g
   id="g25"
   transform="matrix(-1,0,0,1,459.99983,0)">
</g>
<g
   id="g27"
   transform="matrix(-1,0,0,1,459.99983,0)">
</g>
<g
   id="g29"
   transform="matrix(-1,0,0,1,459.99983,0)">
</g>
<g
   id="g31"
   transform="matrix(-1,0,0,1,459.99983,0)">
</g>
<g
   id="g33"
   transform="matrix(-1,0,0,1,459.99983,0)">
</g>
<g
   id="g35"
   transform="matrix(-1,0,0,1,459.99983,0)">
</g>
<g
   id="g37"
   transform="matrix(-1,0,0,1,459.99983,0)">
</g>
<g
   id="g39"
   transform="matrix(-1,0,0,1,459.99983,0)">
</g>
<g
   id="g41"
   transform="matrix(-1,0,0,1,459.99983,0)">
</g>
<g
   id="g43"
   transform="matrix(-1,0,0,1,459.99983,0)">
</g>
<g
   id="g45"
   transform="matrix(-1,0,0,1,459.99983,0)">
</g>
<g
   id="g47"
   transform="matrix(-1,0,0,1,459.99983,0)">
</g>
<g
   id="g49"
   transform="matrix(-1,0,0,1,459.99983,0)">
</g>
</svg>
