<?xml version="1.0" encoding="UTF-8" standalone="no"?>
<svg
   xmlns:dc="http://purl.org/dc/elements/1.1/"
   xmlns:cc="http://creativecommons.org/ns#"
   xmlns:rdf="http://www.w3.org/1999/02/22-rdf-syntax-ns#"
   xmlns:svg="http://www.w3.org/2000/svg"
   xmlns="http://www.w3.org/2000/svg"
   xmlns:xlink="http://www.w3.org/1999/xlink"
   xmlns:sodipodi="http://sodipodi.sourceforge.net/DTD/sodipodi-0.dtd"
   xmlns:inkscape="http://www.inkscape.org/namespaces/inkscape"
   version="1.1"
   id="Capa_1"
   x="0px"
   y="0px"
   viewBox="0 0 60 60"
   style="enable-background:new 0 0 60 60;"
   xml:space="preserve"
   sodipodi:docname="seashell-svgrepo-com.svg"
   inkscape:version="1.0.1 (3bc2e813f5, 2020-09-07)"><metadata
   id="metadata51"><rdf:RDF><cc:Work
       rdf:about=""><dc:format>image/svg+xml</dc:format><dc:type
         rdf:resource="http://purl.org/dc/dcmitype/StillImage" /></cc:Work></rdf:RDF></metadata><defs
   id="defs49"><linearGradient
     inkscape:collect="always"
     id="linearGradient880"><stop
       style="stop-color:#ffc200;stop-opacity:1;"
       offset="0"
       id="stop876" /><stop
       style="stop-color:#ffc200;stop-opacity:0;"
       offset="1"
       id="stop878" /></linearGradient><linearGradient
     inkscape:collect="always"
     xlink:href="#linearGradient880"
     id="linearGradient882"
     x1="-0.5"
     y1="32.293242"
     x2="23.187027"
     y2="32.293242"
     gradientUnits="userSpaceOnUse" /><linearGradient
     inkscape:collect="always"
     xlink:href="#linearGradient880"
     id="linearGradient884"
     x1="19.5"
     y1="10.5785"
     x2="40.5"
     y2="10.5785"
     gradientUnits="userSpaceOnUse" /><linearGradient
     inkscape:collect="always"
     xlink:href="#linearGradient880"
     id="linearGradient886"
     x1="8.0718674"
     y1="35.919493"
     x2="27.054918"
     y2="35.919493"
     gradientUnits="userSpaceOnUse" /><linearGradient
     inkscape:collect="always"
     xlink:href="#linearGradient880"
     id="linearGradient888"
     x1="19.917265"
     y1="37.01447"
     x2="40.030705"
     y2="37.01447"
     gradientUnits="userSpaceOnUse" /><linearGradient
     inkscape:collect="always"
     xlink:href="#linearGradient880"
     id="linearGradient890"
     x1="32.945247"
     y1="35.925736"
     x2="51.984083"
     y2="35.925736"
     gradientUnits="userSpaceOnUse" /><linearGradient
     inkscape:collect="always"
     xlink:href="#linearGradient880"
     id="linearGradient892"
     x1="36.813883"
     y1="32.266894"
     x2="60.5"
     y2="32.266894"
     gradientUnits="userSpaceOnUse" /></defs><sodipodi:namedview
   pagecolor="#ffffff"
   bordercolor="#666666"
   borderopacity="1"
   objecttolerance="10"
   gridtolerance="10"
   guidetolerance="10"
   inkscape:pageopacity="0"
   inkscape:pageshadow="2"
   inkscape:window-width="1366"
   inkscape:window-height="745"
   id="namedview47"
   showgrid="false"
   inkscape:zoom="9.6333333"
   inkscape:cx="30"
   inkscape:cy="30"
   inkscape:window-x="-8"
   inkscape:window-y="-8"
   inkscape:window-maximized="1"
   inkscape:current-layer="g14" />
<g
   id="g14">
	<path
   d="M35.572,17.887c-0.65,0.168-1.329,0.31-2.026,0.43l7.829,35.608c3.524-0.993,6.869-2.457,9.956-4.345l-0.991-1.975   L35.572,17.887z"
   id="path2"
   style="fill:#ffef99;fill-opacity:1;stroke:url(#linearGradient890);stroke-opacity:1" />
	<path
   d="M57.617,33.874L41.27,15.9l-1.349,0.529c-0.731,0.292-1.54,0.594-2.403,0.88l14.611,29.404l0.892,1.776   c1.596-1.093,3.115-2.304,4.539-3.635c1.573-1.47,2.44-3.43,2.44-5.519S59.134,35.287,57.617,33.874z"
   id="path4"
   style="fill:#ffef99;fill-opacity:1;stroke:url(#linearGradient892);stroke-opacity:1" />
	<path
   d="M24.429,17.888L9.663,47.605l-0.947,2.004c3.063,1.868,6.38,3.318,9.873,4.306l0.233-0.938l7.632-34.659   C25.757,18.198,25.078,18.056,24.429,17.888z"
   id="path6"
   style="fill:#ffef99;fill-opacity:1;stroke:url(#linearGradient886);stroke-opacity:1" />
	<path
   d="M20.073,16.427l-1.355-0.513L2.44,33.816C0.866,35.287,0,37.248,0,39.336s0.867,4.049,2.44,5.519   c1.436,1.342,2.969,2.561,4.579,3.662l0.844-1.785l14.62-29.422C21.618,17.023,20.807,16.72,20.073,16.427z"
   id="path8"
   style="fill:#ffef99;fill-opacity:1;stroke:url(#linearGradient882);stroke-opacity:1" />
	<path
   d="M28.443,18.579l-7.675,34.854l-0.243,0.979c3.06,0.706,6.236,1.071,9.474,1.071c3.226,0,6.389-0.363,9.437-1.063   l-7.88-35.841C30.515,18.662,29.485,18.662,28.443,18.579z"
   id="path10"
   style="fill:#ffef99;fill-opacity:1;stroke:url(#linearGradient888);stroke-opacity:1" />
	<path
   d="M20.799,14.563c0.877,0.351,1.861,0.718,2.923,1.045l0.458,0.133c0.463,0.134,0.912,0.248,1.356,0.353   c0.106,0.025,0.212,0.05,0.32,0.073c0.285,0.063,0.563,0.113,0.843,0.163c0.207,0.037,0.411,0.076,0.621,0.107l0.39,0.048   c0.055,0.007,0.111,0.012,0.167,0.018c0.338,0.04,0.659,0.072,0.971,0.094c0.381,0.025,0.765,0.043,1.154,0.043   c0.389,0,0.773-0.018,1.154-0.043c0.312-0.022,0.634-0.054,0.972-0.094c0.054-0.006,0.109-0.011,0.163-0.018l0.392-0.048   c0.213-0.031,0.42-0.071,0.63-0.108c0.275-0.05,0.548-0.099,0.829-0.161c0.11-0.024,0.217-0.05,0.326-0.075   c0.443-0.105,0.892-0.218,1.355-0.353l0.459-0.133c1.057-0.326,2.035-0.69,2.904-1.038l0.535-0.374   C39.891,14.014,40,13.777,40,13.517V8.295c0-2.048-1.836-3.778-4.009-3.778h-6.576H29h-4.991C21.836,4.517,20,6.248,20,8.295v5.222   c0,0.26,0.109,0.497,0.281,0.679L20.799,14.563z"
   id="path12"
   style="fill:#ffef99;fill-opacity:1;stroke:url(#linearGradient884);stroke-opacity:1" />
</g>
<g
   id="g16">
</g>
<g
   id="g18">
</g>
<g
   id="g20">
</g>
<g
   id="g22">
</g>
<g
   id="g24">
</g>
<g
   id="g26">
</g>
<g
   id="g28">
</g>
<g
   id="g30">
</g>
<g
   id="g32">
</g>
<g
   id="g34">
</g>
<g
   id="g36">
</g>
<g
   id="g38">
</g>
<g
   id="g40">
</g>
<g
   id="g42">
</g>
<g
   id="g44">
</g>
</svg>
