<?xml version="1.0" encoding="iso-8859-1"?>
<!-- Generator: Adobe Illustrator 18.0.0, SVG Export Plug-In . SVG Version: 6.00 Build 0)  -->
<!DOCTYPE svg PUBLIC "-//W3C//DTD SVG 1.1//EN" "http://www.w3.org/Graphics/SVG/1.1/DTD/svg11.dtd">
<svg version="1.1" id="Capa_1" xmlns="http://www.w3.org/2000/svg" xmlns:xlink="http://www.w3.org/1999/xlink" x="0px" y="0px"
	 viewBox="0 0 305 305" style="enable-background:new 0 0 305 305;" xml:space="preserve">
<g>
	<path d="M284.5,222.5c4.143,0,7.5-3.357,7.5-7.5V33.5c0-4.143-3.357-7.5-7.5-7.5H259V15h9c4.143,0,7.5-3.357,7.5-7.5
		S272.143,0,268,0h-33c-4.143,0-7.5,3.357-7.5,7.5s3.357,7.5,7.5,7.5h9v11h-84V15h9c4.143,0,7.5-3.357,7.5-7.5S173.143,0,169,0h-33
		c-4.143,0-7.5,3.357-7.5,7.5s3.357,7.5,7.5,7.5h9v11H61V15h9c4.143,0,7.5-3.357,7.5-7.5S74.143,0,70,0H37
		c-4.143,0-7.5,3.357-7.5,7.5S32.857,15,37,15h9v11H20.5c-4.143,0-7.5,3.357-7.5,7.5V215c0,4.143,3.357,7.5,7.5,7.5H46v18.001H20.5
		c-4.143,0-7.5,3.357-7.5,7.5c0,4.143,3.357,7.5,7.5,7.5H46V297.5c0,4.143,3.357,7.5,7.5,7.5h33c4.143,0,7.5-3.357,7.5-7.5v-41.999
		h117V297.5c0,4.143,3.357,7.5,7.5,7.5h33c4.143,0,7.5-3.357,7.5-7.5v-41.999h25.5c4.143,0,7.5-3.357,7.5-7.5
		c0-4.143-3.357-7.5-7.5-7.5H259V222.5H284.5z M28,41h249v166.5H28V41z M79,290H61v-67.5h18V290z M94,240.501V222.5h117v18.001H94z
		 M244,290h-18v-67.5h18V290z"/>
	<path d="M119.5,59h-33c-4.143,0-7.5,3.357-7.5,7.5v33c0,4.143,3.357,7.5,7.5,7.5c4.143,0,7.5-3.357,7.5-7.5V74h25.5
		c4.143,0,7.5-3.357,7.5-7.5S123.643,59,119.5,59z"/>
	<path d="M218.5,59h-33c-4.143,0-7.5,3.357-7.5,7.5s3.357,7.5,7.5,7.5H211v25.5c0,4.143,3.357,7.5,7.5,7.5s7.5-3.357,7.5-7.5v-33
		C226,62.357,222.643,59,218.5,59z"/>
	<path d="M119.5,174.5H94V149c0-4.143-3.357-7.5-7.5-7.5c-4.143,0-7.5,3.357-7.5,7.5v33c0,4.143,3.357,7.5,7.5,7.5h33
		c4.143,0,7.5-3.357,7.5-7.5S123.643,174.5,119.5,174.5z"/>
	<path d="M218.5,141.5c-4.143,0-7.5,3.357-7.5,7.5v25.5h-25.5c-4.143,0-7.5,3.357-7.5,7.5s3.357,7.5,7.5,7.5h33
		c4.143,0,7.5-3.357,7.5-7.5v-33C226,144.857,222.643,141.5,218.5,141.5z"/>
</g>
<g>
</g>
<g>
</g>
<g>
</g>
<g>
</g>
<g>
</g>
<g>
</g>
<g>
</g>
<g>
</g>
<g>
</g>
<g>
</g>
<g>
</g>
<g>
</g>
<g>
</g>
<g>
</g>
<g>
</g>
</svg>
