<?xml version="1.0" encoding="iso-8859-1"?>
<!-- Generator: Adobe Illustrator 19.0.0, SVG Export Plug-In . SVG Version: 6.00 Build 0)  -->
<svg version="1.1" id="Layer_1" xmlns="http://www.w3.org/2000/svg" xmlns:xlink="http://www.w3.org/1999/xlink" x="0px" y="0px"
	 viewBox="0 0 512 512" style="enable-background:new 0 0 512 512;" xml:space="preserve">
<g>
	<path style="fill:#DBB67E;" d="M415.399,70.608h69.795c0,35.334-28.649,63.982-63.982,63.982H395.77v40.71H348.8v-40.71V70.608
		V48.873c0-21.124,17.122-38.245,38.245-38.245v59.98H415.399z"/>
	<path style="fill:#DBB67E;" d="M163.483,327.976v25.814c0,26.096-21.157,47.253-47.253,47.253v61.802h8.724
		c21.277,0,38.529,17.252,38.529,38.529H116.23H74.713V327.976h27.155v-46.523h-41.8c-18.376,0-33.261-14.897-33.261-33.261v-3.097
		h69.61L348.8,212.379h46.969v49.075c0,36.741-29.783,66.523-66.523,66.523h-1.036v134.867h8.724
		c21.277,0,38.529,17.252,38.529,38.529H328.21h-41.518V327.976H163.483z"/>
</g>
<rect x="348.797" y="175.297" style="fill:#8697CB;" width="46.972" height="37.079"/>
<path d="M406.398,261.453v-49.075V175.3v-30.083h14.814c41.14,0,74.61-33.469,74.61-74.61c0-5.869-4.759-10.627-10.627-10.627
	h-87.522V10.627C397.673,4.758,392.914,0,387.046,0c-26.949,0-48.873,21.924-48.873,48.873V175.3v27.74l-31.777,4.119
	c-5.822,0.755-9.928,6.085-9.173,11.906c0.694,5.357,5.265,9.263,10.525,9.263c0.456,0,0.916-0.03,1.379-0.089l40.358-5.232h35.658
	v38.447c0,30.821-25.076,55.896-55.897,55.896h-1.036c-5.868,0-10.627,4.758-10.627,10.627v134.867
	c0,5.869,4.759,10.627,10.627,10.627h8.725c11.624,0,21.612,7.146,25.799,17.275H297.32v-162.77v-29.445
	c0-5.869-4.759-10.627-10.627-10.627s-10.627,4.758-10.627,10.627v18.818H174.11v-18.818c0-5.869-4.759-10.627-10.627-10.627
	s-10.627,4.758-10.627,10.627v29.445v25.814c0,20.196-16.431,36.626-36.627,36.626c-5.868,0-10.627,4.758-10.627,10.627v61.802
	c0,5.869,4.759,10.627,10.627,10.627h8.725c11.624,0,21.612,7.146,25.799,17.275H85.34V338.604h16.528
	c5.868,0,10.627-4.758,10.627-10.627v-46.523c0-5.869-4.759-10.627-10.627-10.627h-41.8c-9.842,0-18.237-6.314-21.347-15.105h57.694
	c0.457,0,0.913-0.03,1.366-0.088l147.959-19.18c5.822-0.755,9.928-6.085,9.173-11.906s-6.094-9.928-11.905-9.172L95.729,234.467
	H26.805c-5.868,0-10.627,4.758-10.627,10.627v3.097c0,24.2,19.688,43.888,43.89,43.888H91.24v25.268H74.713
	c-5.868,0-10.627,4.758-10.627,10.627v173.398c0,5.869,4.759,10.627,10.627,10.627h88.771c5.868,0,10.627-4.758,10.627-10.627
	c0-26.468-21.027-48.117-47.254-49.12v-41.561c26.857-5.004,47.254-28.616,47.254-56.903v-15.186h101.956v162.77
	c0,5.869,4.759,10.627,10.627,10.627h88.771c5.868,0,10.627-4.758,10.627-10.627c0-26.468-21.027-48.117-47.254-49.12V338.009
	C376.869,333.272,406.398,300.746,406.398,261.453z M376.419,23.38v47.228c0,5.869,4.759,10.627,10.627,10.627h17.727v10.639
	c0,5.868,4.759,10.627,10.627,10.627s10.627-4.759,10.627-10.627V81.235h47.478c-4.941,24.346-26.51,42.728-52.292,42.728h-25.442
	c-5.868,0-10.627,4.758-10.627,10.627v30.083h-25.716v-115.8C359.427,37.408,366.449,27.552,376.419,23.38z M359.427,185.927h25.716
	v15.824h-25.716V185.927z"/>
<path d="M276.357,232.396c0.456,0,0.915-0.03,1.379-0.089l4.49-0.582c5.821-0.753,9.928-6.084,9.173-11.905
	c-0.755-5.822-6.087-9.926-11.905-9.173l-4.49,0.582c-5.821,0.753-9.928,6.084-9.173,11.905
	C266.525,228.49,271.095,232.396,276.357,232.396z"/>
<g>
</g>
<g>
</g>
<g>
</g>
<g>
</g>
<g>
</g>
<g>
</g>
<g>
</g>
<g>
</g>
<g>
</g>
<g>
</g>
<g>
</g>
<g>
</g>
<g>
</g>
<g>
</g>
<g>
</g>
</svg>
