<?xml version="1.0" encoding="UTF-8" standalone="no"?>
<svg
   xmlns:dc="http://purl.org/dc/elements/1.1/"
   xmlns:cc="http://creativecommons.org/ns#"
   xmlns:rdf="http://www.w3.org/1999/02/22-rdf-syntax-ns#"
   xmlns:svg="http://www.w3.org/2000/svg"
   xmlns="http://www.w3.org/2000/svg"
   xmlns:xlink="http://www.w3.org/1999/xlink"
   xmlns:sodipodi="http://sodipodi.sourceforge.net/DTD/sodipodi-0.dtd"
   xmlns:inkscape="http://www.inkscape.org/namespaces/inkscape"
   version="1.1"
   id="Capa_1"
   x="0px"
   y="0px"
   viewBox="0 0 550.752 550.752"
   style="enable-background:new 0 0 550.752 550.752;"
   xml:space="preserve"
   sodipodi:docname="glass.svg"
   inkscape:version="1.0.1 (3bc2e813f5, 2020-09-07)"><metadata
   id="metadata39"><rdf:RDF><cc:Work
       rdf:about=""><dc:format>image/svg+xml</dc:format><dc:type
         rdf:resource="http://purl.org/dc/dcmitype/StillImage" /></cc:Work></rdf:RDF></metadata><defs
   id="defs37"><linearGradient
     inkscape:collect="always"
     id="linearGradient878"><stop
       style="stop-color:#1a5115;stop-opacity:1"
       offset="0"
       id="stop874" /><stop
       style="stop-color:#6d7e46;stop-opacity:0"
       offset="1"
       id="stop876" /></linearGradient><linearGradient
     inkscape:collect="always"
     xlink:href="#linearGradient878"
     id="linearGradient880"
     x1="226.78024"
     y1="245.8374"
     x2="707.97357"
     y2="245.83742"
     gradientUnits="userSpaceOnUse" /></defs><sodipodi:namedview
   pagecolor="#ffffff"
   bordercolor="#666666"
   borderopacity="1"
   objecttolerance="10"
   gridtolerance="10"
   guidetolerance="10"
   inkscape:pageopacity="0"
   inkscape:pageshadow="2"
   inkscape:window-width="1366"
   inkscape:window-height="745"
   id="namedview35"
   showgrid="false"
   inkscape:zoom="1.0494741"
   inkscape:cx="394.1101"
   inkscape:cy="275.37601"
   inkscape:window-x="-8"
   inkscape:window-y="-8"
   inkscape:window-maximized="1"
   inkscape:current-layer="Capa_1" />
<path
   d="M329.193,199.787c-2.557-3.028-3.908-6.476-3.908-9.968c0-0.17-0.006-0.339-0.017-0.508l-8.282-121.971  c4.355-3.444,7.163-8.761,7.163-14.731v-4.608c0-1.575-0.196-3.144-0.584-4.662c-0.125-0.487-0.271-0.964-0.432-1.434  c3.844-4.541,6.03-10.333,6.03-16.44C329.163,11.424,317.739,0,303.698,0c-5.093,0-9.957,1.497-14.075,4.241  C285.505,1.497,280.642,0,275.548,0s-9.957,1.497-14.075,4.241C257.355,1.497,252.492,0,247.398,0  c-14.041,0-25.464,11.424-25.464,25.465c0,6.125,2.175,11.751,5.791,16.149c-0.086,0.237-0.173,0.475-0.249,0.715  c-0.58,1.833-0.874,3.741-0.874,5.672v4.608c0,5.971,2.809,11.288,7.164,14.731l-8.282,121.971  c-0.011,0.169-0.017,0.338-0.017,0.508c0,3.492-1.352,6.939-3.909,9.968c-16.631,19.704-33.413,61.702-33.413,111.114  c0,30.6,1.302,199.137,1.315,200.777c0,23.006,13.755,39.073,33.451,39.073H327.84c19.696,0,33.451-16.067,33.451-39.016  c0.013-1.698,1.315-170.235,1.315-200.835C362.606,263.942,345.797,219.459,329.193,199.787z M247.398,15  c3.204,0,6.192,1.451,8.198,3.981c1.422,1.795,3.587,2.841,5.877,2.841s4.455-1.046,5.877-2.841c2.006-2.53,4.994-3.981,8.198-3.981  s6.191,1.451,8.198,3.981c1.422,1.795,3.587,2.841,5.877,2.841s4.455-1.046,5.877-2.841c2.006-2.53,4.995-3.981,8.198-3.981  c5.77,0,10.464,4.694,10.464,10.465c0,1.881-0.517,3.683-1.435,5.258c-2.277-0.97-4.769-1.508-7.365-1.508h-42.63  c-2.61-0.442-5.375,0.512-7.136,2.733c-2.005,2.53-4.994,3.981-8.198,3.981c-5.77,0-10.464-4.694-10.464-10.465  S241.628,15,247.398,15z M346.292,511.679c0,11.982-5.705,24.073-18.451,24.073H222.912c-13.619,0-18.451-12.968-18.451-24.131  c-0.013-1.698-1.315-170.178-1.315-200.72c0-45.377,15.487-84.392,29.875-101.438c1.228-1.454,2.307-2.975,3.239-4.547h47.703  c4.142,0,7.5-3.357,7.5-7.5s-3.358-7.5-7.5-7.5h-43.486l8.048-118.52h26.85c4.142,0,7.5-3.357,7.5-7.5s-3.358-7.5-7.5-7.5h-29.987  c-2.088,0-3.787-1.699-3.787-3.787v-2.353c1.863,0.436,3.802,0.673,5.796,0.673c6.458,0,12.542-2.412,17.208-6.715h40.756  c1.733,0,3.242,1.168,3.669,2.839c0.078,0.305,0.117,0.623,0.117,0.947v4.608c0,2.088-1.698,3.787-3.786,3.787h-1.633  c-4.142,0-7.5,3.357-7.5,7.5c0,3.624,2.57,6.647,5.986,7.347l8.058,118.672h-1.148c-4.142,0-7.5,3.357-7.5,7.5s3.358,7.5,7.5,7.5  h5.366c0.931,1.572,2.011,3.093,3.239,4.547c14.847,17.588,29.876,58.08,29.876,101.438  C347.606,341.443,346.305,509.923,346.292,511.679z M275.376,265.464c-19.22,0-37.064,11.031-50.245,31.062  c-12.543,19.062-19.452,44.262-19.452,70.957s6.908,51.895,19.452,70.957c13.181,20.029,31.024,31.061,50.245,31.061  s37.064-11.031,50.245-31.061c12.543-19.063,19.452-44.262,19.452-70.957s-6.908-51.896-19.452-70.957  C312.44,276.495,294.596,265.464,275.376,265.464z M330.072,367.482c0,23.798-6.031,46.069-16.982,62.711  c-10.314,15.675-23.708,24.307-37.714,24.307s-27.4-8.632-37.714-24.307c-10.951-16.642-16.982-38.913-16.982-62.711  s6.031-46.07,16.982-62.712c10.314-15.675,23.708-24.307,37.714-24.307s27.4,8.632,37.714,24.307  C324.041,321.412,330.072,343.685,330.072,367.482z"
   id="path2" />
<g
   id="g4">
</g>
<g
   id="g6">
</g>
<g
   id="g8">
</g>
<g
   id="g10">
</g>
<g
   id="g12">
</g>
<g
   id="g14">
</g>
<g
   id="g16">
</g>
<g
   id="g18">
</g>
<g
   id="g20">
</g>
<g
   id="g22">
</g>
<g
   id="g24">
</g>
<g
   id="g26">
</g>
<g
   id="g28">
</g>
<g
   id="g30">
</g>
<g
   id="g32">
</g>
<path
   style="fill:url(#linearGradient880);stroke-width:0.846318;fill-opacity:1"
   d="m 215.8245,533.52872 c -4.23546,-2.20843 -5.83722,-3.92245 -8.25524,-8.83383 -2.15639,-4.37997 -2.19088,-5.00686 -2.81246,-51.12439 -0.34612,-25.67952 -0.67787,-75.91537 -0.73723,-111.6352 -0.12017,-72.31282 0.21563,-77.87992 6.08315,-100.85217 5.0593,-19.80788 11.8305,-35.23449 21.22559,-48.35755 l 5.28683,-7.38465 h 24.96908 c 23.81773,0 25.08485,-0.0911 27.47973,-1.97487 1.81848,-1.43042 2.51065,-2.85376 2.51065,-5.16279 0,-8.55319 -1.59919,-9.06093 -28.53843,-9.06093 -12.07968,0 -21.96235,-0.32159 -21.96148,-0.71464 8.7e-4,-0.39305 1.71601,-25.76587 3.81143,-56.38403 2.09542,-30.61816 3.80986,-56.666924 3.80986,-57.886134 v -2.216745 h 14.81261 c 14.4565,0 14.86884,-0.05623 17.15145,-2.338833 2.87932,-2.879325 3.11466,-7.925208 0.51926,-11.133835 -1.77452,-2.193812 -2.25158,-2.256936 -19.27311,-2.55026 -17.03017,-0.293471 -19.88022,-0.798559 -19.88022,-3.52319 0,-0.834481 2.16975,-1.318035 7.01115,-1.562514 5.89394,-0.29763 7.80197,-0.84565 11.97404,-3.439151 l 4.96289,-3.085104 h 19.53292 c 11.64235,0 20.27746,0.398463 21.376,0.986384 1.32115,0.707062 1.84307,2.002233 1.84307,4.573719 0,4.258545 -1.34818,5.874195 -4.90173,5.874195 -4.15793,0 -7.86657,3.82813 -7.86657,8.120025 0,2.851765 0.61134,4.118819 2.93296,6.078846 l 2.93296,2.476147 3.47281,51.93077 c 1.91005,28.56192 3.73288,54.82508 4.05074,58.36256 0.50796,5.65311 0.38111,6.43179 -1.04777,6.43179 -0.89414,0 -2.87908,1.25337 -4.41098,2.78528 -5.67802,5.67801 -2.18082,13.41331 6.06426,13.41331 4.08302,0 4.27857,0.14714 9.18116,6.90822 13.07931,18.03745 23.135,47.19747 26.86212,77.89616 0.80568,6.63602 0.93187,37.96176 0.47274,117.36317 -0.67448,116.64752 -0.50248,112.98401 -5.67149,120.79493 -4.60626,6.96051 -2.32948,6.72714 -65.56525,6.72057 -49.42071,-0.005 -56.91121,-0.19366 -59.4075,-1.49526 z m 69.55652,-64.7267 c 19.53922,-4.10231 37.04357,-19.96251 48.12096,-43.60106 12.94046,-27.61419 15.49439,-65.72075 6.55354,-97.78328 -8.38014,-30.05179 -27.66434,-53.32054 -49.77237,-60.05646 -13.48531,-4.10872 -29.64851,-2.03192 -41.9363,5.38838 -26.38226,15.9316 -42.7929,52.19544 -42.79947,94.57722 -0.003,16.19881 1.51819,27.57982 5.53918,41.45543 9.10129,31.40661 30.15303,54.86789 53.80801,59.96672 8.08997,1.74379 12.38057,1.7549 20.48645,0.0531 z"
   id="path872" /><path
   style="fill:#c80003;fill-opacity:1;stroke-width:0.846318"
   d="m 264.7751,452.04788 c -15.55904,-4.92977 -30.54176,-23.29632 -37.74672,-46.27179 -7.50574,-23.93464 -7.34011,-54.73271 0.41923,-77.95207 8.57488,-25.65981 24.17755,-42.6685 42.43662,-46.26075 15.82233,-3.11285 33.62807,7.8963 45.45888,28.10689 5.35449,9.14707 10.71124,25.16498 12.65856,37.852 2.18353,14.22584 1.30877,36.93319 -1.91918,49.81969 -7.43743,29.69133 -22.37868,49.56276 -41.48581,55.17492 -6.75488,1.98405 -12.50935,1.84792 -19.82158,-0.46889 z"
   id="path882" /><path
   style="fill:#f0df7e;fill-opacity:1;stroke-width:0.846318"
   d="m 243.92833,34.834374 c -6.33149,-2.671666 -8.11878,-11.509854 -3.30169,-16.326937 4.04691,-4.046909 8.73273,-3.836989 14.36617,0.643589 5.17874,4.11894 8.77419,3.984682 13.90381,-0.519183 4.40604,-3.868558 8.43771,-3.877538 13.27974,-0.02958 6.15339,4.890099 8.28024,4.819418 15.59776,-0.518359 5.70158,-4.159025 12.27559,-2.516299 14.88061,3.718392 0.6831,1.634875 1.03742,4.044356 0.78739,5.354402 l -0.4546,2.381903 -27.48837,-0.279084 -27.48836,-0.279082 -3.30426,2.901174 c -3.61178,3.171187 -7.6432,4.275623 -10.7782,2.952763 z"
   id="path884" /></svg>
