<?xml version="1.0" encoding="iso-8859-1"?>
<!-- Generator: Adobe Illustrator 19.0.0, SVG Export Plug-In . SVG Version: 6.00 Build 0)  -->
<svg version="1.1" id="Layer_1" xmlns="http://www.w3.org/2000/svg" xmlns:xlink="http://www.w3.org/1999/xlink" x="0px" y="0px"
	 viewBox="0 0 511.998 511.998" style="enable-background:new 0 0 511.998 511.998;" xml:space="preserve">
<path style="fill:#EC6907;" d="M75.776,340.812C24.561,414.884-5.686,479.39,13.46,498.535
	c34.409,34.409,215.34-90.73,334.987-210.377c34.412-34.411,34.412-90.203,0-124.61c-34.41-34.411-90.197-34.41-124.609,0
	C175.93,211.454,127.143,269.188,88.07,323.402"/>
<g>
	<path style="fill:#53180F;" d="M331.204,270.913c12.034-12.038,18.663-28.041,18.663-45.061
		c0.001-17.022-6.628-33.025-18.665-45.06l-10.8,10.802c9.151,9.15,14.191,21.316,14.19,34.257c0,12.941-5.039,25.109-14.19,34.261
		L331.204,270.913z"/>
	<path style="fill:#53180F;" d="M501.195,142.12l10.803-10.801c-29.547-29.546-73.062-36.8-109.483-21.787
		c4.985-12.034,7.597-25.053,7.597-38.472c0-26.842-10.454-52.078-29.436-71.059l-10.8,10.801
		c16.097,16.096,24.961,37.496,24.961,60.258c0,19.545-6.553,38.075-18.592,53.116c0.52-3.685,0.794-7.427,0.794-11.215
		c0-21.149-8.236-41.033-23.192-55.988l-10.8,10.802c12.07,12.069,18.717,28.116,18.717,45.185c0,14.619-4.89,28.481-13.874,39.744
		c-37.579-31.766-94.041-29.97-129.452,5.442c-47.053,47.051-96.829,105.656-136.564,160.789l12.393,8.931
		c11.245-15.603,23.306-31.487,35.882-47.304l61.488,61.489l10.801-10.802l-62.659-62.659c28.712-35.302,59.638-69.823,89.46-99.643
		c31.378-31.377,82.432-31.376,113.808,0.001c15.201,15.198,23.571,35.407,23.571,56.901c0,21.496-8.372,41.706-23.572,56.906
		c-7.191,7.19-14.605,14.401-22.192,21.596l-86.929-86.928l-10.801,10.801l86.575,86.575c-4.086,3.781-8.212,7.552-12.379,11.311
		l-63.395-63.393l-10.801,10.802l62.775,62.774c-46.036,40.596-95.781,78.962-141.074,108.417
		c-11.93,7.758-22.933,14.49-33.056,20.303l-40.804-40.804l-10.802,10.801L97.87,472.72c-46.988,25.06-71.762,27.66-79.008,20.413
		c-3.051-3.051-8.531-14.022,6.423-49.927c10.923-26.226,30.556-60.132,56.775-98.052l-12.565-8.687
		c-26.819,38.787-46.982,73.666-58.312,100.866c-13.795,33.122-14.818,54.907-3.122,66.602c5.376,5.376,12.862,8.064,22.601,8.064
		c9.597,0,21.382-2.611,35.483-7.832c23.536-8.713,52.81-24.407,87.009-46.648c65.779-42.777,140.805-104.072,200.694-163.962
		c18.087-18.085,28.047-42.131,28.047-67.708c0-22.868-7.968-44.507-22.581-61.759c25.063-19.921,61.738-18.311,84.907,4.858
		l10.8-10.801c-18.303-18.303-43.412-25.752-67.256-22.351C421.195,109.063,470.239,111.163,501.195,142.12z"/>
</g>
<g>
</g>
<g>
</g>
<g>
</g>
<g>
</g>
<g>
</g>
<g>
</g>
<g>
</g>
<g>
</g>
<g>
</g>
<g>
</g>
<g>
</g>
<g>
</g>
<g>
</g>
<g>
</g>
<g>
</g>
</svg>
