<?xml version="1.0" encoding="iso-8859-1"?>
<!-- Generator: Adobe Illustrator 19.0.0, SVG Export Plug-In . SVG Version: 6.00 Build 0)  -->
<svg version="1.1" id="Layer_1" xmlns="http://www.w3.org/2000/svg" xmlns:xlink="http://www.w3.org/1999/xlink" x="0px" y="0px"
	 viewBox="0 0 512 512" style="enable-background:new 0 0 512 512;" xml:space="preserve">
<g transform="translate(1 1)">
	<path style="fill:#FFDD09;" d="M348.44,229.4H160.707v-59.733l29.867-68.267c2.56-5.12,7.68-8.533,13.653-8.533h99.84
		c5.973,0,11.093,3.413,13.653,8.533l29.867,68.267V229.4H348.44z"/>
	<g>
		<path style="fill:#54C9FD;" d="M348.44,169.667c-17.92,11.093-41.813,11.947-59.733,0c-20.48-11.947-51.2-11.093-68.267,0
			c-18.773,10.24-41.813,11.947-59.733,0V229.4H348.44V169.667z"/>
		<path style="fill:#54C9FD;" d="M327.107,502.467H182.04c-11.947,0-21.333-9.387-21.333-21.333V454.68
			c0-11.093,9.387-20.48,21.333-20.48h145.92c11.947,0,21.333,9.387,21.333,21.333v26.453
			C348.44,493.08,339.053,502.467,327.107,502.467"/>
		<path style="fill:#54C9FD;" d="M327.107,434.2H182.04c-11.947,0-21.333-9.387-21.333-21.333v-26.453
			c0-11.093,9.387-20.48,21.333-20.48h145.92c11.947,0,21.333,9.387,21.333,21.333v26.453
			C348.44,424.813,339.053,434.2,327.107,434.2"/>
		<path style="fill:#54C9FD;" d="M327.107,365.933H182.04c-11.947,0-21.333-9.387-21.333-21.333v-26.453
			c0-11.093,9.387-20.48,21.333-20.48h145.92c11.947,0,21.333,9.387,21.333,21.333v26.453
			C348.44,356.547,339.053,365.933,327.107,365.933"/>
	</g>
	<g>
		<path style="fill:#33A9F8;" d="M327.107,297.667h-25.6c11.947,0,21.333,9.387,21.333,21.333v26.453
			c0,11.947-9.387,21.333-21.333,21.333h25.6c11.947,0,21.333-9.387,21.333-21.333V319
			C348.44,307.053,339.053,297.667,327.107,297.667"/>
		<path style="fill:#33A9F8;" d="M327.107,365.933h-25.6c11.947,0,21.333,9.387,21.333,21.333v26.453
			c0,11.947-9.387,21.333-21.333,21.333h25.6c11.947,0,21.333-9.387,21.333-21.333v-26.453
			C348.44,375.32,339.053,365.933,327.107,365.933"/>
		<path style="fill:#33A9F8;" d="M327.107,434.2h-25.6c11.947,0,21.333,9.387,21.333,21.333v26.453
			c0,11.947-9.387,21.333-21.333,21.333h25.6c11.947,0,21.333-9.387,21.333-21.333v-26.453
			C348.44,443.587,339.053,434.2,327.107,434.2"/>
	</g>
	<path style="fill:#54C9FD;" d="M327.107,297.667H182.04c-11.947,0-21.333-9.387-21.333-21.333V229.4H348.44v46.933
		C348.44,288.28,339.053,297.667,327.107,297.667"/>
	<path style="fill:#33A9F8;" d="M322.84,229.4v46.933c0,11.947-9.387,21.333-21.333,21.333h25.6
		c11.947,0,21.333-9.387,21.333-21.333V229.4H322.84z"/>
	<g>
		<path style="fill:#FFFFFF;" d="M182.04,297.667h25.6c-11.947,0-21.333,9.387-21.333,21.333v26.453
			c0,11.093,9.387,20.48,21.333,20.48h-25.6c-11.947,0-21.333-9.387-21.333-21.333v-26.453
			C160.707,307.053,170.093,297.667,182.04,297.667"/>
		<path style="fill:#FFFFFF;" d="M182.04,365.933h25.6c-11.947,0-21.333,9.387-21.333,21.333v26.453
			c0,11.093,9.387,20.48,21.333,20.48h-25.6c-11.947,0-21.333-9.387-21.333-21.333v-26.453
			C160.707,375.32,170.093,365.933,182.04,365.933"/>
		<path style="fill:#FFFFFF;" d="M182.04,434.2h25.6c-11.947,0-21.333,9.387-21.333,21.333v26.453
			c0,11.093,9.387,20.48,21.333,20.48h-25.6c-11.947,0-21.333-9.387-21.333-21.333V454.68
			C160.707,443.587,170.093,434.2,182.04,434.2"/>
		<path style="fill:#FFFFFF;" d="M186.307,229.4v46.933c0,11.947,9.387,21.333,21.333,21.333h-25.6
			c-11.947,0-21.333-9.387-21.333-21.333V229.4H186.307z"/>
	</g>
	<path style="fill:#FD9808;" d="M318.573,101.4c-2.56-5.12-7.68-8.533-13.653-8.533h-25.6c5.973,0,11.093,3.413,13.653,8.533
		l29.867,68.267V229.4h25.6v-59.733L318.573,101.4z"/>
	<path style="fill:#FFFFFF;" d="M190.573,101.4c2.56-5.12,7.68-8.533,13.653-8.533h25.6c-5.973,0-11.093,3.413-13.653,8.533
		l-29.867,68.267V229.4h-25.6v-59.733L190.573,101.4z"/>
	<path style="fill:#33A9F8;" d="M348.44,229.4v-59.733c-7.68,4.267-17.067,7.68-25.6,8.533v51.2H348.44z"/>
	<g>
		<polygon style="fill:#FFDD09;" points="211.907,92.867 297.24,92.867 297.24,58.733 211.907,58.733 		"/>
		<path style="fill:#FFDD09;" d="M309.187,58.733H199.96c-3.413,0-5.12-1.707-5.12-5.12v-40.96c0-3.413,1.707-5.12,5.12-5.12h110.08
			c2.56,0,4.267,1.707,4.267,5.12v41.813C314.307,57.027,312.6,58.733,309.187,58.733"/>
	</g>
	<path style="fill:#FD9808;" d="M309.187,7.533H292.12c3.413,0,5.12,1.707,5.12,5.12v41.813c0,2.56-1.707,4.267-5.12,4.267h17.067
		c3.413,0,5.12-1.707,5.12-5.12v-40.96C314.307,9.24,312.6,7.533,309.187,7.533"/>
	<path style="fill:#FFFFFF;" d="M199.96,7.533h17.067c-3.413,0-5.12,1.707-5.12,5.12v41.813c0,2.56,1.707,4.267,5.12,4.267H199.96
		c-3.413,0-5.12-1.707-5.12-5.12v-40.96C194.84,9.24,196.547,7.533,199.96,7.533"/>
	<path d="M327.107,511H182.04c-16.213,0-29.867-13.653-29.867-29.867V454.68c0-16.213,13.653-29.867,29.867-29.867h145.92
		c16.213,0,29.867,13.653,29.867,29.867v26.453C356.973,497.347,343.32,511,327.107,511z M182.04,442.733
		c-6.827,0-12.8,5.973-12.8,12.8v26.453c0,5.973,5.973,11.947,12.8,11.947h145.92c6.827,0,12.8-5.973,12.8-12.8V454.68
		c0-6.827-5.973-12.8-12.8-12.8H182.04V442.733z"/>
	<path d="M327.107,442.733H182.04c-16.213,0-29.867-13.653-29.867-29.867v-26.453c0-16.213,13.653-29.867,29.867-29.867h145.92
		c16.213,0,29.867,13.653,29.867,29.867v26.453C356.973,429.08,343.32,442.733,327.107,442.733z M182.04,374.467
		c-6.827,0-12.8,5.973-12.8,12.8v26.453c0,5.973,5.973,11.947,12.8,11.947h145.92c6.827,0,12.8-5.973,12.8-12.8v-26.453
		c0-6.827-5.973-12.8-12.8-12.8H182.04V374.467z"/>
	<path d="M327.107,374.467H182.04c-16.213,0-29.867-13.653-29.867-29.867v-26.453c0-16.213,13.653-29.867,29.867-29.867h145.92
		c16.213,0,29.867,13.653,29.867,29.867V344.6C356.973,360.813,343.32,374.467,327.107,374.467z M182.04,306.2
		c-6.827,0-12.8,5.973-12.8,12.8v26.453c0,5.973,5.973,11.947,12.8,11.947h145.92c6.827,0,12.8-5.973,12.8-12.8v-26.453
		c0-6.827-5.973-12.8-12.8-12.8H182.04V306.2z"/>
	<path d="M327.107,306.2H182.04c-16.213,0-29.867-13.653-29.867-29.867v-55.467h204.8v55.467
		C356.973,292.547,343.32,306.2,327.107,306.2z M169.24,237.933v38.4c0,6.827,5.973,12.8,12.8,12.8h145.92
		c6.827,0,12.8-5.973,12.8-12.8v-38.4H169.24z"/>
	<path d="M356.973,237.933h-204.8V167.96l30.72-69.973c4.267-8.533,11.947-13.653,21.333-13.653h99.84
		c9.387,0,17.92,5.12,21.333,13.653l30.72,69.973v69.973H356.973z M169.24,220.867h170.667v-49.493l-29.867-66.56
		c-0.853-2.56-3.413-3.413-5.973-3.413h-99.84c-2.56,0-5.12,1.707-5.973,3.413l-29.013,66.56V220.867z"/>
	<path d="M305.773,101.4h-102.4V50.2h102.4V101.4z M220.44,84.333h68.267V67.267H220.44V84.333z"/>
	<path d="M309.187,67.267H199.96c-7.68,0-13.653-5.973-13.653-13.653v-40.96C186.307,4.973,192.28-1,199.96-1h110.08
		c6.827,0,12.8,5.973,12.8,13.653v41.813C322.84,61.293,316.867,67.267,309.187,67.267z M203.373,50.2h102.4V16.067h-102.4V50.2z"/>
	<path d="M220.44,33.133c-5.12,0-8.533-3.413-8.533-8.533V7.533c0-5.12,3.413-8.533,8.533-8.533c5.12,0,8.533,3.413,8.533,8.533
		V24.6C228.973,29.72,225.56,33.133,220.44,33.133z"/>
	<path d="M254.573,33.133c-5.12,0-8.533-3.413-8.533-8.533V7.533c0-5.12,3.413-8.533,8.533-8.533s8.533,3.413,8.533,8.533V24.6
		C263.107,29.72,259.693,33.133,254.573,33.133z"/>
	<path d="M288.707,33.133c-5.12,0-8.533-3.413-8.533-8.533V7.533c0-5.12,3.413-8.533,8.533-8.533c5.12,0,8.533,3.413,8.533,8.533
		V24.6C297.24,29.72,293.827,33.133,288.707,33.133z"/>
	<rect x="220.44" y="169.667" width="17.067" height="332.8"/>
	<path d="M348.44,237.933H160.707c-5.12,0-8.533-3.413-8.533-8.533v-59.733c0-3.413,1.707-5.973,4.267-7.68
		c2.56-1.707,5.973-0.853,8.533,0.853c13.653,9.387,33.28,9.387,50.347,0c19.627-12.8,54.613-12.8,76.8,0
		c14.507,10.24,34.133,10.24,51.2,0c2.56-1.707,5.973-1.707,8.533,0c2.56,1.707,4.267,4.267,4.267,7.68v59.733
		C356.973,234.52,353.56,237.933,348.44,237.933z M169.24,220.867h170.667V183.32c-19.627,6.827-40.107,4.267-56.32-5.973
		c-17.92-10.24-45.227-8.533-58.88,0c-17.92,10.24-38.4,11.947-55.467,5.973V220.867z"/>
</g>
<g>
</g>
<g>
</g>
<g>
</g>
<g>
</g>
<g>
</g>
<g>
</g>
<g>
</g>
<g>
</g>
<g>
</g>
<g>
</g>
<g>
</g>
<g>
</g>
<g>
</g>
<g>
</g>
<g>
</g>
</svg>
