<?xml version="1.0" encoding="iso-8859-1"?>
<!-- Generator: Adobe Illustrator 19.0.0, SVG Export Plug-In . SVG Version: 6.00 Build 0)  -->
<svg version="1.1" id="Layer_1" xmlns="http://www.w3.org/2000/svg" xmlns:xlink="http://www.w3.org/1999/xlink" x="0px" y="0px"
	 viewBox="0 0 512 512" style="enable-background:new 0 0 512 512;" xml:space="preserve">
<rect x="154.785" y="7.605" style="fill:#00649D;" width="202.422" height="55.65"/>
<polygon style="fill:#2BA5B1;" points="357.213,63.254 154.787,63.254 68.902,180.705 68.902,504.395 271.327,504.395 
	443.098,504.395 443.098,180.705 "/>
<path style="fill:#53180F;" d="M364.817,60.771V0H147.183v60.771L61.297,178.222V512h389.406V178.222L364.817,60.771z
	 M267.467,173.101H83.885l74.763-102.241h183.583L267.467,173.101z M162.392,15.21h187.215v40.44H162.392V15.21z M435.493,496.79
	H278.932v-51.204h-15.21v51.204H76.507V249.156h83.16v-15.21h-83.16v-15.213h133.864v-15.21H76.507V188.31h187.215v236.994h15.21
	V183.189l78.281-107.052l78.281,107.052L435.493,496.79L435.493,496.79z"/>
<g>
</g>
<g>
</g>
<g>
</g>
<g>
</g>
<g>
</g>
<g>
</g>
<g>
</g>
<g>
</g>
<g>
</g>
<g>
</g>
<g>
</g>
<g>
</g>
<g>
</g>
<g>
</g>
<g>
</g>
</svg>
