<?xml version="1.0" encoding="iso-8859-1"?>
<!-- Generator: Adobe Illustrator 19.0.0, SVG Export Plug-In . SVG Version: 6.00 Build 0)  -->
<svg version="1.1" id="Layer_1" xmlns="http://www.w3.org/2000/svg" xmlns:xlink="http://www.w3.org/1999/xlink" x="0px" y="0px"
	 viewBox="0 0 512 512" style="enable-background:new 0 0 512 512;" xml:space="preserve">
<path style="fill:#95673F;" d="M400.559,67.202h-62.716L285.8,15.161c-39.525-39.749-100.37,6.095-82.681,52.041H100.321v222.399
	h300.238c61.413,0,111.199-49.786,111.199-111.199C511.759,116.988,461.973,67.202,400.559,67.202z"/>
<g>
	<path style="fill:#875334;" d="M100.321,289.601h300.238c61.413,0,111.199-49.786,111.199-111.199H100.321
		C100.321,178.402,100.321,289.601,100.321,289.601z"/>
	<path style="fill:#875334;" d="M394.999,145.042H283.8c-9.214,0-16.68-7.466-16.68-16.68s7.466-16.68,16.68-16.68h111.199
		c9.214,0,16.68,7.466,16.68,16.68S404.213,145.042,394.999,145.042z"/>
</g>
<g>
	<path style="fill:#72462C;" d="M283.8,245.122h-66.72c-9.214,0-16.68-7.466-16.68-16.68s7.466-16.68,16.68-16.68h66.72
		c9.214,0,16.68,7.466,16.68,16.68S293.014,245.122,283.8,245.122z"/>
	<path style="fill:#72462C;" d="M394.999,245.122h-33.36c-9.214,0-16.68-7.466-16.68-16.68s7.466-16.68,16.68-16.68h33.36
		c9.214,0,16.68,7.466,16.68,16.68S404.213,245.122,394.999,245.122z"/>
</g>
<path style="fill:#F5DEB2;" d="M111.441,289.601L111.441,289.601c-61.414,0-111.199-49.785-111.199-111.199l0,0
	c0-61.413,49.785-111.199,111.199-111.199l0,0c61.413,0,111.199,49.785,111.199,111.199l0,0
	C222.64,239.816,172.855,289.601,111.441,289.601z"/>
<g>
	<path style="fill:#EFCB99;" d="M111.441,289.601c61.413,0,111.199-49.786,111.199-111.199H0.241
		C0.241,239.816,50.028,289.601,111.441,289.601z"/>
	<path style="fill:#EFCB99;" d="M111.441,234.002L111.441,234.002c-30.707,0-55.6-24.893-55.6-55.6l0,0
		c0-30.707,24.893-55.6,55.6-55.6l0,0c30.707,0,55.6,24.893,55.6,55.6l0,0C167.041,209.11,142.147,234.002,111.441,234.002z"/>
</g>
<path style="fill:#D6AB75;" d="M111.441,234.002c30.708,0,55.6-24.893,55.6-55.6H55.841
	C55.841,209.108,80.733,234.002,111.441,234.002z"/>
<path style="fill:#95673F;" d="M400.559,289.601H100.321V512h300.238c61.413,0,111.199-49.786,111.199-111.199
	C511.759,339.386,461.973,289.601,400.559,289.601z"/>
<g>
	<path style="fill:#875334;" d="M100.321,512h300.238c61.413,0,111.199-49.786,111.199-111.199H100.321
		C100.321,400.801,100.321,512,100.321,512z"/>
	<path style="fill:#875334;" d="M394.999,367.441H283.8c-9.214,0-16.68-7.466-16.68-16.68c0-9.214,7.466-16.68,16.68-16.68h111.199
		c9.214,0,16.68,7.466,16.68,16.68C411.679,359.975,404.213,367.441,394.999,367.441z"/>
</g>
<g>
	<path style="fill:#72462C;" d="M283.8,467.52h-66.72c-9.214,0-16.68-7.466-16.68-16.68c0-9.214,7.466-16.68,16.68-16.68h66.72
		c9.214,0,16.68,7.466,16.68,16.68C300.48,460.054,293.014,467.52,283.8,467.52z"/>
	<path style="fill:#72462C;" d="M394.999,467.52h-33.36c-9.214,0-16.68-7.466-16.68-16.68c0-9.214,7.466-16.68,16.68-16.68h33.36
		c9.214,0,16.68,7.466,16.68,16.68C411.679,460.054,404.213,467.52,394.999,467.52z"/>
</g>
<path style="fill:#F5DEB2;" d="M111.441,512L111.441,512C50.026,512,0.241,462.215,0.241,400.801l0,0
	c0-61.413,49.785-111.199,111.199-111.199l0,0c61.413,0,111.199,49.785,111.199,111.199l0,0C222.64,462.215,172.855,512,111.441,512
	z"/>
<g>
	<path style="fill:#EFCB99;" d="M111.441,512c61.413,0,111.199-49.786,111.199-111.199H0.241C0.241,462.215,50.028,512,111.441,512z
		"/>
	<path style="fill:#EFCB99;" d="M111.441,456.4L111.441,456.4c-30.707,0-55.6-24.893-55.6-55.6l0,0c0-30.707,24.893-55.6,55.6-55.6
		l0,0c30.707,0,55.6,24.893,55.6,55.6l0,0C167.041,431.508,142.147,456.4,111.441,456.4z"/>
</g>
<path style="fill:#D6AB75;" d="M111.441,456.4c30.708,0,55.6-24.893,55.6-55.6H55.841C55.841,431.507,80.733,456.4,111.441,456.4z"
	/>
<g>
</g>
<g>
</g>
<g>
</g>
<g>
</g>
<g>
</g>
<g>
</g>
<g>
</g>
<g>
</g>
<g>
</g>
<g>
</g>
<g>
</g>
<g>
</g>
<g>
</g>
<g>
</g>
<g>
</g>
</svg>
