<svg xmlns="http://www.w3.org/2000/svg" xmlns:xlink="http://www.w3.org/1999/xlink" width="24" height="24" preserveAspectRatio="xMidYMid meet" viewBox="0 0 24 24" style="-ms-transform: rotate(360deg); -webkit-transform: rotate(360deg); transform: rotate(360deg);"><path d="M16.5 12A2.5 2.5 0 0 0 19 9.5A2.5 2.5 0 0 0 16.5 7A2.5 2.5 0 0 0 14 9.5a2.5 2.5 0 0 0 2.5 2.5M9 11a3 3 0 0 0 3-3a3 3 0 0 0-3-3a3 3 0 0 0-3 3a3 3 0 0 0 3 3m7.5 3c-1.83 0-5.5.92-5.5 2.75V19h11v-2.25c0-1.83-3.67-2.75-5.5-2.75M9 13c-2.33 0-7 1.17-7 3.5V19h7v-2.25c0-.85.33-2.34 2.37-3.47C10.5 13.1 9.66 13 9 13z" fill="param(fill) #000" opacity="param(fill-opacity)" stroke="param(outline) 0" stroke-width="param(outline-width) 0" stroke-opacity="param(outline-opacity)"/></svg>