<svg xmlns="http://www.w3.org/2000/svg" xmlns:xlink="http://www.w3.org/1999/xlink" width="24" height="24" preserveAspectRatio="xMidYMid meet" viewBox="0 0 24 24" style="-ms-transform: rotate(360deg); -webkit-transform: rotate(360deg); transform: rotate(360deg);"><path d="M11 8c0 2.21-1.79 4-4 4s-4-1.79-4-4s1.79-4 4-4s4 1.79 4 4m0 6.72V20H0v-2c0-2.21 3.13-4 7-4c1.5 0 2.87.27 4 .72M24 20H13V3h11v17m-8-8.5a2.5 2.5 0 0 1 5 0a2.5 2.5 0 0 1-5 0M22 7a2 2 0 0 1-2-2h-3c0 1.11-.89 2-2 2v9a2 2 0 0 1 2 2h3c0-1.1.9-2 2-2V7z" fill="param(fill) #000" opacity="param(fill-opacity)" stroke="param(outline) 0" stroke-width="param(outline-width) 0" stroke-opacity="param(outline-opacity)"/></svg>