<svg xmlns="http://www.w3.org/2000/svg" xmlns:xlink="http://www.w3.org/1999/xlink" width="24" height="24" preserveAspectRatio="xMidYMid meet" viewBox="0 0 24 24" style="-ms-transform: rotate(360deg); -webkit-transform: rotate(360deg); transform: rotate(360deg);"><path d="M11 10v2h-1v2H8v-2H5.83A2.99 2.99 0 0 1 3 14a3 3 0 0 1-3-3a3 3 0 0 1 3-3c1.31 0 2.42.83 2.83 2H11m-8 0a1 1 0 0 0-1 1a1 1 0 0 0 1 1a1 1 0 0 0 1-1a1 1 0 0 0-1-1m13 4c2.67 0 8 1.34 8 4v2H8v-2c0-2.66 5.33-4 8-4m0-2a4 4 0 0 1-4-4a4 4 0 0 1 4-4a4 4 0 0 1 4 4a4 4 0 0 1-4 4z" fill="param(fill) #000" opacity="param(fill-opacity)" stroke="param(outline) 0" stroke-width="param(outline-width) 0" stroke-opacity="param(outline-opacity)"/></svg>