<svg xmlns="http://www.w3.org/2000/svg" xmlns:xlink="http://www.w3.org/1999/xlink" width="24" height="24" preserveAspectRatio="xMidYMid meet" viewBox="0 0 24 24" style="-ms-transform: rotate(360deg); -webkit-transform: rotate(360deg); transform: rotate(360deg);"><path d="M16 17v2H2v-2s0-4 7-4s7 4 7 4m-3.5-9.5A3.5 3.5 0 1 0 9 11a3.5 3.5 0 0 0 3.5-3.5m3.44 5.5A5.32 5.32 0 0 1 18 17v2h4v-2s0-3.63-6.06-4M15 4a3.39 3.39 0 0 0-1.93.59a5 5 0 0 1 0 5.82A3.39 3.39 0 0 0 15 11a3.5 3.5 0 0 0 0-7z" fill="param(fill) #000" opacity="param(fill-opacity)" stroke="param(outline) 0" stroke-width="param(outline-width) 0" stroke-opacity="param(outline-opacity)"/></svg>