<svg xmlns="http://www.w3.org/2000/svg" xmlns:xlink="http://www.w3.org/1999/xlink" width="24" height="24" preserveAspectRatio="xMidYMid meet" viewBox="0 0 24 24" style="-ms-transform: rotate(360deg); -webkit-transform: rotate(360deg); transform: rotate(360deg);"><path d="M6.59.66c2.34-1.81 4.88.4 5.45 3.84c.43 0 .85.12 1.23.34c.52-.6.98-1.42.8-2.34c-.42-2.15 1.99-3.89 4.28-.92c1.81 2.34-.4 4.88-3.85 5.45c0 .43-.11.86-.34 1.24c.6.51 1.42.97 2.34.79c2.13-.42 3.88 1.98.91 4.28c-2.34 1.81-4.88-.4-5.45-3.84c-.43 0-.85-.13-1.22-.35c-.52.6-.99 1.43-.81 2.35c.42 2.14-1.99 3.89-4.28.92c-1.82-2.35.4-4.89 3.85-5.45c0-.43.13-.85.35-1.23c-.6-.51-1.42-.98-2.35-.8c-2.13.42-3.88-1.98-.91-4.28M5 16h2a2 2 0 0 1 2 2v6H7v-2H5v2H3v-6a2 2 0 0 1 2-2m0 2v2h2v-2H5m7.93-2H15l-2.93 8H10l2.93-8M18 16h3v2h-3v4h3v2h-3a2 2 0 0 1-2-2v-4a2 2 0 0 1 2-2z" fill="param(fill) #000" opacity="param(fill-opacity)" stroke="param(outline) 0" stroke-width="param(outline-width) 0" stroke-opacity="param(outline-opacity)"/></svg>