<svg xmlns="http://www.w3.org/2000/svg" xmlns:xlink="http://www.w3.org/1999/xlink" width="24" height="24" preserveAspectRatio="xMidYMid meet" viewBox="0 0 24 24" style="-ms-transform: rotate(360deg); -webkit-transform: rotate(360deg); transform: rotate(360deg);"><path d="M12 20a7 7 0 0 1-7-7a7 7 0 0 1 7-7a7 7 0 0 1 7 7a7 7 0 0 1-7 7m0-16a9 9 0 0 0-9 9a9 9 0 0 0 9 9a9 9 0 0 0 9-9a9 9 0 0 0-9-9m.5 4H11v6l4.75 2.85l.75-1.23l-4-2.37V8M7.88 3.39L6.6 1.86L2 5.71l1.29 1.53l4.59-3.85M22 5.72l-4.6-3.86l-1.29 1.53l4.6 3.86L22 5.72z" fill="param(fill) #000" opacity="param(fill-opacity)" stroke="param(outline) 0" stroke-width="param(outline-width) 0" stroke-opacity="param(outline-opacity)"/></svg>