<svg xmlns="http://www.w3.org/2000/svg" xmlns:xlink="http://www.w3.org/1999/xlink" width="24" height="24" preserveAspectRatio="xMidYMid meet" viewBox="0 0 24 24" style="-ms-transform: rotate(360deg); -webkit-transform: rotate(360deg); transform: rotate(360deg);"><path d="M22 15.04c0 2.19-1.76 3.96-3.93 3.96H5.93C3.76 19 2 17.23 2 15.04c0-1.97 1.43-3.6 3.31-3.9c-.03-.14-.04-.28-.04-.43c0-1.38 1.11-2.51 2.49-2.51c.61 0 1.18.23 1.61.6c.77-1.75 1.76-3.36 4.54-3.36c3.37 0 4.96 2.62 4.96 5.39c0 .11 0 .23-.01.34A3.95 3.95 0 0 1 22 15.04z" fill="param(fill) #000" opacity="param(fill-opacity)" stroke="param(outline) 0" stroke-width="param(outline-width) 0" stroke-opacity="param(outline-opacity)"/></svg>