<svg xmlns="http://www.w3.org/2000/svg" xmlns:xlink="http://www.w3.org/1999/xlink" width="24" height="24" preserveAspectRatio="xMidYMid meet" viewBox="0 0 24 24" style="-ms-transform: rotate(360deg); -webkit-transform: rotate(360deg); transform: rotate(360deg);"><path d="M16 5V4a2 2 0 0 0-2-2h-4a2 2 0 0 0-2 2v1a4 4 0 0 0-4 4v11a2 2 0 0 0 2 2h12a2 2 0 0 0 2-2V9a4 4 0 0 0-4-4m-6-1h4v1h-4V4m2 5l2 2l-2 2l-2-2l2-2m6 7H9v2H8v-2H6v-1h12v1z" fill="param(fill) #000" opacity="param(fill-opacity)" stroke="param(outline) 0" stroke-width="param(outline-width) 0" stroke-opacity="param(outline-opacity)"/></svg>