<svg xmlns="http://www.w3.org/2000/svg" xmlns:xlink="http://www.w3.org/1999/xlink" width="24" height="24" preserveAspectRatio="xMidYMid meet" viewBox="0 0 24 24" style="-ms-transform: rotate(360deg); -webkit-transform: rotate(360deg); transform: rotate(360deg);"><path d="M14.6 21.4c.4.4.8.6 1.4.6s1-.2 1.4-.6s.6-.8.6-1.4s-.2-1-.6-1.4s-.9-.6-1.4-.6s-1 .2-1.4.6s-.6.8-.6 1.4s.2 1 .6 1.4M6 19c0 .5.2 1 .6 1.4c.4.4.9.6 1.4.6V7c-.5 0-1 .2-1.4.6C6.2 8 6 8.5 6 9v10M16 2h-4c0 .5.2 1 .6 1.4c.4.4.9.6 1.4.6v3H9v14h4.2c-.2-.5-.2-.8-.2-1c0-.8.3-1.5.9-2.1c.6-.6 1.3-.9 2.1-.9V2z" fill="param(fill) #000" opacity="param(fill-opacity)" stroke="param(outline) 0" stroke-width="param(outline-width) 0" stroke-opacity="param(outline-opacity)"/></svg>