<svg xmlns="http://www.w3.org/2000/svg" xmlns:xlink="http://www.w3.org/1999/xlink" width="24" height="24" preserveAspectRatio="xMidYMid meet" viewBox="0 0 24 24" style="-ms-transform: rotate(360deg); -webkit-transform: rotate(360deg); transform: rotate(360deg);"><path d="M5.79 12.79L2 9s4-6 10-6s10 6 10 6l-3.79 3.79L12 6.59l-6.21 6.2M13.5 18h-3v2l1.5 1l1.5-1v-2m3.29-3.79L14.2 16.8c-.6-.49-1.36-.8-2.2-.8s-1.6.31-2.2.8l-2.59-2.59L12 9.41l4.79 4.8M13 14c0-.55-.45-1-1-1s-1 .45-1 1s.45 1 1 1s1-.45 1-1z" fill="param(fill) #000" opacity="param(fill-opacity)" stroke="param(outline) 0" stroke-width="param(outline-width) 0" stroke-opacity="param(outline-opacity)"/></svg>