<svg xmlns="http://www.w3.org/2000/svg" xmlns:xlink="http://www.w3.org/1999/xlink" width="24" height="24" preserveAspectRatio="xMidYMid meet" viewBox="0 0 24 24" style="-ms-transform: rotate(360deg); -webkit-transform: rotate(360deg); transform: rotate(360deg);"><path d="M21 2H3a2 2 0 0 0-2 2v12a2 2 0 0 0 2 2h3.57L8 23l2-2l2 2l2-2l2 2l1.43-5H21a2 2 0 0 0 2-2V4a2 2 0 0 0-2-2m0 14h-3v-2h-1V9a2 2 0 0 0-2-2H9a2 2 0 0 0-2 2v5H6v2H3V4h18v12M9 14V9h6v5H9z" fill="param(fill) #000" opacity="param(fill-opacity)" stroke="param(outline) 0" stroke-width="param(outline-width) 0" stroke-opacity="param(outline-opacity)"/></svg>