<svg xmlns="http://www.w3.org/2000/svg" xmlns:xlink="http://www.w3.org/1999/xlink" width="24" height="24" preserveAspectRatio="xMidYMid meet" viewBox="0 0 24 24" style="-ms-transform: rotate(360deg); -webkit-transform: rotate(360deg); transform: rotate(360deg);"><path d="M21 2H3a2 2 0 0 0-2 2v12a2 2 0 0 0 2 2h2v-4h14v4h2a2 2 0 0 0 2-2V4a2 2 0 0 0-2-2m-4 10h-2V9H9v3H7V9a2 2 0 0 1 2-2h6a2 2 0 0 1 2 2v3M7 16v3.5L8 23l2-2l2 2l2-2l2 2l1-3.5V16H7z" fill="param(fill) #000" opacity="param(fill-opacity)" stroke="param(outline) 0" stroke-width="param(outline-width) 0" stroke-opacity="param(outline-opacity)"/></svg>
