<svg xmlns="http://www.w3.org/2000/svg" xmlns:xlink="http://www.w3.org/1999/xlink" width="24" height="24" preserveAspectRatio="xMidYMid meet" viewBox="0 0 24 24" style="-ms-transform: rotate(360deg); -webkit-transform: rotate(360deg); transform: rotate(360deg);"><path d="M.75 8S5 7 8 9c0 0 .5 3.75 2.5 3.75V11s.5 1 1.5 1s1.5-1 1.5-1v1.75C15.5 12.75 16 9 16 9c3-2 7.25-1 7.25-1c-2 1-2.25 4.5-2.25 4.5c-4 0-4 3.25-4 3.25c-5-1-5 2.75-5 2.75s0-3.75-5-2.75c0 0 0-3.25-4-3.25C3 12.5 2.75 9 .75 8z" fill="param(fill) #000" opacity="param(fill-opacity)" stroke="param(outline) 0" stroke-width="param(outline-width) 0" stroke-opacity="param(outline-opacity)"/></svg>