<svg xmlns="http://www.w3.org/2000/svg" xmlns:xlink="http://www.w3.org/1999/xlink" width="24" height="24" preserveAspectRatio="xMidYMid meet" viewBox="0 0 24 24" style="-ms-transform: rotate(360deg); -webkit-transform: rotate(360deg); transform: rotate(360deg);"><path d="M12 20H4V6h8m.67-2H11V2H5v2H3.33C2.6 4 2 4.6 2 5.33v15.34C2 21.4 2.6 22 3.33 22h9.34c.74 0 1.33-.59 1.33-1.33V5.33C14 4.6 13.4 4 12.67 4M11 16H5v3h6v-3m0-4.5H5v3h6v-3M23 10h-3V3l-5 10h3v8" fill="param(fill) #000" opacity="param(fill-opacity)" stroke="param(outline) 0" stroke-width="param(outline-width) 0" stroke-opacity="param(outline-opacity)"/></svg>