<svg xmlns="http://www.w3.org/2000/svg" xmlns:xlink="http://www.w3.org/1999/xlink" width="24" height="24" preserveAspectRatio="xMidYMid meet" viewBox="0 0 24 24" style="-ms-transform: rotate(360deg); -webkit-transform: rotate(360deg); transform: rotate(360deg);"><path d="M6 5c-.53 0-1 .21-1.41.6S4 6.45 4 7v3c-.55 0-1 .19-1.4.59S2 11.47 2 12v5h1.33L4 19h1l.67-2h12.66l.67 2h1l.67-2H22v-5c0-.53-.21-1-.6-1.41c-.4-.4-.85-.59-1.4-.59V7c0-.55-.19-1-.59-1.4S18.53 5 18 5M6 7h5v3H6m7-3h5v3h-5z" fill="param(fill) #000" opacity="param(fill-opacity)" stroke="param(outline) 0" stroke-width="param(outline-width) 0" stroke-opacity="param(outline-opacity)"/></svg>