<svg xmlns="http://www.w3.org/2000/svg" xmlns:xlink="http://www.w3.org/1999/xlink" width="24" height="24" preserveAspectRatio="xMidYMid meet" viewBox="0 0 24 24" style="-ms-transform: rotate(360deg); -webkit-transform: rotate(360deg); transform: rotate(360deg);"><path d="M18 10V7a2 2 0 0 0-2-2H8a2 2 0 0 0-2 2v3a2 2 0 0 0-2 2v5h1.33L6 19h1l.67-2h8.66l.67 2h1l.67-2H20v-5a2 2 0 0 0-2-2m-7 0H8V7h3m5 3h-3V7h3z" fill="param(fill) #000" opacity="param(fill-opacity)" stroke="param(outline) 0" stroke-width="param(outline-width) 0" stroke-opacity="param(outline-opacity)"/></svg>