<svg xmlns="http://www.w3.org/2000/svg" xmlns:xlink="http://www.w3.org/1999/xlink" width="24" height="24" preserveAspectRatio="xMidYMid meet" viewBox="0 0 24 24" style="-ms-transform: rotate(360deg); -webkit-transform: rotate(360deg); transform: rotate(360deg);"><path d="M12 2a10 10 0 0 1 10 10a10 10 0 0 1-10 10A10 10 0 0 1 2 12A10 10 0 0 1 12 2m5 14v-1l-1-1v-2.61c0-1.09-.27-2.05-.79-2.86C14.7 7.72 13.96 7.21 13 7v-.5a1 1 0 0 0-1-1a1 1 0 0 0-1 1V7c-.96.21-1.7.72-2.21 1.53c-.52.81-.79 1.77-.79 2.86V14l-1 1v1h10m-3.5 1h-3a1.5 1.5 0 0 0 1.5 1.5a1.5 1.5 0 0 0 1.5-1.5z" fill="param(fill) #000" opacity="param(fill-opacity)" stroke="param(outline) 0" stroke-width="param(outline-width) 0" stroke-opacity="param(outline-opacity)"/></svg>