<svg xmlns="http://www.w3.org/2000/svg" xmlns:xlink="http://www.w3.org/1999/xlink" width="24" height="24" preserveAspectRatio="xMidYMid meet" viewBox="0 0 24 24" style="-ms-transform: rotate(360deg); -webkit-transform: rotate(360deg); transform: rotate(360deg);"><path d="M21 19v1H3v-1l2-2v-6c0-3.1 2.03-5.83 5-6.71V4a2 2 0 0 1 2-2a2 2 0 0 1 2 2v.29c2.97.88 5 3.61 5 6.71v6l2 2m-7 2a2 2 0 0 1-2 2a2 2 0 0 1-2-2m9.75-17.81l-1.42 1.42A8.982 8.982 0 0 1 21 11h2c0-2.93-1.16-5.75-3.25-7.81M1 11h2c0-2.4.96-4.7 2.67-6.39L4.25 3.19A10.96 10.96 0 0 0 1 11z" fill="param(fill) #000" opacity="param(fill-opacity)" stroke="param(outline) 0" stroke-width="param(outline-width) 0" stroke-opacity="param(outline-opacity)"/></svg>