<svg xmlns="http://www.w3.org/2000/svg" xmlns:xlink="http://www.w3.org/1999/xlink" width="24" height="24" preserveAspectRatio="xMidYMid meet" viewBox="0 0 24 24" style="-ms-transform: rotate(360deg); -webkit-transform: rotate(360deg); transform: rotate(360deg);"><path d="M4 5a2 2 0 0 0-2 2v10a2 2 0 0 0 2 2h16a2 2 0 0 0 2-2V7a2 2 0 0 0-2-2H4m4 4a4 4 0 0 1 4 4a4 4 0 0 1-4 4a4 4 0 0 1-4-4a4 4 0 0 1 4-4m5 0h7v8h-7V9m-5 2a2 2 0 0 0-2 2a2 2 0 0 0 2 2a2 2 0 0 0 2-2a2 2 0 0 0-2-2z" fill="param(fill) #000" opacity="param(fill-opacity)" stroke="param(outline) 0" stroke-width="param(outline-width) 0" stroke-opacity="param(outline-opacity)"/></svg>