<svg xmlns="http://www.w3.org/2000/svg" xmlns:xlink="http://www.w3.org/1999/xlink" width="24" height="24" preserveAspectRatio="xMidYMid meet" viewBox="0 0 24 24" style="-ms-transform: rotate(360deg); -webkit-transform: rotate(360deg); transform: rotate(360deg);"><path d="M11 6h2v7h-2V6M9 20a1 1 0 0 1-1 1H5a1 1 0 0 1-1-1v-5l2-9h4v7a1 1 0 0 1-1 1v6m1-15H7V3h3v2m5 15v-6a1 1 0 0 1-1-1V6h4l2 9v5a1 1 0 0 1-1 1h-3a1 1 0 0 1-1-1M14 5V3h3v2h-3z" fill="param(fill) #000" opacity="param(fill-opacity)" stroke="param(outline) 0" stroke-width="param(outline-width) 0" stroke-opacity="param(outline-opacity)"/></svg>