<svg xmlns="http://www.w3.org/2000/svg" xmlns:xlink="http://www.w3.org/1999/xlink" width="24" height="24" preserveAspectRatio="xMidYMid meet" viewBox="0 0 24 24" style="-ms-transform: rotate(360deg); -webkit-transform: rotate(360deg); transform: rotate(360deg);"><path d="M3 2h18c.55 0 1 .45 1 1v2c0 .55-.45 1-1 1h-1v1c0 .55-.45 1-1 1h-6v2.17A3 3 0 0 1 15 13c0 1.66-1.34 3-3 3s-3-1.34-3-3c0-1.31.84-2.42 2-2.83V8H5c-.55 0-1-.45-1-1V6H3c-.55 0-1-.45-1-1V3c0-.55.45-1 1-1m9 10c-.55 0-1 .45-1 1s.45 1 1 1s1-.45 1-1s-.45-1-1-1z" fill="param(fill) #000" opacity="param(fill-opacity)" stroke="param(outline) 0" stroke-width="param(outline-width) 0" stroke-opacity="param(outline-opacity)"/></svg>