<svg xmlns="http://www.w3.org/2000/svg" xmlns:xlink="http://www.w3.org/1999/xlink" width="24" height="24" preserveAspectRatio="xMidYMid meet" viewBox="0 0 24 24" style="-ms-transform: rotate(360deg); -webkit-transform: rotate(360deg); transform: rotate(360deg);"><path d="M8 14a3 3 0 0 1-3 3a3 3 0 0 1-3-3c0-.77.29-1.47.76-2c-.47-.53-.76-1.23-.76-2a3 3 0 0 1 3-3a3 3 0 0 1 3 3c1.33.08 2.67.17 4 .17s2.67-.09 4-.17a3 3 0 0 1 3-3a3 3 0 0 1 3 3c0 .77-.29 1.47-.76 2c.47.53.76 1.23.76 2a3 3 0 0 1-3 3a3 3 0 0 1-3-3c-1.33-.08-2.67-.17-4-.17s-2.67.09-4 .17z" fill="param(fill) #000" opacity="param(fill-opacity)" stroke="param(outline) 0" stroke-width="param(outline-width) 0" stroke-opacity="param(outline-opacity)"/></svg>