<svg xmlns="http://www.w3.org/2000/svg" xmlns:xlink="http://www.w3.org/1999/xlink" width="24" height="24" preserveAspectRatio="xMidYMid meet" viewBox="0 0 24 24" style="-ms-transform: rotate(360deg); -webkit-transform: rotate(360deg); transform: rotate(360deg);"><path d="M1 2v21h2v-2h18v2h2V7c0-2.21-1.79-4-4-4h-9v5H3V2m3.5 0A2.5 2.5 0 0 0 4 4.5A2.5 2.5 0 0 0 6.5 7A2.5 2.5 0 0 0 9 4.5A2.5 2.5 0 0 0 6.5 2M3 11h18v2.56c-.59-.35-1.27-.56-2-.56h-9v5H3m3.5-6A2.5 2.5 0 0 0 4 14.5A2.5 2.5 0 0 0 6.5 17A2.5 2.5 0 0 0 9 14.5A2.5 2.5 0 0 0 6.5 12z" fill="param(fill) #000" opacity="param(fill-opacity)" stroke="param(outline) 0" stroke-width="param(outline-width) 0" stroke-opacity="param(outline-opacity)"/></svg>