<svg xmlns="http://www.w3.org/2000/svg" xmlns:xlink="http://www.w3.org/1999/xlink" width="24" height="24" preserveAspectRatio="xMidYMid meet" viewBox="0 0 24 24" style="-ms-transform: rotate(360deg); -webkit-transform: rotate(360deg); transform: rotate(360deg);"><path d="M6 22v-3H4v3H2v-8a1 1 0 0 1 1-1a1 1 0 0 1 1 1v3h3a1 1 0 0 1 1 1v4m12-11v11h-1V11a2.5 2.5 0 1 1 1 0m-5 .55V16h-1v6h-1.5v-5h-1v5H10v-6H9v-4.5a1.5 1.5 0 0 1 1.5-1.5h3a1.5 1.5 0 0 1 1.5 1.5m-3-4.95A1.5 1.5 0 1 0 13.5 8A1.5 1.5 0 0 0 12 6.5z" fill="param(fill) #000" opacity="param(fill-opacity)" stroke="param(outline) 0" stroke-width="param(outline-width) 0" stroke-opacity="param(outline-opacity)"/></svg>