<svg xmlns="http://www.w3.org/2000/svg" xmlns:xlink="http://www.w3.org/1999/xlink" width="24" height="24" preserveAspectRatio="xMidYMid meet" viewBox="0 0 24 24" style="-ms-transform: rotate(360deg); -webkit-transform: rotate(360deg); transform: rotate(360deg);"><path d="M11.5.5c.5.25 1.5 1.9 1.5 3S12.33 5 11.5 5S10 4.85 10 3.75S11 2 11.5.5m7 8.5C21 9 23 11 23 13.5c0 1.56-.79 2.93-2 3.74V23H3v-5.76c-1.21-.81-2-2.18-2-3.74C1 11 3 9 5.5 9H10V6h3v3h5.5M12 16a2.5 2.5 0 0 0 2.5-2.5H16a2.5 2.5 0 0 0 2.5 2.5a2.5 2.5 0 0 0 2.5-2.5a2.5 2.5 0 0 0-2.5-2.5h-13A2.5 2.5 0 0 0 3 13.5A2.5 2.5 0 0 0 5.5 16A2.5 2.5 0 0 0 8 13.5h1.5A2.5 2.5 0 0 0 12 16z" fill="param(fill) #000" opacity="param(fill-opacity)" stroke="param(outline) 0" stroke-width="param(outline-width) 0" stroke-opacity="param(outline-opacity)"/></svg>