<svg xmlns="http://www.w3.org/2000/svg" xmlns:xlink="http://www.w3.org/1999/xlink" width="24" height="24" preserveAspectRatio="xMidYMid meet" viewBox="0 0 24 24" style="-ms-transform: rotate(360deg); -webkit-transform: rotate(360deg); transform: rotate(360deg);"><path d="M20 4h-3.17L15 2H9L7.17 4H4a2 2 0 0 0-2 2v12a2 2 0 0 0 2 2h16a2 2 0 0 0 2-2V6a2 2 0 0 0-2-2m0 14H4V6h4.05l1.83-2h4.24l1.83 2H20v12M12 7a5 5 0 0 0-5 5a5 5 0 0 0 5 5a5 5 0 0 0 5-5a5 5 0 0 0-5-5m0 8a3 3 0 0 1-3-3a3 3 0 0 1 3-3a3 3 0 0 1 3 3a3 3 0 0 1-3 3z" fill="param(fill) #000" opacity="param(fill-opacity)" stroke="param(outline) 0" stroke-width="param(outline-width) 0" stroke-opacity="param(outline-opacity)"/></svg>