<svg xmlns="http://www.w3.org/2000/svg" xmlns:xlink="http://www.w3.org/1999/xlink" width="24" height="24" preserveAspectRatio="xMidYMid meet" viewBox="0 0 24 24" style="-ms-transform: rotate(360deg); -webkit-transform: rotate(360deg); transform: rotate(360deg);"><path d="M6 11l1-4h10l1 4m.92-5c-.21-.6-.78-1-1.42-1h-11c-.64 0-1.21.4-1.42 1L3 12v8a1 1 0 0 0 1 1h1a1 1 0 0 0 1-1v-2h12v2a1 1 0 0 0 1 1h1a1 1 0 0 0 1-1v-8l-2.08-6M7 16H5v-2h2v2m12 0h-2v-2h2v2m-5 0h-4v-2h4v2z" fill="param(fill) #000" opacity="param(fill-opacity)" stroke="param(outline) 0" stroke-width="param(outline-width) 0" stroke-opacity="param(outline-opacity)"/></svg>