<svg xmlns="http://www.w3.org/2000/svg" xmlns:xlink="http://www.w3.org/1999/xlink" width="24" height="24" preserveAspectRatio="xMidYMid meet" viewBox="0 0 24 24" style="-ms-transform: rotate(360deg); -webkit-transform: rotate(360deg); transform: rotate(360deg);"><path d="M2 13h2v2h2v-2h2v2h2v-2h2v2h2v-5l3-3V1h2l4 2l-4 2v2l3 3v12H11v-3a2 2 0 0 0-2-2a2 2 0 0 0-2 2v3H2v-9m16-3c-.55 0-1 .54-1 1.2V13h2v-1.8c0-.66-.45-1.2-1-1.2z" fill="param(fill) #000" opacity="param(fill-opacity)" stroke="param(outline) 0" stroke-width="param(outline-width) 0" stroke-opacity="param(outline-opacity)"/></svg>