<svg xmlns="http://www.w3.org/2000/svg" xmlns:xlink="http://www.w3.org/1999/xlink" width="24" height="24" preserveAspectRatio="xMidYMid meet" viewBox="0 0 24 24" style="-ms-transform: rotate(360deg); -webkit-transform: rotate(360deg); transform: rotate(360deg);"><path d="M11 2h2v2h2v2h-2v3.4l9 3.6v2l-2-.8V22h-6v-5a2 2 0 0 0-2-2a2 2 0 0 0-2 2v5H4v-7.8L2 15v-2l9-3.6V6H9V4h2V2M6 20h2v-5l-1-1l-1 1v5m10 0h2v-5l-1-1l-1 1v5z" fill="param(fill) #000" opacity="param(fill-opacity)" stroke="param(outline) 0" stroke-width="param(outline-width) 0" stroke-opacity="param(outline-opacity)"/></svg>