<svg xmlns="http://www.w3.org/2000/svg" xmlns:xlink="http://www.w3.org/1999/xlink" width="24" height="24" preserveAspectRatio="xMidYMid meet" viewBox="0 0 24 24" style="-ms-transform: rotate(360deg); -webkit-transform: rotate(360deg); transform: rotate(360deg);"><path d="M21 1v3H7v17h14v2H2V3c0-1.11.89-2 2-2h17m1 12v2c0 1.11-.89 2-2 2h-2c0 3-3 3-4 3s-4 0-4-3v-6h10a2 2 0 0 1 2 2m-2 0h-2v2h2v-2m-3-4l2-4H9l2 4h6z" fill="param(fill) #000" opacity="param(fill-opacity)" stroke="param(outline) 0" stroke-width="param(outline-width) 0" stroke-opacity="param(outline-opacity)"/></svg>