<svg xmlns="http://www.w3.org/2000/svg" xmlns:xlink="http://www.w3.org/1999/xlink" width="24" height="24" preserveAspectRatio="xMidYMid meet" viewBox="0 0 24 24" style="-ms-transform: rotate(360deg); -webkit-transform: rotate(360deg); transform: rotate(360deg);"><path d="M14.19 14.19L6 18l3.81-8.19L18 6m-6-4A10 10 0 0 0 2 12a10 10 0 0 0 10 10a10 10 0 0 0 10-10A10 10 0 0 0 12 2m0 8.9a1.1 1.1 0 0 0-1.1 1.1a1.1 1.1 0 0 0 1.1 1.1a1.1 1.1 0 0 0 1.1-1.1a1.1 1.1 0 0 0-1.1-1.1z" fill="param(fill) #000" opacity="param(fill-opacity)" stroke="param(outline) 0" stroke-width="param(outline-width) 0" stroke-opacity="param(outline-opacity)"/></svg>