<svg xmlns="http://www.w3.org/2000/svg" xmlns:xlink="http://www.w3.org/1999/xlink" width="24" height="24" preserveAspectRatio="xMidYMid meet" viewBox="0 0 24 24" style="-ms-transform: rotate(360deg); -webkit-transform: rotate(360deg); transform: rotate(360deg);"><path d="M21.4 7.5c.8.8.8 2.1 0 2.8l-2.8 2.8l-7.8-7.8l2.8-2.8c.8-.8 2.1-.8 2.8 0l1.8 1.8l3-3l1.4 1.4l-3 3l1.8 1.8m-5.8 5.8l-1.4-1.4l-2.8 2.8l-2.1-2.1l2.8-2.8l-1.4-1.4l-2.8 2.8l-1.5-1.4l-2.8 2.8c-.8.8-.8 2.1 0 2.8l1.8 1.8l-4 4l1.4 1.4l4-4l1.8 1.8c.8.8 2.1.8 2.8 0l2.8-2.8l-1.4-1.4l2.8-2.9z" fill="param(fill) #000" opacity="param(fill-opacity)" stroke="param(outline) 0" stroke-width="param(outline-width) 0" stroke-opacity="param(outline-opacity)"/></svg>