<svg xmlns="http://www.w3.org/2000/svg" xmlns:xlink="http://www.w3.org/1999/xlink" width="24" height="24" preserveAspectRatio="xMidYMid meet" viewBox="0 0 24 24" style="-ms-transform: rotate(360deg); -webkit-transform: rotate(360deg); transform: rotate(360deg);"><path d="M2.05 13h19.9c-.5 5.05-4.76 9-9.95 9c-5.18 0-9.45-3.95-9.95-9m19.9-2H2.05c.5-5.05 4.77-9 9.95-9s9.45 3.95 9.95 9M12 6.75a2.5 2.5 0 0 0-2.5-2.5A2.5 2.5 0 0 0 7 6.75a2.5 2.5 0 0 0 2.5 2.5a2.5 2.5 0 0 0 2.5-2.5z" fill="param(fill) #000" opacity="param(fill-opacity)" stroke="param(outline) 0" stroke-width="param(outline-width) 0" stroke-opacity="param(outline-opacity)"/></svg>