<svg xmlns="http://www.w3.org/2000/svg" xmlns:xlink="http://www.w3.org/1999/xlink" width="24" height="24" preserveAspectRatio="xMidYMid meet" viewBox="0 0 24 24" style="-ms-transform: rotate(360deg); -webkit-transform: rotate(360deg); transform: rotate(360deg);"><path d="M21.34 10.35l-.07-.07l-.09-.09L18 7V6a.5.5 0 0 0-.5-.5c-.14 0-.28.06-.37.16L13.46 9H7c-.68 0-1.31.35-1.68.92l-2.7 2.67c-.33.45-.23 1.07.22 1.41c.34.24.81.25 1.16 0l1-.93V19h3v-4h5v4h3v-5.17c0-.53.21-1.04.59-1.41L18 11l2 1c.15.08.32.13.5.13c.6-.02 1.09-.52 1.08-1.13c-.01-.24-.08-.47-.24-.65z" fill="param(fill) #000" opacity="param(fill-opacity)" stroke="param(outline) 0" stroke-width="param(outline-width) 0" stroke-opacity="param(outline-opacity)"/></svg>