<svg xmlns="http://www.w3.org/2000/svg" xmlns:xlink="http://www.w3.org/1999/xlink" width="24" height="24" preserveAspectRatio="xMidYMid meet" viewBox="0 0 24 24" style="-ms-transform: rotate(360deg); -webkit-transform: rotate(360deg); transform: rotate(360deg);"><path d="M20 8h-5v6H2v3h1a3 3 0 0 0 3 3a3 3 0 0 0 3-3h6a3 3 0 0 0 3 3a3 3 0 0 0 3-3h2v-5l-3-4M6 18.5A1.5 1.5 0 0 1 4.5 17A1.5 1.5 0 0 1 6 15.5A1.5 1.5 0 0 1 7.5 17A1.5 1.5 0 0 1 6 18.5m12 0a1.5 1.5 0 0 1-1.5-1.5a1.5 1.5 0 0 1 1.5-1.5a1.5 1.5 0 0 1 1.5 1.5a1.5 1.5 0 0 1-1.5 1.5M17 12V9.5h2.5l1.96 2.5H17m1-5h-4v6H3L1.57 8H1V6h12l1-1h4v2z" fill="param(fill) #000" opacity="param(fill-opacity)" stroke="param(outline) 0" stroke-width="param(outline-width) 0" stroke-opacity="param(outline-opacity)"/></svg>