<svg xmlns="http://www.w3.org/2000/svg" xmlns:xlink="http://www.w3.org/1999/xlink" width="24" height="24" preserveAspectRatio="xMidYMid meet" viewBox="0 0 24 24" style="-ms-transform: rotate(360deg); -webkit-transform: rotate(360deg); transform: rotate(360deg);"><path d="M22 18a4 4 0 0 1-4 4h-3a4 4 0 0 1-4-4v-2h6.79l2.76-4.77l1.56.9L19.87 16H22v2M9 22H2c0-3 0-6 .33-9.17C2.6 10.3 3.08 7.66 3.6 5H3V3h5v2h-.6c.52 2.66 1 5.3 1.27 7.83C9 16 9 19 9 22z" fill="param(fill) #000" opacity="param(fill-opacity)" stroke="param(outline) 0" stroke-width="param(outline-width) 0" stroke-opacity="param(outline-opacity)"/></svg>