<svg xmlns="http://www.w3.org/2000/svg" xmlns:xlink="http://www.w3.org/1999/xlink" width="24" height="24" preserveAspectRatio="xMidYMid meet" viewBox="0 0 24 24" style="-ms-transform: rotate(360deg); -webkit-transform: rotate(360deg); transform: rotate(360deg);"><path d="M15.5 21L14 8h2.23L15.1 3.46L16.84 3l1.25 5H22l-1.5 13h-5M5 11h5a3 3 0 0 1 3 3H2a3 3 0 0 1 3-3m8 7a3 3 0 0 1-3 3H5a3 3 0 0 1-3-3h11M3 15h5l1.5 1.5L11 15h1a1 1 0 0 1 1 1a1 1 0 0 1-1 1H3a1 1 0 0 1-1-1a1 1 0 0 1 1-1z" fill="param(fill) #000" opacity="param(fill-opacity)" stroke="param(outline) 0" stroke-width="param(outline-width) 0" stroke-opacity="param(outline-opacity)"/></svg>