<svg xmlns="http://www.w3.org/2000/svg" xmlns:xlink="http://www.w3.org/1999/xlink" width="24" height="24" preserveAspectRatio="xMidYMid meet" viewBox="0 0 24 24" style="-ms-transform: rotate(360deg); -webkit-transform: rotate(360deg); transform: rotate(360deg);"><path d="M7 6h10a6 6 0 0 1 6 6a6 6 0 0 1-6 6c-1.78 0-3.37-.77-4.47-2h-1.06c-1.1 1.23-2.69 2-4.47 2a6 6 0 0 1-6-6a6 6 0 0 1 6-6M6 9v2H4v2h2v2h2v-2h2v-2H8V9H6m9.5 3a1.5 1.5 0 0 0-1.5 1.5a1.5 1.5 0 0 0 1.5 1.5a1.5 1.5 0 0 0 1.5-1.5a1.5 1.5 0 0 0-1.5-1.5m3-3a1.5 1.5 0 0 0-1.5 1.5a1.5 1.5 0 0 0 1.5 1.5a1.5 1.5 0 0 0 1.5-1.5A1.5 1.5 0 0 0 18.5 9z" fill="param(fill) #000" opacity="param(fill-opacity)" stroke="param(outline) 0" stroke-width="param(outline-width) 0" stroke-opacity="param(outline-opacity)"/></svg>