<svg xmlns="http://www.w3.org/2000/svg" xmlns:xlink="http://www.w3.org/1999/xlink" width="24" height="24" preserveAspectRatio="xMidYMid meet" viewBox="0 0 24 24" style="-ms-transform: rotate(360deg); -webkit-transform: rotate(360deg); transform: rotate(360deg);"><path d="M19.59 3H22v2h-1.59l-4.24 4.24c-.37-.56-.85-1.04-1.41-1.41L19.59 3M12 8a4 4 0 0 1 4 4a3.99 3.99 0 0 1-3 3.87V16a5 5 0 0 1-5 5a5 5 0 0 1-5-5a5 5 0 0 1 5-5h.13c.45-1.76 2.04-3 3.87-3m0 2.5a1.5 1.5 0 0 0-1.5 1.5a1.5 1.5 0 0 0 1.5 1.5a1.5 1.5 0 0 0 1.5-1.5a1.5 1.5 0 0 0-1.5-1.5m-5.06 3.74l-.71.7l2.83 2.83l.71-.71l-2.83-2.82z" fill="param(fill) #000" opacity="param(fill-opacity)" stroke="param(outline) 0" stroke-width="param(outline-width) 0" stroke-opacity="param(outline-opacity)"/></svg>