<svg xmlns="http://www.w3.org/2000/svg" xmlns:xlink="http://www.w3.org/1999/xlink" width="24" height="24" preserveAspectRatio="xMidYMid meet" viewBox="0 0 24 24" style="-ms-transform: rotate(360deg); -webkit-transform: rotate(360deg); transform: rotate(360deg);"><path d="M2 16h20v2c0 1.11-.89 2-2 2H4c-1.11 0-2-.89-2-2v-2M6 4h12c2.22 0 4 1.78 4 4v2H2V8c0-2.22 1.78-4 4-4m-2 7h11l2 2l2-2h1c1.11 0 2 .89 2 2c0 1.11-.89 2-2 2H4c-1.11 0-2-.89-2-2c0-1.11.89-2 2-2z" fill="param(fill) #000" opacity="param(fill-opacity)" stroke="param(outline) 0" stroke-width="param(outline-width) 0" stroke-opacity="param(outline-opacity)"/></svg>