<svg xmlns="http://www.w3.org/2000/svg" xmlns:xlink="http://www.w3.org/1999/xlink" width="24" height="24" preserveAspectRatio="xMidYMid meet" viewBox="0 0 24 24" style="-ms-transform: rotate(360deg); -webkit-transform: rotate(360deg); transform: rotate(360deg);"><path d="M12 4a3.5 3.5 0 0 0-3.5 3.5h2A1.5 1.5 0 0 1 12 6a1.5 1.5 0 0 1 1.5 1.5A1.5 1.5 0 0 1 12 9c-.55 0-1 .45-1 1v1.75L2.4 18.2A1 1 0 0 0 3 20h18a1 1 0 0 0 .6-1.8L13 11.75v-.9a3.5 3.5 0 0 0 2.5-3.35A3.5 3.5 0 0 0 12 4m0 9.5l6 4.5H6z" fill="param(fill) #000" opacity="param(fill-opacity)" stroke="param(outline) 0" stroke-width="param(outline-width) 0" stroke-opacity="param(outline-opacity)"/></svg>