<svg xmlns="http://www.w3.org/2000/svg" xmlns:xlink="http://www.w3.org/1999/xlink" width="24" height="24" preserveAspectRatio="xMidYMid meet" viewBox="0 0 24 24" style="-ms-transform: rotate(360deg); -webkit-transform: rotate(360deg); transform: rotate(360deg);"><path d="M2 22V7a1 1 0 0 1 1-1h4V2h10v4h4a1 1 0 0 1 1 1v15h-8v-5h-4v5H2M9 4v6h2V8h2v2h2V4h-2v2h-2V4H9M4 20h4v-3H4v3m0-5h4v-3H4v3m12 5h4v-3h-4v3m0-5h4v-3h-4v3m-6 0h4v-3h-4v3z" fill="param(fill) #000" opacity="param(fill-opacity)" stroke="param(outline) 0" stroke-width="param(outline-width) 0" stroke-opacity="param(outline-opacity)"/></svg>