<svg xmlns="http://www.w3.org/2000/svg" xmlns:xlink="http://www.w3.org/1999/xlink" width="24" height="24" preserveAspectRatio="xMidYMid meet" viewBox="0 0 24 24" style="-ms-transform: rotate(360deg); -webkit-transform: rotate(360deg); transform: rotate(360deg);"><path d="M17 4H7a5 5 0 0 0-5 5v11h18a2 2 0 0 0 2-2V9a5 5 0 0 0-5-5m-7 14H4V9a3 3 0 0 1 3-3a3 3 0 0 1 3 3v9m9-3h-2v-2h-4v-2h6v4M9 11H5V9h4v2z" fill="param(fill) #000" opacity="param(fill-opacity)" stroke="param(outline) 0" stroke-width="param(outline-width) 0" stroke-opacity="param(outline-opacity)"/></svg>