<svg xmlns="http://www.w3.org/2000/svg" xmlns:xlink="http://www.w3.org/1999/xlink" width="24" height="24" preserveAspectRatio="xMidYMid meet" viewBox="0 0 24 24" style="-ms-transform: rotate(360deg); -webkit-transform: rotate(360deg); transform: rotate(360deg);"><path d="M12 2a3 3 0 0 1 3 3v6a3 3 0 0 1-3 3a3 3 0 0 1-3-3V5a3 3 0 0 1 3-3m7 9c0 3.53-2.61 6.44-6 6.93V21h-2v-3.07c-3.39-.49-6-3.4-6-6.93h2a5 5 0 0 0 5 5a5 5 0 0 0 5-5h2z" fill="param(fill) #000" opacity="param(fill-opacity)" stroke="param(outline) 0" stroke-width="param(outline-width) 0" stroke-opacity="param(outline-opacity)"/></svg>