<svg xmlns="http://www.w3.org/2000/svg" xmlns:xlink="http://www.w3.org/1999/xlink" width="24" height="24" preserveAspectRatio="xMidYMid meet" viewBox="0 0 24 24" style="-ms-transform: rotate(360deg); -webkit-transform: rotate(360deg); transform: rotate(360deg);"><path d="M17.42 10l-4.01-4H9v2h3.59l2 2H6.5C4 10 2 12 2 14.5S4 19 6.5 19c2.22 0 4.06-1.62 4.42-3.73L13.04 14c-.04.17-.04.33-.04.5c0 2.5 2 4.5 4.5 4.5s4.5-2 4.5-4.5s-2-4.5-4.5-4.5m-8.66 5.26C8.5 16.27 7.58 17 6.47 17a2.5 2.5 0 0 1 0-5c1.12 0 2.03.74 2.37 1.75H6v1.5l2.84.01M17.47 17a2.5 2.5 0 0 1 0-5a2.5 2.5 0 0 1 2.5 2.5a2.5 2.5 0 0 1-2.5 2.5z" fill="param(fill) #000" opacity="param(fill-opacity)" stroke="param(outline) 0" stroke-width="param(outline-width) 0" stroke-opacity="param(outline-opacity)"/></svg>