<svg xmlns="http://www.w3.org/2000/svg" xmlns:xlink="http://www.w3.org/1999/xlink" width="24" height="24" preserveAspectRatio="xMidYMid meet" viewBox="0 0 24 24" style="-ms-transform: rotate(360deg); -webkit-transform: rotate(360deg); transform: rotate(360deg);"><path d="M16 5s-1-3-4-3s-4 3-4 3C6 5 4 7 4 9c-2.7 0-2.7 4 0 4h16c2.7 0 2.7-4 0-4c0-2-2-4-4-4M5 15l2 7h2l-1-7H5m5 0l1 7h2l1-7h-4m6 0l-1 7h2l2-7h-3z" fill="param(fill) #000" opacity="param(fill-opacity)" stroke="param(outline) 0" stroke-width="param(outline-width) 0" stroke-opacity="param(outline-opacity)"/></svg>