<svg xmlns="http://www.w3.org/2000/svg" xmlns:xlink="http://www.w3.org/1999/xlink" width="24" height="24" preserveAspectRatio="xMidYMid meet" viewBox="0 0 24 24" style="-ms-transform: rotate(360deg); -webkit-transform: rotate(360deg); transform: rotate(360deg);"><path d="M21 3v12.5a3.5 3.5 0 0 1-3.5 3.5a3.5 3.5 0 0 1-3.5-3.5a3.5 3.5 0 0 1 3.5-3.5c.54 0 1.05.12 1.5.34V6.47L9 8.6v8.9A3.5 3.5 0 0 1 5.5 21A3.5 3.5 0 0 1 2 17.5A3.5 3.5 0 0 1 5.5 14c.54 0 1.05.12 1.5.34V6l14-3z" fill="param(fill) #000" opacity="param(fill-opacity)" stroke="param(outline) 0" stroke-width="param(outline-width) 0" stroke-opacity="param(outline-opacity)"/></svg>