<svg xmlns="http://www.w3.org/2000/svg" xmlns:xlink="http://www.w3.org/1999/xlink" width="24" height="24" preserveAspectRatio="xMidYMid meet" viewBox="0 0 24 24" style="-ms-transform: rotate(360deg); -webkit-transform: rotate(360deg); transform: rotate(360deg);"><path d="M11.15 15.18l-1.42-1.41l1.42-1.42l1.41 1.42l1.41-1.42l-1.41-1.41l1.41-1.41l1.42 1.41l1.41-1.41l-2.83-2.83l-7.07 7.07l2.83 2.83l1.42-1.42M3.08 19l3.12-3.11l-2.12-2.12l9.89-9.9L16.1 6l1.4-1.42l-1.4-1.42l1.4-1.41L21.75 6l-1.41 1.4L18.92 6L17.5 7.4l2.13 2.13l-9.9 9.89l-2.12-2.12l-4.53 4.54V19z" fill="param(fill) #000" opacity="param(fill-opacity)" stroke="param(outline) 0" stroke-width="param(outline-width) 0" stroke-opacity="param(outline-opacity)"/></svg>