<svg xmlns="http://www.w3.org/2000/svg" xmlns:xlink="http://www.w3.org/1999/xlink" width="24" height="24" preserveAspectRatio="xMidYMid meet" viewBox="0 0 24 24" style="-ms-transform: rotate(360deg); -webkit-transform: rotate(360deg); transform: rotate(360deg);"><path d="M5 3v18h6v-3.5h2V21h6V3H5m2 2h2v2H7V5m4 0h2v2h-2V5m4 0h2v2h-2V5M7 9h2v2H7V9m4 0h2v2h-2V9m4 0h2v2h-2V9m-8 4h2v2H7v-2m4 0h2v2h-2v-2m4 0h2v2h-2v-2m-8 4h2v2H7v-2m8 0h2v2h-2v-2z" fill="param(fill) #000" opacity="param(fill-opacity)" stroke="param(outline) 0" stroke-width="param(outline-width) 0" stroke-opacity="param(outline-opacity)"/></svg>