<svg xmlns="http://www.w3.org/2000/svg" xmlns:xlink="http://www.w3.org/1999/xlink" width="24" height="24" preserveAspectRatio="xMidYMid meet" viewBox="0 0 24 24" style="-ms-transform: rotate(360deg); -webkit-transform: rotate(360deg); transform: rotate(360deg);"><path d="M9 3C5.69 3 3.14 5.69 3 9v12h9v-7.54c1.1.99 2.5 1.54 4 1.54c3.31 0 6-2.69 6-6s-2.69-6-6-6H9m7 2c2.21 0 4 1.79 4 4s-1.79 4-4 4s-4-1.79-4-4s1.79-4 4-4m0 2.25c-.97 0-1.75.78-1.75 1.75s.78 1.75 1.75 1.75s1.75-.78 1.75-1.75s-.78-1.75-1.75-1.75M4 12h1v1H4v-1m2 0h1v1H6v-1m2 0h1v1H8v-1m2 0h1v1h-1v-1z" fill="param(fill) #000" opacity="param(fill-opacity)" stroke="param(outline) 0" stroke-width="param(outline-width) 0" stroke-opacity="param(outline-opacity)"/></svg>
