<?xml version="1.0" encoding="iso-8859-1"?>
<!-- Generator: Adobe Illustrator 19.0.0, SVG Export Plug-In . SVG Version: 6.00 Build 0)  -->
<svg version="1.1" id="Layer_1" xmlns="http://www.w3.org/2000/svg" xmlns:xlink="http://www.w3.org/1999/xlink" x="0px" y="0px"
	 viewBox="0 0 512.265 512.265" style="enable-background:new 0 0 512.265 512.265;" xml:space="preserve">
<g>
	<g>
		<path d="M256.132,0c-75.281,0-136.533,61.252-136.533,136.533c0,60.868,40.055,112.529,95.181,130.091l15.77,220.604
			c0.964,14.507,11.725,25.037,25.583,25.037c13.858,0,24.619-10.53,25.583-24.986l15.846-220.681
			c55.083-17.587,95.104-69.222,95.104-130.065C392.666,61.252,331.413,0,256.132,0z M264.683,486.093
			c-0.299,4.531-3.055,9.105-8.55,9.105c-5.495,0-8.252-4.574-8.55-9.148l-15.36-214.81c15.718,2.773,32.128,2.773,47.898-0.017
			L264.683,486.093z M315.866,145.067h-98.867l19.567,19.567c3.337,3.337,3.337,8.73,0,12.066c-1.664,1.664-3.849,2.5-6.033,2.5
			c-2.185,0-4.369-0.836-6.033-2.5l-34.133-34.133c-0.785-0.785-1.408-1.724-1.843-2.773c-0.862-2.082-0.862-4.437,0-6.519
			c0.435-1.05,1.058-1.988,1.843-2.773l34.133-34.133c3.337-3.337,8.73-3.337,12.066,0c3.337,3.337,3.337,8.73,0,12.066L216.998,128
			h98.867c4.71,0,8.533,3.823,8.533,8.533S320.576,145.067,315.866,145.067z"/>
	</g>
</g>
</svg>
