<?xml version="1.0" encoding="iso-8859-1"?>
<!-- Generator: Adobe Illustrator 19.0.0, SVG Export Plug-In . SVG Version: 6.00 Build 0)  -->
<svg version="1.1" id="Layer_1" xmlns="http://www.w3.org/2000/svg" xmlns:xlink="http://www.w3.org/1999/xlink" x="0px" y="0px"
	 viewBox="0 0 511.991 511.991" style="enable-background:new 0 0 511.991 511.991;" xml:space="preserve">
<g>
	<g>
		<g>
			<path d="M326.707,128.904c-6.98-2.483-12.604-7.834-15.445-14.669c-2.833-6.852-2.637-14.618,0.538-21.308
				c2.577-5.427-0.717-9.352-1.792-10.419c-1.067-1.067-4.983-4.378-10.419-1.801c-6.69,3.183-14.455,3.388-21.299,0.546
				c-6.844-2.833-12.194-8.465-14.677-15.445c-2.014-5.658-7.117-6.101-8.636-6.093c-1.519,0-6.622,0.435-8.636,6.093
				c-2.483,6.98-7.825,12.612-14.677,15.445c-6.844,2.833-14.601,2.628-21.299-0.546c-5.41-2.586-9.344,0.725-10.411,1.801
				c-1.075,1.067-4.378,4.992-1.801,10.419c3.183,6.69,3.379,14.456,0.538,21.308c-2.833,6.835-8.465,12.186-15.445,14.669
				c-2.765,1.058-3.942,4.847-4.045,7.731c-0.137,3.712,1.306,8.201,4.83,9.865c6.195,2.159,11.827,7.501,14.66,14.344
				c2.842,6.852,2.645,14.609-0.538,21.308c-2.577,5.419,0.725,9.344,1.801,10.411c1.067,1.075,5.009,4.395,10.411,1.801
				c3.55-1.69,7.407-2.534,11.264-2.534c3.413,0,6.827,0.666,10.044,1.997c6.844,2.833,12.186,8.456,14.669,15.437
				c1.391,2.893,5.99,4.122,8.96,4.07c3.038-0.043,7.091-1.28,8.516-4.582c2.278-6.468,7.629-12.092,14.473-14.925
				c6.852-2.85,14.609-2.645,21.299,0.538c5.436,2.594,9.344-0.725,10.419-1.801c1.075-1.067,4.369-4.992,1.792-10.411
				c-3.174-6.699-3.371-14.455-0.538-21.308c2.833-6.844,8.465-12.186,15.445-14.669c5.649-2.014,6.093-7.125,6.093-8.636
				C332.8,136.021,332.356,130.909,326.707,128.904z M256,170.623c-18.807,0-34.116-15.3-34.116-34.108
				c0-18.807,15.309-34.116,34.116-34.116s34.116,15.309,34.116,34.116C290.116,155.323,274.807,170.623,256,170.623z"/>
			<path d="M255.996,0c-75.281,0-136.533,61.252-136.533,136.533c0,60.877,40.073,112.546,95.206,130.099l15.753,220.331
				c0.964,14.498,11.716,25.028,25.574,25.028c13.858,0,24.619-10.53,25.583-24.986l15.829-220.399
				c55.091-17.579,95.121-69.222,95.121-130.074C392.529,61.252,331.285,0,255.996,0z M264.555,485.828
				c-0.307,4.531-3.063,9.096-8.559,9.096c-5.487,0-8.243-4.565-8.55-9.139l-15.351-214.81c2.082,0.367,4.207,0.555,6.315,0.828
				c1.545,0.196,3.063,0.461,4.625,0.606c3.806,0.358,7.62,0.538,11.452,0.58c0.512,0.009,1.007,0.077,1.51,0.077
				c0.469,0,0.922-0.06,1.391-0.068c3.874-0.034,7.74-0.222,11.588-0.589c1.596-0.145,3.157-0.418,4.736-0.623
				c2.091-0.273,4.198-0.461,6.272-0.828L264.555,485.828z M332.429,162.253c-2.483,0.887-4.395,2.705-5.402,5.129
				c-1.007,2.423-0.939,5.069,0.188,7.441c4.83,10.155,2.807,21.862-5.146,29.807c-7.953,7.962-19.644,9.975-29.807,5.146
				c-2.381-1.135-5.018-1.186-7.441-0.188c-2.423,1.007-4.25,2.927-5.129,5.393c-4.087,9.54-13.252,15.249-24.132,15.42h-0.486
				c-10.906,0-20.258-5.581-24.508-14.66c-1.186-3.226-3.004-5.146-5.436-6.153c-2.423-1.007-5.069-0.939-7.441,0.188
				c-10.155,4.821-21.854,2.816-29.807-5.137c-7.953-7.953-9.976-19.652-5.146-29.815c1.126-2.372,1.195-5.018,0.188-7.441
				c-1.007-2.423-2.918-4.241-5.393-5.129c-10.078-4.71-15.812-14.891-15.386-26.249c0.401-10.803,6.212-19.661,15.181-23.108
				c2.68-0.956,4.591-2.773,5.598-5.205c1.007-2.423,0.939-5.069-0.188-7.441c-4.83-10.163-2.807-21.862,5.146-29.815
				c7.962-7.945,19.669-9.958,29.807-5.137c2.372,1.126,5.018,1.195,7.441,0.188s4.25-2.918,5.129-5.393
				c3.763-10.598,13.466-17.442,24.713-17.442c11.247-0.009,20.949,6.844,24.721,17.434v0.009c0.879,2.475,2.705,4.386,5.129,5.393
				c2.423,1.015,5.069,0.947,7.432-0.188c10.172-4.838,21.862-2.807,29.815,5.146c7.953,7.945,9.975,19.652,5.146,29.807
				c-1.126,2.372-1.195,5.018-0.188,7.441c1.007,2.432,2.918,4.25,5.402,5.129c10.59,3.772,17.434,13.474,17.434,24.713
				C349.862,148.779,343.019,158.481,332.429,162.253z"/>
		</g>
	</g>
</g>
<g>
</g>
<g>
</g>
<g>
</g>
<g>
</g>
<g>
</g>
<g>
</g>
<g>
</g>
<g>
</g>
<g>
</g>
<g>
</g>
<g>
</g>
<g>
</g>
<g>
</g>
<g>
</g>
<g>
</g>
</svg>
