<?xml version="1.0" encoding="iso-8859-1"?>
<!-- Generator: Adobe Illustrator 19.0.0, SVG Export Plug-In . SVG Version: 6.00 Build 0)  -->
<svg version="1.1" id="Layer_1" xmlns="http://www.w3.org/2000/svg" xmlns:xlink="http://www.w3.org/1999/xlink" x="0px" y="0px"
	 viewBox="0 0 512 512" style="enable-background:new 0 0 512 512;" xml:space="preserve">
<g>
	<g>
		<path d="M256,0c-75.281,0-136.533,61.252-136.533,136.533c0,60.885,40.081,112.555,95.223,130.108l15.727,220.331
			C231.39,501.478,242.15,512,256,512c13.85,0,24.61-10.522,25.574-24.986l15.829-220.407c55.1-17.579,95.13-69.222,95.13-130.074
			C392.533,61.252,331.281,0,256,0z M264.55,485.828c-0.299,4.531-3.063,9.105-8.55,9.105c-5.487,0-8.252-4.574-8.559-9.139
			l-15.334-214.955c4.019,0.708,8.081,1.28,12.211,1.638c1.579,0.145,3.115,0.145,4.676,0.23c2.338,0.12,4.642,0.358,7.006,0.358
			c0.137,0,0.265-0.017,0.393-0.017c8.166,0.026,16.068-0.649,23.586-1.911L264.55,485.828z M296.166,168.166l-34.125,34.125
			c-0.785,0.794-1.732,1.417-2.782,1.852c-1.041,0.427-2.15,0.657-3.26,0.657c-1.109,0-2.219-0.23-3.26-0.657
			c-1.05-0.435-1.997-1.058-2.782-1.852l-34.125-34.125c-3.337-3.337-3.337-8.73,0-12.066c3.336-3.337,8.73-3.337,12.066,0
			l19.567,19.567V76.8c0-4.71,3.814-8.533,8.533-8.533c4.719,0,8.533,3.823,8.533,8.533v98.867L284.1,156.1
			c3.337-3.337,8.73-3.337,12.066,0C299.503,159.437,299.503,164.83,296.166,168.166z"/>
	</g>
</g>
<g>
</g>
<g>
</g>
<g>
</g>
<g>
</g>
<g>
</g>
<g>
</g>
<g>
</g>
<g>
</g>
<g>
</g>
<g>
</g>
<g>
</g>
<g>
</g>
<g>
</g>
<g>
</g>
<g>
</g>
</svg>
