<?xml version="1.0" encoding="iso-8859-1"?>
<!-- Generator: Adobe Illustrator 19.0.0, SVG Export Plug-In . SVG Version: 6.00 Build 0)  -->
<svg version="1.1" id="Layer_1" xmlns="http://www.w3.org/2000/svg" xmlns:xlink="http://www.w3.org/1999/xlink" x="0px" y="0px"
	 viewBox="0 0 503.951 503.951" style="enable-background:new 0 0 503.951 503.951;" xml:space="preserve">
<g>
	<g>
		<path d="M251.975,0C177.928,0,117.68,60.248,117.68,134.295c0,59.879,39.407,110.693,93.637,127.966l15.494,217.071
			c0.957,14.269,11.541,24.618,25.164,24.618c13.623,0,24.207-10.349,25.155-24.576l15.595-217.147
			c54.18-17.307,93.545-68.088,93.545-127.933C386.27,60.248,326.022,0,251.975,0z M260.386,478.208
			c-0.294,4.457-3.013,8.956-8.41,8.956c-5.397,0-8.116-4.499-8.419-8.989l-15.091-211.473c16.535,3.072,32.541,2.778,47.096,0.336
			L260.386,478.208z M319.123,201.443c0,4.633-3.752,8.393-8.393,8.393h-33.574c-4.642,0-8.393-3.76-8.393-8.393v-41.967h-33.574
			v41.967c0,4.633-3.752,8.393-8.393,8.393h-33.574c-4.642,0-8.393-3.76-8.393-8.393V67.148c0-4.633,3.752-8.393,8.393-8.393h33.574
			c4.642,0,8.393,3.76,8.393,8.393v41.967h33.574V67.148c0-4.633,3.752-8.393,8.393-8.393h33.574c4.642,0,8.393,3.76,8.393,8.393
			V201.443z"/>
	</g>
</g>
</svg>
