<?xml version="1.0" encoding="iso-8859-1"?>
<!-- Generator: Adobe Illustrator 19.0.0, SVG Export Plug-In . SVG Version: 6.00 Build 0)  -->
<svg version="1.1" id="Layer_1" xmlns="http://www.w3.org/2000/svg" xmlns:xlink="http://www.w3.org/1999/xlink" x="0px" y="0px"
	 viewBox="0 0 512.179 512.179" style="enable-background:new 0 0 512.179 512.179;" xml:space="preserve">
<g>
	<g>
		<g>
			<path d="M285.499,84.96c-11.588,0-19.473,15.71-21.606,20.531l-7.799,17.562l-7.8-17.562
				c-4.403-9.916-15.565-20.531-25.148-20.531c-15.684,0-23.893,12.791-25.079,25.472l-0.137,0.887c0.009,0-0.401,3.294,1.033,9.088
				c2.295,9.216,7.646,17.655,15.454,24.38l41.557,39.586l39.526-39.177c8.26-7.134,13.602-15.573,15.889-24.798
				c1.476-5.931,0.998-9.242,0.998-9.276C310.92,95.67,299.639,84.96,285.499,84.96z"/>
			<path d="M256.09,0c-75.281,0-136.533,61.252-136.533,136.533c0,60.885,40.073,112.555,95.215,130.108l15.735,220.51
				c0.973,14.498,11.733,25.028,25.583,25.028c13.85,0,24.61-10.53,25.574-24.994l15.846-220.587
				c55.091-17.579,95.112-69.222,95.112-130.065C392.623,61.252,331.371,0,256.09,0z M264.64,486.008
				c-0.299,4.531-3.063,9.105-8.55,9.105c-5.478,0-8.252-4.574-8.559-9.148l-15.343-214.989c2.901,0.538,5.76,0.836,8.619,1.178
				c0.538,0.06,1.05,0.171,1.587,0.222c13.175,1.408,25.916,0.913,37.675-1.058L264.64,486.008z M327.957,124.51
				c-3.157,12.681-10.377,24.166-20.881,33.22l-50.867,50.44l-53.239-50.739c-10.197-8.755-17.408-20.241-20.574-32.922
				c-2.099-8.491-1.596-14.054-1.297-15.991c2.372-23.936,19.627-40.627,42.052-40.627c12.57,0,24.337,7.706,32.538,17.596
				c8.166-11.332,18.586-17.596,29.807-17.596c22.682,0,41.438,17.451,43.759,40.636
				C329.553,110.455,330.057,116.019,327.957,124.51z"/>
		</g>
	</g>
</g>
<g>
</g>
<g>
</g>
<g>
</g>
<g>
</g>
<g>
</g>
<g>
</g>
<g>
</g>
<g>
</g>
<g>
</g>
<g>
</g>
<g>
</g>
<g>
</g>
<g>
</g>
<g>
</g>
<g>
</g>
</svg>
