<?xml version="1.0" encoding="iso-8859-1"?>
<!-- Generator: Adobe Illustrator 19.0.0, SVG Export Plug-In . SVG Version: 6.00 Build 0)  -->
<svg version="1.1" id="Layer_1" xmlns="http://www.w3.org/2000/svg" xmlns:xlink="http://www.w3.org/1999/xlink" x="0px" y="0px"
	 viewBox="0 0 512 512" style="enable-background:new 0 0 512 512;" xml:space="preserve">
<g>
	<g>
		<path d="M256,0c-75.281,0-136.533,61.252-136.533,136.533c0,60.877,40.064,112.538,95.198,130.099l15.753,220.331
			C231.381,501.47,242.142,512,256,512c13.858,0,24.619-10.53,25.583-24.986l15.829-220.407
			c55.091-17.587,95.121-69.222,95.121-130.074C392.533,61.252,331.281,0,256,0z M264.55,485.837
			c-0.299,4.523-3.055,9.097-8.55,9.097c-5.495,0-8.252-4.574-8.55-9.139l-15.36-214.818c2.185,0.384,4.403,0.589,6.605,0.87
			c1.434,0.179,2.842,0.427,4.284,0.563c3.917,0.367,7.859,0.563,11.81,0.597c0.41,0,0.802,0.06,1.212,0.06
			c0.358,0,0.708-0.051,1.067-0.051c3.994-0.034,7.979-0.23,11.947-0.606c1.502-0.145,2.961-0.401,4.446-0.589
			c2.176-0.273,4.369-0.478,6.528-0.862L264.55,485.837z M332.203,146.116c-4.77,38.323-37.53,67.217-76.203,67.217
			c-29.244,0-55.339-16.521-68.267-41.685v24.619h-17.067v-51.2h51.2v17.067h-19.763c9.737,20.514,30.498,34.133,53.897,34.133
			c30.08,0,55.561-22.468,59.273-52.258c0.58-4.685,4.864-8.021,9.523-7.415C329.472,137.182,332.792,141.44,332.203,146.116z
			 M341.333,119.467h-51.2V102.4h14.729C293.854,86.596,275.891,76.8,256,76.8c-27.273,0-51.063,18.423-57.856,44.8
			c-0.99,3.849-4.454,6.4-8.26,6.4c-0.7,0-1.417-0.085-2.133-0.273c-4.557-1.169-7.305-5.82-6.127-10.394
			c8.73-33.911,39.313-57.6,74.377-57.6c29.21,0,55.228,16.367,68.267,42.035V68.267h17.067V119.467z"/>
	</g>
</g>
<g>
</g>
<g>
</g>
<g>
</g>
<g>
</g>
<g>
</g>
<g>
</g>
<g>
</g>
<g>
</g>
<g>
</g>
<g>
</g>
<g>
</g>
<g>
</g>
<g>
</g>
<g>
</g>
<g>
</g>
</svg>
