<?xml version="1.0" encoding="iso-8859-1"?>
<!-- Generator: Adobe Illustrator 19.0.0, SVG Export Plug-In . SVG Version: 6.00 Build 0)  -->
<svg version="1.1" id="Layer_1" xmlns="http://www.w3.org/2000/svg" xmlns:xlink="http://www.w3.org/1999/xlink" x="0px" y="0px"
	 viewBox="0 0 512.171 512.171" style="enable-background:new 0 0 512.171 512.171;" xml:space="preserve">
<g>
	<g>
		<path d="M256.085,0c-75.281,0-136.533,61.252-136.533,136.533c0,60.877,40.064,112.538,95.198,130.099l15.753,220.501
			c0.973,14.507,11.733,25.037,25.583,25.037c13.85,0,24.61-10.53,25.574-24.994l15.846-220.578
			c55.083-17.579,95.113-69.222,95.113-130.065C392.619,61.252,331.366,0,256.085,0z M213.419,59.733
			c18.825,0,34.133,15.309,34.133,34.133c0,18.825-15.309,34.133-34.133,34.133c-18.825,0-34.133-15.309-34.133-34.133
			C179.285,75.042,194.594,59.733,213.419,59.733z M202.385,202.3c-1.664,1.664-3.849,2.5-6.033,2.5s-4.369-0.836-6.033-2.5
			c-3.337-3.337-3.337-8.73,0-12.066L309.786,70.767c3.337-3.337,8.73-3.337,12.066,0c3.336,3.336,3.336,8.73,0,12.066
			L202.385,202.3z M264.636,485.999c-0.299,4.531-3.063,9.105-8.55,9.105c-5.487,0-8.252-4.574-8.559-9.148l-15.351-214.81
			c15.718,2.782,32.145,2.782,47.898-0.017L264.636,485.999z M298.752,213.333c-18.825,0-34.133-15.309-34.133-34.133
			s15.309-34.133,34.133-34.133s34.133,15.309,34.133,34.133S317.577,213.333,298.752,213.333z"/>
	</g>
</g>
<g>
</g>
<g>
</g>
<g>
</g>
<g>
</g>
<g>
</g>
<g>
</g>
<g>
</g>
<g>
</g>
<g>
</g>
<g>
</g>
<g>
</g>
<g>
</g>
<g>
</g>
<g>
</g>
<g>
</g>
</svg>
