<?xml version="1.0" encoding="iso-8859-1"?>
<!-- Generator: Adobe Illustrator 19.0.0, SVG Export Plug-In . SVG Version: 6.00 Build 0)  -->
<svg version="1.1" id="Layer_1" xmlns="http://www.w3.org/2000/svg" xmlns:xlink="http://www.w3.org/1999/xlink" x="0px" y="0px"
	 viewBox="0 0 511.992 511.992" style="enable-background:new 0 0 511.992 511.992;" xml:space="preserve">
<g>
	<g>
		<path d="M255.996,0c-75.281,0-136.533,61.244-136.533,136.533c0,60.877,40.073,112.538,95.206,130.099l15.753,220.322
			c0.964,14.507,11.716,25.037,25.574,25.037c13.858,0,24.619-10.53,25.583-24.994l15.829-220.399
			c55.091-17.579,95.121-69.222,95.121-130.065C392.529,61.244,331.285,0,255.996,0z M170.662,136.533
			c0,4.71-3.814,8.533-8.533,8.533c-4.71,0-8.533-3.823-8.533-8.533c0-56.465,45.943-102.4,102.4-102.4
			c4.719,0,8.533,3.814,8.533,8.533c0,4.71-3.814,8.533-8.533,8.533C208.943,51.2,170.662,89.472,170.662,136.533z M264.555,485.82
			c-0.307,4.531-3.063,9.105-8.559,9.105c-5.487,0-8.243-4.574-8.55-9.148l-15.351-214.81c2.082,0.367,4.207,0.555,6.315,0.828
			c1.545,0.205,3.063,0.461,4.625,0.614c3.806,0.358,7.62,0.538,11.452,0.58c0.512,0,1.007,0.077,1.51,0.077
			c0.469,0,0.922-0.068,1.391-0.077c3.874-0.034,7.74-0.222,11.588-0.58c1.596-0.154,3.157-0.427,4.736-0.631
			c2.091-0.273,4.198-0.461,6.272-0.828L264.555,485.82z"/>
	</g>
</g>
<g>
</g>
<g>
</g>
<g>
</g>
<g>
</g>
<g>
</g>
<g>
</g>
<g>
</g>
<g>
</g>
<g>
</g>
<g>
</g>
<g>
</g>
<g>
</g>
<g>
</g>
<g>
</g>
<g>
</g>
</svg>
