<?xml version="1.0" encoding="iso-8859-1"?>
<!-- Generator: Adobe Illustrator 19.0.0, SVG Export Plug-In . SVG Version: 6.00 Build 0)  -->
<svg version="1.1" id="Layer_1" xmlns="http://www.w3.org/2000/svg" xmlns:xlink="http://www.w3.org/1999/xlink" x="0px" y="0px"
	 viewBox="0 0 512.265 512.265" style="enable-background:new 0 0 512.265 512.265;" xml:space="preserve">
<g>
	<g>
		<path d="M256.132,0c-75.281,0-136.533,61.252-136.533,136.533c0,60.877,40.064,112.538,95.198,130.099l15.761,220.595
			c0.956,14.507,11.716,25.037,25.574,25.037c13.858,0,24.619-10.53,25.583-24.994l15.846-220.672
			c55.083-17.587,95.104-69.222,95.104-130.065C392.666,61.252,331.413,0,256.132,0z M264.691,486.093
			c-0.307,4.531-3.072,9.105-8.559,9.105c-5.487,0-8.252-4.574-8.55-9.148l-15.36-214.989c16.828,3.115,33.118,2.816,47.881,0.341
			L264.691,486.093z M323.742,139.793c-0.435,1.041-1.058,1.988-1.843,2.773L287.765,176.7c-1.664,1.664-3.849,2.5-6.033,2.5
			c-2.185,0-4.369-0.836-6.033-2.5c-3.328-3.337-3.328-8.738,0-12.066l19.567-19.567h-98.867c-4.71,0-8.533-3.823-8.533-8.533
			s3.823-8.533,8.533-8.533h98.867l-19.567-19.567c-3.328-3.336-3.328-8.738,0-12.066c3.336-3.337,8.738-3.337,12.066,0
			l34.133,34.133c0.785,0.785,1.408,1.724,1.843,2.773C324.604,135.356,324.604,137.702,323.742,139.793z"/>
	</g>
</g>
<g>
</g>
<g>
</g>
<g>
</g>
<g>
</g>
<g>
</g>
<g>
</g>
<g>
</g>
<g>
</g>
<g>
</g>
<g>
</g>
<g>
</g>
<g>
</g>
<g>
</g>
<g>
</g>
<g>
</g>
</svg>
