<?xml version="1.0" encoding="iso-8859-1"?>
<!-- Generator: Adobe Illustrator 19.0.0, SVG Export Plug-In . SVG Version: 6.00 Build 0)  -->
<svg version="1.1" id="Layer_1" xmlns="http://www.w3.org/2000/svg" xmlns:xlink="http://www.w3.org/1999/xlink" x="0px" y="0px"
	 viewBox="0 0 512.077 512.077" style="enable-background:new 0 0 512.077 512.077;" xml:space="preserve">
<g>
	<g>
		<path d="M256.038,0c-75.281,0-136.533,61.252-136.533,136.533c0,60.885,40.073,112.555,95.223,130.108l15.727,220.408
			c0.973,14.507,11.733,25.028,25.583,25.028c13.85,0,24.61-10.522,25.574-24.986l15.838-220.484
			c55.091-17.587,95.121-69.231,95.121-130.074C392.572,61.252,331.319,0,256.038,0z M230.438,85.333h64.734L284.139,74.3
			c-3.337-3.337-3.337-8.73,0-12.066c3.337-3.336,8.73-3.336,12.066,0l25.591,25.591c0.794,0.794,1.417,1.732,1.852,2.782
			c0.862,2.082,0.862,4.437,0,6.519c-0.435,1.05-1.058,1.988-1.852,2.782L296.205,125.5c-1.664,1.664-3.849,2.5-6.033,2.5
			c-2.185,0-4.369-0.836-6.033-2.5c-3.337-3.337-3.337-8.73,0-12.066l11.034-11.034h-64.734c-14.114,0-25.6,11.486-25.6,25.6
			c0,4.71-3.814,8.533-8.533,8.533s-8.533-3.823-8.533-8.533C187.772,104.474,206.912,85.333,230.438,85.333z M264.589,485.905
			c-0.299,4.54-3.063,9.105-8.55,9.105c-5.487,0-8.252-4.565-8.559-9.139l-15.343-214.989c0.947,0.171,1.869,0.23,2.816,0.384
			c2.79,0.435,5.564,0.896,8.405,1.161c12.809,1.28,25.199,0.725,36.659-1.203L264.589,485.905z M281.638,187.733h-64.734
			l11.034,11.034c3.337,3.336,3.337,8.73,0,12.066c-1.664,1.664-3.849,2.5-6.033,2.5c-2.185,0-4.369-0.836-6.033-2.5l-25.591-25.591
			c-0.794-0.794-1.417-1.732-1.852-2.782c-0.862-2.082-0.862-4.437,0-6.519c0.435-1.05,1.058-1.988,1.852-2.782l25.591-25.591
			c3.336-3.337,8.73-3.337,12.066,0s3.337,8.73,0,12.066l-11.034,11.034h64.734c14.114,0,25.6-11.486,25.6-25.6
			c0-4.71,3.814-8.533,8.533-8.533s8.533,3.823,8.533,8.533C324.305,168.593,305.165,187.733,281.638,187.733z"/>
	</g>
</g>
<g>
</g>
<g>
</g>
<g>
</g>
<g>
</g>
<g>
</g>
<g>
</g>
<g>
</g>
<g>
</g>
<g>
</g>
<g>
</g>
<g>
</g>
<g>
</g>
<g>
</g>
<g>
</g>
<g>
</g>
</svg>
