<?xml version="1.0" encoding="iso-8859-1"?>
<!-- Generator: Adobe Illustrator 19.0.0, SVG Export Plug-In . SVG Version: 6.00 Build 0)  -->
<svg version="1.1" id="Layer_1" xmlns="http://www.w3.org/2000/svg" xmlns:xlink="http://www.w3.org/1999/xlink" x="0px" y="0px"
	 viewBox="0 0 512.265 512.265" style="enable-background:new 0 0 512.265 512.265;" xml:space="preserve">
<g>
	<g>
		<g>
			<path d="M256.132,85.333c-9.412,0-17.067,7.654-17.067,17.067c0,9.412,7.654,17.067,17.067,17.067
				c9.412,0,17.067-7.654,17.067-17.067C273.199,92.988,265.545,85.333,256.132,85.333z"/>
			<path d="M256.132,0c-75.281,0-136.533,61.252-136.533,136.533c0,60.877,40.073,112.546,95.206,130.099l15.744,220.604
				c0.973,14.507,11.733,25.028,25.583,25.028c13.85,0,24.61-10.522,25.574-24.986l15.855-220.681
				c55.083-17.587,95.104-69.222,95.104-130.065C392.666,61.252,331.413,0,256.132,0z M264.683,486.093
				c-0.299,4.54-3.063,9.105-8.55,9.105c-5.487,0-8.252-4.565-8.559-9.139L232.23,271.061c16.811,3.123,33.101,2.825,47.88,0.341
				L264.683,486.093z M307.332,196.267c0,4.71-3.814,8.533-8.533,8.533s-8.533-3.823-8.533-8.533v-25.6
				c0-18.825-15.309-34.133-34.133-34.133s-34.133,15.309-34.133,34.133v25.6c0,4.71-3.814,8.533-8.533,8.533
				s-8.533-3.823-8.533-8.533v-25.6c0-19.285,10.718-36.096,26.513-44.826c-5.82-6.127-9.446-14.353-9.446-23.441
				c0-18.825,15.309-34.133,34.133-34.133s34.133,15.309,34.133,34.133c0,9.088-3.627,17.314-9.446,23.441
				c15.795,8.73,26.513,25.54,26.513,44.826V196.267z"/>
		</g>
	</g>
</g>
<g>
</g>
<g>
</g>
<g>
</g>
<g>
</g>
<g>
</g>
<g>
</g>
<g>
</g>
<g>
</g>
<g>
</g>
<g>
</g>
<g>
</g>
<g>
</g>
<g>
</g>
<g>
</g>
<g>
</g>
</svg>
