<?xml version="1.0" encoding="iso-8859-1"?>
<!-- Generator: Adobe Illustrator 19.0.0, SVG Export Plug-In . SVG Version: 6.00 Build 0)  -->
<svg version="1.1" id="Layer_1" xmlns="http://www.w3.org/2000/svg" xmlns:xlink="http://www.w3.org/1999/xlink" x="0px" y="0px"
	 viewBox="0 0 512 512" style="enable-background:new 0 0 512 512;" xml:space="preserve">
<g>
	<g>
		<path d="M256,0c-61.167,0-110.933,49.766-110.933,110.933c0,46.054,28.22,85.623,68.267,102.374v34.159
			c0,4.719,3.823,8.533,8.533,8.533h0.811l24.832,248.312c0.435,4.36,4.104,7.688,8.491,7.688c4.386,0,8.055-3.328,8.491-7.688
			L289.323,256h0.811c4.71,0,8.533-3.814,8.533-8.533v-34.159c40.047-16.751,68.267-56.32,68.267-102.374
			C366.933,49.766,317.167,0,256,0z M196.267,110.933c0,4.719-3.823,8.533-8.533,8.533c-4.71,0-8.533-3.814-8.533-8.533
			c0-42.351,34.458-76.8,76.8-76.8c4.71,0,8.533,3.814,8.533,8.533S260.71,51.2,256,51.2
			C223.061,51.2,196.267,77.995,196.267,110.933z M281.6,238.933h-51.2v-19.268c5.077,0.64,9.327,1.118,13.218,1.468
			c1.673,0.188,3.371,0.247,5.069,0.358c0.913,0.06,1.852,0.111,2.739,0.145c1.527,0.06,3.029,0.23,4.574,0.23
			c1.544,0,3.046-0.171,4.574-0.23c0.887-0.034,1.826-0.085,2.739-0.145c1.698-0.111,3.396-0.179,5.069-0.358
			c3.891-0.35,8.141-0.828,13.218-1.468V238.933z"/>
	</g>
</g>
<g>
</g>
<g>
</g>
<g>
</g>
<g>
</g>
<g>
</g>
<g>
</g>
<g>
</g>
<g>
</g>
<g>
</g>
<g>
</g>
<g>
</g>
<g>
</g>
<g>
</g>
<g>
</g>
<g>
</g>
</svg>
