<?xml version="1.0" encoding="iso-8859-1"?>
<!-- Generator: Adobe Illustrator 19.0.0, SVG Export Plug-In . SVG Version: 6.00 Build 0)  -->
<svg version="1.1" id="Layer_1" xmlns="http://www.w3.org/2000/svg" xmlns:xlink="http://www.w3.org/1999/xlink" x="0px" y="0px"
	 viewBox="0 0 512.137 512.137" style="enable-background:new 0 0 512.137 512.137;" xml:space="preserve">
<g>
	<g>
		<path d="M256.068,0c-75.281,0-136.533,61.252-136.533,136.533c0,60.877,40.064,112.538,95.189,130.099l15.761,220.476
			c0.964,14.498,11.725,25.028,25.583,25.028s24.619-10.53,25.583-24.986l15.838-220.553
			c55.091-17.587,95.113-69.222,95.113-130.065C392.602,61.252,331.349,0,256.068,0z M264.619,485.973
			c-0.299,4.523-3.055,9.096-8.55,9.096s-8.252-4.574-8.55-9.139l-15.36-214.818c15.718,2.782,32.128,2.782,47.898-0.009
			L264.619,485.973z M315.802,145.067H196.335c-4.71,0-8.533-3.823-8.533-8.533s3.823-8.533,8.533-8.533h119.467
			c4.71,0,8.533,3.823,8.533,8.533S320.512,145.067,315.802,145.067z"/>
	</g>
</g>
<g>
</g>
<g>
</g>
<g>
</g>
<g>
</g>
<g>
</g>
<g>
</g>
<g>
</g>
<g>
</g>
<g>
</g>
<g>
</g>
<g>
</g>
<g>
</g>
<g>
</g>
<g>
</g>
<g>
</g>
</svg>
