<?xml version="1.0" encoding="iso-8859-1"?>
<!-- Generator: Adobe Illustrator 19.0.0, SVG Export Plug-In . SVG Version: 6.00 Build 0)  -->
<svg version="1.1" id="Layer_1" xmlns="http://www.w3.org/2000/svg" xmlns:xlink="http://www.w3.org/1999/xlink" x="0px" y="0px"
	 viewBox="0 0 512.137 512.137" style="enable-background:new 0 0 512.137 512.137;" xml:space="preserve">
<g>
	<g>
		<g>
			<path d="M256.068,0c-75.281,0-136.533,61.244-136.533,136.533c0,60.868,40.064,112.529,95.189,130.091l15.77,220.476
				c0.956,14.507,11.716,25.037,25.574,25.037s24.619-10.53,25.583-24.994l15.838-220.544
				c55.091-17.587,95.113-69.222,95.113-130.065C392.602,61.244,331.349,0,256.068,0z M264.627,485.965
				c-0.307,4.531-3.063,9.105-8.559,9.105c-5.487,0-8.252-4.574-8.55-9.148l-15.36-214.81c15.718,2.773,32.137,2.773,47.898-0.017
				L264.627,485.965z M326.357,114.133l-75.708,75.708c-1.092,1.092-2.458,1.869-3.959,2.244l-48.29,12.058
				c-0.683,0.171-1.374,0.256-2.065,0.256c-2.236,0-4.412-0.879-6.033-2.5c-2.116-2.125-2.97-5.197-2.244-8.107l12.075-48.265
				c0.375-1.502,1.161-2.867,2.253-3.959l75.699-75.708c7.919-7.902,21.717-7.902,29.611,0l18.662,18.662
				c3.951,3.951,6.135,9.207,6.135,14.805C332.493,104.917,330.308,110.182,326.357,114.133z"/>
			<path d="M295.628,77.929c-0.99-0.99-2.133-1.135-2.739-1.135c-0.597,0-1.749,0.145-2.739,1.135l-15.36,15.369l24.132,24.132
				l15.369-15.36c0.99-0.99,1.135-2.142,1.135-2.739s-0.145-1.749-1.135-2.731L295.628,77.929z"/>
			<polygon points="216.12,151.962 208.065,184.142 240.261,176.103 286.862,129.503 262.721,105.362 			"/>
		</g>
	</g>
</g>
<g>
</g>
<g>
</g>
<g>
</g>
<g>
</g>
<g>
</g>
<g>
</g>
<g>
</g>
<g>
</g>
<g>
</g>
<g>
</g>
<g>
</g>
<g>
</g>
<g>
</g>
<g>
</g>
<g>
</g>
</svg>
