<?xml version="1.0" encoding="iso-8859-1"?>
<!-- Generator: Adobe Illustrator 19.0.0, SVG Export Plug-In . SVG Version: 6.00 Build 0)  -->
<svg version="1.1" id="Layer_1" xmlns="http://www.w3.org/2000/svg" xmlns:xlink="http://www.w3.org/1999/xlink" x="0px" y="0px"
	 viewBox="0 0 512 512" style="enable-background:new 0 0 512 512;" xml:space="preserve">
<g>
	<g>
		<g>
			<path d="M307.2,119.467h-17.067h-68.267H204.8c-4.702,0-8.533,3.831-8.533,8.533v51.2c0,4.702,3.831,8.533,8.533,8.533h102.4
				c4.702,0,8.533-3.831,8.533-8.533V128C315.733,123.298,311.902,119.467,307.2,119.467z M264.533,153.6v8.533
				c0,4.71-3.823,8.533-8.533,8.533c-4.71,0-8.533-3.823-8.533-8.533V153.6c-4.71,0-8.533-3.823-8.533-8.533
				c0-4.71,3.823-8.533,8.533-8.533h17.067c4.71,0,8.533,3.823,8.533,8.533C273.067,149.777,269.244,153.6,264.533,153.6z"/>
			<path d="M281.591,98.892l0.008-5.026c0-14.114-11.486-25.6-25.6-25.6c-14.114,0-25.6,11.486-25.6,25.6v8.533h51.183
				C281.583,101.222,281.591,100.027,281.591,98.892z"/>
			<path d="M256,0c-75.281,0-136.533,61.252-136.533,136.533c0,60.877,40.064,112.538,95.198,130.099l15.753,220.331
				C231.381,501.47,242.142,512,256,512c13.858,0,24.619-10.53,25.583-24.986l15.829-220.407
				c55.091-17.587,95.121-69.222,95.121-130.074C392.533,61.252,331.281,0,256,0z M264.55,485.837
				c-0.299,4.523-3.055,9.097-8.55,9.097c-5.495,0-8.252-4.574-8.55-9.139l-15.36-214.818c2.185,0.384,4.403,0.589,6.605,0.87
				c1.434,0.179,2.842,0.427,4.284,0.563c3.917,0.367,7.859,0.563,11.81,0.597c0.41,0,0.802,0.06,1.212,0.06
				c0.358,0,0.708-0.051,1.067-0.051c3.994-0.034,7.979-0.23,11.947-0.606c1.502-0.145,2.961-0.401,4.446-0.589
				c2.176-0.273,4.369-0.478,6.528-0.862L264.55,485.837z M332.8,179.2c0,14.114-11.486,25.6-25.6,25.6H204.8
				c-14.114,0-25.6-11.486-25.6-25.6V128c0-14.114,11.486-25.6,25.6-25.6h8.533v-8.533c0-23.526,19.14-42.667,42.667-42.667
				s42.667,19.14,42.667,42.667l-0.009,5.077c-0.009,1.118-0.009,2.295-0.009,3.456h8.55c14.114,0,25.6,11.486,25.6,25.6V179.2z"/>
		</g>
	</g>
</g>
<g>
</g>
<g>
</g>
<g>
</g>
<g>
</g>
<g>
</g>
<g>
</g>
<g>
</g>
<g>
</g>
<g>
</g>
<g>
</g>
<g>
</g>
<g>
</g>
<g>
</g>
<g>
</g>
<g>
</g>
</svg>
