<?xml version="1.0" encoding="iso-8859-1"?>
<!-- Generator: Adobe Illustrator 19.0.0, SVG Export Plug-In . SVG Version: 6.00 Build 0)  -->
<svg version="1.1" id="Layer_1" xmlns="http://www.w3.org/2000/svg" xmlns:xlink="http://www.w3.org/1999/xlink" x="0px" y="0px"
	 viewBox="0 0 512 512" style="enable-background:new 0 0 512 512;" xml:space="preserve">
<g>
	<g>
		<g>
			<path d="M255.999,136.466c9.395,0,17.033-7.646,17.033-17.033c0-8.474-6.238-15.462-14.345-16.759
				c-1.374-0.102-2.739-0.111-4.105-0.128c-8.721,0.734-15.616,7.979-15.616,16.888C238.967,128.82,246.604,136.466,255.999,136.466
				z"/>
			<path d="M289.097,111.599c0.606,2.526,0.998,5.129,0.998,7.834c0,18.807-15.292,34.099-34.099,34.099
				c-18.799,0-34.091-15.292-34.091-34.099c0-3.524,0.691-6.852,1.681-10.052c-12.143,5.734-23.552,14.874-33.783,27.435
				c18.432,25.182,41.737,38.972,66.116,38.997h0.043c24.277,0,47.505-13.67,65.971-38.656
				C311.608,126.029,300.506,117.478,289.097,111.599z"/>
			<path d="M256,0c-75.281,0-136.533,61.252-136.533,136.533c0,60.885,40.073,112.555,95.215,130.108l15.735,220.331
				C231.381,501.47,242.142,512,256,512c13.858,0,24.619-10.53,25.583-24.986l15.821-220.408
				c55.1-17.579,95.13-69.222,95.13-130.074C392.533,61.252,331.281,0,256,0z M264.55,485.837c-0.299,4.531-3.063,9.096-8.55,9.096
				c-5.495,0-8.252-4.565-8.55-9.139l-15.36-214.955c4.028,0.717,8.09,1.289,12.22,1.638c1.596,0.145,3.149,0.154,4.727,0.239
				c2.321,0.12,4.617,0.35,6.963,0.35c0.137,0,0.265-0.017,0.401-0.017c8.166,0.026,16.068-0.649,23.569-1.903L264.55,485.837z
				 M339.891,141.286c-22.289,33.271-52.088,51.593-83.925,51.593h-0.06c-31.838-0.026-61.602-18.347-83.806-51.601
				c-1.997-3.004-1.903-6.938,0.256-9.839c21.683-29.133,48.785-45.065,78.404-46.054c1.143-0.034,2.295,0.12,3.439,0.137
				c0.614-0.034,1.186-0.188,1.801-0.188c1.357,0,2.654,0.247,3.977,0.401c28.186,2.167,55.876,17.8,79.317,45.261
				C341.769,133.905,342.016,138.103,339.891,141.286z"/>
		</g>
	</g>
</g>
<g>
</g>
<g>
</g>
<g>
</g>
<g>
</g>
<g>
</g>
<g>
</g>
<g>
</g>
<g>
</g>
<g>
</g>
<g>
</g>
<g>
</g>
<g>
</g>
<g>
</g>
<g>
</g>
<g>
</g>
</svg>
