<?xml version="1.0" encoding="iso-8859-1"?>
<!-- Generator: Adobe Illustrator 19.0.0, SVG Export Plug-In . SVG Version: 6.00 Build 0)  -->
<svg version="1.1" id="Layer_1" xmlns="http://www.w3.org/2000/svg" xmlns:xlink="http://www.w3.org/1999/xlink" x="0px" y="0px"
	 viewBox="0 0 511.991 511.991" style="enable-background:new 0 0 511.991 511.991;" xml:space="preserve">
<g>
	<g>
		<g>
			<path d="M259.966,145.067h-7.945c-17.297,7.603-30.157,25.677-30.157,42.667v8.533h68.267v-8.533
				C290.132,170.743,277.263,152.67,259.966,145.067z"/>
			<path d="M290.129,76.8h-68.267v8.533c0,16.99,12.868,35.063,30.165,42.667h7.936c17.297-7.603,30.165-25.677,30.165-42.667V76.8z
				"/>
			<path d="M255.996,0c-75.281,0-136.533,61.252-136.533,136.533c0,60.877,40.064,112.546,95.198,130.099l15.753,220.322
				c0.964,14.507,11.725,25.037,25.583,25.037c13.858,0,24.619-10.53,25.583-24.986l15.829-220.399
				c55.091-17.587,95.121-69.222,95.121-130.074C392.529,61.252,331.277,0,255.996,0z M264.546,485.828
				c-0.299,4.523-3.055,9.096-8.55,9.096c-5.495,0-8.252-4.574-8.55-9.139l-15.36-214.818c2.057,0.367,4.147,0.555,6.221,0.819
				c1.596,0.205,3.157,0.478,4.77,0.623c3.516,0.333,7.057,0.478,10.607,0.538c0.777,0.017,1.527,0.119,2.313,0.119
				c0.759,0,1.502-0.102,2.261-0.111c3.558-0.06,7.108-0.213,10.65-0.546c1.664-0.154,3.294-0.435,4.941-0.648
				c2.048-0.265,4.104-0.452,6.135-0.811L264.546,485.828z M307.196,187.733v8.533h8.533c4.71,0,8.533,3.823,8.533,8.533
				c0,4.71-3.823,8.533-8.533,8.533h-8.533h-8.533h-85.333h-8.533h-8.533c-4.71,0-8.533-3.823-8.533-8.533
				c0-4.71,3.823-8.533,8.533-8.533h8.533v-8.533c0-19.439,11.358-39.006,28.305-51.2c-16.947-12.194-28.305-31.761-28.305-51.2
				V76.8h-8.533c-4.71,0-8.533-3.823-8.533-8.533s3.823-8.533,8.533-8.533h8.533h8.533h85.333h8.533h8.533
				c4.71,0,8.533,3.823,8.533,8.533s-3.823,8.533-8.533,8.533h-8.533v8.533c0,19.439-11.358,39.006-28.305,51.2
				C295.838,148.727,307.196,168.294,307.196,187.733z"/>
		</g>
	</g>
</g>
<g>
</g>
<g>
</g>
<g>
</g>
<g>
</g>
<g>
</g>
<g>
</g>
<g>
</g>
<g>
</g>
<g>
</g>
<g>
</g>
<g>
</g>
<g>
</g>
<g>
</g>
<g>
</g>
<g>
</g>
</svg>
