<?xml version="1.0" encoding="iso-8859-1"?>
<!-- Generator: Adobe Illustrator 19.0.0, SVG Export Plug-In . SVG Version: 6.00 Build 0)  -->
<svg version="1.1" id="Layer_1" xmlns="http://www.w3.org/2000/svg" xmlns:xlink="http://www.w3.org/1999/xlink" x="0px" y="0px"
	 viewBox="0 0 512.247 512.247" style="enable-background:new 0 0 512.247 512.247;" xml:space="preserve">
<g>
	<g>
		<g>
			<path d="M273.19,110.933V68.267h-34.133v42.667c0,4.71-3.814,8.533-8.533,8.533h-42.667V153.6h42.667
				c4.719,0,8.533,3.823,8.533,8.533V204.8h34.133v-42.667c0-4.71,3.814-8.533,8.533-8.533h42.667v-34.133h-42.667
				C277.005,119.467,273.19,115.644,273.19,110.933z"/>
			<path d="M256.124,0C180.843,0,119.59,61.252,119.59,136.533c0,60.877,40.073,112.546,95.206,130.099l15.744,220.587
				c0.973,14.507,11.733,25.028,25.583,25.028s24.61-10.522,25.574-24.986l15.846-220.664
				c55.091-17.587,95.113-69.222,95.113-130.065C392.657,61.252,331.405,0,256.124,0z M264.674,486.076
				c-0.299,4.54-3.063,9.105-8.55,9.105s-8.252-4.565-8.559-9.139l-15.343-214.997c16.819,3.123,33.092,2.825,47.88,0.341
				L264.674,486.076z M341.457,162.133c0,4.71-3.814,8.533-8.533,8.533h-42.667v42.667c0,4.71-3.814,8.533-8.533,8.533h-51.2
				c-4.719,0-8.533-3.823-8.533-8.533v-42.667h-42.667c-4.719,0-8.533-3.823-8.533-8.533v-51.2c0-4.71,3.814-8.533,8.533-8.533
				h42.667V59.733c0-4.71,3.814-8.533,8.533-8.533h51.2c4.719,0,8.533,3.823,8.533,8.533V102.4h42.667
				c4.719,0,8.533,3.823,8.533,8.533V162.133z"/>
		</g>
	</g>
</g>
<g>
</g>
<g>
</g>
<g>
</g>
<g>
</g>
<g>
</g>
<g>
</g>
<g>
</g>
<g>
</g>
<g>
</g>
<g>
</g>
<g>
</g>
<g>
</g>
<g>
</g>
<g>
</g>
<g>
</g>
</svg>
