<?xml version="1.0" encoding="iso-8859-1"?>
<!-- Generator: Adobe Illustrator 19.0.0, SVG Export Plug-In . SVG Version: 6.00 Build 0)  -->
<svg version="1.1" id="Layer_1" xmlns="http://www.w3.org/2000/svg" xmlns:xlink="http://www.w3.org/1999/xlink" x="0px" y="0px"
	 viewBox="0 0 512.265 512.265" style="enable-background:new 0 0 512.265 512.265;" xml:space="preserve">
<g>
	<g>
		<g>
			<path d="M230.532,76.8c-18.825,0-34.133,15.309-34.133,34.133s15.309,34.133,34.133,34.133c18.825,0,34.133-15.309,34.133-34.133
				S249.357,76.8,230.532,76.8z"/>
			<path d="M256.132,0c-75.281,0-136.533,61.252-136.533,136.533c0,60.877,40.064,112.538,95.198,130.099l15.753,220.604
				c0.964,14.498,11.725,25.028,25.583,25.028c13.858,0,24.619-10.53,25.583-24.986l15.846-220.681
				c55.083-17.587,95.104-69.222,95.104-130.065C392.666,61.252,331.413,0,256.132,0z M264.683,486.101
				c-0.299,4.531-3.063,9.096-8.55,9.096c-5.495,0-8.252-4.565-8.55-9.139l-15.36-214.989c16.802,3.106,33.109,2.816,47.881,0.341
				L264.683,486.101z M321.899,210.833c-1.664,1.664-3.849,2.5-6.033,2.5s-4.369-0.836-6.033-2.5l-54.895-54.895
				c-7.262,3.951-15.573,6.195-24.405,6.195c-28.237,0-51.2-22.963-51.2-51.2s22.963-51.2,51.2-51.2c28.237,0,51.2,22.963,51.2,51.2
				c0,13.218-5.077,25.242-13.329,34.338l53.495,53.495C325.235,202.103,325.235,207.497,321.899,210.833z"/>
		</g>
	</g>
</g>
<g>
</g>
<g>
</g>
<g>
</g>
<g>
</g>
<g>
</g>
<g>
</g>
<g>
</g>
<g>
</g>
<g>
</g>
<g>
</g>
<g>
</g>
<g>
</g>
<g>
</g>
<g>
</g>
<g>
</g>
</svg>
