<?xml version="1.0" encoding="iso-8859-1"?>
<!-- Generator: Adobe Illustrator 19.0.0, SVG Export Plug-In . SVG Version: 6.00 Build 0)  -->
<svg version="1.1" id="Layer_1" xmlns="http://www.w3.org/2000/svg" xmlns:xlink="http://www.w3.org/1999/xlink" x="0px" y="0px"
	 viewBox="0 0 512 512" style="enable-background:new 0 0 512 512;" xml:space="preserve">
<g>
	<g>
		<path d="M256,0c-75.281,0-136.533,61.252-136.533,136.533c0,60.877,40.073,112.546,95.206,130.099l15.744,220.339
			C231.39,501.478,242.15,512,256,512c13.85,0,24.61-10.522,25.574-24.986l15.829-220.407c55.1-17.579,95.13-69.222,95.13-130.074
			C392.533,61.252,331.281,0,256,0z M264.55,485.828c-0.299,4.531-3.063,9.105-8.55,9.105c-5.487,0-8.252-4.574-8.559-9.139
			L232.09,270.976c2.202,0.393,4.437,0.597,6.656,0.879c1.408,0.179,2.79,0.418,4.207,0.555c4.053,0.375,8.124,0.589,12.211,0.614
			c0.282,0,0.555,0.043,0.836,0.043c0.196,0,0.393-0.026,0.589-0.034c4.164-0.017,8.32-0.239,12.459-0.631
			c1.459-0.137,2.884-0.384,4.326-0.563c2.202-0.282,4.429-0.486,6.613-0.879L264.55,485.828z M296.166,116.966
			c-1.664,1.664-3.849,2.5-6.033,2.5c-2.185,0-4.369-0.836-6.033-2.5l-19.567-19.567v98.867c0,4.71-3.814,8.533-8.533,8.533
			c-4.719,0-8.533-3.823-8.533-8.533V97.399L227.9,116.966c-3.337,3.336-8.73,3.336-12.066,0c-3.337-3.337-3.337-8.73,0-12.066
			l34.125-34.125c0.785-0.794,1.732-1.417,2.782-1.852c2.082-0.862,4.437-0.862,6.519,0c1.05,0.435,1.997,1.058,2.782,1.852
			l34.125,34.125C299.503,108.237,299.503,113.63,296.166,116.966z"/>
	</g>
</g>
<g>
</g>
<g>
</g>
<g>
</g>
<g>
</g>
<g>
</g>
<g>
</g>
<g>
</g>
<g>
</g>
<g>
</g>
<g>
</g>
<g>
</g>
<g>
</g>
<g>
</g>
<g>
</g>
<g>
</g>
</svg>
