<?xml version="1.0" encoding="iso-8859-1"?>
<!-- Generator: Adobe Illustrator 19.0.0, SVG Export Plug-In . SVG Version: 6.00 Build 0)  -->
<svg version="1.1" id="Layer_1" xmlns="http://www.w3.org/2000/svg" xmlns:xlink="http://www.w3.org/1999/xlink" x="0px" y="0px"
	 viewBox="0 0 512.265 512.265" style="enable-background:new 0 0 512.265 512.265;" xml:space="preserve">
<g>
	<g>
		<path d="M256.132,0c-75.281,0-136.533,61.252-136.533,136.533c0,60.868,40.055,112.529,95.181,130.091l15.778,220.604
			c0.956,14.507,11.716,25.037,25.574,25.037c13.858,0,24.619-10.53,25.583-24.994l15.846-220.672
			c55.083-17.587,95.104-69.222,95.104-130.065C392.666,61.252,331.422,0,256.132,0z M264.691,486.093
			c-0.307,4.531-3.063,9.105-8.559,9.105c-5.487,0-8.252-4.574-8.55-9.148l-15.36-214.81c15.718,2.773,32.137,2.773,47.898-0.017
			L264.691,486.093z M314.534,98.449l-59.733,93.867c-1.391,2.185-3.695,3.618-6.272,3.9c-0.307,0.034-0.623,0.051-0.93,0.051
			c-2.244,0-4.42-0.896-6.033-2.5L198.899,151.1c-3.328-3.337-3.328-8.738,0-12.066c3.337-3.337,8.738-3.337,12.066,0l35.149,35.149
			l54.025-84.898c2.526-3.977,7.808-5.154,11.776-2.62C315.891,89.199,317.06,94.473,314.534,98.449z"/>
	</g>
</g>
<g>
</g>
<g>
</g>
<g>
</g>
<g>
</g>
<g>
</g>
<g>
</g>
<g>
</g>
<g>
</g>
<g>
</g>
<g>
</g>
<g>
</g>
<g>
</g>
<g>
</g>
<g>
</g>
<g>
</g>
</svg>
