<?xml version="1.0" encoding="iso-8859-1"?>
<!-- Generator: Adobe Illustrator 19.0.0, SVG Export Plug-In . SVG Version: 6.00 Build 0)  -->
<svg version="1.1" id="Layer_1" xmlns="http://www.w3.org/2000/svg" xmlns:xlink="http://www.w3.org/1999/xlink" x="0px" y="0px"
	 viewBox="0 0 511.999 511.999" style="enable-background:new 0 0 511.999 511.999;" xml:space="preserve">
<g>
	<g>
		<g>
			<path d="M358.057,46.147L165.971,238.915c14.003,12.322,30.558,21.751,48.717,27.58l15.727,220.476
				c0.981,14.507,11.733,25.028,25.583,25.028c13.85,0,24.61-10.522,25.574-24.986l15.838-220.407
				c55.091-17.579,95.121-69.222,95.121-130.074C392.531,101.862,379.433,70.254,358.057,46.147z M264.548,485.827
				c-0.299,4.531-3.063,9.105-8.55,9.105c-5.478,0-8.243-4.574-8.559-9.139l-15.326-214.895c7.757,1.391,15.727,2.167,23.885,2.167
				c0.137,0,0.265-0.017,0.401-0.017c8.158,0.026,16.068-0.649,23.578-1.911L264.548,485.827z"/>
			<path d="M256.001,0C180.72,0,119.468,61.252,119.468,136.533c0,34.645,13.082,66.227,34.423,90.325L345.977,34.099
				C321.921,12.945,290.476,0,256.001,0z"/>
		</g>
	</g>
</g>
</svg>
