<?xml version="1.0" encoding="iso-8859-1"?>
<!-- Generator: Adobe Illustrator 19.0.0, SVG Export Plug-In . SVG Version: 6.00 Build 0)  -->
<svg version="1.1" id="Layer_1" xmlns="http://www.w3.org/2000/svg" xmlns:xlink="http://www.w3.org/1999/xlink" x="0px" y="0px"
	 viewBox="0 0 512.077 512.077" style="enable-background:new 0 0 512.077 512.077;" xml:space="preserve">
<g>
	<g>
		<g>
			<path d="M267.828,113.628L256.18,78.633l-11.221,34.91c-1.135,3.533-4.412,5.922-8.124,5.922h-32.521l25.651,19.746
				c2.893,2.227,4.045,6.05,2.876,9.498l-12.288,36.284l31.326-19.447c2.756-1.715,6.281-1.707,9.037,0.034l30.874,19.413
				l-11.896-36.369c-1.118-3.413,0.026-7.159,2.85-9.378l25.318-19.78h-32.137C272.257,119.465,268.997,117.118,267.828,113.628z"/>
			<path d="M256.038,0c-75.281,0-136.533,61.252-136.533,136.533c0,60.885,40.073,112.555,95.223,130.108l15.727,220.407
				c0.973,14.507,11.733,25.028,25.583,25.028c13.85,0,24.61-10.522,25.574-24.986l15.838-220.484
				c55.091-17.587,95.121-69.231,95.121-130.074C392.572,61.252,331.319,0,256.038,0z M264.589,485.905
				c-0.299,4.54-3.072,9.105-8.55,9.105c-5.487,0-8.252-4.565-8.559-9.139l-15.343-214.989c0.93,0.171,1.843,0.222,2.765,0.375
				c2.816,0.444,5.615,0.905,8.482,1.169c12.8,1.271,25.182,0.717,36.625-1.203L264.589,485.905z M338.095,117.658l-40.115,31.352
				l17.365,53.137c1.118,3.422-0.026,7.168-2.859,9.378c-2.833,2.219-6.758,2.406-9.788,0.495l-46.353-29.158l-47.01,29.193
				c-1.382,0.853-2.944,1.28-4.497,1.28c-1.886,0-3.763-0.623-5.308-1.852c-2.816-2.236-3.934-6.008-2.773-9.421l17.963-53.043
				l-40.695-31.326c-2.884-2.227-4.045-6.05-2.859-9.506c1.169-3.465,4.42-5.786,8.073-5.786h51.379l17.297-53.811
				c1.126-3.516,4.386-5.905,8.081-5.922h0.043c3.669,0,6.929,2.347,8.098,5.837l17.946,53.897h50.756
				c3.644,0,6.878,2.313,8.064,5.751C342.089,111.599,340.962,115.413,338.095,117.658z"/>
		</g>
	</g>
</g>
<g>
</g>
<g>
</g>
<g>
</g>
<g>
</g>
<g>
</g>
<g>
</g>
<g>
</g>
<g>
</g>
<g>
</g>
<g>
</g>
<g>
</g>
<g>
</g>
<g>
</g>
<g>
</g>
<g>
</g>
</svg>
