<?xml version="1.0" encoding="iso-8859-1"?>
<!-- Generator: Adobe Illustrator 19.0.0, SVG Export Plug-In . SVG Version: 6.00 Build 0)  -->
<svg version="1.1" id="Layer_1" xmlns="http://www.w3.org/2000/svg" xmlns:xlink="http://www.w3.org/1999/xlink" x="0px" y="0px"
	 viewBox="0 0 512.265 512.265" style="enable-background:new 0 0 512.265 512.265;" xml:space="preserve">
<g>
	<g>
		<path d="M256.132,0c-75.281,0-136.533,61.252-136.533,136.533c0,60.868,40.064,112.538,95.189,130.099l15.761,220.604
			c0.973,14.507,11.733,25.028,25.583,25.028c13.85,0,24.61-10.522,25.574-24.986l15.855-220.681
			c55.083-17.587,95.104-69.222,95.104-130.065C392.666,61.252,331.413,0,256.132,0z M264.683,486.093
			c-0.299,4.54-3.063,9.105-8.55,9.105c-5.487,0-8.252-4.565-8.559-9.139l-15.351-214.81c15.718,2.773,32.145,2.773,47.898-0.017
			L264.683,486.093z M313.365,151.1c-1.664,1.664-3.849,2.5-6.033,2.5c-2.185,0-4.369-0.836-6.033-2.5l-11.034-11.034V179.2
			c0,4.71-3.814,8.533-8.533,8.533s-8.533-3.823-8.533-8.533v-56.201l-17.067-17.067l-17.067,17.067V179.2
			c0,4.71-3.814,8.533-8.533,8.533s-8.533-3.823-8.533-8.533v-39.134L210.965,151.1c-3.337,3.337-8.73,3.337-12.066,0
			c-3.336-3.337-3.336-8.73,0-12.066l25.591-25.591l0.017-0.017l25.591-25.591c3.337-3.337,8.73-3.337,12.066,0l25.591,25.591
			l0.017,0.017l25.591,25.591C316.702,142.37,316.702,147.763,313.365,151.1z"/>
	</g>
</g>
<g>
</g>
<g>
</g>
<g>
</g>
<g>
</g>
<g>
</g>
<g>
</g>
<g>
</g>
<g>
</g>
<g>
</g>
<g>
</g>
<g>
</g>
<g>
</g>
<g>
</g>
<g>
</g>
<g>
</g>
</svg>
