<?xml version="1.0" encoding="iso-8859-1"?>
<!-- Generator: Adobe Illustrator 19.0.0, SVG Export Plug-In . SVG Version: 6.00 Build 0)  -->
<svg version="1.1" id="Layer_1" xmlns="http://www.w3.org/2000/svg" xmlns:xlink="http://www.w3.org/1999/xlink" x="0px" y="0px"
	 viewBox="0 0 512.265 512.265" style="enable-background:new 0 0 512.265 512.265;" xml:space="preserve">
<g>
	<g>
		<path d="M256.132,0c-75.281,0-136.533,61.252-136.533,136.533c0,60.877,40.064,112.538,95.198,130.099l15.753,220.604
			c0.964,14.498,11.725,25.028,25.583,25.028c13.858,0,24.619-10.53,25.583-24.986l15.846-220.681
			c55.083-17.587,95.104-69.222,95.104-130.065C392.666,61.252,331.413,0,256.132,0z M264.683,486.101
			c-0.299,4.531-3.063,9.096-8.55,9.096c-5.495,0-8.252-4.565-8.55-9.139l-15.36-214.989c16.802,3.115,33.109,2.816,47.881,0.341
			L264.683,486.101z M315.866,145.067h-51.2v51.2c0,4.71-3.823,8.533-8.533,8.533c-4.71,0-8.533-3.823-8.533-8.533v-51.2h-51.2
			c-4.71,0-8.533-3.823-8.533-8.533s3.823-8.533,8.533-8.533h51.2V76.8c0-4.71,3.823-8.533,8.533-8.533
			c4.71,0,8.533,3.823,8.533,8.533V128h51.2c4.71,0,8.533,3.823,8.533,8.533S320.576,145.067,315.866,145.067z"/>
	</g>
</g>
<g>
</g>
<g>
</g>
<g>
</g>
<g>
</g>
<g>
</g>
<g>
</g>
<g>
</g>
<g>
</g>
<g>
</g>
<g>
</g>
<g>
</g>
<g>
</g>
<g>
</g>
<g>
</g>
<g>
</g>
</svg>
