<?xml version="1.0" encoding="iso-8859-1"?>
<!-- Generator: Adobe Illustrator 19.0.0, SVG Export Plug-In . SVG Version: 6.00 Build 0)  -->
<svg version="1.1" id="Layer_1" xmlns="http://www.w3.org/2000/svg" xmlns:xlink="http://www.w3.org/1999/xlink" x="0px" y="0px"
	 viewBox="0 0 512.179 512.179" style="enable-background:new 0 0 512.179 512.179;" xml:space="preserve">
<g>
	<g>
		<g>
			<path d="M300.887,124.442l-6.818-1.323l-0.094-6.946c-0.213-17.007-13.722-30.839-30.106-30.839
				c-10.684,0-20.361,5.717-25.882,15.3l-3.482,6.05l-6.622-2.21c-8.388-2.842-17.681,2.867-19.558,11.699l-0.853,4.045
				l-3.721,1.835c-7.083,3.499-11.665,10.965-11.665,19.021c0,11.614,9.071,21.06,20.224,21.06l60.809-0.043l24.457,0.043
				c10.061,0,18.244-8.533,18.244-19.012C315.82,133.973,309.54,126.114,300.887,124.442z"/>
			<path d="M256.09,0C180.8,0,119.556,61.252,119.556,136.533c0,60.885,40.073,112.546,95.215,130.108l15.735,220.501
				c0.973,14.507,11.733,25.037,25.583,25.037c13.85,0,24.602-10.53,25.574-24.994l15.838-220.587
				c55.091-17.579,95.121-69.222,95.121-130.065C392.623,61.252,331.371,0,256.09,0z M264.64,486.008
				c-0.307,4.531-3.072,9.105-8.55,9.105c-5.487,0-8.252-4.574-8.559-9.148l-15.343-214.997c2.867,0.538,5.692,0.836,8.525,1.178
				c0.572,0.06,1.126,0.171,1.698,0.23c13.167,1.408,25.899,0.905,37.649-1.067L264.64,486.008z M297.579,179.2h-85.265
				c-20.565,0-37.291-17.101-37.291-38.127c0-13.15,6.827-25.446,17.698-32.367c4.864-14.106,19.191-23.518,34.005-21.879
				c8.892-11.58,22.63-18.56,37.146-18.56c23.569,0,43.332,18.022,46.686,41.318c13.252,5.359,22.332,18.543,22.332,33.536
				C332.89,163.021,317.043,179.2,297.579,179.2z"/>
		</g>
	</g>
</g>
<g>
</g>
<g>
</g>
<g>
</g>
<g>
</g>
<g>
</g>
<g>
</g>
<g>
</g>
<g>
</g>
<g>
</g>
<g>
</g>
<g>
</g>
<g>
</g>
<g>
</g>
<g>
</g>
<g>
</g>
</svg>
