<?xml version="1.0" encoding="iso-8859-1"?>
<!-- Generator: Adobe Illustrator 19.0.0, SVG Export Plug-In . SVG Version: 6.00 Build 0)  -->
<svg version="1.1" id="Layer_1" xmlns="http://www.w3.org/2000/svg" xmlns:xlink="http://www.w3.org/1999/xlink" x="0px" y="0px"
	 viewBox="0 0 504.135 504.135" style="enable-background:new 0 0 504.135 504.135;" xml:space="preserve">
<g>
	<g>
		<path d="M252.068,0c-74.047,0-134.295,60.248-134.295,134.295c0,59.87,39.399,110.684,93.62,127.958l15.511,217.256
			c0.948,14.269,11.533,24.626,25.164,24.626c13.631,0,24.215-10.357,25.164-24.576l15.603-217.34
			c54.171-17.307,93.528-68.088,93.528-127.924C386.363,60.248,326.115,0,252.068,0z M260.478,478.401
			c-0.294,4.448-3.013,8.947-8.41,8.947s-8.116-4.499-8.41-8.989l-15.108-211.473c16.535,3.064,32.55,2.77,47.096,0.336
			L260.478,478.401z M252.068,209.836c-28.764,0-54.431-16.25-67.148-40.994v24.207h-16.787v-50.361h50.361v16.787h-19.439
			c9.569,20.178,29.99,33.574,53.013,33.574c32.399,0,58.754-26.355,58.754-58.754s-26.355-58.754-58.754-58.754
			c-20.916,0-40.414,11.264-50.898,29.385c-2.333,4.02-7.479,5.389-11.474,3.064c-4.012-2.317-5.38-7.453-3.064-11.465
			c13.48-23.3,38.551-37.771,65.435-37.771c41.648,0,75.541,33.893,75.541,75.541S293.716,209.836,252.068,209.836z"/>
	</g>
</g>
<g>
</g>
<g>
</g>
<g>
</g>
<g>
</g>
<g>
</g>
<g>
</g>
<g>
</g>
<g>
</g>
<g>
</g>
<g>
</g>
<g>
</g>
<g>
</g>
<g>
</g>
<g>
</g>
<g>
</g>
</svg>
