<?xml version="1.0" encoding="iso-8859-1"?>
<!-- Generator: Adobe Illustrator 19.0.0, SVG Export Plug-In . SVG Version: 6.00 Build 0)  -->
<svg version="1.1" id="Layer_1" xmlns="http://www.w3.org/2000/svg" xmlns:xlink="http://www.w3.org/1999/xlink" x="0px" y="0px"
	 viewBox="0 0 512 512" style="enable-background:new 0 0 512 512;" xml:space="preserve">
<g>
	<g>
		<path d="M256,0c-75.281,0-136.533,61.244-136.533,136.533c0,60.877,40.073,112.546,95.215,130.099l15.735,220.331
			C231.398,501.47,242.15,512,256,512c13.858,0,24.61-10.53,25.583-24.994l15.829-220.399
			c55.091-17.587,95.121-69.231,95.121-130.074C392.533,61.244,331.29,0,256,0z M256,68.267c7.04,0,12.8,5.76,12.8,12.8
			c0,7.04-5.76,12.8-12.8,12.8c-7.04,0-12.8-5.76-12.8-12.8C243.2,74.027,248.96,68.267,256,68.267z M264.533,119.467V204.8
			c0,4.71-3.814,8.533-8.533,8.533c-4.71,0-8.533-3.823-8.533-8.533v-85.333c0-4.719,3.823-8.533,8.533-8.533
			C260.719,110.933,264.533,114.748,264.533,119.467z M264.55,485.828c-0.299,4.531-3.063,9.105-8.55,9.105
			c-5.478,0-8.243-4.574-8.55-9.148l-15.351-214.81c2.193,0.384,4.437,0.597,6.656,0.87c1.399,0.179,2.782,0.418,4.198,0.555
			c4.053,0.384,8.132,0.597,12.211,0.623c0.282,0,0.555,0.043,0.836,0.043c0.205,0,0.393-0.034,0.597-0.034
			c4.164-0.017,8.32-0.239,12.459-0.631c1.459-0.137,2.876-0.384,4.318-0.572c2.21-0.282,4.429-0.486,6.613-0.87L264.55,485.828z"/>
	</g>
</g>
</svg>
