<svg xmlns="http://www.w3.org/2000/svg" xmlns:xlink="http://www.w3.org/1999/xlink" width="24" height="24" preserveAspectRatio="xMidYMid meet" viewBox="0 0 24 24" style="-ms-transform: rotate(360deg); -webkit-transform: rotate(360deg); transform: rotate(360deg);"><path d="M7 5h16v4h-1v1h-6a1 1 0 0 0-1 1v1a2 2 0 0 1-2 2H9.62c-.38 0-.73.22-.9.56l-2.45 4.89c-.17.34-.51.55-.89.55H2s-3 0 1-6c0 0 3-4-1-4V5h1l.5-1h3L7 5m7 7v-1a1 1 0 0 0-1-1h-1s-1 1 0 2a2 2 0 0 1-2-2a1 1 0 0 0-1 1v1a1 1 0 0 0 1 1h3a1 1 0 0 0 1-1z" fill="param(fill) #000" opacity="param(fill-opacity)" stroke="param(outline) 0" stroke-width="param(outline-width) 0" stroke-opacity="param(outline-opacity)"/></svg>
