<svg xmlns="http://www.w3.org/2000/svg" xmlns:xlink="http://www.w3.org/1999/xlink" width="24" height="24" preserveAspectRatio="xMidYMid meet" viewBox="0 0 24 24" style="-ms-transform: rotate(360deg); -webkit-transform: rotate(360deg); transform: rotate(360deg);"><path d="M12 15a2 2 0 0 1-2-2a2 2 0 0 1 2-2a2 2 0 0 1 2 2a2 2 0 0 1-2 2M7 7c0-1.11.89-2 2-2a2 2 0 0 1 2 2a2 2 0 0 1-2 2a2 2 0 0 1-2-2m5-5C8.43 2 5.23 3.54 3 6l9 16l9-16c-2.22-2.46-5.43-4-9-4z" fill="param(fill) #000" opacity="param(fill-opacity)" stroke="param(outline) 0" stroke-width="param(outline-width) 0" stroke-opacity="param(outline-opacity)"/></svg>
