<?xml version="1.0" encoding="iso-8859-1"?>
<!-- Generator: Adobe Illustrator 19.0.0, SVG Export Plug-In . SVG Version: 6.00 Build 0)  -->
<svg version="1.1" id="Layer_1" xmlns="http://www.w3.org/2000/svg" xmlns:xlink="http://www.w3.org/1999/xlink" x="0px" y="0px"
	 viewBox="0 0 511.974 511.974" style="enable-background:new 0 0 511.974 511.974;" xml:space="preserve">
<g>
	<g>
		<g>
			<path d="M290.118,110.908h-68.267v8.533c0,16.99,12.868,35.063,30.165,42.667h7.945c17.297-7.603,30.157-25.677,30.157-42.667
				V110.908z"/>
			<path d="M259.958,179.174h-7.945c-17.297,7.603-30.157,25.677-30.157,42.667v8.533h68.267v-8.533
				C290.123,204.851,277.255,186.778,259.958,179.174z"/>
			<path d="M255.987,0C161.882,0,85.321,76.553,85.321,170.641c0,45.901,14.003,73.924,33.391,112.708
				c3.012,6.025,6.17,12.331,9.438,19.038c47.753,98.065,120.055,204.792,120.781,205.858c1.587,2.33,4.233,3.729,7.057,3.729
				s5.47-1.399,7.057-3.729c0.725-1.067,73.028-107.793,120.781-205.858c3.268-6.707,6.426-13.013,9.438-19.038
				c19.388-38.784,33.391-66.807,33.391-112.708C426.654,76.553,350.093,0,255.987,0z M307.187,221.841v8.533h8.533
				c4.71,0,8.533,3.814,8.533,8.533s-3.823,8.533-8.533,8.533h-8.533h-8.533h-85.333h-8.533h-8.533c-4.71,0-8.533-3.814-8.533-8.533
				s3.823-8.533,8.533-8.533h8.533v-8.533c0-19.439,11.358-39.006,28.305-51.2c-16.947-12.194-28.305-31.761-28.305-51.2v-8.533
				h-8.533c-4.71,0-8.533-3.814-8.533-8.533s3.823-8.533,8.533-8.533h8.533h8.533h85.333h8.533h8.533
				c4.71,0,8.533,3.814,8.533,8.533s-3.823,8.533-8.533,8.533h-8.533v8.533c0,19.439-11.358,39.006-28.305,51.2
				C295.829,182.835,307.187,202.402,307.187,221.841z"/>
		</g>
	</g>
</g>
<g>
</g>
<g>
</g>
<g>
</g>
<g>
</g>
<g>
</g>
<g>
</g>
<g>
</g>
<g>
</g>
<g>
</g>
<g>
</g>
<g>
</g>
<g>
</g>
<g>
</g>
<g>
</g>
<g>
</g>
</svg>
