<?xml version="1.0" encoding="iso-8859-1"?>
<!-- Generator: Adobe Illustrator 19.0.0, SVG Export Plug-In . SVG Version: 6.00 Build 0)  -->
<svg version="1.1" id="Layer_1" xmlns="http://www.w3.org/2000/svg" xmlns:xlink="http://www.w3.org/1999/xlink" x="0px" y="0px"
	 viewBox="0 0 511.974 511.974" style="enable-background:new 0 0 511.974 511.974;" xml:space="preserve">
<g>
	<g>
		<g>
			<path d="M255.988,85.306c-47.053,0-85.333,38.281-85.333,85.333c0,20.463,7.253,39.253,19.302,53.965l119.996-119.996
				C295.233,92.559,276.442,85.306,255.988,85.306z"/>
			<path d="M202.022,236.674c14.72,12.049,33.51,19.302,53.965,19.302c47.053,0,85.333-38.281,85.333-85.333
				c0-20.463-7.253-39.253-19.302-53.965L202.022,236.674z"/>
			<path d="M255.987,0C161.882,0,85.321,76.553,85.321,170.641c0,45.901,14.012,73.916,33.391,112.691
				c3.012,6.033,6.17,12.348,9.438,19.055c47.744,98.065,120.055,204.783,120.781,205.85c1.587,2.338,4.233,3.738,7.057,3.738
				s5.47-1.399,7.057-3.738c0.725-1.067,73.037-107.785,120.781-205.85c3.268-6.707,6.426-13.022,9.438-19.055
				c19.379-38.776,33.391-66.79,33.391-112.691C426.654,76.553,350.093,0,255.987,0z M255.987,273.041
				c-28.151,0-53.675-11.426-72.209-29.867c-0.051-0.06-0.137-0.077-0.188-0.137c-0.06-0.051-0.077-0.137-0.137-0.188
				c-18.441-18.534-29.867-44.058-29.867-72.209c0-56.465,45.935-102.4,102.4-102.4c28.151,0,53.675,11.426,72.209,29.867
				c0.051,0.06,0.137,0.077,0.188,0.137c0.06,0.051,0.077,0.136,0.137,0.188c18.441,18.534,29.867,44.058,29.867,72.209
				C358.387,227.106,312.452,273.041,255.987,273.041z"/>
		</g>
	</g>
</g>
<g>
</g>
<g>
</g>
<g>
</g>
<g>
</g>
<g>
</g>
<g>
</g>
<g>
</g>
<g>
</g>
<g>
</g>
<g>
</g>
<g>
</g>
<g>
</g>
<g>
</g>
<g>
</g>
<g>
</g>
</svg>
