<?xml version="1.0" encoding="iso-8859-1"?>
<!-- Generator: Adobe Illustrator 19.0.0, SVG Export Plug-In . SVG Version: 6.00 Build 0)  -->
<svg version="1.1" id="Layer_1" xmlns="http://www.w3.org/2000/svg" xmlns:xlink="http://www.w3.org/1999/xlink" x="0px" y="0px"
	 viewBox="0 0 511.974 511.974" style="enable-background:new 0 0 511.974 511.974;" xml:space="preserve">
<g>
	<g>
		<path d="M255.987,0C161.882,0,85.321,76.553,85.321,170.641c0,45.901,14.012,73.916,33.391,112.691
			c3.012,6.033,6.17,12.348,9.438,19.055c47.744,98.065,120.055,204.783,120.781,205.85c1.587,2.338,4.233,3.738,7.057,3.738
			s5.47-1.399,7.057-3.738c0.725-1.067,73.037-107.785,120.781-205.85c3.268-6.707,6.426-13.022,9.438-19.055
			c19.379-38.776,33.391-66.79,33.391-112.691C426.654,76.553,350.093,0,255.987,0z M244.954,151.074
			c-1.664,1.664-3.849,2.5-6.033,2.5c-2.185,0-4.369-0.836-6.033-2.5l-19.567-19.567v98.867c0,4.719-3.814,8.533-8.533,8.533
			s-8.533-3.814-8.533-8.533v-98.867l-19.567,19.567c-3.336,3.337-8.73,3.337-12.066,0s-3.337-8.73,0-12.066l34.125-34.125
			c0.785-0.794,1.732-1.417,2.782-1.852c2.082-0.862,4.429-0.862,6.519,0c1.05,0.435,1.997,1.058,2.782,1.852l34.125,34.125
			C248.29,142.345,248.29,147.738,244.954,151.074z M338.82,202.274l-34.125,34.125c-0.785,0.785-1.732,1.417-2.782,1.852
			c-1.041,0.427-2.15,0.657-3.26,0.657s-2.219-0.23-3.26-0.657c-1.05-0.435-1.997-1.067-2.782-1.852l-34.125-34.125
			c-3.336-3.337-3.336-8.73,0-12.066c3.337-3.336,8.73-3.336,12.066,0l19.567,19.567v-98.867c0-4.719,3.814-8.533,8.533-8.533
			s8.533,3.814,8.533,8.533v98.867l19.567-19.567c3.337-3.336,8.73-3.336,12.066,0C342.157,193.545,342.157,198.938,338.82,202.274z
			"/>
	</g>
</g>
<g>
</g>
<g>
</g>
<g>
</g>
<g>
</g>
<g>
</g>
<g>
</g>
<g>
</g>
<g>
</g>
<g>
</g>
<g>
</g>
<g>
</g>
<g>
</g>
<g>
</g>
<g>
</g>
<g>
</g>
</svg>
