<?xml version="1.0" encoding="iso-8859-1"?>
<!-- Generator: Adobe Illustrator 19.0.0, SVG Export Plug-In . SVG Version: 6.00 Build 0)  -->
<svg version="1.1" id="Layer_1" xmlns="http://www.w3.org/2000/svg" xmlns:xlink="http://www.w3.org/1999/xlink" x="0px" y="0px"
	 viewBox="0 0 511.974 511.974" style="enable-background:new 0 0 511.974 511.974;" xml:space="preserve">
<g>
	<g>
		<g>
			<path d="M255.987,0C161.873,0,85.321,76.553,85.321,170.641c0,45.901,14.003,73.916,33.391,112.691
				c3.004,6.033,6.17,12.348,9.429,19.055c47.753,98.065,120.064,204.783,120.789,205.85c1.587,2.338,4.233,3.738,7.057,3.738
				s5.461-1.399,7.057-3.738c0.725-1.067,73.037-107.785,120.781-205.85c3.268-6.707,6.426-13.022,9.438-19.055
				c19.379-38.776,33.391-66.79,33.391-112.691C426.654,76.553,350.093,0,255.987,0z M338.044,151.765l-40.115,31.351l17.365,53.137
				c1.118,3.422-0.026,7.168-2.859,9.378c-2.833,2.219-6.758,2.398-9.788,0.503l-46.353-29.158l-47.01,29.184
				c-1.382,0.853-2.944,1.28-4.497,1.28c-1.886,0-3.763-0.623-5.308-1.852c-2.816-2.244-3.934-6.007-2.773-9.421l17.963-53.043
				l-40.695-31.326c-2.884-2.227-4.045-6.05-2.859-9.506c1.169-3.465,4.42-5.786,8.073-5.786h51.379l17.297-53.811
				c1.126-3.516,4.386-5.905,8.081-5.922h0.043c3.669,0,6.929,2.347,8.098,5.837l17.946,53.897h50.756
				c3.644,0,6.878,2.304,8.064,5.76C342.037,145.707,340.911,149.521,338.044,151.765z"/>
			<path d="M267.777,147.74l-11.648-34.995l-11.221,34.901c-1.135,3.533-4.412,5.931-8.124,5.931h-32.521l25.651,19.746
				c2.893,2.227,4.045,6.042,2.876,9.498l-12.288,36.284l31.326-19.447c2.756-1.724,6.281-1.715,9.037,0.026l30.874,19.413
				l-11.896-36.361c-1.118-3.422,0.026-7.159,2.85-9.378l25.318-19.78h-32.137C272.206,153.577,268.946,151.222,267.777,147.74z"/>
		</g>
	</g>
</g>
<g>
</g>
<g>
</g>
<g>
</g>
<g>
</g>
<g>
</g>
<g>
</g>
<g>
</g>
<g>
</g>
<g>
</g>
<g>
</g>
<g>
</g>
<g>
</g>
<g>
</g>
<g>
</g>
<g>
</g>
</svg>
