<?xml version="1.0" encoding="iso-8859-1"?>
<!-- Generator: Adobe Illustrator 19.0.0, SVG Export Plug-In . SVG Version: 6.00 Build 0)  -->
<svg version="1.1" id="Layer_1" xmlns="http://www.w3.org/2000/svg" xmlns:xlink="http://www.w3.org/1999/xlink" x="0px" y="0px"
	 viewBox="0 0 511.974 511.974" style="enable-background:new 0 0 511.974 511.974;" xml:space="preserve">
<g>
	<g>
		<g>
			<path d="M255.987,119.441c-9.412,0-17.067,7.654-17.067,17.067c0,9.412,7.654,17.067,17.067,17.067s17.067-7.654,17.067-17.067
				C273.054,127.095,265.4,119.441,255.987,119.441z"/>
			<path d="M255.987,85.308c-47.053,0-85.333,38.281-85.333,85.333s38.281,85.333,85.333,85.333s85.333-38.281,85.333-85.333
				S303.04,85.308,255.987,85.308z M307.187,221.841c0,4.719-3.814,8.533-8.533,8.533s-8.533-3.814-8.533-8.533v-17.067
				c0-18.825-15.309-34.133-34.133-34.133s-34.133,15.309-34.133,34.133v17.067c0,4.719-3.814,8.533-8.533,8.533
				s-8.533-3.814-8.533-8.533v-17.067c0-19.285,10.718-36.096,26.513-44.826c-5.82-6.127-9.446-14.345-9.446-23.441
				c0-18.825,15.309-34.133,34.133-34.133s34.133,15.309,34.133,34.133c0,9.097-3.627,17.314-9.446,23.441
				c15.795,8.73,26.513,25.54,26.513,44.826V221.841z"/>
			<path d="M255.987,0C161.882,0,85.321,76.553,85.321,170.641c0,45.901,14.012,73.916,33.391,112.691
				c3.012,6.033,6.17,12.348,9.438,19.055c47.744,98.065,120.055,204.783,120.781,205.85c1.587,2.338,4.233,3.738,7.057,3.738
				s5.47-1.399,7.057-3.738c0.725-1.067,73.037-107.785,120.781-205.85c3.268-6.707,6.426-13.022,9.438-19.055
				c19.379-38.776,33.391-66.79,33.391-112.691C426.654,76.553,350.093,0,255.987,0z M255.987,273.041
				c-56.465,0-102.4-45.935-102.4-102.4s45.935-102.4,102.4-102.4s102.4,45.935,102.4,102.4S312.452,273.041,255.987,273.041z"/>
		</g>
	</g>
</g>
<g>
</g>
<g>
</g>
<g>
</g>
<g>
</g>
<g>
</g>
<g>
</g>
<g>
</g>
<g>
</g>
<g>
</g>
<g>
</g>
<g>
</g>
<g>
</g>
<g>
</g>
<g>
</g>
<g>
</g>
</svg>
