<?xml version="1.0" encoding="iso-8859-1"?>
<!-- Generator: Adobe Illustrator 19.0.0, SVG Export Plug-In . SVG Version: 6.00 Build 0)  -->
<svg version="1.1" id="Layer_1" xmlns="http://www.w3.org/2000/svg" xmlns:xlink="http://www.w3.org/1999/xlink" x="0px" y="0px"
	 viewBox="0 0 511.974 511.974" style="enable-background:new 0 0 511.974 511.974;" xml:space="preserve">
<g>
	<g>
		<g>
			<path d="M300.785,158.549l-6.818-1.314l-0.094-6.955c-0.213-17.007-13.722-30.839-30.106-30.839
				c-10.684,0-20.361,5.726-25.882,15.309l-3.482,6.059l-6.639-2.236c-8.354-2.816-17.664,2.867-19.541,11.699l-0.853,4.062
				l-3.721,1.826c-7.091,3.499-11.665,10.965-11.665,19.021c0,11.614,9.071,21.06,20.224,21.06l60.698-0.051l0.947,0.051h23.62
				c10.061,0,18.244-8.533,18.244-19.021C315.718,168.081,309.437,160.222,300.785,158.549z"/>
			<path d="M255.987,0C161.873,0,85.321,76.553,85.321,170.641c0,45.901,14.003,73.916,33.391,112.691
				c3.004,6.033,6.161,12.348,9.429,19.055c47.753,98.065,120.064,204.792,120.789,205.858c1.587,2.33,4.233,3.729,7.057,3.729
				s5.461-1.399,7.057-3.729c0.725-1.067,73.028-107.793,120.781-205.858c3.268-6.707,6.426-13.022,9.438-19.055
				c19.379-38.776,33.391-66.79,33.391-112.691C426.654,76.553,350.093,0,255.987,0z M297.476,213.308h-85.265
				c-20.565,0-37.291-17.101-37.291-38.127c0-13.15,6.827-25.455,17.698-32.367c4.864-14.106,19.081-23.569,34.014-21.871
				c8.883-11.588,22.622-18.569,37.137-18.569c23.569,0,43.332,18.022,46.686,41.318c13.252,5.359,22.332,18.543,22.332,33.527
				C332.787,197.129,316.941,213.308,297.476,213.308z"/>
		</g>
	</g>
</g>
<g>
</g>
<g>
</g>
<g>
</g>
<g>
</g>
<g>
</g>
<g>
</g>
<g>
</g>
<g>
</g>
<g>
</g>
<g>
</g>
<g>
</g>
<g>
</g>
<g>
</g>
<g>
</g>
<g>
</g>
</svg>
