<?xml version="1.0" encoding="iso-8859-1"?>
<!-- Generator: Adobe Illustrator 19.0.0, SVG Export Plug-In . SVG Version: 6.00 Build 0)  -->
<svg version="1.1" id="Layer_1" xmlns="http://www.w3.org/2000/svg" xmlns:xlink="http://www.w3.org/1999/xlink" x="0px" y="0px"
	 viewBox="0 0 511.974 511.974" style="enable-background:new 0 0 511.974 511.974;" xml:space="preserve">
<g>
	<g>
		<path d="M255.987,0C161.882,0,85.321,76.553,85.321,170.641c0,45.901,14.012,73.916,33.391,112.691
			c3.012,6.033,6.17,12.348,9.438,19.055c47.744,98.065,120.055,204.792,120.781,205.858c1.587,2.33,4.233,3.729,7.057,3.729
			s5.47-1.399,7.057-3.729c0.725-1.067,73.037-107.793,120.781-205.858c3.268-6.707,6.426-13.022,9.438-19.055
			c19.379-38.776,33.391-66.79,33.391-112.691C426.654,76.553,350.093,0,255.987,0z M196.254,162.108
			c0-23.526,19.14-42.667,42.667-42.667h39.134l-11.034-11.034c-3.336-3.336-3.336-8.73,0-12.066c3.337-3.337,8.73-3.337,12.066,0
			l25.591,25.591c0.794,0.785,1.417,1.732,1.852,2.782c0.862,2.082,0.862,4.437,0,6.519c-0.435,1.05-1.058,1.997-1.852,2.782
			l-25.591,25.591c-1.664,1.664-3.849,2.5-6.033,2.5c-2.185,0-4.369-0.836-6.033-2.5c-3.336-3.336-3.336-8.73,0-12.066
			l11.034-11.034h-39.134c-14.114,0-25.6,11.486-25.6,25.6c0,4.719-3.814,8.533-8.533,8.533S196.254,166.827,196.254,162.108z
			 M273.054,221.841H233.92l11.034,11.034c3.336,3.337,3.336,8.73,0,12.066c-1.664,1.664-3.849,2.5-6.033,2.5
			c-2.185,0-4.369-0.836-6.033-2.5l-25.591-25.591c-0.794-0.785-1.417-1.732-1.852-2.782c-0.862-2.082-0.862-4.437,0-6.519
			c0.435-1.05,1.058-1.997,1.852-2.782l25.591-25.591c3.337-3.336,8.73-3.336,12.066,0c3.336,3.337,3.336,8.73,0,12.066
			l-11.034,11.034h39.134c14.114,0,25.6-11.486,25.6-25.6c0-4.719,3.814-8.533,8.533-8.533s8.533,3.814,8.533,8.533
			C315.721,202.701,296.58,221.841,273.054,221.841z"/>
	</g>
</g>
<g>
</g>
<g>
</g>
<g>
</g>
<g>
</g>
<g>
</g>
<g>
</g>
<g>
</g>
<g>
</g>
<g>
</g>
<g>
</g>
<g>
</g>
<g>
</g>
<g>
</g>
<g>
</g>
<g>
</g>
</svg>
