<?xml version="1.0" encoding="iso-8859-1"?>
<!-- Generator: Adobe Illustrator 19.0.0, SVG Export Plug-In . SVG Version: 6.00 Build 0)  -->
<svg version="1.1" id="Layer_1" xmlns="http://www.w3.org/2000/svg" xmlns:xlink="http://www.w3.org/1999/xlink" x="0px" y="0px"
	 viewBox="0 0 511.974 511.974" style="enable-background:new 0 0 511.974 511.974;" xml:space="preserve">
<g>
	<g>
		<g>
			<path d="M326.694,163.007c-6.972-2.475-12.604-7.825-15.445-14.66c-2.833-6.852-2.637-14.618,0.538-21.308
				c2.577-5.427-0.717-9.353-1.792-10.428c-1.067-1.067-4.984-4.352-10.419-1.792c-6.69,3.183-14.455,3.371-21.299,0.546
				c-6.844-2.833-12.194-8.465-14.677-15.445c-2.014-5.658-7.117-6.093-8.636-6.093s-6.622,0.444-8.636,6.093
				c-2.483,6.98-7.834,12.612-14.677,15.445c-6.844,2.833-14.609,2.637-21.308-0.546c-5.402-2.569-9.336,0.717-10.402,1.792
				c-1.075,1.075-4.378,5.001-1.801,10.419c3.183,6.699,3.379,14.464,0.538,21.316c-2.842,6.835-8.465,12.186-15.445,14.66
				c-2.765,1.067-3.942,4.855-4.045,7.748c-0.137,3.703,1.306,8.183,4.83,9.847c6.195,2.159,11.827,7.518,14.669,14.353
				c2.833,6.852,2.637,14.609-0.546,21.308c-2.577,5.41,0.725,9.335,1.801,10.411c1.067,1.075,5.009,4.361,10.411,1.792
				c3.55-1.681,7.407-2.534,11.264-2.534c3.413,0,6.827,0.674,10.044,1.997c6.844,2.842,12.186,8.465,14.669,15.445
				c1.391,2.876,5.675,4.122,8.96,4.07c3.038-0.051,7.091-1.28,8.516-4.582c2.278-6.468,7.629-12.092,14.473-14.933
				c6.844-2.825,14.609-2.637,21.299,0.538c5.436,2.586,9.344-0.717,10.419-1.792c1.075-1.075,4.369-5,1.792-10.411
				c-3.174-6.699-3.371-14.456-0.538-21.308c2.833-6.835,8.465-12.194,15.445-14.677c5.649-2.014,6.093-7.108,6.093-8.627
				C332.786,170.124,332.351,165.021,326.694,163.007z M255.986,204.735c-18.807,0-34.116-15.309-34.116-34.116
				c0-18.807,15.309-34.108,34.116-34.108s34.116,15.3,34.116,34.108C290.103,189.426,274.794,204.735,255.986,204.735z"/>
			<path d="M255.987,0C161.882,0,85.321,76.553,85.321,170.641c0,45.901,14.003,73.924,33.391,112.708
				c3.012,6.025,6.17,12.339,9.438,19.046c47.753,98.057,120.055,204.783,120.781,205.85c1.587,2.33,4.233,3.729,7.057,3.729
				s5.47-1.399,7.057-3.729c0.725-1.067,73.028-107.793,120.781-205.85c3.268-6.707,6.426-13.022,9.438-19.046
				c19.388-38.784,33.391-66.807,33.391-112.708C426.654,76.553,350.093,0,255.987,0z M332.412,196.361
				c-2.475,0.879-4.395,2.697-5.402,5.137c-0.998,2.423-0.939,5.06,0.196,7.433c4.821,10.155,2.807,21.854-5.146,29.815
				c-7.945,7.945-19.652,9.967-29.815,5.137c-2.372-1.126-5.009-1.178-7.441-0.188c-2.423,1.007-4.241,2.927-5.12,5.402
				c-4.096,9.54-13.261,15.249-24.132,15.411h-0.495c-10.897,0-20.258-5.581-24.499-14.652c-1.195-3.234-3.012-5.154-5.436-6.161
				c-2.423-0.99-5.069-0.939-7.45,0.188c-10.146,4.821-21.845,2.807-29.798-5.137c-7.962-7.953-9.975-19.661-5.154-29.815
				c1.135-2.372,1.203-5.009,0.196-7.433c-1.007-2.44-2.927-4.258-5.402-5.137c-10.069-4.71-15.804-14.874-15.386-26.232
				c0.401-10.812,6.212-19.669,15.181-23.125c2.679-0.956,4.599-2.773,5.598-5.197c1.015-2.432,0.947-5.077-0.188-7.458
				c-4.821-10.146-2.807-21.854,5.154-29.807c7.953-7.945,19.669-9.95,29.798-5.137c2.381,1.135,5.018,1.178,7.45,0.196
				c2.423-1.007,4.241-2.927,5.12-5.402c3.772-10.59,13.474-17.442,24.713-17.442c11.255,0,20.958,6.844,24.721,17.442h0.009
				c0.879,2.475,2.697,4.395,5.12,5.402c2.432,0.99,5.069,0.939,7.441-0.196c10.163-4.838,21.862-2.807,29.815,5.137
				c7.953,7.962,9.967,19.661,5.146,29.815c-1.135,2.372-1.195,5.018-0.188,7.45c0.998,2.423,2.918,4.241,5.393,5.12
				c10.598,3.772,17.442,13.474,17.442,24.721C349.845,182.895,343.002,192.597,332.412,196.361z"/>
			<path d="M255.986,153.577c-9.404,0-17.05,7.646-17.05,17.041c0,9.404,7.646,17.05,17.05,17.05s17.05-7.646,17.05-17.05
				C273.036,161.223,265.39,153.577,255.986,153.577z"/>
		</g>
	</g>
</g>
<g>
</g>
<g>
</g>
<g>
</g>
<g>
</g>
<g>
</g>
<g>
</g>
<g>
</g>
<g>
</g>
<g>
</g>
<g>
</g>
<g>
</g>
<g>
</g>
<g>
</g>
<g>
</g>
<g>
</g>
</svg>
