<?xml version="1.0" encoding="iso-8859-1"?>
<!-- Generator: Adobe Illustrator 19.0.0, SVG Export Plug-In . SVG Version: 6.00 Build 0)  -->
<svg version="1.1" id="Layer_1" xmlns="http://www.w3.org/2000/svg" xmlns:xlink="http://www.w3.org/1999/xlink" x="0px" y="0px"
	 viewBox="0 0 511.974 511.974" style="enable-background:new 0 0 511.974 511.974;" xml:space="preserve">
<g>
	<g>
		<path d="M255.987,0C161.882,0,85.321,76.553,85.321,170.641c0,45.901,14.003,73.924,33.391,112.708
			c3.012,6.025,6.17,12.331,9.438,19.038c47.753,98.065,120.055,204.783,120.781,205.85c1.587,2.338,4.233,3.738,7.057,3.738
			s5.47-1.399,7.057-3.738c0.725-1.067,73.028-107.785,120.781-205.85c3.268-6.707,6.426-13.013,9.438-19.038
			c19.388-38.784,33.391-66.807,33.391-112.708C426.654,76.553,350.093,0,255.987,0z M255.987,247.441
			c-29.252,0-55.339-16.521-68.267-41.685v24.619h-17.067v-51.2h51.2v17.067h-19.763c9.737,20.514,30.498,34.133,53.897,34.133
			c32.939,0,59.733-26.803,59.733-59.733s-26.795-59.733-59.733-59.733c-21.265,0-41.088,11.452-51.746,29.884
			c-2.372,4.079-7.603,5.495-11.665,3.106c-4.079-2.355-5.47-7.569-3.115-11.657c13.705-23.68,39.194-38.4,66.526-38.4
			c42.342,0,76.8,34.449,76.8,76.8C332.787,212.992,298.33,247.441,255.987,247.441z"/>
	</g>
</g>
<g>
</g>
<g>
</g>
<g>
</g>
<g>
</g>
<g>
</g>
<g>
</g>
<g>
</g>
<g>
</g>
<g>
</g>
<g>
</g>
<g>
</g>
<g>
</g>
<g>
</g>
<g>
</g>
<g>
</g>
</svg>
