<?xml version="1.0" encoding="iso-8859-1"?>
<!-- Generator: Adobe Illustrator 19.0.0, SVG Export Plug-In . SVG Version: 6.00 Build 0)  -->
<svg version="1.1" id="Layer_1" xmlns="http://www.w3.org/2000/svg" xmlns:xlink="http://www.w3.org/1999/xlink" x="0px" y="0px"
	 viewBox="0 0 511.974 511.974" style="enable-background:new 0 0 511.974 511.974;" xml:space="preserve">
<g>
	<g>
		<g>
			<path d="M255.987,0C161.882,0,85.321,76.553,85.321,170.641c0,45.901,14.003,73.924,33.391,112.708
				c3.012,6.025,6.17,12.331,9.438,19.038c47.753,98.065,120.055,204.783,120.781,205.85c1.587,2.338,4.233,3.738,7.057,3.738
				s5.47-1.399,7.057-3.738c0.725-1.067,73.028-107.785,120.781-205.85c3.268-6.707,6.426-13.013,9.438-19.038
				c19.379-38.784,33.391-66.807,33.391-112.708C426.654,76.553,350.093,0,255.987,0z M255.987,273.041
				c-56.465,0-102.4-45.935-102.4-102.4s45.935-102.4,102.4-102.4s102.4,45.935,102.4,102.4S312.452,273.041,255.987,273.041z"/>
			<path d="M255.987,85.308c-47.053,0-85.333,38.281-85.333,85.333s38.281,85.333,85.333,85.333s85.333-38.281,85.333-85.333
				S303.04,85.308,255.987,85.308z M324.254,170.641c0,4.719-3.823,8.533-8.533,8.533h-98.867l19.567,19.567
				c3.336,3.336,3.336,8.73,0,12.066c-1.664,1.664-3.849,2.5-6.033,2.5c-2.185,0-4.369-0.836-6.033-2.5l-34.125-34.125
				c-0.794-0.785-1.417-1.732-1.852-2.782c-0.862-2.082-0.862-4.437,0-6.519c0.435-1.05,1.058-1.997,1.852-2.782l34.125-34.125
				c3.337-3.337,8.73-3.337,12.066,0c3.336,3.336,3.336,8.73,0,12.066l-19.567,19.567h98.867
				C320.431,162.108,324.254,165.922,324.254,170.641z"/>
		</g>
	</g>
</g>
<g>
</g>
<g>
</g>
<g>
</g>
<g>
</g>
<g>
</g>
<g>
</g>
<g>
</g>
<g>
</g>
<g>
</g>
<g>
</g>
<g>
</g>
<g>
</g>
<g>
</g>
<g>
</g>
<g>
</g>
</svg>
