<?xml version="1.0" encoding="iso-8859-1"?>
<!-- Generator: Adobe Illustrator 19.0.0, SVG Export Plug-In . SVG Version: 6.00 Build 0)  -->
<svg version="1.1" id="Layer_1" xmlns="http://www.w3.org/2000/svg" xmlns:xlink="http://www.w3.org/1999/xlink" x="0px" y="0px"
	 viewBox="0 0 511.974 511.974" style="enable-background:new 0 0 511.974 511.974;" xml:space="preserve">
<g>
	<g>
		<g>
			<path d="M255.987,0C161.882,0,85.321,76.553,85.321,170.641c0,45.901,14.003,73.924,33.391,112.708
				c3.012,6.025,6.17,12.331,9.438,19.038c47.753,98.065,120.055,204.783,120.781,205.85c1.587,2.338,4.233,3.738,7.057,3.738
				s5.47-1.399,7.057-3.738c0.725-1.067,73.028-107.785,120.781-205.85c3.268-6.707,6.426-13.013,9.438-19.038
				c19.388-38.784,33.391-66.807,33.391-112.708C426.654,76.553,350.093,0,255.987,0z M255.987,273.041
				c-56.465,0-102.4-45.935-102.4-102.4s45.935-102.4,102.4-102.4s102.4,45.935,102.4,102.4S312.452,273.041,255.987,273.041z"/>
			<path d="M255.986,85.309c-47.053,0-85.333,38.281-85.333,85.333s38.281,85.333,85.333,85.333s85.333-38.281,85.333-85.333
				S303.039,85.309,255.986,85.309z M323.596,167.382c0.862,2.082,0.862,4.437,0,6.519c-0.435,1.05-1.058,1.988-1.852,2.782
				l-34.125,34.125c-1.664,1.664-3.849,2.5-6.033,2.5c-2.185,0-4.369-0.836-6.033-2.5c-3.337-3.337-3.337-8.73,0-12.066
				l19.567-19.567h-98.867c-4.71,0-8.533-3.814-8.533-8.533s3.823-8.533,8.533-8.533h98.867l-19.567-19.567
				c-3.337-3.337-3.337-8.73,0-12.066c3.337-3.337,8.738-3.337,12.066,0l34.125,34.125
				C322.538,165.385,323.161,166.333,323.596,167.382z"/>
		</g>
	</g>
</g>
<g>
</g>
<g>
</g>
<g>
</g>
<g>
</g>
<g>
</g>
<g>
</g>
<g>
</g>
<g>
</g>
<g>
</g>
<g>
</g>
<g>
</g>
<g>
</g>
<g>
</g>
<g>
</g>
<g>
</g>
</svg>
