<?xml version="1.0" encoding="iso-8859-1"?>
<!-- Generator: Adobe Illustrator 19.0.0, SVG Export Plug-In . SVG Version: 6.00 Build 0)  -->
<svg version="1.1" id="Layer_1" xmlns="http://www.w3.org/2000/svg" xmlns:xlink="http://www.w3.org/1999/xlink" x="0px" y="0px"
	 viewBox="0 0 512.265 512.265" style="enable-background:new 0 0 512.265 512.265;" xml:space="preserve">
<g>
	<g>
		<path d="M256.132,0c-75.281,0-136.533,61.252-136.533,136.533c0,60.877,40.064,112.538,95.198,130.099l15.753,220.595
			c0.964,14.507,11.725,25.037,25.583,25.037c13.858,0,24.619-10.53,25.583-24.986l15.846-220.681
			c55.083-17.587,95.104-69.222,95.104-130.065C392.666,61.252,331.413,0,256.132,0z M264.683,486.093
			c-0.299,4.531-3.063,9.105-8.55,9.105c-5.495,0-8.252-4.574-8.55-9.139l-15.36-214.997c16.819,3.115,33.118,2.816,47.881,0.341
			L264.683,486.093z M304.832,173.167c3.336,3.337,3.336,8.73,0,12.066c-1.664,1.664-3.849,2.5-6.033,2.5
			c-2.185,0-4.369-0.836-6.033-2.5l-36.634-36.634l-36.634,36.634c-1.664,1.664-3.849,2.5-6.033,2.5c-2.185,0-4.369-0.836-6.033-2.5
			c-3.337-3.337-3.337-8.73,0-12.066l36.634-36.634L207.433,99.9c-3.337-3.336-3.337-8.73,0-12.066c3.336-3.337,8.73-3.337,12.066,0
			l36.634,36.634l36.634-36.634c3.337-3.337,8.73-3.337,12.066,0c3.336,3.337,3.336,8.73,0,12.066l-36.634,36.634L304.832,173.167z"
			/>
	</g>
</g>
<g>
</g>
<g>
</g>
<g>
</g>
<g>
</g>
<g>
</g>
<g>
</g>
<g>
</g>
<g>
</g>
<g>
</g>
<g>
</g>
<g>
</g>
<g>
</g>
<g>
</g>
<g>
</g>
<g>
</g>
</svg>
