<?xml version="1.0" encoding="iso-8859-1"?>
<!-- Generator: Adobe Illustrator 19.0.0, SVG Export Plug-In . SVG Version: 6.00 Build 0)  -->
<svg version="1.1" id="Layer_1" xmlns="http://www.w3.org/2000/svg" xmlns:xlink="http://www.w3.org/1999/xlink" x="0px" y="0px"
	 viewBox="0 0 511.974 511.974" style="enable-background:new 0 0 511.974 511.974;" xml:space="preserve">
<g>
	<g>
		<path d="M255.987,0C161.882,0,85.321,76.553,85.321,170.641c0,45.901,14.003,73.924,33.391,112.708
			c3.012,6.025,6.17,12.331,9.438,19.038c47.753,98.065,120.055,204.792,120.781,205.858c1.587,2.33,4.233,3.729,7.057,3.729
			s5.47-1.399,7.057-3.729c0.725-1.067,73.028-107.793,120.781-205.858c3.268-6.707,6.426-13.013,9.438-19.038
			c19.388-38.784,33.391-66.807,33.391-112.708C426.654,76.553,350.093,0,255.987,0z M332.19,180.233
			c-4.77,38.315-37.53,67.209-76.203,67.209c-29.244,0-55.339-16.521-68.267-41.685v24.619h-17.067v-51.2h51.2v17.067h-19.763
			c9.737,20.514,30.498,34.133,53.897,34.133c30.08,0,55.561-22.468,59.273-52.258c0.58-4.676,4.864-8.073,9.523-7.407
			C329.459,171.29,332.779,175.548,332.19,180.233z M341.321,153.574h-51.2v-17.067h14.729c-11.008-15.804-28.971-25.6-48.862-25.6
			c-27.273,0-51.063,18.415-57.856,44.791c-0.99,3.849-4.454,6.409-8.26,6.409c-0.7,0-1.417-0.085-2.133-0.265
			c-4.557-1.178-7.305-5.837-6.127-10.394c8.73-33.92,39.313-57.609,74.377-57.609c29.21,0,55.228,16.367,68.267,42.044v-33.51
			h17.067V153.574z"/>
	</g>
</g>
<g>
</g>
<g>
</g>
<g>
</g>
<g>
</g>
<g>
</g>
<g>
</g>
<g>
</g>
<g>
</g>
<g>
</g>
<g>
</g>
<g>
</g>
<g>
</g>
<g>
</g>
<g>
</g>
<g>
</g>
</svg>
