<?xml version="1.0" encoding="iso-8859-1"?>
<!-- Generator: Adobe Illustrator 19.0.0, SVG Export Plug-In . SVG Version: 6.00 Build 0)  -->
<svg version="1.1" id="Layer_1" xmlns="http://www.w3.org/2000/svg" xmlns:xlink="http://www.w3.org/1999/xlink" x="0px" y="0px"
	 viewBox="0 0 511.974 511.974" style="enable-background:new 0 0 511.974 511.974;" xml:space="preserve">
<g>
	<g>
		<g>
			<path d="M255.99,85.309c-47.053,0-85.333,38.281-85.333,85.333c0,47.044,38.281,85.333,85.333,85.333
				s85.333-38.289,85.333-85.333C341.323,123.59,303.043,85.309,255.99,85.309z M314.179,141.399l-59.733,85.333
				c-1.357,1.937-3.447,3.217-5.777,3.558c-0.41,0.06-0.811,0.085-1.212,0.085c-1.929,0-3.814-0.649-5.333-1.869l-42.667-34.133
				c-3.678-2.953-4.275-8.32-1.331-11.998c2.944-3.669,8.32-4.275,11.989-1.331l35.567,28.442l54.511-77.867
				c2.714-3.866,8.03-4.804,11.887-2.108C315.945,132.217,316.875,137.542,314.179,141.399z"/>
			<path d="M255.987,0C161.882,0,85.321,76.553,85.321,170.641c0,45.901,14.003,73.924,33.391,112.708
				c3.012,6.025,6.17,12.331,9.438,19.038c47.753,98.065,120.055,204.783,120.781,205.85c1.587,2.338,4.233,3.738,7.057,3.738
				s5.47-1.399,7.057-3.738c0.725-1.067,73.028-107.785,120.781-205.85c3.268-6.707,6.426-13.013,9.438-19.038
				c19.379-38.784,33.391-66.807,33.391-112.708C426.654,76.553,350.093,0,255.987,0z M255.987,273.041
				c-56.465,0-102.4-45.935-102.4-102.4s45.935-102.4,102.4-102.4s102.4,45.935,102.4,102.4S312.452,273.041,255.987,273.041z"/>
		</g>
	</g>
</g>
<g>
</g>
<g>
</g>
<g>
</g>
<g>
</g>
<g>
</g>
<g>
</g>
<g>
</g>
<g>
</g>
<g>
</g>
<g>
</g>
<g>
</g>
<g>
</g>
<g>
</g>
<g>
</g>
<g>
</g>
</svg>
