<?xml version="1.0" encoding="iso-8859-1"?>
<!-- Generator: Adobe Illustrator 19.0.0, SVG Export Plug-In . SVG Version: 6.00 Build 0)  -->
<svg version="1.1" id="Layer_1" xmlns="http://www.w3.org/2000/svg" xmlns:xlink="http://www.w3.org/1999/xlink" x="0px" y="0px"
	 viewBox="0 0 511.974 511.974" style="enable-background:new 0 0 511.974 511.974;" xml:space="preserve">
<g>
	<g>
		<g>
			<path d="M281.579,133l0.008-5.026c0-14.114-11.486-25.6-25.6-25.6s-25.6,11.486-25.6,25.6v8.533h51.183
				C281.57,135.321,281.579,134.143,281.579,133z"/>
			<path d="M307.187,153.574h-17.067h-68.267h-17.067c-4.702,0-8.533,3.823-8.533,8.533v51.2c0,4.71,3.831,8.533,8.533,8.533h102.4
				c4.702,0,8.533-3.823,8.533-8.533v-51.2C315.721,157.397,311.889,153.574,307.187,153.574z M264.521,187.708v8.533
				c0,4.719-3.823,8.533-8.533,8.533s-8.533-3.814-8.533-8.533v-8.533c-4.71,0-8.533-3.814-8.533-8.533s3.823-8.533,8.533-8.533
				h17.067c4.71,0,8.533,3.814,8.533,8.533S269.231,187.708,264.521,187.708z"/>
			<path d="M255.987,0C161.882,0,85.321,76.553,85.321,170.641c0,45.901,14.003,73.924,33.391,112.708
				c3.012,6.025,6.17,12.331,9.438,19.038c47.753,98.065,120.055,204.792,120.781,205.858c1.587,2.33,4.233,3.729,7.057,3.729
				s5.47-1.399,7.057-3.729c0.725-1.067,73.028-107.793,120.781-205.858c3.268-6.707,6.426-13.013,9.438-19.038
				c19.379-38.784,33.391-66.807,33.391-112.708C426.654,76.553,350.093,0,255.987,0z M332.787,213.308
				c0,14.114-11.486,25.6-25.6,25.6h-102.4c-14.114,0-25.6-11.486-25.6-25.6v-51.2c0-14.114,11.486-25.6,25.6-25.6h8.533v-8.533
				c0-23.526,19.14-42.667,42.667-42.667c23.526,0,42.667,19.14,42.667,42.667l-0.009,5.077c-0.009,1.118-0.009,2.295-0.009,3.456
				h8.55c14.114,0,25.6,11.486,25.6,25.6V213.308z"/>
		</g>
	</g>
</g>
<g>
</g>
<g>
</g>
<g>
</g>
<g>
</g>
<g>
</g>
<g>
</g>
<g>
</g>
<g>
</g>
<g>
</g>
<g>
</g>
<g>
</g>
<g>
</g>
<g>
</g>
<g>
</g>
<g>
</g>
</svg>
