<?xml version="1.0" encoding="iso-8859-1"?>
<!-- Generator: Adobe Illustrator 19.0.0, SVG Export Plug-In . SVG Version: 6.00 Build 0)  -->
<svg version="1.1" id="Layer_1" xmlns="http://www.w3.org/2000/svg" xmlns:xlink="http://www.w3.org/1999/xlink" x="0px" y="0px"
	 viewBox="0 0 511.974 511.974" style="enable-background:new 0 0 511.974 511.974;" xml:space="preserve">
<g>
	<g>
		<g>
			<path d="M255.993,170.563c9.387,0,17.024-7.629,17.024-17.024c0-8.704-6.588-15.829-15.027-16.828
				c-1.041-0.077-2.082-0.068-3.123-0.094c-8.858,0.589-15.906,7.91-15.906,16.922C238.961,162.935,246.598,170.563,255.993,170.563
				z"/>
			<path d="M289.104,145.766c0.597,2.509,0.981,5.086,0.981,7.774c0,18.799-15.292,34.091-34.099,34.091
				c-18.799,0-34.091-15.292-34.091-34.091c0-3.575,0.708-6.963,1.732-10.206c-12.262,5.76-23.74,15.019-34.014,27.759
				c18.176,27.119,41.293,42.061,65.562,42.214c24.61,0.358,48.017-14.66,66.867-41.89
				C311.658,160.247,300.53,151.671,289.104,145.766z"/>
			<path d="M255.987,0C161.882,0,85.321,76.544,85.321,170.641c0,45.901,14.003,73.924,33.391,112.708
				c3.012,6.025,6.17,12.331,9.438,19.038c47.761,98.065,120.055,204.783,120.781,205.85c1.587,2.338,4.233,3.738,7.057,3.738
				c2.825,0,5.47-1.399,7.057-3.738c0.725-1.067,73.028-107.785,120.789-205.85c3.268-6.707,6.417-13.013,9.429-19.038
				c19.388-38.784,33.391-66.807,33.391-112.708C426.654,76.544,350.093,0,255.987,0z M339.998,175.206
				c-22.545,35.593-52.514,55.168-84.429,55.168h-0.503c-31.804-0.205-61.329-19.823-83.14-55.262
				c-1.826-2.961-1.672-6.741,0.401-9.54c21.461-29.09,48.418-45.039,77.943-46.123c1.408-0.051,2.825,0.119,4.241,0.137
				c0.503-0.017,0.973-0.145,1.476-0.145c1.007,0,1.954,0.213,2.944,0.299c28.365,1.869,56.533,17.596,80.333,45.338
				C341.705,167.927,342.003,172.041,339.998,175.206z"/>
		</g>
	</g>
</g>
<g>
</g>
<g>
</g>
<g>
</g>
<g>
</g>
<g>
</g>
<g>
</g>
<g>
</g>
<g>
</g>
<g>
</g>
<g>
</g>
<g>
</g>
<g>
</g>
<g>
</g>
<g>
</g>
<g>
</g>
</svg>
