<?xml version="1.0" encoding="iso-8859-1"?>
<!-- Generator: Adobe Illustrator 19.0.0, SVG Export Plug-In . SVG Version: 6.00 Build 0)  -->
<svg version="1.1" id="Layer_1" xmlns="http://www.w3.org/2000/svg" xmlns:xlink="http://www.w3.org/1999/xlink" x="0px" y="0px"
	 viewBox="0 0 511.974 511.974" style="enable-background:new 0 0 511.974 511.974;" xml:space="preserve">
<g>
	<g>
		<g>
			<path d="M230.387,110.908c-18.825,0-34.133,15.309-34.133,34.133s15.309,34.133,34.133,34.133
				c18.825,0,34.133-15.309,34.133-34.133S249.212,110.908,230.387,110.908z"/>
			<path d="M255.987,0C161.882,0,85.321,76.553,85.321,170.641c0,45.901,14.003,73.924,33.391,112.708
				c3.012,6.025,6.17,12.331,9.438,19.038c47.753,98.065,120.055,204.783,120.781,205.85c1.587,2.338,4.233,3.738,7.057,3.738
				s5.47-1.399,7.057-3.738c0.725-1.067,73.028-107.785,120.781-205.85c3.268-6.707,6.426-13.013,9.438-19.038
				c19.388-38.784,33.391-66.807,33.391-112.708C426.654,76.553,350.093,0,255.987,0z M321.754,244.941
				c-1.664,1.664-3.849,2.5-6.033,2.5c-2.185,0-4.369-0.836-6.033-2.5l-54.895-54.895c-7.262,3.951-15.573,6.195-24.405,6.195
				c-28.237,0-51.2-22.963-51.2-51.2c0-28.237,22.963-51.2,51.2-51.2c28.237,0,51.2,22.963,51.2,51.2
				c0,13.218-5.077,25.242-13.329,34.338l53.495,53.495C325.09,236.211,325.09,241.604,321.754,244.941z"/>
		</g>
	</g>
</g>
<g>
</g>
<g>
</g>
<g>
</g>
<g>
</g>
<g>
</g>
<g>
</g>
<g>
</g>
<g>
</g>
<g>
</g>
<g>
</g>
<g>
</g>
<g>
</g>
<g>
</g>
<g>
</g>
<g>
</g>
</svg>
