<?xml version="1.0" encoding="iso-8859-1"?>
<!-- Generator: Adobe Illustrator 19.0.0, SVG Export Plug-In . SVG Version: 6.00 Build 0)  -->
<svg version="1.1" id="Layer_1" xmlns="http://www.w3.org/2000/svg" xmlns:xlink="http://www.w3.org/1999/xlink" x="0px" y="0px"
	 viewBox="0 0 511.974 511.974" style="enable-background:new 0 0 511.974 511.974;" xml:space="preserve">
<g>
	<g>
		<g>
			<path d="M255.987,0C161.882,0,85.321,76.553,85.321,170.641c0,45.901,14.012,73.916,33.391,112.691
				c3.012,6.033,6.17,12.356,9.438,19.063c47.744,98.057,120.055,204.783,120.781,205.85c1.587,2.33,4.233,3.729,7.057,3.729
				s5.47-1.399,7.057-3.729c0.725-1.067,73.037-107.793,120.789-205.85c3.26-6.707,6.417-13.03,9.429-19.063
				c19.388-38.775,33.391-66.79,33.391-112.691C426.654,76.553,350.093,0,255.987,0z M327.855,167.151
				c-3.157,12.681-10.377,24.166-20.881,33.22l-50.867,50.44l-53.24-50.739c-10.197-8.755-17.408-20.241-20.574-32.922
				c-2.099-8.491-1.596-14.046-1.297-15.983c2.372-23.945,19.627-40.636,42.052-40.636c12.57,0,24.337,7.706,32.538,17.596
				c8.166-11.324,18.586-17.596,29.807-17.596c22.682,0,41.438,17.442,43.759,40.627
				C329.451,153.097,329.954,158.66,327.855,167.151z"/>
			<path d="M285.397,127.602c-11.588,0-19.473,15.718-21.606,20.531l-7.799,17.57l-7.799-17.57
				c-4.403-9.916-15.565-20.531-25.148-20.531c-15.684,0-23.893,12.791-25.079,25.463l-0.137,0.896c0.009,0-0.401,3.294,1.033,9.079
				c2.295,9.225,7.646,17.664,15.454,24.397l41.557,39.569l39.526-39.159c8.252-7.134,13.602-15.582,15.889-24.806
				c1.476-5.931,0.998-9.25,0.998-9.284C310.817,138.311,299.536,127.602,285.397,127.602z"/>
		</g>
	</g>
</g>
<g>
</g>
<g>
</g>
<g>
</g>
<g>
</g>
<g>
</g>
<g>
</g>
<g>
</g>
<g>
</g>
<g>
</g>
<g>
</g>
<g>
</g>
<g>
</g>
<g>
</g>
<g>
</g>
<g>
</g>
</svg>
