<?xml version="1.0" encoding="iso-8859-1"?>
<!-- Generator: Adobe Illustrator 19.0.0, SVG Export Plug-In . SVG Version: 6.00 Build 0)  -->
<svg version="1.1" id="Layer_1" xmlns="http://www.w3.org/2000/svg" xmlns:xlink="http://www.w3.org/1999/xlink" x="0px" y="0px"
	 viewBox="0 0 511.974 511.974" style="enable-background:new 0 0 511.974 511.974;" xml:space="preserve">
<g>
	<g>
		<g>
			<path d="M273.054,145.041v-42.667h-34.133v42.667c0,4.719-3.814,8.533-8.533,8.533h-42.667v34.133h42.667
				c4.719,0,8.533,3.814,8.533,8.533v42.667h34.133v-42.667c0-4.719,3.814-8.533,8.533-8.533h42.667v-34.133h-42.667
				C276.868,153.574,273.054,149.76,273.054,145.041z"/>
			<path d="M255.987,0C161.882,0,85.321,76.553,85.321,170.641c0,45.901,14.012,73.916,33.391,112.691
				c3.012,6.033,6.17,12.348,9.438,19.055c47.744,98.065,120.055,204.792,120.781,205.858c1.587,2.33,4.233,3.729,7.057,3.729
				s5.47-1.399,7.057-3.729c0.725-1.067,73.037-107.793,120.781-205.858c3.268-6.707,6.426-13.022,9.438-19.055
				c19.379-38.776,33.391-66.79,33.391-112.691C426.654,76.553,350.093,0,255.987,0z M341.321,196.241
				c0,4.719-3.814,8.533-8.533,8.533h-42.667v42.667c0,4.719-3.814,8.533-8.533,8.533h-51.2c-4.719,0-8.533-3.814-8.533-8.533
				v-42.667h-42.667c-4.719,0-8.533-3.814-8.533-8.533v-51.2c0-4.719,3.814-8.533,8.533-8.533h42.667V93.841
				c0-4.719,3.814-8.533,8.533-8.533h51.2c4.719,0,8.533,3.814,8.533,8.533v42.667h42.667c4.719,0,8.533,3.814,8.533,8.533V196.241z
				"/>
		</g>
	</g>
</g>
<g>
</g>
<g>
</g>
<g>
</g>
<g>
</g>
<g>
</g>
<g>
</g>
<g>
</g>
<g>
</g>
<g>
</g>
<g>
</g>
<g>
</g>
<g>
</g>
<g>
</g>
<g>
</g>
<g>
</g>
</svg>
