<svg xmlns="http://www.w3.org/2000/svg" xmlns:xlink="http://www.w3.org/1999/xlink" width="24" height="24" preserveAspectRatio="xMidYMid meet" viewBox="0 0 24 24" style="-ms-transform: rotate(360deg); -webkit-transform: rotate(360deg); transform: rotate(360deg);"><path d="M2 15c1.67-.75 3.33-1.5 5-1.83V5a3 3 0 0 1 3-3c1.31 0 2.42.83 2.83 2H10a1 1 0 0 0-1 1v1h5V5a3 3 0 0 1 3-3c1.31 0 2.42.83 2.83 2H17a1 1 0 0 0-1 1v9.94c2-.32 4-1.94 6-1.94v2c-2.22 0-4.44 2-6.67 2c-2.22 0-4.44-2-6.66-2c-2.23 0-4.45 1-6.67 2v-2m12-7H9v2h5V8m0 4H9v1c1.67.16 3.33 1.31 5 1.79V12M2 19c2.22-1 4.44-2 6.67-2c2.22 0 4.44 2 6.66 2c2.23 0 4.45-2 6.67-2v2c-2.22 0-4.44 2-6.67 2c-2.22 0-4.44-2-6.66-2c-2.23 0-4.45 1-6.67 2v-2z" fill="param(fill) #000" opacity="param(fill-opacity)" stroke="param(outline) 0" stroke-width="param(outline-width) 0" stroke-opacity="param(outline-opacity)"/></svg>
