<svg xmlns="http://www.w3.org/2000/svg" xmlns:xlink="http://www.w3.org/1999/xlink" width="24" height="24" preserveAspectRatio="xMidYMid meet" viewBox="0 0 24 24" style="-ms-transform: rotate(360deg); -webkit-transform: rotate(360deg); transform: rotate(360deg);"><path d="M18 3H6v4h12m1 5a1 1 0 0 1-1-1a1 1 0 0 1 1-1a1 1 0 0 1 1 1a1 1 0 0 1-1 1m-3 7H8v-5h8m3-6H5a3 3 0 0 0-3 3v6h4v4h12v-4h4v-6a3 3 0 0 0-3-3z" fill="param(fill) #000" opacity="param(fill-opacity)" stroke="param(outline) 0" stroke-width="param(outline-width) 0" stroke-opacity="param(outline-opacity)"/></svg>
