<svg xmlns="http://www.w3.org/2000/svg" xmlns:xlink="http://www.w3.org/1999/xlink" width="24" height="24" preserveAspectRatio="xMidYMid meet" viewBox="0 0 24 24" style="-ms-transform: rotate(360deg); -webkit-transform: rotate(360deg); transform: rotate(360deg);"><path d="M1 14V5h12c5.5 0 10 4.5 10 10v2h-2.17A2.99 2.99 0 0 1 18 19a2.99 2.99 0 0 1-2.83-2H10a5.002 5.002 0 0 1-9-3m5-3c-1.66 0-3 1.34-3 3s1.34 3 3 3s3-1.34 3-3s-1.34-3-3-3m9-1v2h5.25c-.33-.73-.75-1.4-1.25-2h-4z" fill="param(fill) #000" opacity="param(fill-opacity)" stroke="param(outline) 0" stroke-width="param(outline-width) 0" stroke-opacity="param(outline-opacity)"/></svg>
