<?xml version="1.0" encoding="iso-8859-1"?>
<!-- Generator: Adobe Illustrator 19.0.0, SVG Export Plug-In . SVG Version: 6.00 Build 0)  -->
<svg version="1.1" id="Layer_1" xmlns="http://www.w3.org/2000/svg" xmlns:xlink="http://www.w3.org/1999/xlink" x="0px" y="0px"
	 viewBox="0 0 512 512" style="enable-background:new 0 0 512 512;" xml:space="preserve">
<g>
	<g>
		<g>
			<path d="M418.133,490.667H409.6c-4.719,0-8.533,3.814-8.533,8.533s3.814,8.533,8.533,8.533h8.533
				c4.719,0,8.533-3.814,8.533-8.533S422.852,490.667,418.133,490.667z"/>
			<path d="M327.992,490.667h-16.316c-4.719,0-8.533,3.814-8.533,8.533s3.814,8.533,8.533,8.533h16.316
				c4.719,0,8.533-3.814,8.533-8.533S332.71,490.667,327.992,490.667z"/>
			<path d="M376.958,490.667h-16.324c-4.719,0-8.533,3.814-8.533,8.533s3.814,8.533,8.533,8.533h16.324
				c4.719,0,8.533-3.814,8.533-8.533S381.677,490.667,376.958,490.667z"/>
			<path d="M226.044,344.477c3.43,2.731,6.272,6.059,8.448,9.865c1.579,2.756,4.454,4.309,7.424,4.309
				c1.434,0,2.884-0.358,4.215-1.118c4.096-2.338,5.53-7.552,3.191-11.639c-3.26-5.709-7.518-10.675-12.646-14.771
				c-3.712-2.935-9.071-2.321-11.989,1.357C221.751,336.174,222.357,341.542,226.044,344.477z"/>
			<path d="M40.523,484.767c-3.627-2.483-6.707-5.581-9.156-9.233c-2.637-3.908-7.936-4.975-11.844-2.321
				c-3.917,2.628-4.949,7.927-2.321,11.836c3.669,5.461,8.277,10.103,13.688,13.798c1.476,1.015,3.149,1.493,4.813,1.493
				c2.722,0,5.402-1.297,7.049-3.712C45.413,492.737,44.414,487.429,40.523,484.767z"/>
			<path d="M83.167,490.667H66.842c-4.719,0-8.533,3.814-8.533,8.533s3.814,8.533,8.533,8.533h16.324
				c4.719,0,8.533-3.814,8.533-8.533S87.886,490.667,83.167,490.667z"/>
			<path d="M17.717,457.667c4.07,0,7.671-2.918,8.397-7.066c0.751-4.309,2.313-8.388,4.634-12.1
				c2.492-3.994,1.28-9.259-2.722-11.759c-3.977-2.483-9.259-1.263-11.759,2.722c-3.482,5.589-5.837,11.708-6.963,18.202
				c-0.811,4.642,2.295,9.062,6.938,9.873C16.736,457.624,17.231,457.667,17.717,457.667z"/>
			<path d="M175.975,328.533c0,4.719,3.814,8.533,8.533,8.533h16.316c4.719,0,8.533-3.814,8.533-8.533S205.543,320,200.824,320
				h-16.316C179.79,320,175.975,323.814,175.975,328.533z"/>
			<path d="M122.908,413.867c0-4.719-3.814-8.533-8.533-8.533H98.059c-4.719,0-8.533,3.814-8.533,8.533
				c0,4.719,3.814,8.533,8.533,8.533h16.316C119.094,422.4,122.908,418.586,122.908,413.867z"/>
			<path d="M135.542,320c-4.719,0-8.533,3.814-8.533,8.533s3.814,8.533,8.533,8.533h16.324c4.719,0,8.533-3.814,8.533-8.533
				S156.585,320,151.866,320H135.542z"/>
			<path d="M65.408,422.4c4.719,0,8.533-3.814,8.533-8.533c0-4.719-3.814-8.533-8.533-8.533h-5.692
				c-4.284,0.009-8.525,0.538-12.612,1.57c-4.565,1.152-7.33,5.786-6.178,10.359c0.973,3.874,4.446,6.443,8.269,6.443
				c0.691,0,1.399-0.077,2.099-0.256c2.722-0.691,5.572-1.041,8.439-1.05H65.408z"/>
			<path d="M230.059,490.667h-16.316c-4.719,0-8.533,3.814-8.533,8.533s3.814,8.533,8.533,8.533h16.316
				c4.719,0,8.533-3.814,8.533-8.533S234.778,490.667,230.059,490.667z"/>
			<path d="M248.275,373.4c-4.565-1.169-9.207,1.604-10.368,6.187c-1.075,4.25-2.935,8.201-5.513,11.733
				c-2.782,3.797-1.954,9.139,1.852,11.921c1.519,1.109,3.277,1.638,5.026,1.638c2.637,0,5.231-1.203,6.904-3.499
				c3.874-5.299,6.664-11.23,8.286-17.613C255.605,379.203,252.849,374.56,248.275,373.4z"/>
			<path d="M279.025,490.667H262.7c-4.719,0-8.533,3.814-8.533,8.533s3.814,8.533,8.533,8.533h16.324
				c4.719,0,8.533-3.814,8.533-8.533S283.744,490.667,279.025,490.667z"/>
			<path d="M171.875,413.867c0-4.719-3.814-8.533-8.533-8.533h-16.324c-4.719,0-8.533,3.814-8.533,8.533
				c0,4.719,3.814,8.533,8.533,8.533h16.324C168.061,422.4,171.875,418.586,171.875,413.867z"/>
			<path d="M132.125,490.667h-16.316c-4.719,0-8.533,3.814-8.533,8.533s3.814,8.533,8.533,8.533h16.316
				c4.719,0,8.533-3.814,8.533-8.533S136.844,490.667,132.125,490.667z"/>
			<path d="M181.092,490.667h-16.316c-4.719,0-8.533,3.814-8.533,8.533s3.814,8.533,8.533,8.533h16.316
				c4.719,0,8.533-3.814,8.533-8.533S185.811,490.667,181.092,490.667z"/>
			<path d="M220.675,411.742c-0.828-4.634-5.171-7.723-9.882-6.929c-1.98,0.35-3.994,0.521-5.99,0.521h-8.823
				c-4.71,0-8.533,3.814-8.533,8.533c0,4.719,3.823,8.533,8.533,8.533h8.823c2.978,0,5.99-0.256,8.943-0.777
				C218.38,420.804,221.486,416.384,220.675,411.742z"/>
			<path d="M93.867,320c-4.719,0-8.533,3.814-8.533,8.533s3.814,8.533,8.533,8.533h8.533c4.719,0,8.533-3.814,8.533-8.533
				S107.119,320,102.4,320H93.867z"/>
			<path d="M93.867,132.267c18.825,0,34.133-15.309,34.133-34.133C128,79.309,112.691,64,93.867,64
				c-18.825,0-34.133,15.309-34.133,34.133C59.733,116.958,75.042,132.267,93.867,132.267z"/>
			<path d="M86.699,299.563c1.579,2.44,4.275,3.9,7.168,3.9c2.893,0,5.589-1.459,7.168-3.9c0.393-0.606,39.68-61.525,65.647-117.547
				c13.124-28.314,21.052-45.406,21.052-76.425c0-49.809-35.106-101.325-93.867-101.325C35.106,4.267,0,55.782,0,105.591
				c0,31.019,7.927,48.111,21.052,76.425C47.019,238.037,86.306,298.957,86.699,299.563z M93.867,46.933
				c28.237,0,51.2,22.963,51.2,51.2c0,28.237-22.963,51.2-51.2,51.2c-28.237,0-51.2-22.963-51.2-51.2
				C42.667,69.897,65.63,46.933,93.867,46.933z"/>
			<path d="M418.133,234.667c-18.825,0-34.133,15.309-34.133,34.133s15.309,34.133,34.133,34.133s34.133-15.309,34.133-34.133
				S436.958,234.667,418.133,234.667z"/>
			<path d="M418.133,174.933c-58.761,0-93.867,51.516-93.867,101.325c0,31.019,7.927,48.111,21.052,76.425
				c25.967,56.021,65.254,116.941,65.647,117.547c1.579,2.441,4.275,3.9,7.168,3.9s5.589-1.459,7.168-3.9
				c0.393-0.606,39.68-61.525,65.647-117.547C504.073,324.369,512,307.277,512,276.258C512,226.449,476.894,174.933,418.133,174.933
				z M418.133,320c-28.237,0-51.2-22.963-51.2-51.2s22.963-51.2,51.2-51.2c28.237,0,51.2,22.963,51.2,51.2S446.37,320,418.133,320z"
				/>
		</g>
	</g>
</g>>
</svg>
