<svg xmlns="http://www.w3.org/2000/svg" xmlns:xlink="http://www.w3.org/1999/xlink" width="24" height="24" preserveAspectRatio="xMidYMid meet" viewBox="0 0 24 24" style="-ms-transform: rotate(360deg); -webkit-transform: rotate(360deg); transform: rotate(360deg);"><path d="M13.5 5.5c1.09 0 2-.92 2-2a2 2 0 0 0-2-2c-1.11 0-2 .88-2 2c0 1.08.89 2 2 2M9.89 19.38l1-4.38L13 17v6h2v-7.5l-2.11-2l.61-3A7.29 7.29 0 0 0 19 13v-2c-1.91 0-3.5-1-4.31-2.42l-1-1.58c-.4-.62-1-1-1.69-1c-.31 0-.5.08-.81.08L6 8.28V13h2V9.58l1.79-.7L8.19 17l-4.9-1l-.4 2l7 1.38z" fill="param(fill) #000" opacity="param(fill-opacity)" stroke="param(outline) 0" stroke-width="param(outline-width) 0" stroke-opacity="param(outline-opacity)"/></svg>
