<svg xmlns="http://www.w3.org/2000/svg" xmlns:xlink="http://www.w3.org/1999/xlink" width="24" height="24" preserveAspectRatio="xMidYMid meet" viewBox="0 0 24 24" style="-ms-transform: rotate(360deg); -webkit-transform: rotate(360deg); transform: rotate(360deg);"><path d="M12 3c-1.27 0-2.4.8-2.82 2H3v2h1.95L2 14c-.47 2 1 3 3.5 3s4.06-1 3.5-3L6.05 7h3.12c.33.85.98 1.5 1.83 1.83V20H2v2h20v-2h-9V8.82c.85-.32 1.5-.97 1.82-1.82h3.13L15 14c-.47 2 1 3 3.5 3s4.06-1 3.5-3l-2.95-7H21V5h-6.17C14.4 3.8 13.27 3 12 3m0 2a1 1 0 0 1 1 1a1 1 0 0 1-1 1a1 1 0 0 1-1-1a1 1 0 0 1 1-1m-6.5 5.25L7 14H4l1.5-3.75m13 0L20 14h-3l1.5-3.75z" fill="param(fill) #000" opacity="param(fill-opacity)" stroke="param(outline) 0" stroke-width="param(outline-width) 0" stroke-opacity="param(outline-opacity)"/></svg>
