<svg xmlns="http://www.w3.org/2000/svg" xmlns:xlink="http://www.w3.org/1999/xlink" width="24" height="24" preserveAspectRatio="xMidYMid meet" viewBox="0 0 24 24" style="-ms-transform: rotate(360deg); -webkit-transform: rotate(360deg); transform: rotate(360deg);"><path d="M12 1L3 5v6c0 5.55 3.84 10.74 9 12c5.16-1.26 9-6.45 9-12V5l-9-4m0 4.68c.5 0 .95.43.95.95v3.48L18 13.26v1.27l-5.05-1.58v3.47l1.26.95v.95L12 17.68l-2.21.64v-.95l1.26-.95v-3.47L6 14.53v-1.27l5.05-3.15V6.63c0-.52.45-.95.95-.95z" fill="param(fill) #000" opacity="param(fill-opacity)" stroke="param(outline) 0" stroke-width="param(outline-width) 0" stroke-opacity="param(outline-opacity)"/></svg>
