<svg xmlns="http://www.w3.org/2000/svg" xmlns:xlink="http://www.w3.org/1999/xlink" width="24" height="24" preserveAspectRatio="xMidYMid meet" viewBox="0 0 24 24" style="-ms-transform: rotate(360deg); -webkit-transform: rotate(360deg); transform: rotate(360deg);"><path d="M15 1.2c1 0 1.8.8 1.8 1.8S16 4.8 15 4.8S13.2 4 13.2 3S14 1.2 15 1.2M11 23v-1.3H9.3l2.4-6.8L14 18v3.7h-1V23h7v-1.3h-4.2v-5.2L13.3 12l.7-2.8l1.1 1.8H20V9.1h-3.6l-2-3.3c-.3-.5-.9-.8-1.5-.8c-.2 0-.3.1-.5.1L7 6.8V12h1.8V8.3l2.2-.6l-3.6 14H4V23" fill="param(fill) #000" opacity="param(fill-opacity)" stroke="param(outline) 0" stroke-width="param(outline-width) 0" stroke-opacity="param(outline-opacity)"/></svg>
