<svg xmlns="http://www.w3.org/2000/svg" xmlns:xlink="http://www.w3.org/1999/xlink" width="24" height="24" preserveAspectRatio="xMidYMid meet" viewBox="0 0 24 24" style="-ms-transform: rotate(360deg); -webkit-transform: rotate(360deg); transform: rotate(360deg);"><path d="M2 22v-2s5-2 10-2s10 2 10 2v2H2m9.3-12.9c-1.2-3.9-7.3-3-7.3-3s.2 7.8 5.9 6.6C9.5 9.8 8 9 8 9c2.8 0 3 3.4 3 3.4V17h2v-4.2s0-3.9 3-4.9c0 0-2 3-2 5c7 .7 7-8.9 7-8.9s-8.9-1-9.7 5.1z" fill="param(fill) #000" opacity="param(fill-opacity)" stroke="param(outline) 0" stroke-width="param(outline-width) 0" stroke-opacity="param(outline-opacity)"/></svg>
