<svg xmlns="http://www.w3.org/2000/svg" xmlns:xlink="http://www.w3.org/1999/xlink" width="24" height="24" preserveAspectRatio="xMidYMid meet" viewBox="0 0 24 24" style="-ms-transform: rotate(360deg); -webkit-transform: rotate(360deg); transform: rotate(360deg);"><path d="M8.58 17.25l.92-3.89l-3-2.58l3.95-.37L12 6.8l1.55 3.65l3.95.33l-3 2.58l.92 3.89L12 15.19l-3.42 2.06M12 2a10 10 0 0 1 10 10a10 10 0 0 1-10 10A10 10 0 0 1 2 12A10 10 0 0 1 12 2m0 2a8 8 0 0 0-8 8a8 8 0 0 0 8 8a8 8 0 0 0 8-8a8 8 0 0 0-8-8z" fill="param(fill) #000" opacity="param(fill-opacity)" stroke="param(outline) 0" stroke-width="param(outline-width) 0" stroke-opacity="param(outline-opacity)"/></svg>
