<svg xmlns="http://www.w3.org/2000/svg" xmlns:xlink="http://www.w3.org/1999/xlink" width="24" height="24" preserveAspectRatio="xMidYMid meet" viewBox="0 0 24 24" style="-ms-transform: rotate(360deg); -webkit-transform: rotate(360deg); transform: rotate(360deg);"><path d="M18 11h-5V6h5m-1.5 11a1.5 1.5 0 0 1-1.5-1.5a1.5 1.5 0 0 1 1.5-1.5a1.5 1.5 0 0 1 1.5 1.5a1.5 1.5 0 0 1-1.5 1.5M11 11H6V6h5M7.5 17A1.5 1.5 0 0 1 6 15.5A1.5 1.5 0 0 1 7.5 14A1.5 1.5 0 0 1 9 15.5A1.5 1.5 0 0 1 7.5 17M12 2c-4.42 0-8 .5-8 4v9.5A3.5 3.5 0 0 0 7.5 19L6 20.5v.5h12v-.5L16.5 19a3.5 3.5 0 0 0 3.5-3.5V6c0-3.5-3.58-4-8-4z" fill="param(fill) #000" opacity="param(fill-opacity)" stroke="param(outline) 0" stroke-width="param(outline-width) 0" stroke-opacity="param(outline-opacity)"/></svg>
