<svg xmlns="http://www.w3.org/2000/svg" xmlns:xlink="http://www.w3.org/1999/xlink" width="24" height="24" preserveAspectRatio="xMidYMid meet" viewBox="0 0 24 24" style="-ms-transform: rotate(360deg); -webkit-transform: rotate(360deg); transform: rotate(360deg);"><path d="M18.5 14c1.4 0 2.5 1.1 2.5 2.5S19.9 19 18.5 19S16 17.9 16 16.5s1.1-2.5 2.5-2.5M7 15s1 1 1 2v3.5c0 .8.7 1.5 1.5 1.5s1.5-.7 1.5-1.5V17c0-1 1-2 1-2H7m1-1h3s5 0 5-5s-4-7-6.5-7S3 4 3 9s5 5 5 5z" fill="param(fill) #000" opacity="param(fill-opacity)" stroke="param(outline) 0" stroke-width="param(outline-width) 0" stroke-opacity="param(outline-opacity)"/></svg>
