<svg xmlns="http://www.w3.org/2000/svg" xmlns:xlink="http://www.w3.org/1999/xlink" width="24" height="24" preserveAspectRatio="xMidYMid meet" viewBox="0 0 24 24" style="-ms-transform: rotate(360deg); -webkit-transform: rotate(360deg); transform: rotate(360deg);"><path d="M20 12H4v-1h2l1-5h5l1 5h7v1m-6.78-5l.4 2H22V7h-8.78M22 16a3 3 0 0 1-3 3H5a3 3 0 0 1-3-3a3 3 0 0 1 3-3h14a3 3 0 0 1 3 3M6 16a1 1 0 0 0-1-1a1 1 0 0 0-1 1a1 1 0 0 0 1 1a1 1 0 0 0 1-1m7 0a1 1 0 0 0-1-1a1 1 0 0 0-1 1a1 1 0 0 0 1 1a1 1 0 0 0 1-1m7 0a1 1 0 0 0-1-1a1 1 0 0 0-1 1a1 1 0 0 0 1 1a1 1 0 0 0 1-1z" fill="param(fill) #000" opacity="param(fill-opacity)" stroke="param(outline) 0" stroke-width="param(outline-width) 0" stroke-opacity="param(outline-opacity)"/></svg>
