<svg xmlns="http://www.w3.org/2000/svg" xmlns:xlink="http://www.w3.org/1999/xlink" width="24" height="24" preserveAspectRatio="xMidYMid meet" viewBox="0 0 24 24" style="-ms-transform: rotate(360deg); -webkit-transform: rotate(360deg); transform: rotate(360deg);"><path d="M12 2c2.5 0 4.75.9 6.5 2.4A9.982 9.982 0 0 0 15 12c0 3.04 1.36 5.77 3.5 7.6c-1.75 1.5-4 2.4-6.5 2.4s-4.75-.9-6.5-2.4A9.982 9.982 0 0 0 9 12c0-3.04-1.36-5.77-3.5-7.6C7.25 2.9 9.5 2 12 2m10 10c0 2.32-.79 4.45-2.12 6.15A7.994 7.994 0 0 1 17 12c0-2.47 1.12-4.68 2.88-6.15A9.936 9.936 0 0 1 22 12M2 12c0-2.32.79-4.45 2.12-6.15A7.994 7.994 0 0 1 7 12c0 2.47-1.12 4.68-2.88 6.15A9.936 9.936 0 0 1 2 12z" fill="param(fill) #000" opacity="param(fill-opacity)" stroke="param(outline) 0" stroke-width="param(outline-width) 0" stroke-opacity="param(outline-opacity)"/></svg>
