<svg xmlns="http://www.w3.org/2000/svg" xmlns:xlink="http://www.w3.org/1999/xlink" width="24" height="24" preserveAspectRatio="xMidYMid meet" viewBox="0 0 24 24" style="-ms-transform: rotate(360deg); -webkit-transform: rotate(360deg); transform: rotate(360deg);"><path d="M9 22h8v-2.5c2.41-1.63 4-4.38 4-7.5V4a2 2 0 0 0-2-2h-4a2 2 0 0 0-2 2v8H3c0 3.09 2 6 6 7.5V22m-3.71-8h13.42A7.017 7.017 0 0 1 15 18.33V20h-4v-1.67C9 18 5.86 15.91 5.29 14M15 4h4v8h-4V4m1 1v3h2V5h-2z" fill="param(fill) #000" opacity="param(fill-opacity)" stroke="param(outline) 0" stroke-width="param(outline-width) 0" stroke-opacity="param(outline-opacity)"/></svg>
