<svg xmlns="http://www.w3.org/2000/svg" xmlns:xlink="http://www.w3.org/1999/xlink" width="24" height="24" preserveAspectRatio="xMidYMid meet" viewBox="0 0 24 24" style="-ms-transform: rotate(360deg); -webkit-transform: rotate(360deg); transform: rotate(360deg);"><path d="M18 10H6V5h12m-6 12a2 2 0 0 1-2-2c0-1.11.89-2 2-2a2 2 0 0 1 2 2a2 2 0 0 1-2 2m-8-1.5A3.5 3.5 0 0 0 7.5 19L6 20.5v.5h12v-.5L16.5 19a3.5 3.5 0 0 0 3.5-3.5V5c0-3.5-3.58-4-8-4s-8 .5-8 4v10.5z" fill="param(fill) #000" opacity="param(fill-opacity)" stroke="param(outline) 0" stroke-width="param(outline-width) 0" stroke-opacity="param(outline-opacity)"/></svg>
