<svg xmlns="http://www.w3.org/2000/svg" xmlns:xlink="http://www.w3.org/1999/xlink" width="24" height="24" preserveAspectRatio="xMidYMid meet" viewBox="0 0 24 24" style="-ms-transform: rotate(360deg); -webkit-transform: rotate(360deg); transform: rotate(360deg);"><path d="M12 4H5a3 3 0 0 0-3 3v8a3 3 0 0 0 3 3l-1 1v1h1l2-2.03L9 18v-5H4V6h9v2h2V7a3 3 0 0 0-3-3M5 14a1 1 0 0 1 1 1a1 1 0 0 1-1 1a1 1 0 0 1-1-1a1 1 0 0 1 1-1m15.57-4.34c-.14-.4-.52-.66-.97-.66h-7.19c-.46 0-.83.26-.98.66L10 13.77v5.51c0 .38.32.72.7.72h.62c.38 0 .68-.38.68-.76V18h8v1.24c0 .38.31.76.69.76h.61c.38 0 .7-.34.7-.72v-5.51l-1.43-4.11m-8.16.34h7.19l1.03 3h-9.25l1.03-3M12 16a1 1 0 0 1-1-1a1 1 0 0 1 1-1a1 1 0 0 1 1 1a1 1 0 0 1-1 1m8 0a1 1 0 0 1-1-1a1 1 0 0 1 1-1a1 1 0 0 1 1 1a1 1 0 0 1-1 1z" fill="param(fill) #000" opacity="param(fill-opacity)" stroke="param(outline) 0" stroke-width="param(outline-width) 0" stroke-opacity="param(outline-opacity)"/></svg>
