<svg xmlns="http://www.w3.org/2000/svg" xmlns:xlink="http://www.w3.org/1999/xlink" width="24" height="24" preserveAspectRatio="xMidYMid meet" viewBox="0 0 24 24" style="-ms-transform: rotate(360deg); -webkit-transform: rotate(360deg); transform: rotate(360deg);"><path d="M8.28 5.45l-1.78-.9L7.76 2h8.47l1.27 2.55l-1.78.89L15 4H9l-.72 1.45M18.62 8h-4.53l-.79-3h-2.6l-.79 3H5.38L4.1 10.55l1.79.89l.73-1.44h10.76l.72 1.45l1.79-.89L18.62 8m-.85 14H15.7l-.24-.9L12 15.9l-3.47 5.2l-.23.9H6.23l2.89-11h2.07l-.36 1.35L12 14.1l1.16-1.75l-.35-1.35h2.07l2.89 11m-6.37-7l-.9-1.35l-1.18 4.48L11.4 15m3.28 3.12l-1.18-4.48l-.9 1.36l2.08 3.12z" fill="param(fill) #000" opacity="param(fill-opacity)" stroke="param(outline) 0" stroke-width="param(outline-width) 0" stroke-opacity="param(outline-opacity)"/></svg>
