<svg xmlns="http://www.w3.org/2000/svg" xmlns:xlink="http://www.w3.org/1999/xlink" width="24" height="24" preserveAspectRatio="xMidYMid meet" viewBox="0 0 24 24" style="-ms-transform: rotate(360deg); -webkit-transform: rotate(360deg); transform: rotate(360deg);"><path d="M21 5H3a1 1 0 0 1-1-1a1 1 0 0 1 1-1h18a1 1 0 0 1 1 1a1 1 0 0 1-1 1m-1 3a1 1 0 0 0-1-1H5a1 1 0 0 0-1 1a1 1 0 0 0 1 1h14a1 1 0 0 0 1-1m1 4a1 1 0 0 0-1-1H10a1 1 0 0 0-1 1a1 1 0 0 0 1 1h10a1 1 0 0 0 1-1m-5 4a1 1 0 0 0-1-1H9a1 1 0 0 0-1 1a1 1 0 0 0 1 1h6a1 1 0 0 0 1-1m-3 4a1 1 0 0 0-1-1h-2a1 1 0 0 0-1 1a1 1 0 0 0 1 1h2a1 1 0 0 0 1-1z" fill="param(fill) #000" opacity="param(fill-opacity)" stroke="param(outline) 0" stroke-width="param(outline-width) 0" stroke-opacity="param(outline-opacity)"/></svg>