<svg xmlns="http://www.w3.org/2000/svg" xmlns:xlink="http://www.w3.org/1999/xlink" width="24" height="24" preserveAspectRatio="xMidYMid meet" viewBox="0 0 24 24" style="-ms-transform: rotate(360deg); -webkit-transform: rotate(360deg); transform: rotate(360deg);"><path d="M6 7l.69.06A5.499 5.499 0 0 1 12 3a5.5 5.5 0 0 1 5.5 5.5l-.08.95c.46-.29 1-.45 1.58-.45a3 3 0 0 1 3 3a3 3 0 0 1-3 3H6a4 4 0 0 1-4-4a4 4 0 0 1 4-4m0 2a2 2 0 0 0-2 2a2 2 0 0 0 2 2h13a1 1 0 0 0 1-1a1 1 0 0 0-1-1h-3.5V8.5A3.5 3.5 0 0 0 12 5a3.5 3.5 0 0 0-3.5 3.5V9H6m16 10l-3 3v-2H2v-2h17v-2l3 3" fill="param(fill) #000" opacity="param(fill-opacity)" stroke="param(outline) 0" stroke-width="param(outline-width) 0" stroke-opacity="param(outline-opacity)"/></svg>
