<svg xmlns="http://www.w3.org/2000/svg" xmlns:xlink="http://www.w3.org/1999/xlink" width="24" height="24" preserveAspectRatio="xMidYMid meet" viewBox="0 0 24 24" style="-ms-transform: rotate(360deg); -webkit-transform: rotate(360deg); transform: rotate(360deg);"><path d="M8.5 9A6.5 6.5 0 0 0 2 15.5A6.5 6.5 0 0 0 8.5 22a6.5 6.5 0 0 0 6.5-6.5v-1.59L22 12V9H11v2H9V9h-.5M11 2v5H9V2h2M6.35 7.28c-.67.16-1.31.4-1.92.72L2.14 4.88L3.76 3.7l2.59 3.58m11.51-2.4L16.32 7h-2.47l2.39-3.3l1.62 1.18z" fill="param(fill) #000" opacity="param(fill-opacity)" stroke="param(outline) 0" stroke-width="param(outline-width) 0" stroke-opacity="param(outline-opacity)"/></svg>